<svg viewBox="0 0 1440 912" xmlns="http://www.w3.org/2000/svg" font-family="'Plus Jakarta Sans','Inter','Segoe UI',system-ui,sans-serif" role="img" aria-labelledby="t">
  <title id="t">Squibbon — Compliance dashboard</title>
  <defs>
    <filter id="sh" x="-6%" y="-10%" width="112%" height="124%"><feDropShadow dx="0" dy="3" stdDeviation="6" flood-color="#2A3547" flood-opacity="0.07"/></filter>
    <g id="ic-grid" fill="none" stroke="currentColor" stroke-width="1.6"><rect x="3" y="3" width="6" height="6" rx="1.5"/><rect x="11" y="3" width="6" height="6" rx="1.5"/><rect x="3" y="11" width="6" height="6" rx="1.5"/><rect x="11" y="11" width="6" height="6" rx="1.5"/></g>
    <g id="ic-shield" fill="none" stroke="currentColor" stroke-width="1.6" stroke-linejoin="round" stroke-linecap="round"><path d="M10 2.5 L16.5 5 V10 C16.5 13.8 13.6 16.4 10 17.6 C6.4 16.4 3.5 13.8 3.5 10 V5 Z"/><path d="M7.1 10 l1.9 1.9 3.9-4"/></g>
    <g id="ic-clip" fill="none" stroke="currentColor" stroke-width="1.6" stroke-linejoin="round" stroke-linecap="round"><rect x="4.5" y="3.5" width="11" height="13.5" rx="2"/><rect x="7.5" y="2" width="5" height="3" rx="1"/><path d="M7.2 9 h5.6 M7.2 12 h5.6"/></g>
    <g id="ic-cal" fill="none" stroke="currentColor" stroke-width="1.6" stroke-linejoin="round" stroke-linecap="round"><rect x="3.5" y="4.5" width="13" height="12" rx="2"/><path d="M3.5 8 h13 M7 3 v3 M13 3 v3"/></g>
    <g id="ic-gauge" fill="none" stroke="currentColor" stroke-width="1.6" stroke-linecap="round"><path d="M3.6 14.4 a6.4 6.4 0 1 1 12.8 0"/><path d="M10 14.4 l3.2-3.4"/><circle cx="10" cy="14.4" r="1" fill="currentColor" stroke="none"/></g>
    <g id="ic-file" fill="none" stroke="currentColor" stroke-width="1.6" stroke-linejoin="round"><path d="M6 2.8 h5 l4 4 v10.4 a1 1 0 0 1-1 1 H6 a1 1 0 0 1-1-1 V3.8 a1 1 0 0 1 1-1z"/><path d="M11 2.8 v4 h4"/></g>
    <g id="ic-refresh" fill="none" stroke="currentColor" stroke-width="1.6" stroke-linecap="round" stroke-linejoin="round"><path d="M16.5 8 A6.5 6.5 0 1 0 17 11.5"/><path d="M16.5 3.5 V8 H12"/></g>
    <g id="ic-alert" fill="none" stroke="currentColor" stroke-width="1.6" stroke-linejoin="round" stroke-linecap="round"><path d="M10 3.4 L17 16 H3 Z"/><path d="M10 8 v3.4"/><circle cx="10" cy="13.6" r="0.5" fill="currentColor" stroke="none"/></g>
    <g id="ic-truck" fill="none" stroke="currentColor" stroke-width="1.6" stroke-linejoin="round" stroke-linecap="round"><path d="M2.5 6 h8 v7 h-8 z"/><path d="M10.5 8.5 h3.2 l2.4 2.3 v2.2 h-5.6 z"/><circle cx="6" cy="15" r="1.5"/><circle cx="13.7" cy="15" r="1.5"/></g>
    <g id="ic-building" fill="none" stroke="currentColor" stroke-width="1.6" stroke-linejoin="round"><rect x="4.5" y="3.5" width="11" height="14" rx="1.2"/><path d="M7.5 7 h1 M11.5 7 h1 M7.5 10 h1 M11.5 10 h1"/><path d="M8.5 17.5 v-3 h3 v3"/></g>
    <g id="ic-chart" fill="none" stroke="currentColor" stroke-width="1.6" stroke-linejoin="round" stroke-linecap="round"><path d="M3 16.5 h14"/><rect x="4.5" y="9" width="2.6" height="5.5"/><rect x="8.7" y="6" width="2.6" height="8.5"/><rect x="12.9" y="11" width="2.6" height="3.5"/></g>
    <g id="ic-slider" fill="none" stroke="currentColor" stroke-width="1.6" stroke-linecap="round"><path d="M3 7 h14 M3 13 h14"/><circle cx="8" cy="7" r="1.9" fill="#fff"/><circle cx="13" cy="13" r="1.9" fill="#fff"/></g>
    <g id="ic-user" fill="none" stroke="currentColor" stroke-width="1.6" stroke-linecap="round"><circle cx="10" cy="7" r="3.2"/><path d="M4.5 16.5 a5.5 5.5 0 0 1 11 0"/></g>
    <g id="ic-clock" fill="none" stroke="currentColor" stroke-width="1.6" stroke-linecap="round" stroke-linejoin="round"><circle cx="10" cy="10" r="7"/><path d="M10 6 v4 l2.6 1.6"/></g>
    <g id="ic-ban" fill="none" stroke="currentColor" stroke-width="1.6" stroke-linecap="round"><circle cx="10" cy="10" r="7"/><path d="M5 5 l10 10"/></g>
    <g id="ic-check" fill="none" stroke="currentColor" stroke-width="1.8" stroke-linecap="round" stroke-linejoin="round"><path d="M4 10.5 l3.6 3.6 L16 6"/></g>
    <g id="ic-search" fill="none" stroke="currentColor" stroke-width="1.7" stroke-linecap="round"><circle cx="9" cy="9" r="5.5"/><path d="M13.2 13.2 L17.2 17.2"/></g>
    <g id="ic-bell" fill="none" stroke="currentColor" stroke-width="1.6" stroke-linejoin="round" stroke-linecap="round"><path d="M10 3 a4.6 4.6 0 0 1 4.6 4.6 c0 4 1.4 5.4 1.4 5.4 h-12 s1.4-1.4 1.4-5.4 a4.6 4.6 0 0 1 4.6-4.6z"/><path d="M8.3 16 a1.8 1.8 0 0 0 3.4 0"/></g>
    <g id="ic-menu" fill="none" stroke="currentColor" stroke-width="1.8" stroke-linecap="round"><path d="M3 6 h16 M3 11 h16 M3 16 h16"/></g>
    <g id="ic-plus" fill="none" stroke="currentColor" stroke-width="1.8" stroke-linecap="round"><path d="M10 4 V16 M4 10 H16"/></g>
  </defs>
  <style>
    .navi{fill:#5A6A85;font-weight:500}
    .col{fill:#8A95A5;font-weight:600;letter-spacing:.4px}
    .h{fill:#2A3547;font-weight:600}.sub{fill:#5A6A85;font-weight:400}.lbl{fill:#5A6A85;font-weight:500}
    .num{fill:#2A3547;font-weight:700}.cell{fill:#2A3547;font-weight:500}.mut{fill:#8A95A5;font-weight:500}.lnk{fill:#c479c2;font-weight:600}.pill{font-weight:600}
  </style>

  <rect width="1440" height="912" fill="#F4F6FB"/>
  <rect x="0" y="0" width="256" height="912" fill="#FFFFFF"/>
  <line x1="256" y1="0" x2="256" y2="912" stroke="#ECEFF4"/>
  <rect x="24" y="21" width="30" height="30" rx="8" fill="#c479c2"/>
  <text x="39" y="42" font-size="17" font-weight="700" fill="#FFFFFF" text-anchor="middle">S</text>
  <text x="66" y="42" font-size="19" font-weight="700" fill="#2A3547">Squibbon</text>

  <text x="24" y="90" class="col" font-size="11">DASHBOARDS</text>
  <g style="color:#5A6A85"><use href="#ic-grid" x="22" y="102" width="18" height="18"/></g><text x="50" y="116" class="navi" font-size="12.5">Dashboard</text>
  <text x="24" y="142" class="col" font-size="11">MAINTENANCE</text>
  <rect x="12" y="150" width="232" height="26" rx="7" fill="#FFEBFE"/>
  <g style="color:#c479c2"><use href="#ic-shield" x="22" y="154" width="18" height="18"/></g><text x="50" y="168" font-size="12.5" font-weight="600" fill="#c479c2">Compliance dashboard</text>
  <g style="color:#5A6A85"><use href="#ic-clip" x="22" y="184" width="18" height="18"/></g><text x="50" y="198" class="navi" font-size="12.5">DriveON · Ontario</text>
  <g style="color:#5A6A85"><use href="#ic-clip" x="22" y="214" width="18" height="18"/></g><text x="50" y="228" class="navi" font-size="12.5">SAAQ · Quebec</text>
  <g style="color:#5A6A85"><use href="#ic-clip" x="22" y="244" width="18" height="18"/></g><text x="50" y="258" class="navi" font-size="12.5">NSC inspections</text>
  <g style="color:#5A6A85"><use href="#ic-clip" x="22" y="274" width="18" height="18"/></g><text x="50" y="288" class="navi" font-size="12.5">Circle checks</text>
  <g style="color:#5A6A85"><use href="#ic-cal" x="22" y="304" width="18" height="18"/></g><text x="50" y="318" class="navi" font-size="12.5">Preventive maintenance</text>
  <g style="color:#5A6A85"><use href="#ic-gauge" x="22" y="334" width="18" height="18"/></g><text x="50" y="348" class="navi" font-size="12.5">Meter readings</text>
  <g style="color:#5A6A85"><use href="#ic-file" x="22" y="364" width="18" height="18"/></g><text x="50" y="378" class="navi" font-size="12.5">Credentials &amp; docs</text>
  <g style="color:#5A6A85"><use href="#ic-refresh" x="22" y="394" width="18" height="18"/></g><text x="50" y="408" class="navi" font-size="12.5">Recalls &amp; warranty</text>
  <g style="color:#5A6A85"><use href="#ic-alert" x="22" y="424" width="18" height="18"/></g><text x="50" y="438" class="navi" font-size="12.5">Defects &amp; repairs</text>
  <g style="color:#5A6A85"><use href="#ic-truck" x="22" y="454" width="18" height="18"/></g><text x="50" y="468" class="navi" font-size="12.5">Equipment</text>
  <g style="color:#5A6A85"><use href="#ic-building" x="22" y="484" width="18" height="18"/></g><text x="50" y="498" class="navi" font-size="12.5">Carrier · CVOR/PEVL</text>
  <g style="color:#5A6A85"><use href="#ic-chart" x="22" y="514" width="18" height="18"/></g><text x="50" y="528" class="navi" font-size="12.5">Compliance reports</text>
  <text x="24" y="552" class="col" font-size="11">SETTINGS</text>
  <g style="color:#5A6A85"><use href="#ic-slider" x="22" y="564" width="18" height="18"/></g><text x="50" y="578" class="navi" font-size="12.5">Compliance settings</text>
  <g style="color:#5A6A85"><use href="#ic-user" x="22" y="594" width="18" height="18"/></g><text x="50" y="608" class="navi" font-size="12.5">Roles &amp; access</text>

  <rect x="256" y="0" width="1184" height="72" fill="#FFFFFF"/>
  <line x1="256" y1="72" x2="1440" y2="72" stroke="#ECEFF4"/>
  <g style="color:#5A6A85"><use href="#ic-menu" x="282" y="26" width="20" height="20"/></g>
  <rect x="324" y="18" width="300" height="36" rx="18" fill="#F4F6FB"/>
  <g style="color:#8A95A5"><use href="#ic-search" x="340" y="27" width="18" height="18"/></g>
  <text x="366" y="41" font-size="12.5" fill="#9AA4B2">Search unit, plate or VIN…</text>
  <rect x="1108" y="17" width="170" height="38" rx="8" fill="#c479c2"/>
  <g style="color:#FFFFFF"><use href="#ic-plus" x="1124" y="28" width="16" height="16"/></g>
  <text x="1148" y="41" font-size="12.5" font-weight="600" fill="#FFFFFF">Record inspection</text>
  <g style="color:#5A6A85"><use href="#ic-bell" x="1300" y="26" width="20" height="20"/></g>
  <circle cx="1317" cy="27" r="4" fill="#FA5A5A"/>
  <text x="1368" y="33" font-size="12.5" font-weight="600" fill="#2A3547" text-anchor="end">T. Hopper</text>
  <text x="1368" y="47" font-size="10.5" fill="#8A95A5" text-anchor="end">Maintenance</text>
  <circle cx="1392" cy="36" r="16" fill="#FFEBFE"/>
  <text x="1392" y="40" font-size="12" font-weight="700" fill="#c479c2" text-anchor="middle">TH</text>

  <text x="280" y="118" font-size="22" font-weight="700" fill="#2A3547">Compliance dashboard</text>
  <text x="280" y="140" font-size="13" fill="#5A6A85">Inspection, maintenance &amp; dispatch readiness across Ontario, Quebec &amp; National Safety Code</text>
  <rect x="1108" y="100" width="308" height="34" rx="8" fill="#EEF1F6"/>
  <rect x="1112" y="104" width="86" height="26" rx="6" fill="#FFFFFF"/>
  <text x="1155" y="121" font-size="12" font-weight="600" fill="#c479c2" text-anchor="middle">All</text>
  <text x="1240" y="121" font-size="12" font-weight="500" fill="#5A6A85" text-anchor="middle">Ontario</text>
  <text x="1320" y="121" font-size="12" font-weight="500" fill="#5A6A85" text-anchor="middle">Quebec</text>
  <text x="1392" y="121" font-size="12" font-weight="500" fill="#5A6A85" text-anchor="middle">NSC</text>

  <g font-size="12">
  <rect x="280" y="158" width="176" height="96" rx="12" fill="#FFFFFF" stroke="#ECEFF4" filter="url(#sh)"/>
  <text x="296" y="194" class="lbl">Fleet compliant</text><rect x="402" y="172" width="34" height="34" rx="9" fill="#E6FBF5"/><g style="color:#13B89B"><use href="#ic-shield" x="409" y="179" width="20" height="20"/></g>
  <text x="296" y="228" class="num" font-size="24">86%</text><text x="296" y="246" font-size="11" font-weight="600" fill="#0F9C96">248 / 288 units</text>
  <rect x="472" y="158" width="176" height="96" rx="12" fill="#FFFFFF" stroke="#ECEFF4" filter="url(#sh)"/>
  <text x="488" y="194" class="lbl">Expiring soon</text><rect x="594" y="172" width="34" height="34" rx="9" fill="#FEF4E6"/><g style="color:#E0941A"><use href="#ic-clock" x="601" y="179" width="20" height="20"/></g>
  <text x="488" y="228" class="num" font-size="24">23</text><text x="488" y="246" font-size="11" font-weight="600" fill="#A8720F">next 30 days</text>
  <rect x="664" y="158" width="176" height="96" rx="12" fill="#FFFFFF" stroke="#ECEFF4" filter="url(#sh)"/>
  <text x="680" y="194" class="lbl">Expired / failed</text><rect x="786" y="172" width="34" height="34" rx="9" fill="#FDECEC"/><g style="color:#E25C5C"><use href="#ic-alert" x="793" y="179" width="20" height="20"/></g>
  <text x="680" y="228" class="num" font-size="24">9</text><text x="680" y="246" font-size="11" font-weight="600" fill="#C0392B">needs action</text>
  <rect x="856" y="158" width="176" height="96" rx="12" fill="#FFFFFF" stroke="#ECEFF4" filter="url(#sh)"/>
  <text x="872" y="194" class="lbl">Major defects</text><rect x="978" y="172" width="34" height="34" rx="9" fill="#FBEEE8"/><g style="color:#D25A36"><use href="#ic-alert" x="985" y="179" width="20" height="20"/></g>
  <text x="872" y="228" class="num" font-size="24">5</text><text x="872" y="246" font-size="11" font-weight="600" fill="#9E4221">blocking</text>
  <rect x="1048" y="158" width="176" height="96" rx="12" fill="#FFFFFF" stroke="#ECEFF4" filter="url(#sh)"/>
  <text x="1064" y="194" class="lbl">Out of service</text><rect x="1170" y="172" width="34" height="34" rx="9" fill="#EEF1F6"/><g style="color:#5A6A85"><use href="#ic-ban" x="1177" y="179" width="20" height="20"/></g>
  <text x="1064" y="228" class="num" font-size="24">4</text><text x="1064" y="246" font-size="11" font-weight="600" fill="#5A6A85">in repair</text>
  <rect x="1240" y="158" width="176" height="96" rx="12" fill="#FFFFFF" stroke="#ECEFF4" filter="url(#sh)"/>
  <text x="1256" y="194" class="lbl">PM / PMP due</text><rect x="1362" y="172" width="34" height="34" rx="9" fill="#EAF2FE"/><g style="color:#3F87E0"><use href="#ic-cal" x="1369" y="179" width="20" height="20"/></g>
  <text x="1256" y="228" class="num" font-size="24">17</text><text x="1256" y="246" font-size="11" font-weight="600" fill="#1A5FB4">this week</text>
  </g>

  <rect x="280" y="270" width="360" height="240" rx="12" fill="#FFFFFF" stroke="#ECEFF4" filter="url(#sh)"/>
  <text x="300" y="304" class="h" font-size="15">Compliance by jurisdiction</text>
  <circle cx="352" cy="408" r="42" fill="none" stroke="#EEF1F6" stroke-width="13"/>
  <circle cx="352" cy="408" r="42" fill="none" stroke="#16CDC7" stroke-width="13" stroke-linecap="round" stroke-dasharray="226.9 263.9" transform="rotate(-90 352 408)"/>
  <text x="352" y="404" font-size="19" font-weight="700" fill="#2A3547" text-anchor="middle">86%</text>
  <text x="352" y="422" font-size="10" fill="#8A95A5" text-anchor="middle">fleet</text>
  <text x="420" y="358" class="cell" font-size="12">Ontario · DriveON</text><text x="612" y="358" font-size="12" font-weight="700" fill="#2A3547" text-anchor="end">92%</text>
  <rect x="420" y="364" width="192" height="6" rx="3" fill="#EEF1F6"/><rect x="420" y="364" width="177" height="6" rx="3" fill="#16CDC7"/>
  <text x="420" y="404" class="cell" font-size="12">Quebec · SAAQ / PMP</text><text x="612" y="404" font-size="12" font-weight="700" fill="#2A3547" text-anchor="end">81%</text>
  <rect x="420" y="410" width="192" height="6" rx="3" fill="#EEF1F6"/><rect x="420" y="410" width="156" height="6" rx="3" fill="#16CDC7"/>
  <text x="420" y="450" class="cell" font-size="12">Other · NSC / CVIP</text><text x="612" y="450" font-size="12" font-weight="700" fill="#2A3547" text-anchor="end">78%</text>
  <rect x="420" y="456" width="192" height="6" rx="3" fill="#EEF1F6"/><rect x="420" y="456" width="150" height="6" rx="3" fill="#16CDC7"/>
  <line x1="300" y1="480" x2="620" y2="480" stroke="#F1F3F7"/>
  <text x="300" y="498" font-size="11" fill="#8A95A5">288 units tracked · updated today, 08:12</text>

  <rect x="656" y="270" width="760" height="240" rx="12" fill="#FFFFFF" stroke="#ECEFF4" filter="url(#sh)"/>
  <text x="676" y="304" class="h" font-size="15">Inspections — expiring &amp; expired</text>
  <text x="1396" y="304" class="lnk" font-size="12" text-anchor="end">View all →</text>
  <g class="col" font-size="10.5"><text x="676" y="334">UNIT</text><text x="788" y="334">TYPE</text><text x="868" y="334">JURISDICTION</text><text x="1012" y="334">INSPECTION</text><text x="1148" y="334">EXPIRY</text><text x="1396" y="334" text-anchor="end">STATUS</text></g>
  <line x1="676" y1="344" x2="1396" y2="344" stroke="#ECEFF4"/>
  <g font-size="12.5">
  <text x="676" y="368" class="cell">TRK-1042</text><text x="788" y="368" class="sub">Truck</text><text x="868" y="368" class="sub">Ontario</text><text x="1012" y="368" class="sub">DriveON</text><text x="1148" y="368" font-weight="500" fill="#A8720F">in 5 days</text>
  <rect x="1330" y="356" width="66" height="19" rx="9.5" fill="#FEF4E6"/><text x="1363" y="369" class="pill" font-size="10.5" fill="#A8720F" text-anchor="middle">Expiring</text>
  <line x1="676" y1="382" x2="1396" y2="382" stroke="#F4F6FA"/>
  <text x="676" y="406" class="cell">TRL-318</text><text x="788" y="406" class="sub">Trailer</text><text x="868" y="406" class="sub">Quebec</text><text x="1012" y="406" class="sub">SAAQ PEP</text><text x="1148" y="406" font-weight="500" fill="#C0392B">2 days ago</text>
  <rect x="1334" y="394" width="62" height="19" rx="9.5" fill="#FDECEC"/><text x="1365" y="407" class="pill" font-size="10.5" fill="#C0392B" text-anchor="middle">Expired</text>
  <line x1="676" y1="420" x2="1396" y2="420" stroke="#F4F6FA"/>
  <text x="676" y="444" class="cell">TRK-1180</text><text x="788" y="444" class="sub">Truck</text><text x="868" y="444" class="sub">Ontario</text><text x="1012" y="444" class="sub">DriveON</text><text x="1148" y="444" font-weight="500" fill="#C0392B">failed</text>
  <rect x="1340" y="432" width="56" height="19" rx="9.5" fill="#FDECEC"/><text x="1368" y="445" class="pill" font-size="10.5" fill="#C0392B" text-anchor="middle">Failed</text>
  <line x1="676" y1="458" x2="1396" y2="458" stroke="#F4F6FA"/>
  <text x="676" y="482" class="cell">TRK-0991</text><text x="788" y="482" class="sub">Truck</text><text x="868" y="482" class="sub">Alberta</text><text x="1012" y="482" class="sub">CVIP</text><text x="1148" y="482" font-weight="500" fill="#A8720F">in 12 days</text>
  <rect x="1330" y="470" width="66" height="19" rx="9.5" fill="#FEF4E6"/><text x="1363" y="483" class="pill" font-size="10.5" fill="#A8720F" text-anchor="middle">Expiring</text>
  </g>

  <rect x="280" y="526" width="360" height="224" rx="12" fill="#FFFFFF" stroke="#ECEFF4" filter="url(#sh)"/>
  <text x="300" y="560" class="h" font-size="15">Blocked from dispatch</text>
  <rect x="586" y="546" width="34" height="20" rx="10" fill="#FDECEC"/><text x="603" y="560" class="pill" font-size="11" fill="#C0392B" text-anchor="middle">4</text>
  <g font-size="12.5">
  <text x="300" y="592" class="cell">TRK-1180</text><rect x="500" y="580" width="120" height="19" rx="9.5" fill="#FDECEC"/><text x="560" y="593" class="pill" font-size="10.5" fill="#C0392B" text-anchor="middle">Failed inspection</text>
  <line x1="300" y1="606" x2="620" y2="606" stroke="#F4F6FA"/>
  <text x="300" y="630" class="cell">TRK-0560</text><rect x="516" y="618" width="104" height="19" rx="9.5" fill="#FBEEE8"/><text x="568" y="631" class="pill" font-size="10.5" fill="#9E4221" text-anchor="middle">Major defect</text>
  <line x1="300" y1="644" x2="620" y2="644" stroke="#F4F6FA"/>
  <text x="300" y="668" class="cell">TRL-318</text><rect x="508" y="656" width="112" height="19" rx="9.5" fill="#FDECEC"/><text x="564" y="669" class="pill" font-size="10.5" fill="#C0392B" text-anchor="middle">Expired SAAQ PEP</text>
  <line x1="300" y1="682" x2="620" y2="682" stroke="#F4F6FA"/>
  <text x="300" y="706" class="cell">TRK-0775</text><rect x="520" y="694" width="100" height="19" rx="9.5" fill="#EEF1F6"/><text x="570" y="707" class="pill" font-size="10.5" fill="#5A6A85" text-anchor="middle">Out of service</text>
  </g>
  <text x="300" y="734" font-size="10.5" fill="#8A95A5">Override needs a reason · written to audit history</text>

  <rect x="656" y="526" width="360" height="224" rx="12" fill="#FFFFFF" stroke="#ECEFF4" filter="url(#sh)"/>
  <text x="676" y="560" class="h" font-size="15">Open defects</text>
  <rect x="676" y="574" width="150" height="60" rx="10" fill="#FDECEC"/><text x="692" y="600" font-size="11.5" font-weight="600" fill="#C0392B">Major</text><text x="692" y="624" font-size="22" font-weight="700" fill="#C0392B">5</text>
  <rect x="842" y="574" width="150" height="60" rx="10" fill="#FEF4E6"/><text x="858" y="600" font-size="11.5" font-weight="600" fill="#A8720F">Minor</text><text x="858" y="624" font-size="22" font-weight="700" fill="#A8720F">28</text>
  <text x="676" y="668" class="cell" font-size="12.5">TRK-0560 · Brake chamber leak</text><rect x="940" y="656" width="52" height="19" rx="9.5" fill="#FDECEC"/><text x="966" y="669" class="pill" font-size="10.5" fill="#C0392B" text-anchor="middle">Major</text>
  <line x1="676" y1="684" x2="992" y2="684" stroke="#F4F6FA"/>
  <text x="676" y="708" class="cell" font-size="12.5">TRL-204 · Marker light out</text><rect x="940" y="696" width="52" height="19" rx="9.5" fill="#FEF4E6"/><text x="966" y="709" class="pill" font-size="10.5" fill="#A8720F" text-anchor="middle">Minor</text>
  <text x="676" y="736" font-size="10.5" fill="#8A95A5">From circle checks &amp; failed inspections</text>

  <rect x="1032" y="526" width="384" height="224" rx="12" fill="#FFFFFF" stroke="#ECEFF4" filter="url(#sh)"/>
  <text x="1052" y="560" class="h" font-size="15">Upcoming PM / PMP due</text>
  <g font-size="12.5">
  <text x="1052" y="592" class="cell">TRK-1042 · Quebec PMP</text><text x="1396" y="592" font-size="12" font-weight="600" fill="#1A5FB4" text-anchor="end">in 4 days</text>
  <line x1="1052" y1="606" x2="1396" y2="606" stroke="#F4F6FA"/>
  <text x="1052" y="630" class="cell">TRK-0991 · PM-A service</text><text x="1396" y="630" font-size="12" font-weight="600" fill="#A8720F" text-anchor="end">in 6 days</text>
  <line x1="1052" y1="644" x2="1396" y2="644" stroke="#F4F6FA"/>
  <text x="1052" y="668" class="cell">TRL-318 · Annual PMVI</text><text x="1396" y="668" font-size="12" font-weight="600" fill="#5A6A85" text-anchor="end">in 9 days</text>
  <line x1="1052" y1="682" x2="1396" y2="682" stroke="#F4F6FA"/>
  <text x="1052" y="706" class="cell">TRK-1108 · Oil &amp; filter</text><text x="1396" y="706" font-size="12" font-weight="600" fill="#5A6A85" text-anchor="end">in 9 days</text>
  </g>
  <text x="1052" y="734" font-size="10.5" fill="#8A95A5">Triggered by date, odometer &amp; engine hours</text>

  <rect x="280" y="766" width="1136" height="120" rx="12" fill="#FFFFFF" stroke="#ECEFF4" filter="url(#sh)"/>
  <text x="300" y="800" class="h" font-size="15">Recently completed compliance repairs</text>
  <text x="1396" y="800" class="lnk" font-size="12" text-anchor="end">Repair history →</text>
  <circle cx="308" cy="836" r="11" fill="#E6FBF5"/><g style="color:#13B89B"><use href="#ic-check" x="298" y="826" width="20" height="20"/></g>
  <text x="330" y="833" class="cell" font-size="12.5">TRK-0640 · Brake adjustment</text><rect x="330" y="844" width="158" height="19" rx="9.5" fill="#E6FBFA"/><text x="409" y="857" class="pill" font-size="10.5" fill="#0F9C96" text-anchor="middle">Ready for re-inspection</text>
  <circle cx="688" cy="836" r="11" fill="#E6FBF5"/><g style="color:#13B89B"><use href="#ic-check" x="678" y="826" width="20" height="20"/></g>
  <text x="710" y="833" class="cell" font-size="12.5">TRL-110 · Marker light replaced</text><rect x="710" y="844" width="58" height="19" rx="9.5" fill="#EAF7EE"/><text x="739" y="857" class="pill" font-size="10.5" fill="#3B6D11" text-anchor="middle">Closed</text>
  <circle cx="1068" cy="836" r="11" fill="#E6FBF5"/><g style="color:#13B89B"><use href="#ic-check" x="1058" y="826" width="20" height="20"/></g>
  <text x="1090" y="833" class="cell" font-size="12.5">TRK-0902 · Tire replaced</text><rect x="1090" y="844" width="58" height="19" rx="9.5" fill="#EAF7EE"/><text x="1119" y="857" class="pill" font-size="10.5" fill="#3B6D11" text-anchor="middle">Closed</text>
</svg>
