<svg viewBox="0 0 1440 912" xmlns="http://www.w3.org/2000/svg" font-family="'Plus Jakarta Sans','Inter','Segoe UI',system-ui,sans-serif" role="img" aria-labelledby="t">
  <title id="t">Squibbon — Alerts &amp; notifications</title>
  <defs>
    <filter id="sh" x="-6%" y="-10%" width="112%" height="124%"><feDropShadow dx="0" dy="3" stdDeviation="6" flood-color="#2A3547" flood-opacity="0.07"/></filter>
    <g id="ic-grid" fill="none" stroke="currentColor" stroke-width="1.6"><rect x="3" y="3" width="6" height="6" rx="1.5"/><rect x="11" y="3" width="6" height="6" rx="1.5"/><rect x="3" y="11" width="6" height="6" rx="1.5"/><rect x="11" y="11" width="6" height="6" rx="1.5"/></g>
    <g id="ic-shield" fill="none" stroke="currentColor" stroke-width="1.6" stroke-linejoin="round" stroke-linecap="round"><path d="M10 2.5 L16.5 5 V10 C16.5 13.8 13.6 16.4 10 17.6 C6.4 16.4 3.5 13.8 3.5 10 V5 Z"/><path d="M7.1 10 l1.9 1.9 3.9-4"/></g>
    <g id="ic-clip" fill="none" stroke="currentColor" stroke-width="1.6" stroke-linejoin="round" stroke-linecap="round"><rect x="4.5" y="3.5" width="11" height="13.5" rx="2"/><rect x="7.5" y="2" width="5" height="3" rx="1"/><path d="M7.2 9 h5.6 M7.2 12 h5.6"/></g>
    <g id="ic-cal" fill="none" stroke="currentColor" stroke-width="1.6" stroke-linejoin="round" stroke-linecap="round"><rect x="3.5" y="4.5" width="13" height="12" rx="2"/><path d="M3.5 8 h13 M7 3 v3 M13 3 v3"/></g>
    <g id="ic-gauge" fill="none" stroke="currentColor" stroke-width="1.6" stroke-linecap="round"><path d="M3.6 14.4 a6.4 6.4 0 1 1 12.8 0"/><path d="M10 14.4 l3.2-3.4"/><circle cx="10" cy="14.4" r="1" fill="currentColor" stroke="none"/></g>
    <g id="ic-file" fill="none" stroke="currentColor" stroke-width="1.6" stroke-linejoin="round"><path d="M6 2.8 h5 l4 4 v10.4 a1 1 0 0 1-1 1 H6 a1 1 0 0 1-1-1 V3.8 a1 1 0 0 1 1-1z"/><path d="M11 2.8 v4 h4"/></g>
    <g id="ic-refresh" fill="none" stroke="currentColor" stroke-width="1.6" stroke-linecap="round" stroke-linejoin="round"><path d="M16.5 8 A6.5 6.5 0 1 0 17 11.5"/><path d="M16.5 3.5 V8 H12"/></g>
    <g id="ic-alert" fill="none" stroke="currentColor" stroke-width="1.6" stroke-linejoin="round" stroke-linecap="round"><path d="M10 3.4 L17 16 H3 Z"/><path d="M10 8 v3.4"/><circle cx="10" cy="13.6" r="0.5" fill="currentColor" stroke="none"/></g>
    <g id="ic-truck" fill="none" stroke="currentColor" stroke-width="1.6" stroke-linejoin="round" stroke-linecap="round"><path d="M2.5 6 h8 v7 h-8 z"/><path d="M10.5 8.5 h3.2 l2.4 2.3 v2.2 h-5.6 z"/><circle cx="6" cy="15" r="1.5"/><circle cx="13.7" cy="15" r="1.5"/></g>
    <g id="ic-building" fill="none" stroke="currentColor" stroke-width="1.6" stroke-linejoin="round"><rect x="4.5" y="3.5" width="11" height="14" rx="1.2"/><path d="M7.5 7 h1 M11.5 7 h1 M7.5 10 h1 M11.5 10 h1"/><path d="M8.5 17.5 v-3 h3 v3"/></g>
    <g id="ic-chart" fill="none" stroke="currentColor" stroke-width="1.6" stroke-linejoin="round" stroke-linecap="round"><path d="M3 16.5 h14"/><rect x="4.5" y="9" width="2.6" height="5.5"/><rect x="8.7" y="6" width="2.6" height="8.5"/><rect x="12.9" y="11" width="2.6" height="3.5"/></g>
    <g id="ic-slider" fill="none" stroke="currentColor" stroke-width="1.6" stroke-linecap="round"><path d="M3 7 h14 M3 13 h14"/><circle cx="8" cy="7" r="1.9" fill="#fff"/><circle cx="13" cy="13" r="1.9" fill="#fff"/></g>
    <g id="ic-user" fill="none" stroke="currentColor" stroke-width="1.6" stroke-linecap="round"><circle cx="10" cy="7" r="3.2"/><path d="M4.5 16.5 a5.5 5.5 0 0 1 11 0"/></g>
    <g id="ic-clock" fill="none" stroke="currentColor" stroke-width="1.6" stroke-linecap="round" stroke-linejoin="round"><circle cx="10" cy="10" r="7"/><path d="M10 6 v4 l2.6 1.6"/></g>
    <g id="ic-ban" fill="none" stroke="currentColor" stroke-width="1.6" stroke-linecap="round"><circle cx="10" cy="10" r="7"/><path d="M5 5 l10 10"/></g>
    <g id="ic-search" fill="none" stroke="currentColor" stroke-width="1.7" stroke-linecap="round"><circle cx="9" cy="9" r="5.5"/><path d="M13.2 13.2 L17.2 17.2"/></g>
    <g id="ic-bell" fill="none" stroke="currentColor" stroke-width="1.6" stroke-linejoin="round" stroke-linecap="round"><path d="M10 3 a4.6 4.6 0 0 1 4.6 4.6 c0 4 1.4 5.4 1.4 5.4 h-12 s1.4-1.4 1.4-5.4 a4.6 4.6 0 0 1 4.6-4.6z"/><path d="M8.3 16 a1.8 1.8 0 0 0 3.4 0"/></g>
    <g id="ic-menu" fill="none" stroke="currentColor" stroke-width="1.8" stroke-linecap="round"><path d="M3 6 h16 M3 11 h16 M3 16 h16"/></g>
  </defs>
  <style>
    .navi{fill:#5A6A85;font-weight:500}.col{fill:#8A95A5;font-weight:600;letter-spacing:.4px}
    .h{fill:#2A3547;font-weight:600}.sub{fill:#5A6A85;font-weight:400}.lbl{fill:#5A6A85;font-weight:500}
    .cell{fill:#2A3547;font-weight:500}.mut{fill:#8A95A5;font-weight:500}.lnk{fill:#c479c2;font-weight:600}.pill{font-weight:600}
  </style>
  <rect width="1440" height="912" fill="#F4F6FB"/>
  <rect x="0" y="0" width="256" height="912" fill="#FFFFFF"/><line x1="256" y1="0" x2="256" y2="912" stroke="#ECEFF4"/>
  <rect x="24" y="21" width="30" height="30" rx="8" fill="#c479c2"/><text x="39" y="42" font-size="17" font-weight="700" fill="#FFFFFF" text-anchor="middle">S</text><text x="66" y="42" font-size="19" font-weight="700" fill="#2A3547">Squibbon</text>
  <text x="24" y="90" class="col" font-size="11">DASHBOARDS</text>
  <g style="color:#5A6A85"><use href="#ic-grid" x="22" y="102" width="18" height="18"/></g><text x="50" y="116" class="navi" font-size="12.5">Dashboard</text>
  <text x="24" y="142" class="col" font-size="11">MAINTENANCE</text>
  <rect x="12" y="150" width="232" height="26" rx="7" fill="#FFEBFE"/>
  <g style="color:#c479c2"><use href="#ic-shield" x="22" y="154" width="18" height="18"/></g><text x="50" y="168" font-size="12.5" font-weight="600" fill="#c479c2">Compliance dashboard</text>
  <g style="color:#5A6A85"><use href="#ic-clip" x="22" y="184" width="18" height="18"/></g><text x="50" y="198" class="navi" font-size="12.5">DriveON · Ontario</text>
  <g style="color:#5A6A85"><use href="#ic-clip" x="22" y="214" width="18" height="18"/></g><text x="50" y="228" class="navi" font-size="12.5">SAAQ · Quebec</text>
  <g style="color:#5A6A85"><use href="#ic-clip" x="22" y="244" width="18" height="18"/></g><text x="50" y="258" class="navi" font-size="12.5">NSC inspections</text>
  <g style="color:#5A6A85"><use href="#ic-clip" x="22" y="274" width="18" height="18"/></g><text x="50" y="288" class="navi" font-size="12.5">Circle checks</text>
  <g style="color:#5A6A85"><use href="#ic-cal" x="22" y="304" width="18" height="18"/></g><text x="50" y="318" class="navi" font-size="12.5">Preventive maintenance</text>
  <g style="color:#5A6A85"><use href="#ic-gauge" x="22" y="334" width="18" height="18"/></g><text x="50" y="348" class="navi" font-size="12.5">Meter readings</text>
  <g style="color:#5A6A85"><use href="#ic-file" x="22" y="364" width="18" height="18"/></g><text x="50" y="378" class="navi" font-size="12.5">Credentials &amp; docs</text>
  <g style="color:#5A6A85"><use href="#ic-refresh" x="22" y="394" width="18" height="18"/></g><text x="50" y="408" class="navi" font-size="12.5">Recalls &amp; warranty</text>
  <g style="color:#5A6A85"><use href="#ic-alert" x="22" y="424" width="18" height="18"/></g><text x="50" y="438" class="navi" font-size="12.5">Defects &amp; repairs</text>
  <g style="color:#5A6A85"><use href="#ic-truck" x="22" y="454" width="18" height="18"/></g><text x="50" y="468" class="navi" font-size="12.5">Equipment</text>
  <g style="color:#5A6A85"><use href="#ic-building" x="22" y="484" width="18" height="18"/></g><text x="50" y="498" class="navi" font-size="12.5">Carrier · CVOR/PEVL</text>
  <g style="color:#5A6A85"><use href="#ic-chart" x="22" y="514" width="18" height="18"/></g><text x="50" y="528" class="navi" font-size="12.5">Compliance reports</text>
  <text x="24" y="552" class="col" font-size="11">SETTINGS</text>
  <g style="color:#5A6A85"><use href="#ic-slider" x="22" y="564" width="18" height="18"/></g><text x="50" y="578" class="navi" font-size="12.5">Compliance settings</text>
  <g style="color:#5A6A85"><use href="#ic-user" x="22" y="594" width="18" height="18"/></g><text x="50" y="608" class="navi" font-size="12.5">Roles &amp; access</text>
  <rect x="256" y="0" width="1184" height="72" fill="#FFFFFF"/><line x1="256" y1="72" x2="1440" y2="72" stroke="#ECEFF4"/>
  <g style="color:#5A6A85"><use href="#ic-menu" x="282" y="26" width="20" height="20"/></g>
  <rect x="324" y="18" width="300" height="36" rx="18" fill="#F4F6FB"/><g style="color:#8A95A5"><use href="#ic-search" x="340" y="27" width="18" height="18"/></g><text x="366" y="41" font-size="12.5" fill="#9AA4B2">Search unit, plate or VIN…</text>
  <rect x="1108" y="17" width="170" height="38" rx="8" fill="#c479c2"/><g style="color:#FFFFFF"><use href="#ic-slider" x="1124" y="28" width="16" height="16"/></g><text x="1150" y="41" font-size="12.5" font-weight="600" fill="#FFFFFF">Alert settings</text>
  <g style="color:#5A6A85"><use href="#ic-bell" x="1300" y="26" width="20" height="20"/></g><circle cx="1317" cy="27" r="4" fill="#FA5A5A"/>
  <text x="1368" y="33" font-size="12.5" font-weight="600" fill="#2A3547" text-anchor="end">T. Hopper</text><text x="1368" y="47" font-size="10.5" fill="#8A95A5" text-anchor="end">Maintenance</text>
  <circle cx="1392" cy="36" r="16" fill="#FFEBFE"/><text x="1392" y="40" font-size="12" font-weight="700" fill="#c479c2" text-anchor="middle">TH</text>

  <text x="280" y="118" font-size="22" font-weight="700" fill="#2A3547">Alerts &amp; notifications</text>
  <text x="280" y="140" font-size="13" fill="#5A6A85">Upcoming expiries, failures and overdue compliance items</text>
  <rect x="1256" y="100" width="160" height="34" rx="8" fill="#FFFFFF" stroke="#DDE3EC"/><text x="1336" y="121" font-size="12" font-weight="500" fill="#5A6A85" text-anchor="middle">Mark all as read</text>

  <text x="288" y="172" font-size="13" font-weight="600" fill="#c479c2">All</text><rect x="284" y="181" width="32" height="3" rx="1.5" fill="#c479c2"/>
  <text x="340" y="172" class="navi" font-size="12.5">Inspections</text>
  <text x="452" y="172" class="navi" font-size="12.5">PMP &amp; PM</text>
  <text x="548" y="172" class="navi" font-size="12.5">Credentials</text>
  <text x="650" y="172" class="navi" font-size="12.5">Defects</text>
  <text x="724" y="172" class="navi" font-size="12.5">Recalls</text>
  <line x1="280" y1="188" x2="1416" y2="188" stroke="#ECEFF4"/>

  <rect x="280" y="204" width="756" height="600" rx="12" fill="#FFFFFF" stroke="#ECEFF4" filter="url(#sh)"/>
  <text x="300" y="236" class="col" font-size="11">TODAY</text>
  <rect x="300" y="248" width="30" height="30" rx="8" fill="#FDECEC"/><g style="color:#E25C5C"><use href="#ic-alert" x="306" y="254" width="18" height="18"/></g>
  <text x="344" y="262" class="cell" font-size="13">DriveON inspection failed</text><text x="344" y="280" class="mut" font-size="11.5">TRK-1180 · Ontario · 08:05 today</text>
  <text x="1016" y="268" class="lnk" font-size="12" text-anchor="end">Create repair →</text>
  <line x1="300" y1="296" x2="1016" y2="296" stroke="#F4F6FA"/>
  <rect x="300" y="308" width="30" height="30" rx="8" fill="#FDECEC"/><g style="color:#E25C5C"><use href="#ic-alert" x="306" y="314" width="18" height="18"/></g>
  <text x="344" y="322" class="cell" font-size="13">SAAQ PEP expired</text><text x="344" y="340" class="mut" font-size="11.5">TRL-318 · Quebec · 2 days ago</text>
  <text x="1016" y="328" class="lnk" font-size="12" text-anchor="end">View record →</text>
  <line x1="300" y1="356" x2="1016" y2="356" stroke="#F4F6FA"/>
  <text x="300" y="388" class="col" font-size="11">THIS WEEK</text>
  <rect x="300" y="400" width="30" height="30" rx="8" fill="#FEF4E6"/><g style="color:#E0941A"><use href="#ic-clock" x="306" y="406" width="18" height="18"/></g>
  <text x="344" y="414" class="cell" font-size="13">DriveON expiring in 5 days</text><text x="344" y="432" class="mut" font-size="11.5">TRK-1042 · Ontario</text>
  <text x="1016" y="420" class="lnk" font-size="12" text-anchor="end">Renew →</text>
  <line x1="300" y1="448" x2="1016" y2="448" stroke="#F4F6FA"/>
  <rect x="300" y="460" width="30" height="30" rx="8" fill="#FEF4E6"/><g style="color:#E0941A"><use href="#ic-cal" x="306" y="466" width="18" height="18"/></g>
  <text x="344" y="474" class="cell" font-size="13">Quebec PMP due in 4 days</text><text x="344" y="492" class="mut" font-size="11.5">TRK-1042</text>
  <text x="1016" y="480" class="lnk" font-size="12" text-anchor="end">Schedule →</text>
  <line x1="300" y1="508" x2="1016" y2="508" stroke="#F4F6FA"/>
  <rect x="300" y="520" width="30" height="30" rx="8" fill="#EAF2FE"/><g style="color:#3F87E0"><use href="#ic-cal" x="306" y="526" width="18" height="18"/></g>
  <text x="344" y="534" class="cell" font-size="13">Insurance expiring in 9 days</text><text x="344" y="552" class="mut" font-size="11.5">TRK-0775</text>
  <text x="1016" y="540" class="lnk" font-size="12" text-anchor="end">Update →</text>
  <line x1="300" y1="568" x2="1016" y2="568" stroke="#F4F6FA"/>
  <text x="300" y="600" class="col" font-size="11">LATER</text>
  <rect x="300" y="612" width="30" height="30" rx="8" fill="#FEF4E6"/><g style="color:#E0941A"><use href="#ic-clock" x="306" y="618" width="18" height="18"/></g>
  <text x="344" y="626" class="cell" font-size="13">CVIP expiring in 12 days</text><text x="344" y="644" class="mut" font-size="11.5">TRK-0991 · Alberta</text>
  <text x="1016" y="632" class="lnk" font-size="12" text-anchor="end">Plan →</text>

  <rect x="1056" y="204" width="360" height="256" rx="12" fill="#FFFFFF" stroke="#ECEFF4" filter="url(#sh)"/>
  <text x="1076" y="236" class="h" font-size="15">Alert rules</text>
  <text x="1076" y="266" class="lbl" font-size="12">Warning thresholds (configurable per tenant)</text>
  <rect x="1076" y="276" width="68" height="26" rx="7" fill="#FFEBFE"/><text x="1110" y="293" font-size="11" font-weight="600" fill="#c479c2" text-anchor="middle">30 days</text>
  <rect x="1152" y="276" width="68" height="26" rx="7" fill="#FFEBFE"/><text x="1186" y="293" font-size="11" font-weight="600" fill="#c479c2" text-anchor="middle">14 days</text>
  <rect x="1228" y="276" width="60" height="26" rx="7" fill="#FFEBFE"/><text x="1258" y="293" font-size="11" font-weight="600" fill="#c479c2" text-anchor="middle">7 days</text>
  <text x="1076" y="334" class="lbl" font-size="12">Channels</text>
  <text x="1076" y="356" class="cell" font-size="12.5">Email</text><rect x="1358" y="348" width="34" height="20" rx="10" fill="#c479c2"/><circle cx="1383" cy="358" r="7" fill="#fff"/>
  <text x="1076" y="388" class="cell" font-size="12.5">In-app</text><rect x="1358" y="380" width="34" height="20" rx="10" fill="#c479c2"/><circle cx="1383" cy="390" r="7" fill="#fff"/>
  <text x="1076" y="424" class="lbl" font-size="12">Recipients</text>
  <rect x="1076" y="432" width="96" height="22" rx="7" fill="#EEF1F6"/><text x="1124" y="447" font-size="11" font-weight="500" fill="#5A6A85" text-anchor="middle">Maintenance</text>
  <rect x="1180" y="432" width="76" height="22" rx="7" fill="#EEF1F6"/><text x="1218" y="447" font-size="11" font-weight="500" fill="#5A6A85" text-anchor="middle">Dispatch</text>
  <rect x="1264" y="432" width="62" height="22" rx="7" fill="#EEF1F6"/><text x="1295" y="447" font-size="11" font-weight="500" fill="#5A6A85" text-anchor="middle">Admin</text>

  <rect x="1056" y="476" width="360" height="300" rx="12" fill="#FFFFFF" stroke="#ECEFF4" filter="url(#sh)"/>
  <text x="1076" y="508" class="h" font-size="15">This week by type</text>
  <g font-size="12.5">
  <text x="1076" y="544" class="cell">Inspections</text><text x="1396" y="544" class="num" font-weight="700" text-anchor="end">14</text><line x1="1076" y1="558" x2="1396" y2="558" stroke="#F4F6FA"/>
  <text x="1076" y="582" class="cell">PMP &amp; PM due</text><text x="1396" y="582" class="num" font-weight="700" text-anchor="end">6</text><line x1="1076" y1="596" x2="1396" y2="596" stroke="#F4F6FA"/>
  <text x="1076" y="620" class="cell">Credentials</text><text x="1396" y="620" class="num" font-weight="700" text-anchor="end">3</text><line x1="1076" y1="634" x2="1396" y2="634" stroke="#F4F6FA"/>
  <text x="1076" y="658" class="cell">Defects</text><text x="1396" y="658" class="num" font-weight="700" text-anchor="end">5</text><line x1="1076" y1="672" x2="1396" y2="672" stroke="#F4F6FA"/>
  <text x="1076" y="696" class="cell">Recalls</text><text x="1396" y="696" class="num" font-weight="700" text-anchor="end">1</text>
  </g>
  <text x="1076" y="734" class="mut" font-size="11">Visible to Maintenance, Dispatch &amp; Admin</text>
</svg>
