<svg viewBox="0 0 1440 820" xmlns="http://www.w3.org/2000/svg" font-family="'Plus Jakarta Sans','Inter','Segoe UI',system-ui,sans-serif" role="img" aria-labelledby="t">
  <title id="t">Squibbon — Carrier compliance CVOR &amp; PEVL</title>
  <defs>
    <filter id="sh" x="-6%" y="-10%" width="112%" height="124%"><feDropShadow dx="0" dy="3" stdDeviation="6" flood-color="#2A3547" flood-opacity="0.07"/></filter>
    <g id="ic-grid" fill="none" stroke="currentColor" stroke-width="1.6"><rect x="3" y="3" width="6" height="6" rx="1.5"/><rect x="11" y="3" width="6" height="6" rx="1.5"/><rect x="3" y="11" width="6" height="6" rx="1.5"/><rect x="11" y="11" width="6" height="6" rx="1.5"/></g>
    <g id="ic-shield" fill="none" stroke="currentColor" stroke-width="1.6" stroke-linejoin="round" stroke-linecap="round"><path d="M10 2.5 L16.5 5 V10 C16.5 13.8 13.6 16.4 10 17.6 C6.4 16.4 3.5 13.8 3.5 10 V5 Z"/><path d="M7.1 10 l1.9 1.9 3.9-4"/></g>
    <g id="ic-clip" fill="none" stroke="currentColor" stroke-width="1.6" stroke-linejoin="round" stroke-linecap="round"><rect x="4.5" y="3.5" width="11" height="13.5" rx="2"/><rect x="7.5" y="2" width="5" height="3" rx="1"/><path d="M7.2 9 h5.6 M7.2 12 h5.6"/></g>
    <g id="ic-cal" fill="none" stroke="currentColor" stroke-width="1.6" stroke-linejoin="round" stroke-linecap="round"><rect x="3.5" y="4.5" width="13" height="12" rx="2"/><path d="M3.5 8 h13 M7 3 v3 M13 3 v3"/></g>
    <g id="ic-gauge" fill="none" stroke="currentColor" stroke-width="1.6" stroke-linecap="round"><path d="M3.6 14.4 a6.4 6.4 0 1 1 12.8 0"/><path d="M10 14.4 l3.2-3.4"/><circle cx="10" cy="14.4" r="1" fill="currentColor" stroke="none"/></g>
    <g id="ic-file" fill="none" stroke="currentColor" stroke-width="1.6" stroke-linejoin="round"><path d="M6 2.8 h5 l4 4 v10.4 a1 1 0 0 1-1 1 H6 a1 1 0 0 1-1-1 V3.8 a1 1 0 0 1 1-1z"/><path d="M11 2.8 v4 h4"/></g>
    <g id="ic-refresh" fill="none" stroke="currentColor" stroke-width="1.6" stroke-linecap="round" stroke-linejoin="round"><path d="M16.5 8 A6.5 6.5 0 1 0 17 11.5"/><path d="M16.5 3.5 V8 H12"/></g>
    <g id="ic-alert" fill="none" stroke="currentColor" stroke-width="1.6" stroke-linejoin="round" stroke-linecap="round"><path d="M10 3.4 L17 16 H3 Z"/><path d="M10 8 v3.4"/><circle cx="10" cy="13.6" r="0.5" fill="currentColor" stroke="none"/></g>
    <g id="ic-truck" fill="none" stroke="currentColor" stroke-width="1.6" stroke-linejoin="round" stroke-linecap="round"><path d="M2.5 6 h8 v7 h-8 z"/><path d="M10.5 8.5 h3.2 l2.4 2.3 v2.2 h-5.6 z"/><circle cx="6" cy="15" r="1.5"/><circle cx="13.7" cy="15" r="1.5"/></g>
    <g id="ic-building" fill="none" stroke="currentColor" stroke-width="1.6" stroke-linejoin="round"><rect x="4.5" y="3.5" width="11" height="14" rx="1.2"/><path d="M7.5 7 h1 M11.5 7 h1 M7.5 10 h1 M11.5 10 h1"/><path d="M8.5 17.5 v-3 h3 v3"/></g>
    <g id="ic-chart" fill="none" stroke="currentColor" stroke-width="1.6" stroke-linejoin="round" stroke-linecap="round"><path d="M3 16.5 h14"/><rect x="4.5" y="9" width="2.6" height="5.5"/><rect x="8.7" y="6" width="2.6" height="8.5"/><rect x="12.9" y="11" width="2.6" height="3.5"/></g>
    <g id="ic-slider" fill="none" stroke="currentColor" stroke-width="1.6" stroke-linecap="round"><path d="M3 7 h14 M3 13 h14"/><circle cx="8" cy="7" r="1.9" fill="#fff"/><circle cx="13" cy="13" r="1.9" fill="#fff"/></g>
    <g id="ic-user" fill="none" stroke="currentColor" stroke-width="1.6" stroke-linecap="round"><circle cx="10" cy="7" r="3.2"/><path d="M4.5 16.5 a5.5 5.5 0 0 1 11 0"/></g>
    <g id="ic-search" fill="none" stroke="currentColor" stroke-width="1.7" stroke-linecap="round"><circle cx="9" cy="9" r="5.5"/><path d="M13.2 13.2 L17.2 17.2"/></g>
    <g id="ic-bell" fill="none" stroke="currentColor" stroke-width="1.6" stroke-linejoin="round" stroke-linecap="round"><path d="M10 3 a4.6 4.6 0 0 1 4.6 4.6 c0 4 1.4 5.4 1.4 5.4 h-12 s1.4-1.4 1.4-5.4 a4.6 4.6 0 0 1 4.6-4.6z"/><path d="M8.3 16 a1.8 1.8 0 0 0 3.4 0"/></g>
    <g id="ic-menu" fill="none" stroke="currentColor" stroke-width="1.8" stroke-linecap="round"><path d="M3 6 h16 M3 11 h16 M3 16 h16"/></g>
    <g id="ic-edit" fill="none" stroke="currentColor" stroke-width="1.6" stroke-linejoin="round" stroke-linecap="round"><path d="M4 16 l1-3.5 7.5-7.5 2.5 2.5 -7.5 7.5z"/><path d="M11.5 5 l2.5 2.5"/></g>
    <g id="ic-download" fill="none" stroke="currentColor" stroke-width="1.6" stroke-linecap="round" stroke-linejoin="round"><path d="M10 4 V13 M6.5 9.5 L10 13 l3.5-3.5"/><path d="M4.5 15.5 h11"/></g>
  </defs>
  <style>
    .navi{fill:#5A6A85;font-weight:500}.col{fill:#8A95A5;font-weight:600;letter-spacing:.4px}
    .h{fill:#2A3547;font-weight:600}.lbl{fill:#8A95A5;font-weight:500}.cell{fill:#2A3547;font-weight:500}.num{fill:#2A3547;font-weight:700}.mut{fill:#8A95A5;font-weight:500}.lnk{fill:#c479c2;font-weight:600}.pill{font-weight:600}
  </style>
  <rect width="1440" height="820" fill="#F4F6FB"/>
  <rect x="0" y="0" width="256" height="820" fill="#FFFFFF"/><line x1="256" y1="0" x2="256" y2="820" stroke="#ECEFF4"/>
  <rect x="24" y="21" width="30" height="30" rx="8" fill="#c479c2"/><text x="39" y="42" font-size="17" font-weight="700" fill="#FFFFFF" text-anchor="middle">S</text><text x="66" y="42" font-size="19" font-weight="700" fill="#2A3547">Squibbon</text>
  <text x="24" y="90" class="col" font-size="11">DASHBOARDS</text>
  <g style="color:#5A6A85"><use href="#ic-grid" x="22" y="102" width="18" height="18"/></g><text x="50" y="116" class="navi" font-size="12.5">Dashboard</text>
  <text x="24" y="142" class="col" font-size="11">MAINTENANCE</text>
  <g style="color:#5A6A85"><use href="#ic-shield" x="22" y="154" width="18" height="18"/></g><text x="50" y="168" class="navi" font-size="12.5">Compliance dashboard</text>
  <g style="color:#5A6A85"><use href="#ic-clip" x="22" y="184" width="18" height="18"/></g><text x="50" y="198" class="navi" font-size="12.5">DriveON · Ontario</text>
  <g style="color:#5A6A85"><use href="#ic-clip" x="22" y="214" width="18" height="18"/></g><text x="50" y="228" class="navi" font-size="12.5">SAAQ · Quebec</text>
  <g style="color:#5A6A85"><use href="#ic-clip" x="22" y="244" width="18" height="18"/></g><text x="50" y="258" class="navi" font-size="12.5">NSC inspections</text>
  <g style="color:#5A6A85"><use href="#ic-clip" x="22" y="274" width="18" height="18"/></g><text x="50" y="288" class="navi" font-size="12.5">Circle checks</text>
  <g style="color:#5A6A85"><use href="#ic-cal" x="22" y="304" width="18" height="18"/></g><text x="50" y="318" class="navi" font-size="12.5">Preventive maintenance</text>
  <g style="color:#5A6A85"><use href="#ic-gauge" x="22" y="334" width="18" height="18"/></g><text x="50" y="348" class="navi" font-size="12.5">Meter readings</text>
  <g style="color:#5A6A85"><use href="#ic-file" x="22" y="364" width="18" height="18"/></g><text x="50" y="378" class="navi" font-size="12.5">Credentials &amp; docs</text>
  <g style="color:#5A6A85"><use href="#ic-refresh" x="22" y="394" width="18" height="18"/></g><text x="50" y="408" class="navi" font-size="12.5">Recalls &amp; warranty</text>
  <g style="color:#5A6A85"><use href="#ic-alert" x="22" y="424" width="18" height="18"/></g><text x="50" y="438" class="navi" font-size="12.5">Defects &amp; repairs</text>
  <g style="color:#5A6A85"><use href="#ic-truck" x="22" y="454" width="18" height="18"/></g><text x="50" y="468" class="navi" font-size="12.5">Equipment</text>
  <rect x="12" y="480" width="232" height="26" rx="7" fill="#FFEBFE"/>
  <g style="color:#c479c2"><use href="#ic-building" x="22" y="484" width="18" height="18"/></g><text x="50" y="498" font-size="12.5" font-weight="600" fill="#c479c2">Carrier · CVOR/PEVL</text>
  <g style="color:#5A6A85"><use href="#ic-chart" x="22" y="514" width="18" height="18"/></g><text x="50" y="528" class="navi" font-size="12.5">Compliance reports</text>
  <text x="24" y="552" class="col" font-size="11">SETTINGS</text>
  <g style="color:#5A6A85"><use href="#ic-slider" x="22" y="564" width="18" height="18"/></g><text x="50" y="578" class="navi" font-size="12.5">Compliance settings</text>
  <g style="color:#5A6A85"><use href="#ic-user" x="22" y="594" width="18" height="18"/></g><text x="50" y="608" class="navi" font-size="12.5">Roles &amp; access</text>
  <rect x="256" y="0" width="1184" height="72" fill="#FFFFFF"/><line x1="256" y1="72" x2="1440" y2="72" stroke="#ECEFF4"/>
  <g style="color:#5A6A85"><use href="#ic-menu" x="282" y="26" width="20" height="20"/></g>
  <rect x="324" y="18" width="300" height="36" rx="18" fill="#F4F6FB"/><g style="color:#8A95A5"><use href="#ic-search" x="340" y="27" width="18" height="18"/></g><text x="366" y="41" font-size="12.5" fill="#9AA4B2">Search unit, plate or VIN…</text>
  <rect x="1108" y="17" width="170" height="38" rx="8" fill="#c479c2"/><g style="color:#FFFFFF"><use href="#ic-edit" x="1132" y="28" width="16" height="16"/></g><text x="1156" y="41" font-size="12.5" font-weight="600" fill="#FFFFFF">Edit record</text>
  <g style="color:#5A6A85"><use href="#ic-bell" x="1300" y="26" width="20" height="20"/></g><circle cx="1317" cy="27" r="4" fill="#FA5A5A"/>
  <text x="1368" y="33" font-size="12.5" font-weight="600" fill="#2A3547" text-anchor="end">T. Hopper</text><text x="1368" y="47" font-size="10.5" fill="#8A95A5" text-anchor="end">Maintenance</text>
  <circle cx="1392" cy="36" r="16" fill="#FFEBFE"/><text x="1392" y="40" font-size="12" font-weight="700" fill="#c479c2" text-anchor="middle">TH</text>

  <text x="280" y="118" font-size="22" font-weight="700" fill="#2A3547">Carrier compliance — CVOR &amp; PEVL</text>
  <text x="280" y="140" font-size="13" fill="#5A6A85">Operator-level safety credentials and ratings · tracking only (no portal access)</text>

  <rect x="280" y="158" width="560" height="220" rx="12" fill="#FFFFFF" stroke="#ECEFF4" filter="url(#sh)"/>
  <text x="304" y="192" class="h" font-size="15">Ontario CVOR</text>
  <rect x="720" y="178" width="100" height="22" rx="11" fill="#E6FBF5"/><text x="770" y="193" class="pill" font-size="11" fill="#0F9C96" text-anchor="middle">Satisfactory</text>
  <text x="304" y="230" class="lbl" font-size="12">CVOR number</text><text x="816" y="230" class="cell" font-size="13" text-anchor="end">012-345-678</text>
  <line x1="304" y1="244" x2="816" y2="244" stroke="#F4F6FA"/>
  <text x="304" y="266" class="lbl" font-size="12">Certificate expiry</text><text x="816" y="266" class="cell" font-size="13" text-anchor="end">31 Mar 2027 · in 280 days</text>
  <line x1="304" y1="280" x2="816" y2="280" stroke="#F4F6FA"/>
  <text x="304" y="302" class="lbl" font-size="12">Carrier safety rating</text><rect x="724" y="290" width="92" height="20" rx="10" fill="#E6FBF5"/><text x="770" y="304" class="pill" font-size="10.5" fill="#0F9C96" text-anchor="middle">Satisfactory</text>
  <text x="304" y="332" class="lbl" font-size="12">Violation rate (24 mo) · 28% of 70% threshold</text>
  <rect x="304" y="340" width="512" height="8" rx="4" fill="#EEF1F6"/><rect x="304" y="340" width="205" height="8" rx="4" fill="#16CDC7"/><line x1="662" y1="336" x2="662" y2="352" stroke="#C0392B" stroke-width="2"/>
  <text x="304" y="368" class="lnk" font-size="12">View CVOR abstract →</text>

  <rect x="856" y="158" width="560" height="220" rx="12" fill="#FFFFFF" stroke="#ECEFF4" filter="url(#sh)"/>
  <text x="880" y="192" class="h" font-size="15">Quebec PEVL</text>
  <rect x="1296" y="178" width="100" height="22" rx="11" fill="#E6FBF5"/><text x="1346" y="193" class="pill" font-size="11" fill="#0F9C96" text-anchor="middle">Satisfactory</text>
  <text x="880" y="230" class="lbl" font-size="12">PEVL identification</text><text x="1392" y="230" class="cell" font-size="13" text-anchor="end">QC-9981234</text>
  <line x1="880" y1="244" x2="1392" y2="244" stroke="#F4F6FA"/>
  <text x="880" y="266" class="lbl" font-size="12">Safety rating</text><rect x="1300" y="254" width="92" height="20" rx="10" fill="#E6FBF5"/><text x="1346" y="268" class="pill" font-size="10.5" fill="#0F9C96" text-anchor="middle">Satisfactory</text>
  <text x="880" y="302" class="lbl" font-size="12">Rating date</text><text x="1392" y="302" class="cell" font-size="13" text-anchor="end">12 Feb 2026</text>
  <text x="880" y="332" class="lbl" font-size="12">Conduct standing · low risk</text>
  <rect x="880" y="340" width="512" height="8" rx="4" fill="#EEF1F6"/><rect x="880" y="340" width="150" height="8" rx="4" fill="#16CDC7"/>
  <text x="880" y="368" class="lnk" font-size="12">View PEVL conduct record →</text>

  <rect x="280" y="394" width="1136" height="170" rx="12" fill="#FFFFFF" stroke="#ECEFF4" filter="url(#sh)"/>
  <text x="304" y="426" class="h" font-size="15">Safety performance monitoring (rolling 24 months)</text>
  <g>
  <text x="304" y="468" class="lbl" font-size="12">Collisions</text><text x="304" y="498" class="num" font-size="24">2</text>
  <text x="520" y="468" class="lbl" font-size="12">Convictions</text><text x="520" y="498" class="num" font-size="24">5</text>
  <text x="736" y="468" class="lbl" font-size="12">Roadside inspections</text><text x="736" y="498" class="num" font-size="24">38</text>
  <text x="980" y="468" class="lbl" font-size="12">Out-of-service rate</text><text x="980" y="498" class="num" font-size="24">14%</text>
  <text x="1200" y="468" class="lbl" font-size="12">CVOR points</text><text x="1200" y="498" class="num" font-size="24">32 / 100</text>
  </g>
  <line x1="304" y1="520" x2="1392" y2="520" stroke="#F4F6FA"/>
  <text x="304" y="544" class="mut" font-size="11">Tracking only — recorded manually or via authorized data sources. Squibbon does not access MTO, SAAQ or CVOR portals.</text>

  <rect x="280" y="580" width="560" height="180" rx="12" fill="#FFFFFF" stroke="#ECEFF4" filter="url(#sh)"/>
  <text x="304" y="612" class="h" font-size="15">Credential documents</text>
  <g style="color:#8A95A5"><use href="#ic-file" x="304" y="632" width="16" height="16"/></g><text x="328" y="645" class="cell" font-size="12.5">CVOR-abstract-2026.pdf</text><text x="700" y="645" class="mut" font-size="11">12 Feb 2026</text><g style="color:#8A95A5"><use href="#ic-download" x="800" y="632" width="16" height="16"/></g>
  <line x1="304" y1="660" x2="816" y2="660" stroke="#F4F6FA"/>
  <g style="color:#8A95A5"><use href="#ic-file" x="304" y="676" width="16" height="16"/></g><text x="328" y="689" class="cell" font-size="12.5">PEVL-conduct-record.pdf</text><text x="700" y="689" class="mut" font-size="11">12 Feb 2026</text><g style="color:#8A95A5"><use href="#ic-download" x="800" y="676" width="16" height="16"/></g>
  <line x1="304" y1="704" x2="816" y2="704" stroke="#F4F6FA"/>
  <g style="color:#8A95A5"><use href="#ic-file" x="304" y="720" width="16" height="16"/></g><text x="328" y="733" class="cell" font-size="12.5">insurance-certificate.pdf</text><text x="700" y="733" class="mut" font-size="11">01 Jan 2026</text><g style="color:#8A95A5"><use href="#ic-download" x="800" y="720" width="16" height="16"/></g>

  <rect x="856" y="580" width="560" height="180" rx="12" fill="#FFFFFF" stroke="#ECEFF4" filter="url(#sh)"/>
  <text x="880" y="612" class="h" font-size="15">Upcoming &amp; alerts</text>
  <text x="880" y="645" class="cell" font-size="12.5">CVOR certificate expires</text><text x="1392" y="645" font-size="12" font-weight="600" fill="#A8720F" text-anchor="end">in 280 days</text>
  <line x1="880" y1="660" x2="1392" y2="660" stroke="#F4F6FA"/>
  <text x="880" y="689" class="cell" font-size="12.5">PEVL safety-rating review</text><text x="1392" y="689" font-size="12" font-weight="600" fill="#1A5FB4" text-anchor="end">due Q3 2026</text>
  <line x1="880" y1="704" x2="1392" y2="704" stroke="#F4F6FA"/>
  <text x="880" y="733" class="cell" font-size="12.5">Insurance filing renewal</text><text x="1392" y="733" font-size="12" font-weight="600" fill="#A8720F" text-anchor="end">in 42 days</text>
</svg>
