<svg viewBox="0 0 1440 800" xmlns="http://www.w3.org/2000/svg" font-family="'Plus Jakarta Sans','Inter','Segoe UI',system-ui,sans-serif" role="img" aria-labelledby="t">
  <title id="t">Squibbon — Repair work order</title>
  <defs>
    <filter id="sh" x="-6%" y="-10%" width="112%" height="124%"><feDropShadow dx="0" dy="3" stdDeviation="6" flood-color="#2A3547" flood-opacity="0.07"/></filter>
    <g id="ic-grid" fill="none" stroke="currentColor" stroke-width="1.6"><rect x="3" y="3" width="6" height="6" rx="1.5"/><rect x="11" y="3" width="6" height="6" rx="1.5"/><rect x="3" y="11" width="6" height="6" rx="1.5"/><rect x="11" y="11" width="6" height="6" rx="1.5"/></g>
    <g id="ic-shield" fill="none" stroke="currentColor" stroke-width="1.6" stroke-linejoin="round" stroke-linecap="round"><path d="M10 2.5 L16.5 5 V10 C16.5 13.8 13.6 16.4 10 17.6 C6.4 16.4 3.5 13.8 3.5 10 V5 Z"/><path d="M7.1 10 l1.9 1.9 3.9-4"/></g>
    <g id="ic-clip" fill="none" stroke="currentColor" stroke-width="1.6" stroke-linejoin="round" stroke-linecap="round"><rect x="4.5" y="3.5" width="11" height="13.5" rx="2"/><rect x="7.5" y="2" width="5" height="3" rx="1"/><path d="M7.2 9 h5.6 M7.2 12 h5.6"/></g>
    <g id="ic-cal" fill="none" stroke="currentColor" stroke-width="1.6" stroke-linejoin="round" stroke-linecap="round"><rect x="3.5" y="4.5" width="13" height="12" rx="2"/><path d="M3.5 8 h13 M7 3 v3 M13 3 v3"/></g>
    <g id="ic-gauge" fill="none" stroke="currentColor" stroke-width="1.6" stroke-linecap="round"><path d="M3.6 14.4 a6.4 6.4 0 1 1 12.8 0"/><path d="M10 14.4 l3.2-3.4"/><circle cx="10" cy="14.4" r="1" fill="currentColor" stroke="none"/></g>
    <g id="ic-file" fill="none" stroke="currentColor" stroke-width="1.6" stroke-linejoin="round"><path d="M6 2.8 h5 l4 4 v10.4 a1 1 0 0 1-1 1 H6 a1 1 0 0 1-1-1 V3.8 a1 1 0 0 1 1-1z"/><path d="M11 2.8 v4 h4"/></g>
    <g id="ic-refresh" fill="none" stroke="currentColor" stroke-width="1.6" stroke-linecap="round" stroke-linejoin="round"><path d="M16.5 8 A6.5 6.5 0 1 0 17 11.5"/><path d="M16.5 3.5 V8 H12"/></g>
    <g id="ic-alert" fill="none" stroke="currentColor" stroke-width="1.6" stroke-linejoin="round" stroke-linecap="round"><path d="M10 3.4 L17 16 H3 Z"/><path d="M10 8 v3.4"/><circle cx="10" cy="13.6" r="0.5" fill="currentColor" stroke="none"/></g>
    <g id="ic-truck" fill="none" stroke="currentColor" stroke-width="1.6" stroke-linejoin="round" stroke-linecap="round"><path d="M2.5 6 h8 v7 h-8 z"/><path d="M10.5 8.5 h3.2 l2.4 2.3 v2.2 h-5.6 z"/><circle cx="6" cy="15" r="1.5"/><circle cx="13.7" cy="15" r="1.5"/></g>
    <g id="ic-building" fill="none" stroke="currentColor" stroke-width="1.6" stroke-linejoin="round"><rect x="4.5" y="3.5" width="11" height="14" rx="1.2"/><path d="M7.5 7 h1 M11.5 7 h1 M7.5 10 h1 M11.5 10 h1"/><path d="M8.5 17.5 v-3 h3 v3"/></g>
    <g id="ic-chart" fill="none" stroke="currentColor" stroke-width="1.6" stroke-linejoin="round" stroke-linecap="round"><path d="M3 16.5 h14"/><rect x="4.5" y="9" width="2.6" height="5.5"/><rect x="8.7" y="6" width="2.6" height="8.5"/><rect x="12.9" y="11" width="2.6" height="3.5"/></g>
    <g id="ic-slider" fill="none" stroke="currentColor" stroke-width="1.6" stroke-linecap="round"><path d="M3 7 h14 M3 13 h14"/><circle cx="8" cy="7" r="1.9" fill="#fff"/><circle cx="13" cy="13" r="1.9" fill="#fff"/></g>
    <g id="ic-user" fill="none" stroke="currentColor" stroke-width="1.6" stroke-linecap="round"><circle cx="10" cy="7" r="3.2"/><path d="M4.5 16.5 a5.5 5.5 0 0 1 11 0"/></g>
    <g id="ic-search" fill="none" stroke="currentColor" stroke-width="1.7" stroke-linecap="round"><circle cx="9" cy="9" r="5.5"/><path d="M13.2 13.2 L17.2 17.2"/></g>
    <g id="ic-bell" fill="none" stroke="currentColor" stroke-width="1.6" stroke-linejoin="round" stroke-linecap="round"><path d="M10 3 a4.6 4.6 0 0 1 4.6 4.6 c0 4 1.4 5.4 1.4 5.4 h-12 s1.4-1.4 1.4-5.4 a4.6 4.6 0 0 1 4.6-4.6z"/><path d="M8.3 16 a1.8 1.8 0 0 0 3.4 0"/></g>
    <g id="ic-menu" fill="none" stroke="currentColor" stroke-width="1.8" stroke-linecap="round"><path d="M3 6 h16 M3 11 h16 M3 16 h16"/></g>
    <g id="ic-check" fill="none" stroke="currentColor" stroke-width="1.8" stroke-linecap="round" stroke-linejoin="round"><path d="M4 10.5 l3.6 3.6 L16 6"/></g>
  </defs>
  <style>
    .navi{fill:#5A6A85;font-weight:500}.col{fill:#8A95A5;font-weight:600;letter-spacing:.4px}
    .h{fill:#2A3547;font-weight:600}.sub{fill:#5A6A85;font-weight:400}.lbl{fill:#8A95A5;font-weight:500}.cell{fill:#2A3547;font-weight:500}.mut{fill:#8A95A5;font-weight:500}.lnk{fill:#c479c2;font-weight:600}.pill{font-weight:600}
  </style>
  <rect width="1440" height="800" fill="#F4F6FB"/>
  <rect x="0" y="0" width="256" height="800" fill="#FFFFFF"/><line x1="256" y1="0" x2="256" y2="800" stroke="#ECEFF4"/>
  <rect x="24" y="21" width="30" height="30" rx="8" fill="#c479c2"/><text x="39" y="42" font-size="17" font-weight="700" fill="#FFFFFF" text-anchor="middle">S</text><text x="66" y="42" font-size="19" font-weight="700" fill="#2A3547">Squibbon</text>
  <text x="24" y="90" class="col" font-size="11">DASHBOARDS</text>
  <g style="color:#5A6A85"><use href="#ic-grid" x="22" y="102" width="18" height="18"/></g><text x="50" y="116" class="navi" font-size="12.5">Dashboard</text>
  <text x="24" y="142" class="col" font-size="11">MAINTENANCE</text>
  <g style="color:#5A6A85"><use href="#ic-shield" x="22" y="154" width="18" height="18"/></g><text x="50" y="168" class="navi" font-size="12.5">Compliance dashboard</text>
  <g style="color:#5A6A85"><use href="#ic-clip" x="22" y="184" width="18" height="18"/></g><text x="50" y="198" class="navi" font-size="12.5">DriveON · Ontario</text>
  <g style="color:#5A6A85"><use href="#ic-clip" x="22" y="214" width="18" height="18"/></g><text x="50" y="228" class="navi" font-size="12.5">SAAQ · Quebec</text>
  <g style="color:#5A6A85"><use href="#ic-clip" x="22" y="244" width="18" height="18"/></g><text x="50" y="258" class="navi" font-size="12.5">NSC inspections</text>
  <g style="color:#5A6A85"><use href="#ic-clip" x="22" y="274" width="18" height="18"/></g><text x="50" y="288" class="navi" font-size="12.5">Circle checks</text>
  <g style="color:#5A6A85"><use href="#ic-cal" x="22" y="304" width="18" height="18"/></g><text x="50" y="318" class="navi" font-size="12.5">Preventive maintenance</text>
  <g style="color:#5A6A85"><use href="#ic-gauge" x="22" y="334" width="18" height="18"/></g><text x="50" y="348" class="navi" font-size="12.5">Meter readings</text>
  <g style="color:#5A6A85"><use href="#ic-file" x="22" y="364" width="18" height="18"/></g><text x="50" y="378" class="navi" font-size="12.5">Credentials &amp; docs</text>
  <g style="color:#5A6A85"><use href="#ic-refresh" x="22" y="394" width="18" height="18"/></g><text x="50" y="408" class="navi" font-size="12.5">Recalls &amp; warranty</text>
  <rect x="12" y="420" width="232" height="26" rx="7" fill="#FFEBFE"/>
  <g style="color:#c479c2"><use href="#ic-alert" x="22" y="424" width="18" height="18"/></g><text x="50" y="438" font-size="12.5" font-weight="600" fill="#c479c2">Defects &amp; repairs</text>
  <g style="color:#5A6A85"><use href="#ic-truck" x="22" y="454" width="18" height="18"/></g><text x="50" y="468" class="navi" font-size="12.5">Equipment</text>
  <g style="color:#5A6A85"><use href="#ic-building" x="22" y="484" width="18" height="18"/></g><text x="50" y="498" class="navi" font-size="12.5">Carrier · CVOR/PEVL</text>
  <g style="color:#5A6A85"><use href="#ic-chart" x="22" y="514" width="18" height="18"/></g><text x="50" y="528" class="navi" font-size="12.5">Compliance reports</text>
  <text x="24" y="552" class="col" font-size="11">SETTINGS</text>
  <g style="color:#5A6A85"><use href="#ic-slider" x="22" y="564" width="18" height="18"/></g><text x="50" y="578" class="navi" font-size="12.5">Compliance settings</text>
  <g style="color:#5A6A85"><use href="#ic-user" x="22" y="594" width="18" height="18"/></g><text x="50" y="608" class="navi" font-size="12.5">Roles &amp; access</text>
  <rect x="256" y="0" width="1184" height="72" fill="#FFFFFF"/><line x1="256" y1="72" x2="1440" y2="72" stroke="#ECEFF4"/>
  <g style="color:#5A6A85"><use href="#ic-menu" x="282" y="26" width="20" height="20"/></g>
  <rect x="324" y="18" width="300" height="36" rx="18" fill="#F4F6FB"/><g style="color:#8A95A5"><use href="#ic-search" x="340" y="27" width="18" height="18"/></g><text x="366" y="41" font-size="12.5" fill="#9AA4B2">Search unit or repair…</text>
  <rect x="1108" y="17" width="170" height="38" rx="8" fill="#c479c2"/><g style="color:#FFFFFF"><use href="#ic-check" x="1124" y="28" width="16" height="16"/></g><text x="1148" y="41" font-size="12.5" font-weight="600" fill="#FFFFFF">Mark completed</text>
  <g style="color:#5A6A85"><use href="#ic-bell" x="1300" y="26" width="20" height="20"/></g><circle cx="1317" cy="27" r="4" fill="#FA5A5A"/>
  <text x="1368" y="33" font-size="12.5" font-weight="600" fill="#2A3547" text-anchor="end">T. Hopper</text><text x="1368" y="47" font-size="10.5" fill="#8A95A5" text-anchor="end">Maintenance</text>
  <circle cx="1392" cy="36" r="16" fill="#FFEBFE"/><text x="1392" y="40" font-size="12" font-weight="700" fill="#c479c2" text-anchor="middle">TH</text>

  <text x="280" y="108" class="mut" font-size="12">Defects &amp; repairs  ›  REP-2041</text>
  <text x="280" y="136" font-size="21" font-weight="700" fill="#2A3547">Repair work order — REP-2041</text>
  <rect x="650" y="121" width="92" height="22" rx="11" fill="#FEF4E6"/><text x="696" y="136" class="pill" font-size="11" fill="#A8720F" text-anchor="middle">In progress</text>
  <text x="280" y="158" class="mut" font-size="12">TRK-1180 · source: DriveON inspection (failed)</text>

  <rect x="280" y="176" width="720" height="228" rx="12" fill="#FFFFFF" stroke="#ECEFF4" filter="url(#sh)"/>
  <text x="304" y="208" class="h" font-size="15">Work order</text>
  <text x="304" y="240" class="lbl" font-size="12">Status</text><rect x="304" y="248" width="92" height="20" rx="10" fill="#FEF4E6"/><text x="350" y="262" class="pill" font-size="10.5" fill="#A8720F" text-anchor="middle">In progress</text>
  <text x="680" y="240" class="lbl" font-size="12">Priority</text><text x="680" y="262" class="cell" font-size="13" fill="#C0392B" font-weight="600">High</text>
  <text x="304" y="294" class="lbl" font-size="12">Unit</text><text x="304" y="316" class="cell" font-size="13">TRK-1180 · Truck</text>
  <text x="680" y="294" class="lbl" font-size="12">Reported</text><text x="680" y="316" class="cell" font-size="13">02 Jun 2025</text>
  <text x="304" y="348" class="lbl" font-size="12">Assigned to</text><text x="304" y="370" class="cell" font-size="13">A. Roy · Bay 2 (in-house)</text>
  <text x="680" y="348" class="lbl" font-size="12">Est. completion</text><text x="680" y="370" class="cell" font-size="13">03 Jun 2025</text>
  <text x="304" y="396" class="mut" font-size="11.5">Adjust front brakes, replace brake chamber, re-test brake performance.</text>

  <rect x="280" y="420" width="720" height="200" rx="12" fill="#FFFFFF" stroke="#ECEFF4" filter="url(#sh)"/>
  <text x="304" y="452" class="h" font-size="15">Parts &amp; labour</text>
  <g class="col" font-size="10.5"><text x="304" y="482">ITEM</text><text x="640" y="482">TYPE</text><text x="780" y="482">QTY</text><text x="976" y="482" text-anchor="end">COST</text></g>
  <line x1="304" y1="492" x2="976" y2="492" stroke="#ECEFF4"/>
  <g font-size="12.5">
  <text x="304" y="514" class="cell">Brake chamber</text><text x="640" y="514" class="sub">Part</text><text x="780" y="514" class="sub">1</text><text x="976" y="514" class="cell" text-anchor="end">$84.00</text><line x1="304" y1="528" x2="976" y2="528" stroke="#F4F6FA"/>
  <text x="304" y="548" class="cell">Brake hardware kit</text><text x="640" y="548" class="sub">Part</text><text x="780" y="548" class="sub">1</text><text x="976" y="548" class="cell" text-anchor="end">$36.50</text><line x1="304" y1="562" x2="976" y2="562" stroke="#F4F6FA"/>
  <text x="304" y="582" class="cell">Labour — brake adjustment</text><text x="640" y="582" class="sub">Labour</text><text x="780" y="582" class="sub">2.0 h</text><text x="976" y="582" class="cell" text-anchor="end">$260.00</text>
  </g>
  <line x1="304" y1="596" x2="976" y2="596" stroke="#ECEFF4"/>
  <text x="304" y="614" class="mut" font-size="11">Parts referenced for the record (not full inventory)</text><text x="976" y="614" class="cell" font-size="13" font-weight="700" text-anchor="end">Total  $380.50</text>

  <rect x="280" y="636" width="720" height="124" rx="12" fill="#FFFFFF" stroke="#ECEFF4" filter="url(#sh)"/>
  <text x="304" y="668" class="h" font-size="15">Out of service &amp; downtime</text>
  <rect x="304" y="684" width="104" height="20" rx="10" fill="#EEF1F6"/><text x="356" y="698" class="pill" font-size="10.5" fill="#5A6A85" text-anchor="middle">Out of service</text>
  <text x="424" y="698" class="mut" font-size="12">since 02 Jun, 08:20 · downtime 1 d 6 h</text>
  <rect x="800" y="680" width="176" height="32" rx="8" fill="#c479c2"/><text x="888" y="700" font-size="12" font-weight="600" fill="#FFFFFF" text-anchor="middle">Return to service</text>
  <text x="304" y="736" class="mut" font-size="11">Out-of-service units are blocked from dispatch until returned to service.</text>

  <rect x="1032" y="176" width="384" height="176" rx="12" fill="#FFFFFF" stroke="#ECEFF4" filter="url(#sh)"/>
  <text x="1052" y="208" class="h" font-size="15">Compliance source</text>
  <rect x="1052" y="224" width="120" height="20" rx="10" fill="#FDECEC"/><text x="1112" y="238" class="pill" font-size="10" fill="#C0392B" text-anchor="middle">DriveON · Failed</text>
  <text x="1052" y="266" class="cell" font-size="12.5">Inspection record · TRK-1180</text><text x="1396" y="266" class="lnk" font-size="12" text-anchor="end">Open →</text>
  <text x="1052" y="290" class="mut" font-size="11.5">Requires re-inspection before compliant</text>
  <rect x="1052" y="304" width="344" height="34" rx="8" fill="#c479c2"/><text x="1224" y="326" font-size="12" font-weight="600" fill="#FFFFFF" text-anchor="middle">Mark ready for re-inspection</text>

  <rect x="1032" y="368" width="384" height="110" rx="12" fill="#FFFFFF" stroke="#ECEFF4" filter="url(#sh)"/>
  <text x="1052" y="400" class="h" font-size="15">Warranty</text>
  <rect x="1052" y="416" width="120" height="20" rx="10" fill="#EAF2FE"/><text x="1112" y="430" class="pill" font-size="10" fill="#1A5FB4" text-anchor="middle">Warranty-eligible</text>
  <text x="1052" y="460" class="mut" font-size="11.5">Brake chamber covered until 12,000 engine-hours.</text>

  <rect x="1032" y="494" width="384" height="266" rx="12" fill="#FFFFFF" stroke="#ECEFF4" filter="url(#sh)"/>
  <text x="1052" y="526" class="h" font-size="15">Activity</text>
  <line x1="1059" y1="548" x2="1059" y2="724" stroke="#E9EDF3" stroke-width="2"/>
  <circle cx="1059" cy="554" r="4" fill="#c479c2"/><text x="1076" y="558" class="cell" font-size="12">Created from failed inspection</text><text x="1076" y="573" class="mut" font-size="10.5">T. Hopper · 02 Jun, 09:10</text>
  <circle cx="1059" cy="600" r="4" fill="#5A6A85"/><text x="1076" y="604" class="cell" font-size="12">Assigned to A. Roy</text><text x="1076" y="619" class="mut" font-size="10.5">T. Hopper · 02 Jun, 09:12</text>
  <circle cx="1059" cy="646" r="4" fill="#5A6A85"/><text x="1076" y="650" class="cell" font-size="12">Parts added · brake chamber</text><text x="1076" y="665" class="mut" font-size="10.5">A. Roy · 03 Jun, 10:25</text>
  <circle cx="1059" cy="692" r="4" fill="#A8720F"/><text x="1076" y="696" class="cell" font-size="12">Repair started</text><text x="1076" y="711" class="mut" font-size="10.5">A. Roy · 03 Jun, 10:40</text>
</svg>
