<svg viewBox="0 0 1440 912" xmlns="http://www.w3.org/2000/svg" font-family="'Plus Jakarta Sans','Inter','Segoe UI',system-ui,sans-serif" role="img" aria-labelledby="t">
  <title id="t">Squibbon — Dispatch compliance validation</title>
  <defs>
    <filter id="sh" x="-6%" y="-10%" width="112%" height="124%"><feDropShadow dx="0" dy="3" stdDeviation="6" flood-color="#2A3547" flood-opacity="0.07"/></filter>
    <filter id="msh" x="-20%" y="-20%" width="140%" height="140%"><feDropShadow dx="0" dy="10" stdDeviation="24" flood-color="#0B1220" flood-opacity="0.30"/></filter>
    <g id="ic-grid" fill="none" stroke="currentColor" stroke-width="1.6"><rect x="3" y="3" width="6" height="6" rx="1.5"/><rect x="11" y="3" width="6" height="6" rx="1.5"/><rect x="3" y="11" width="6" height="6" rx="1.5"/><rect x="11" y="11" width="6" height="6" rx="1.5"/></g>
    <g id="ic-shield" fill="none" stroke="currentColor" stroke-width="1.6" stroke-linejoin="round" stroke-linecap="round"><path d="M10 2.5 L16.5 5 V10 C16.5 13.8 13.6 16.4 10 17.6 C6.4 16.4 3.5 13.8 3.5 10 V5 Z"/><path d="M7.1 10 l1.9 1.9 3.9-4"/></g>
    <g id="ic-clip" fill="none" stroke="currentColor" stroke-width="1.6" stroke-linejoin="round" stroke-linecap="round"><rect x="4.5" y="3.5" width="11" height="13.5" rx="2"/><rect x="7.5" y="2" width="5" height="3" rx="1"/><path d="M7.2 9 h5.6 M7.2 12 h5.6"/></g>
    <g id="ic-cal" fill="none" stroke="currentColor" stroke-width="1.6" stroke-linejoin="round" stroke-linecap="round"><rect x="3.5" y="4.5" width="13" height="12" rx="2"/><path d="M3.5 8 h13 M7 3 v3 M13 3 v3"/></g>
    <g id="ic-gauge" fill="none" stroke="currentColor" stroke-width="1.6" stroke-linecap="round"><path d="M3.6 14.4 a6.4 6.4 0 1 1 12.8 0"/><path d="M10 14.4 l3.2-3.4"/><circle cx="10" cy="14.4" r="1" fill="currentColor" stroke="none"/></g>
    <g id="ic-file" fill="none" stroke="currentColor" stroke-width="1.6" stroke-linejoin="round"><path d="M6 2.8 h5 l4 4 v10.4 a1 1 0 0 1-1 1 H6 a1 1 0 0 1-1-1 V3.8 a1 1 0 0 1 1-1z"/><path d="M11 2.8 v4 h4"/></g>
    <g id="ic-refresh" fill="none" stroke="currentColor" stroke-width="1.6" stroke-linecap="round" stroke-linejoin="round"><path d="M16.5 8 A6.5 6.5 0 1 0 17 11.5"/><path d="M16.5 3.5 V8 H12"/></g>
    <g id="ic-alert" fill="none" stroke="currentColor" stroke-width="1.6" stroke-linejoin="round" stroke-linecap="round"><path d="M10 3.4 L17 16 H3 Z"/><path d="M10 8 v3.4"/><circle cx="10" cy="13.6" r="0.5" fill="currentColor" stroke="none"/></g>
    <g id="ic-truck" fill="none" stroke="currentColor" stroke-width="1.6" stroke-linejoin="round" stroke-linecap="round"><path d="M2.5 6 h8 v7 h-8 z"/><path d="M10.5 8.5 h3.2 l2.4 2.3 v2.2 h-5.6 z"/><circle cx="6" cy="15" r="1.5"/><circle cx="13.7" cy="15" r="1.5"/></g>
    <g id="ic-building" fill="none" stroke="currentColor" stroke-width="1.6" stroke-linejoin="round"><rect x="4.5" y="3.5" width="11" height="14" rx="1.2"/><path d="M7.5 7 h1 M11.5 7 h1 M7.5 10 h1 M11.5 10 h1"/><path d="M8.5 17.5 v-3 h3 v3"/></g>
    <g id="ic-chart" fill="none" stroke="currentColor" stroke-width="1.6" stroke-linejoin="round" stroke-linecap="round"><path d="M3 16.5 h14"/><rect x="4.5" y="9" width="2.6" height="5.5"/><rect x="8.7" y="6" width="2.6" height="8.5"/><rect x="12.9" y="11" width="2.6" height="3.5"/></g>
    <g id="ic-slider" fill="none" stroke="currentColor" stroke-width="1.6" stroke-linecap="round"><path d="M3 7 h14 M3 13 h14"/><circle cx="8" cy="7" r="1.9" fill="#fff"/><circle cx="13" cy="13" r="1.9" fill="#fff"/></g>
    <g id="ic-user" fill="none" stroke="currentColor" stroke-width="1.6" stroke-linecap="round"><circle cx="10" cy="7" r="3.2"/><path d="M4.5 16.5 a5.5 5.5 0 0 1 11 0"/></g>
    <g id="ic-search" fill="none" stroke="currentColor" stroke-width="1.7" stroke-linecap="round"><circle cx="9" cy="9" r="5.5"/><path d="M13.2 13.2 L17.2 17.2"/></g>
    <g id="ic-bell" fill="none" stroke="currentColor" stroke-width="1.6" stroke-linejoin="round" stroke-linecap="round"><path d="M10 3 a4.6 4.6 0 0 1 4.6 4.6 c0 4 1.4 5.4 1.4 5.4 h-12 s1.4-1.4 1.4-5.4 a4.6 4.6 0 0 1 4.6-4.6z"/><path d="M8.3 16 a1.8 1.8 0 0 0 3.4 0"/></g>
    <g id="ic-menu" fill="none" stroke="currentColor" stroke-width="1.8" stroke-linecap="round"><path d="M3 6 h16 M3 11 h16 M3 16 h16"/></g>
    <g id="ic-x" fill="none" stroke="currentColor" stroke-width="1.7" stroke-linecap="round"><path d="M5.5 5.5 l9 9 M14.5 5.5 l-9 9"/></g>
  </defs>
  <style>
    .navi{fill:#5A6A85;font-weight:500}.col{fill:#8A95A5;font-weight:600;letter-spacing:.4px}
    .h{fill:#2A3547;font-weight:600}.cell{fill:#2A3547;font-weight:500}.mut{fill:#8A95A5;font-weight:500}.pill{font-weight:600}
  </style>
  <rect width="1440" height="912" fill="#F4F6FB"/>
  <rect x="0" y="0" width="256" height="912" fill="#FFFFFF"/><line x1="256" y1="0" x2="256" y2="912" stroke="#ECEFF4"/>
  <rect x="24" y="21" width="30" height="30" rx="8" fill="#c479c2"/><text x="39" y="42" font-size="17" font-weight="700" fill="#FFFFFF" text-anchor="middle">S</text><text x="66" y="42" font-size="19" font-weight="700" fill="#2A3547">Squibbon</text>
  <text x="24" y="90" class="col" font-size="11">DASHBOARDS</text>
  <g style="color:#5A6A85"><use href="#ic-grid" x="22" y="102" width="18" height="18"/></g><text x="50" y="116" class="navi" font-size="12.5">Dashboard</text>
  <text x="24" y="142" class="col" font-size="11">MAINTENANCE</text>
  <g style="color:#5A6A85"><use href="#ic-shield" x="22" y="154" width="18" height="18"/></g><text x="50" y="168" class="navi" font-size="12.5">Compliance dashboard</text>
  <g style="color:#5A6A85"><use href="#ic-clip" x="22" y="184" width="18" height="18"/></g><text x="50" y="198" class="navi" font-size="12.5">DriveON · Ontario</text>
  <g style="color:#5A6A85"><use href="#ic-clip" x="22" y="214" width="18" height="18"/></g><text x="50" y="228" class="navi" font-size="12.5">SAAQ · Quebec</text>
  <g style="color:#5A6A85"><use href="#ic-clip" x="22" y="244" width="18" height="18"/></g><text x="50" y="258" class="navi" font-size="12.5">NSC inspections</text>
  <g style="color:#5A6A85"><use href="#ic-clip" x="22" y="274" width="18" height="18"/></g><text x="50" y="288" class="navi" font-size="12.5">Circle checks</text>
  <g style="color:#5A6A85"><use href="#ic-cal" x="22" y="304" width="18" height="18"/></g><text x="50" y="318" class="navi" font-size="12.5">Preventive maintenance</text>
  <g style="color:#5A6A85"><use href="#ic-gauge" x="22" y="334" width="18" height="18"/></g><text x="50" y="348" class="navi" font-size="12.5">Meter readings</text>
  <g style="color:#5A6A85"><use href="#ic-file" x="22" y="364" width="18" height="18"/></g><text x="50" y="378" class="navi" font-size="12.5">Credentials &amp; docs</text>
  <g style="color:#5A6A85"><use href="#ic-refresh" x="22" y="394" width="18" height="18"/></g><text x="50" y="408" class="navi" font-size="12.5">Recalls &amp; warranty</text>
  <g style="color:#5A6A85"><use href="#ic-alert" x="22" y="424" width="18" height="18"/></g><text x="50" y="438" class="navi" font-size="12.5">Defects &amp; repairs</text>
  <rect x="12" y="450" width="232" height="26" rx="7" fill="#FFEBFE"/>
  <g style="color:#c479c2"><use href="#ic-truck" x="22" y="454" width="18" height="18"/></g><text x="50" y="468" font-size="12.5" font-weight="600" fill="#c479c2">Equipment</text>
  <g style="color:#5A6A85"><use href="#ic-building" x="22" y="484" width="18" height="18"/></g><text x="50" y="498" class="navi" font-size="12.5">Carrier · CVOR/PEVL</text>
  <g style="color:#5A6A85"><use href="#ic-chart" x="22" y="514" width="18" height="18"/></g><text x="50" y="528" class="navi" font-size="12.5">Compliance reports</text>
  <text x="24" y="552" class="col" font-size="11">SETTINGS</text>
  <g style="color:#5A6A85"><use href="#ic-slider" x="22" y="564" width="18" height="18"/></g><text x="50" y="578" class="navi" font-size="12.5">Compliance settings</text>
  <g style="color:#5A6A85"><use href="#ic-user" x="22" y="594" width="18" height="18"/></g><text x="50" y="608" class="navi" font-size="12.5">Roles &amp; access</text>
  <rect x="256" y="0" width="1184" height="72" fill="#FFFFFF"/><line x1="256" y1="72" x2="1440" y2="72" stroke="#ECEFF4"/>
  <g style="color:#5A6A85"><use href="#ic-menu" x="282" y="26" width="20" height="20"/></g>
  <rect x="324" y="18" width="300" height="36" rx="18" fill="#F4F6FB"/><g style="color:#8A95A5"><use href="#ic-search" x="340" y="27" width="18" height="18"/></g><text x="366" y="41" font-size="12.5" fill="#9AA4B2">Search trip, unit or driver…</text>
  <rect x="1108" y="17" width="170" height="38" rx="8" fill="#c479c2"/><text x="1193" y="41" font-size="12.5" font-weight="600" fill="#FFFFFF" text-anchor="middle">Publish trip</text>
  <g style="color:#5A6A85"><use href="#ic-bell" x="1300" y="26" width="20" height="20"/></g><circle cx="1317" cy="27" r="4" fill="#FA5A5A"/>
  <text x="1368" y="33" font-size="12.5" font-weight="600" fill="#2A3547" text-anchor="end">K. Singh</text><text x="1368" y="47" font-size="10.5" fill="#8A95A5" text-anchor="end">Dispatch</text>
  <circle cx="1392" cy="36" r="16" fill="#FFEBFE"/><text x="1392" y="40" font-size="12" font-weight="700" fill="#c479c2" text-anchor="middle">KS</text>

  <text x="280" y="118" font-size="22" font-weight="700" fill="#2A3547">Publish trip — TRIP-4821</text>
  <text x="280" y="140" font-size="13" fill="#5A6A85">Toronto → Montréal · departs 22 Jun, 06:00</text>
  <rect x="280" y="160" width="556" height="90" rx="12" fill="#FFFFFF" stroke="#ECEFF4"/><text x="300" y="190" class="h" font-size="14">Power unit · TRK-1180</text><text x="300" y="214" class="mut" font-size="12">Driver: T. Hopper</text>
  <rect x="852" y="160" width="556" height="90" rx="12" fill="#FFFFFF" stroke="#ECEFF4"/><text x="872" y="190" class="h" font-size="14">Trailer · TRL-318</text><text x="872" y="214" class="mut" font-size="12">Reefer · 53 ft</text>

  <rect x="256" y="72" width="1184" height="840" fill="#1B2233" fill-opacity="0.55"/>

  <rect x="528" y="196" width="640" height="548" rx="16" fill="#FFFFFF" filter="url(#msh)"/>
  <rect x="552" y="220" width="40" height="40" rx="10" fill="#FDECEC"/><g style="color:#E25C5C"><use href="#ic-alert" x="562" y="230" width="20" height="20"/></g>
  <text x="604" y="238" font-size="17" font-weight="700" fill="#2A3547">Compliance check failed</text>
  <text x="604" y="258" font-size="12" fill="#8A95A5">2 units on TRIP-4821 are not dispatch-ready</text>
  <g style="color:#8A95A5"><use href="#ic-x" x="1124" y="228" width="18" height="18"/></g>
  <line x1="552" y1="284" x2="1144" y2="284" stroke="#ECEFF4"/>

  <text x="552" y="314" class="col" font-size="11">BLOCKING ISSUES</text>
  <circle cx="558" cy="340" r="4" fill="#E25C5C"/><text x="576" y="344" class="cell" font-size="13">TRK-1180</text><text x="700" y="344" font-size="13" fill="#5A6A85">DriveON inspection failed</text>
  <line x1="552" y1="358" x2="1144" y2="358" stroke="#F4F6FA"/>
  <circle cx="558" cy="382" r="4" fill="#E25C5C"/><text x="576" y="386" class="cell" font-size="13">TRK-1180</text><text x="700" y="386" font-size="13" fill="#5A6A85">Unresolved major defect · Brakes</text>
  <line x1="552" y1="400" x2="1144" y2="400" stroke="#F4F6FA"/>
  <circle cx="558" cy="424" r="4" fill="#E25C5C"/><text x="576" y="428" class="cell" font-size="13">TRL-318</text><text x="700" y="428" font-size="13" fill="#5A6A85">SAAQ PEP expired</text>
  <line x1="552" y1="442" x2="1144" y2="442" stroke="#F4F6FA"/>
  <circle cx="558" cy="466" r="4" fill="#E25C5C"/><text x="576" y="470" class="cell" font-size="13">TRL-318</text><text x="700" y="470" font-size="13" fill="#5A6A85">Registration expired</text>
  <line x1="552" y1="490" x2="1144" y2="490" stroke="#ECEFF4"/>

  <text x="552" y="520" class="cell" font-size="13" font-weight="600">Override (authorized users only)</text>
  <rect x="552" y="532" width="592" height="46" rx="8" fill="#FBFCFE" stroke="#DDE3EC"/><text x="570" y="559" font-size="12.5" fill="#9AA4B2">Reason for override (required)…</text>
  <text x="552" y="602" class="mut" font-size="11">Recorded in audit history with your name &amp; time. Only Dispatch managers and Admins can override.</text>
  <text x="552" y="620" class="mut" font-size="11">Tenant setting: non-compliant equipment blocks dispatch.</text>

  <rect x="824" y="688" width="120" height="40" rx="8" fill="#FFFFFF" stroke="#DDE3EC"/><text x="884" y="713" font-size="12.5" font-weight="600" fill="#5A6A85" text-anchor="middle">Cancel</text>
  <rect x="956" y="688" width="188" height="40" rx="8" fill="#FFFFFF" stroke="#E25C5C"/><text x="1050" y="713" font-size="12.5" font-weight="600" fill="#C0392B" text-anchor="middle">Override &amp; publish</text>
</svg>
