<svg viewBox="0 0 1440 912" xmlns="http://www.w3.org/2000/svg" font-family="'Plus Jakarta Sans','Inter','Segoe UI',system-ui,sans-serif" role="img" aria-labelledby="t">
  <title id="t">Squibbon — Equipment list</title>
  <defs>
    <filter id="sh" x="-6%" y="-10%" width="112%" height="124%"><feDropShadow dx="0" dy="3" stdDeviation="6" flood-color="#2A3547" flood-opacity="0.07"/></filter>
    <g id="ic-grid" fill="none" stroke="currentColor" stroke-width="1.6"><rect x="3" y="3" width="6" height="6" rx="1.5"/><rect x="11" y="3" width="6" height="6" rx="1.5"/><rect x="3" y="11" width="6" height="6" rx="1.5"/><rect x="11" y="11" width="6" height="6" rx="1.5"/></g>
    <g id="ic-shield" fill="none" stroke="currentColor" stroke-width="1.6" stroke-linejoin="round" stroke-linecap="round"><path d="M10 2.5 L16.5 5 V10 C16.5 13.8 13.6 16.4 10 17.6 C6.4 16.4 3.5 13.8 3.5 10 V5 Z"/><path d="M7.1 10 l1.9 1.9 3.9-4"/></g>
    <g id="ic-clip" fill="none" stroke="currentColor" stroke-width="1.6" stroke-linejoin="round" stroke-linecap="round"><rect x="4.5" y="3.5" width="11" height="13.5" rx="2"/><rect x="7.5" y="2" width="5" height="3" rx="1"/><path d="M7.2 9 h5.6 M7.2 12 h5.6"/></g>
    <g id="ic-cal" fill="none" stroke="currentColor" stroke-width="1.6" stroke-linejoin="round" stroke-linecap="round"><rect x="3.5" y="4.5" width="13" height="12" rx="2"/><path d="M3.5 8 h13 M7 3 v3 M13 3 v3"/></g>
    <g id="ic-gauge" fill="none" stroke="currentColor" stroke-width="1.6" stroke-linecap="round"><path d="M3.6 14.4 a6.4 6.4 0 1 1 12.8 0"/><path d="M10 14.4 l3.2-3.4"/><circle cx="10" cy="14.4" r="1" fill="currentColor" stroke="none"/></g>
    <g id="ic-file" fill="none" stroke="currentColor" stroke-width="1.6" stroke-linejoin="round"><path d="M6 2.8 h5 l4 4 v10.4 a1 1 0 0 1-1 1 H6 a1 1 0 0 1-1-1 V3.8 a1 1 0 0 1 1-1z"/><path d="M11 2.8 v4 h4"/></g>
    <g id="ic-refresh" fill="none" stroke="currentColor" stroke-width="1.6" stroke-linecap="round" stroke-linejoin="round"><path d="M16.5 8 A6.5 6.5 0 1 0 17 11.5"/><path d="M16.5 3.5 V8 H12"/></g>
    <g id="ic-alert" fill="none" stroke="currentColor" stroke-width="1.6" stroke-linejoin="round" stroke-linecap="round"><path d="M10 3.4 L17 16 H3 Z"/><path d="M10 8 v3.4"/><circle cx="10" cy="13.6" r="0.5" fill="currentColor" stroke="none"/></g>
    <g id="ic-truck" fill="none" stroke="currentColor" stroke-width="1.6" stroke-linejoin="round" stroke-linecap="round"><path d="M2.5 6 h8 v7 h-8 z"/><path d="M10.5 8.5 h3.2 l2.4 2.3 v2.2 h-5.6 z"/><circle cx="6" cy="15" r="1.5"/><circle cx="13.7" cy="15" r="1.5"/></g>
    <g id="ic-building" fill="none" stroke="currentColor" stroke-width="1.6" stroke-linejoin="round"><rect x="4.5" y="3.5" width="11" height="14" rx="1.2"/><path d="M7.5 7 h1 M11.5 7 h1 M7.5 10 h1 M11.5 10 h1"/><path d="M8.5 17.5 v-3 h3 v3"/></g>
    <g id="ic-chart" fill="none" stroke="currentColor" stroke-width="1.6" stroke-linejoin="round" stroke-linecap="round"><path d="M3 16.5 h14"/><rect x="4.5" y="9" width="2.6" height="5.5"/><rect x="8.7" y="6" width="2.6" height="8.5"/><rect x="12.9" y="11" width="2.6" height="3.5"/></g>
    <g id="ic-slider" fill="none" stroke="currentColor" stroke-width="1.6" stroke-linecap="round"><path d="M3 7 h14 M3 13 h14"/><circle cx="8" cy="7" r="1.9" fill="#fff"/><circle cx="13" cy="13" r="1.9" fill="#fff"/></g>
    <g id="ic-user" fill="none" stroke="currentColor" stroke-width="1.6" stroke-linecap="round"><circle cx="10" cy="7" r="3.2"/><path d="M4.5 16.5 a5.5 5.5 0 0 1 11 0"/></g>
    <g id="ic-search" fill="none" stroke="currentColor" stroke-width="1.7" stroke-linecap="round"><circle cx="9" cy="9" r="5.5"/><path d="M13.2 13.2 L17.2 17.2"/></g>
    <g id="ic-bell" fill="none" stroke="currentColor" stroke-width="1.6" stroke-linejoin="round" stroke-linecap="round"><path d="M10 3 a4.6 4.6 0 0 1 4.6 4.6 c0 4 1.4 5.4 1.4 5.4 h-12 s1.4-1.4 1.4-5.4 a4.6 4.6 0 0 1 4.6-4.6z"/><path d="M8.3 16 a1.8 1.8 0 0 0 3.4 0"/></g>
    <g id="ic-menu" fill="none" stroke="currentColor" stroke-width="1.8" stroke-linecap="round"><path d="M3 6 h16 M3 11 h16 M3 16 h16"/></g>
    <g id="ic-plus" fill="none" stroke="currentColor" stroke-width="1.8" stroke-linecap="round"><path d="M10 4 V16 M4 10 H16"/></g>
    <g id="ic-chevd" fill="none" stroke="currentColor" stroke-width="1.7" stroke-linecap="round" stroke-linejoin="round"><path d="M5.5 8 L10 12.5 L14.5 8"/></g>
    <g id="ic-download" fill="none" stroke="currentColor" stroke-width="1.6" stroke-linecap="round" stroke-linejoin="round"><path d="M10 4 V13 M6.5 9.5 L10 13 l3.5-3.5"/><path d="M4.5 15.5 h11"/></g>
    <g id="ic-dots" fill="#8A95A5" stroke="none"><circle cx="10" cy="4.5" r="1.3"/><circle cx="10" cy="10" r="1.3"/><circle cx="10" cy="15.5" r="1.3"/></g>
  </defs>
  <style>
    .navi{fill:#5A6A85;font-weight:500}.col{fill:#8A95A5;font-weight:600;letter-spacing:.4px}
    .h{fill:#2A3547;font-weight:600}.sub{fill:#5A6A85;font-weight:400}.lbl{fill:#5A6A85;font-weight:500}
    .num{fill:#2A3547;font-weight:700}.cell{fill:#2A3547;font-weight:500}.mut{fill:#8A95A5;font-weight:500}.pill{font-weight:600}
  </style>
  <rect width="1440" height="912" fill="#F4F6FB"/>
  <rect x="0" y="0" width="256" height="912" fill="#FFFFFF"/><line x1="256" y1="0" x2="256" y2="912" stroke="#ECEFF4"/>
  <rect x="24" y="21" width="30" height="30" rx="8" fill="#c479c2"/><text x="39" y="42" font-size="17" font-weight="700" fill="#FFFFFF" text-anchor="middle">S</text><text x="66" y="42" font-size="19" font-weight="700" fill="#2A3547">Squibbon</text>
  <text x="24" y="90" class="col" font-size="11">DASHBOARDS</text>
  <g style="color:#5A6A85"><use href="#ic-grid" x="22" y="102" width="18" height="18"/></g><text x="50" y="116" class="navi" font-size="12.5">Dashboard</text>
  <text x="24" y="142" class="col" font-size="11">MAINTENANCE</text>
  <g style="color:#5A6A85"><use href="#ic-shield" x="22" y="154" width="18" height="18"/></g><text x="50" y="168" class="navi" font-size="12.5">Compliance dashboard</text>
  <g style="color:#5A6A85"><use href="#ic-clip" x="22" y="184" width="18" height="18"/></g><text x="50" y="198" class="navi" font-size="12.5">DriveON · Ontario</text>
  <g style="color:#5A6A85"><use href="#ic-clip" x="22" y="214" width="18" height="18"/></g><text x="50" y="228" class="navi" font-size="12.5">SAAQ · Quebec</text>
  <g style="color:#5A6A85"><use href="#ic-clip" x="22" y="244" width="18" height="18"/></g><text x="50" y="258" class="navi" font-size="12.5">NSC inspections</text>
  <g style="color:#5A6A85"><use href="#ic-clip" x="22" y="274" width="18" height="18"/></g><text x="50" y="288" class="navi" font-size="12.5">Circle checks</text>
  <g style="color:#5A6A85"><use href="#ic-cal" x="22" y="304" width="18" height="18"/></g><text x="50" y="318" class="navi" font-size="12.5">Preventive maintenance</text>
  <g style="color:#5A6A85"><use href="#ic-gauge" x="22" y="334" width="18" height="18"/></g><text x="50" y="348" class="navi" font-size="12.5">Meter readings</text>
  <g style="color:#5A6A85"><use href="#ic-file" x="22" y="364" width="18" height="18"/></g><text x="50" y="378" class="navi" font-size="12.5">Credentials &amp; docs</text>
  <g style="color:#5A6A85"><use href="#ic-refresh" x="22" y="394" width="18" height="18"/></g><text x="50" y="408" class="navi" font-size="12.5">Recalls &amp; warranty</text>
  <g style="color:#5A6A85"><use href="#ic-alert" x="22" y="424" width="18" height="18"/></g><text x="50" y="438" class="navi" font-size="12.5">Defects &amp; repairs</text>
  <rect x="12" y="450" width="232" height="26" rx="7" fill="#FFEBFE"/>
  <g style="color:#c479c2"><use href="#ic-truck" x="22" y="454" width="18" height="18"/></g><text x="50" y="468" font-size="12.5" font-weight="600" fill="#c479c2">Equipment</text>
  <g style="color:#5A6A85"><use href="#ic-building" x="22" y="484" width="18" height="18"/></g><text x="50" y="498" class="navi" font-size="12.5">Carrier · CVOR/PEVL</text>
  <g style="color:#5A6A85"><use href="#ic-chart" x="22" y="514" width="18" height="18"/></g><text x="50" y="528" class="navi" font-size="12.5">Compliance reports</text>
  <text x="24" y="552" class="col" font-size="11">SETTINGS</text>
  <g style="color:#5A6A85"><use href="#ic-slider" x="22" y="564" width="18" height="18"/></g><text x="50" y="578" class="navi" font-size="12.5">Compliance settings</text>
  <g style="color:#5A6A85"><use href="#ic-user" x="22" y="594" width="18" height="18"/></g><text x="50" y="608" class="navi" font-size="12.5">Roles &amp; access</text>
  <rect x="256" y="0" width="1184" height="72" fill="#FFFFFF"/><line x1="256" y1="72" x2="1440" y2="72" stroke="#ECEFF4"/>
  <g style="color:#5A6A85"><use href="#ic-menu" x="282" y="26" width="20" height="20"/></g>
  <rect x="324" y="18" width="300" height="36" rx="18" fill="#F4F6FB"/><g style="color:#8A95A5"><use href="#ic-search" x="340" y="27" width="18" height="18"/></g><text x="366" y="41" font-size="12.5" fill="#9AA4B2">Search unit, plate or VIN…</text>
  <rect x="1108" y="17" width="170" height="38" rx="8" fill="#c479c2"/><g style="color:#FFFFFF"><use href="#ic-plus" x="1132" y="28" width="16" height="16"/></g><text x="1156" y="41" font-size="12.5" font-weight="600" fill="#FFFFFF">Add equipment</text>
  <g style="color:#5A6A85"><use href="#ic-bell" x="1300" y="26" width="20" height="20"/></g><circle cx="1317" cy="27" r="4" fill="#FA5A5A"/>
  <text x="1368" y="33" font-size="12.5" font-weight="600" fill="#2A3547" text-anchor="end">T. Hopper</text><text x="1368" y="47" font-size="10.5" fill="#8A95A5" text-anchor="end">Maintenance</text>
  <circle cx="1392" cy="36" r="16" fill="#FFEBFE"/><text x="1392" y="40" font-size="12" font-weight="700" fill="#c479c2" text-anchor="middle">TH</text>

  <text x="280" y="118" font-size="22" font-weight="700" fill="#2A3547">Equipment</text>
  <text x="280" y="140" font-size="13" fill="#5A6A85">Trucks &amp; trailers with maintenance compliance status</text>

  <g font-size="12">
  <rect x="280" y="158" width="180" height="84" rx="12" fill="#FFFFFF" stroke="#ECEFF4" filter="url(#sh)"/><text x="298" y="188" class="lbl">Total equipment</text><text x="298" y="222" class="num" font-size="24">288</text><text x="298" y="242" font-size="11" font-weight="600" fill="#5A6A85">trucks &amp; trailers</text>
  <rect x="476" y="158" width="180" height="84" rx="12" fill="#FFFFFF" stroke="#ECEFF4" filter="url(#sh)"/><text x="494" y="188" class="lbl">Compliant</text><text x="494" y="222" class="num" font-size="24">248</text><text x="494" y="242" font-size="11" font-weight="600" fill="#0F9C96">86% of fleet</text>
  <rect x="672" y="158" width="180" height="84" rx="12" fill="#FFFFFF" stroke="#ECEFF4" filter="url(#sh)"/><text x="690" y="188" class="lbl">Non-compliant</text><text x="690" y="222" class="num" font-size="24">36</text><text x="690" y="242" font-size="11" font-weight="600" fill="#C0392B">needs action</text>
  <rect x="868" y="158" width="180" height="84" rx="12" fill="#FFFFFF" stroke="#ECEFF4" filter="url(#sh)"/><text x="886" y="188" class="lbl">Out of service</text><text x="886" y="222" class="num" font-size="24">4</text><text x="886" y="242" font-size="11" font-weight="600" fill="#5A6A85">in repair</text>
  </g>

  <rect x="280" y="262" width="1136" height="56" rx="12" fill="#FFFFFF" stroke="#ECEFF4" filter="url(#sh)"/>
  <rect x="300" y="274" width="260" height="32" rx="16" fill="#F4F6FB"/><g style="color:#8A95A5"><use href="#ic-search" x="314" y="281" width="16" height="16"/></g><text x="338" y="294" font-size="12" fill="#9AA4B2">Search unit, plate or VIN</text>
  <rect x="580" y="274" width="84" height="32" rx="8" fill="#FFFFFF" stroke="#DDE3EC"/><text x="596" y="294" class="cell" font-size="12">Type</text><g style="color:#8A95A5"><use href="#ic-chevd" x="636" y="281" width="16" height="16"/></g>
  <rect x="674" y="274" width="120" height="32" rx="8" fill="#FFFFFF" stroke="#DDE3EC"/><text x="690" y="294" class="cell" font-size="12">Jurisdiction</text><g style="color:#8A95A5"><use href="#ic-chevd" x="766" y="281" width="16" height="16"/></g>
  <rect x="804" y="274" width="120" height="32" rx="8" fill="#FFFFFF" stroke="#DDE3EC"/><text x="820" y="294" class="cell" font-size="12">Compliance</text><g style="color:#8A95A5"><use href="#ic-chevd" x="896" y="281" width="16" height="16"/></g>
  <rect x="1320" y="274" width="96" height="32" rx="8" fill="#FFFFFF" stroke="#DDE3EC"/><g style="color:#5A6A85"><use href="#ic-download" x="1336" y="281" width="16" height="16"/></g><text x="1358" y="294" class="cell" font-size="12">Export</text>

  <rect x="280" y="330" width="1136" height="456" rx="12" fill="#FFFFFF" stroke="#ECEFF4" filter="url(#sh)"/>
  <g class="col" font-size="10.5"><text x="300" y="362">UNIT</text><text x="396" y="362">TYPE</text><text x="480" y="362">JURISDICTION</text><text x="640" y="362">ODOMETER</text><text x="800" y="362">NEXT / ISSUE</text><text x="1180" y="362">STATUS</text></g>
  <line x1="300" y1="372" x2="1392" y2="372" stroke="#ECEFF4"/>
  <g font-size="12.5">
  <text x="300" y="396" class="cell">TRK-1180</text><text x="396" y="396" class="sub">Truck</text><text x="480" y="396" class="sub">Ontario</text><text x="640" y="396" class="sub">412,880 km</text><text x="800" y="396" font-weight="500" fill="#C0392B">DriveON failed</text><rect x="1180" y="383" width="118" height="19" rx="9.5" fill="#FDECEC"/><text x="1239" y="396" class="pill" font-size="10.5" fill="#C0392B" text-anchor="middle">Non-compliant</text><g style="color:#C7CFDA"><use href="#ic-dots" x="1372" y="387" width="14" height="14"/></g><line x1="300" y1="414" x2="1392" y2="414" stroke="#F4F6FA"/>
  <text x="300" y="432" class="cell">TRK-1042</text><text x="396" y="432" class="sub">Truck</text><text x="480" y="432" class="sub">Ontario</text><text x="640" y="432" class="sub">398,200 km</text><text x="800" y="432" font-weight="500" fill="#A8720F">DriveON in 5 days</text><rect x="1180" y="419" width="118" height="19" rx="9.5" fill="#FEF4E6"/><text x="1239" y="432" class="pill" font-size="10.5" fill="#A8720F" text-anchor="middle">Expiring</text><g style="color:#C7CFDA"><use href="#ic-dots" x="1372" y="423" width="14" height="14"/></g><line x1="300" y1="450" x2="1392" y2="450" stroke="#F4F6FA"/>
  <text x="300" y="468" class="cell">TRL-318</text><text x="396" y="468" class="sub">Trailer</text><text x="480" y="468" class="sub">Quebec</text><text x="640" y="468" class="sub">—</text><text x="800" y="468" font-weight="500" fill="#C0392B">SAAQ PEP expired</text><rect x="1180" y="455" width="118" height="19" rx="9.5" fill="#FDECEC"/><text x="1239" y="468" class="pill" font-size="10.5" fill="#C0392B" text-anchor="middle">Non-compliant</text><g style="color:#C7CFDA"><use href="#ic-dots" x="1372" y="459" width="14" height="14"/></g><line x1="300" y1="486" x2="1392" y2="486" stroke="#F4F6FA"/>
  <text x="300" y="504" class="cell">TRK-4410</text><text x="396" y="504" class="sub">Truck</text><text x="480" y="504" class="sub">Quebec</text><text x="640" y="504" class="sub">233,110 km</text><text x="800" y="504" class="sub">PM-B in 3 weeks</text><rect x="1180" y="491" width="118" height="19" rx="9.5" fill="#E6FBF5"/><text x="1239" y="504" class="pill" font-size="10.5" fill="#0F9C96" text-anchor="middle">Compliant</text><g style="color:#C7CFDA"><use href="#ic-dots" x="1372" y="495" width="14" height="14"/></g><line x1="300" y1="522" x2="1392" y2="522" stroke="#F4F6FA"/>
  <text x="300" y="540" class="cell">TRK-0991</text><text x="396" y="540" class="sub">Truck</text><text x="480" y="540" class="sub">Alberta</text><text x="640" y="540" class="sub">410,100 km</text><text x="800" y="540" font-weight="500" fill="#A8720F">CVIP in 12 days</text><rect x="1180" y="527" width="118" height="19" rx="9.5" fill="#FEF4E6"/><text x="1239" y="540" class="pill" font-size="10.5" fill="#A8720F" text-anchor="middle">Expiring</text><g style="color:#C7CFDA"><use href="#ic-dots" x="1372" y="531" width="14" height="14"/></g><line x1="300" y1="558" x2="1392" y2="558" stroke="#F4F6FA"/>
  <text x="300" y="576" class="cell">TRK-0775</text><text x="396" y="576" class="sub">Truck</text><text x="480" y="576" class="sub">Ontario</text><text x="640" y="576" class="sub">305,000 km</text><text x="800" y="576" class="sub">In repair</text><rect x="1180" y="563" width="118" height="19" rx="9.5" fill="#EEF1F6"/><text x="1239" y="576" class="pill" font-size="10.5" fill="#5A6A85" text-anchor="middle">Out of service</text><g style="color:#C7CFDA"><use href="#ic-dots" x="1372" y="567" width="14" height="14"/></g><line x1="300" y1="594" x2="1392" y2="594" stroke="#F4F6FA"/>
  <text x="300" y="612" class="cell">BUS-220</text><text x="396" y="612" class="sub">Bus</text><text x="480" y="612" class="sub">Saskatchewan</text><text x="640" y="612" class="sub">88,900 km</text><text x="800" y="612" class="sub">CVIP current</text><rect x="1180" y="599" width="118" height="19" rx="9.5" fill="#E6FBF5"/><text x="1239" y="612" class="pill" font-size="10.5" fill="#0F9C96" text-anchor="middle">Compliant</text><g style="color:#C7CFDA"><use href="#ic-dots" x="1372" y="603" width="14" height="14"/></g><line x1="300" y1="630" x2="1392" y2="630" stroke="#F4F6FA"/>
  <text x="300" y="648" class="cell">TRK-0905</text><text x="396" y="648" class="sub">Truck</text><text x="480" y="648" class="sub">Ontario</text><text x="640" y="648" class="sub">198,455 km</text><text x="800" y="648" class="sub">DriveON current</text><rect x="1180" y="635" width="118" height="19" rx="9.5" fill="#E6FBF5"/><text x="1239" y="648" class="pill" font-size="10.5" fill="#0F9C96" text-anchor="middle">Compliant</text><g style="color:#C7CFDA"><use href="#ic-dots" x="1372" y="639" width="14" height="14"/></g>
  </g>
  <line x1="300" y1="730" x2="1392" y2="730" stroke="#ECEFF4"/>
  <text x="300" y="760" class="mut" font-size="12">Showing 1–8 of 288 units</text>
  <text x="1392" y="760" class="mut" font-size="12" text-anchor="end">‹   1   2   3   …   36   ›</text>
</svg>
