<svg viewBox="0 0 1440 1000" xmlns="http://www.w3.org/2000/svg" font-family="'Plus Jakarta Sans','Inter','Segoe UI',system-ui,sans-serif" role="img" aria-labelledby="t">
  <title id="t">Squibbon — Equipment profile</title>
  <defs>
    <filter id="sh" x="-6%" y="-10%" width="112%" height="124%"><feDropShadow dx="0" dy="3" stdDeviation="6" flood-color="#2A3547" flood-opacity="0.07"/></filter>
    <g id="ic-grid" fill="none" stroke="currentColor" stroke-width="1.6"><rect x="3" y="3" width="6" height="6" rx="1.5"/><rect x="11" y="3" width="6" height="6" rx="1.5"/><rect x="3" y="11" width="6" height="6" rx="1.5"/><rect x="11" y="11" width="6" height="6" rx="1.5"/></g>
    <g id="ic-shield" fill="none" stroke="currentColor" stroke-width="1.6" stroke-linejoin="round" stroke-linecap="round"><path d="M10 2.5 L16.5 5 V10 C16.5 13.8 13.6 16.4 10 17.6 C6.4 16.4 3.5 13.8 3.5 10 V5 Z"/><path d="M7.1 10 l1.9 1.9 3.9-4"/></g>
    <g id="ic-clip" fill="none" stroke="currentColor" stroke-width="1.6" stroke-linejoin="round" stroke-linecap="round"><rect x="4.5" y="3.5" width="11" height="13.5" rx="2"/><rect x="7.5" y="2" width="5" height="3" rx="1"/><path d="M7.2 9 h5.6 M7.2 12 h5.6"/></g>
    <g id="ic-cal" fill="none" stroke="currentColor" stroke-width="1.6" stroke-linejoin="round" stroke-linecap="round"><rect x="3.5" y="4.5" width="13" height="12" rx="2"/><path d="M3.5 8 h13 M7 3 v3 M13 3 v3"/></g>
    <g id="ic-gauge" fill="none" stroke="currentColor" stroke-width="1.6" stroke-linecap="round"><path d="M3.6 14.4 a6.4 6.4 0 1 1 12.8 0"/><path d="M10 14.4 l3.2-3.4"/><circle cx="10" cy="14.4" r="1" fill="currentColor" stroke="none"/></g>
    <g id="ic-file" fill="none" stroke="currentColor" stroke-width="1.6" stroke-linejoin="round"><path d="M6 2.8 h5 l4 4 v10.4 a1 1 0 0 1-1 1 H6 a1 1 0 0 1-1-1 V3.8 a1 1 0 0 1 1-1z"/><path d="M11 2.8 v4 h4"/></g>
    <g id="ic-refresh" fill="none" stroke="currentColor" stroke-width="1.6" stroke-linecap="round" stroke-linejoin="round"><path d="M16.5 8 A6.5 6.5 0 1 0 17 11.5"/><path d="M16.5 3.5 V8 H12"/></g>
    <g id="ic-alert" fill="none" stroke="currentColor" stroke-width="1.6" stroke-linejoin="round" stroke-linecap="round"><path d="M10 3.4 L17 16 H3 Z"/><path d="M10 8 v3.4"/><circle cx="10" cy="13.6" r="0.5" fill="currentColor" stroke="none"/></g>
    <g id="ic-truck" fill="none" stroke="currentColor" stroke-width="1.6" stroke-linejoin="round" stroke-linecap="round"><path d="M2.5 6 h8 v7 h-8 z"/><path d="M10.5 8.5 h3.2 l2.4 2.3 v2.2 h-5.6 z"/><circle cx="6" cy="15" r="1.5"/><circle cx="13.7" cy="15" r="1.5"/></g>
    <g id="ic-building" fill="none" stroke="currentColor" stroke-width="1.6" stroke-linejoin="round"><rect x="4.5" y="3.5" width="11" height="14" rx="1.2"/><path d="M7.5 7 h1 M11.5 7 h1 M7.5 10 h1 M11.5 10 h1"/><path d="M8.5 17.5 v-3 h3 v3"/></g>
    <g id="ic-chart" fill="none" stroke="currentColor" stroke-width="1.6" stroke-linejoin="round" stroke-linecap="round"><path d="M3 16.5 h14"/><rect x="4.5" y="9" width="2.6" height="5.5"/><rect x="8.7" y="6" width="2.6" height="8.5"/><rect x="12.9" y="11" width="2.6" height="3.5"/></g>
    <g id="ic-slider" fill="none" stroke="currentColor" stroke-width="1.6" stroke-linecap="round"><path d="M3 7 h14 M3 13 h14"/><circle cx="8" cy="7" r="1.9" fill="#fff"/><circle cx="13" cy="13" r="1.9" fill="#fff"/></g>
    <g id="ic-user" fill="none" stroke="currentColor" stroke-width="1.6" stroke-linecap="round"><circle cx="10" cy="7" r="3.2"/><path d="M4.5 16.5 a5.5 5.5 0 0 1 11 0"/></g>
    <g id="ic-search" fill="none" stroke="currentColor" stroke-width="1.7" stroke-linecap="round"><circle cx="9" cy="9" r="5.5"/><path d="M13.2 13.2 L17.2 17.2"/></g>
    <g id="ic-bell" fill="none" stroke="currentColor" stroke-width="1.6" stroke-linejoin="round" stroke-linecap="round"><path d="M10 3 a4.6 4.6 0 0 1 4.6 4.6 c0 4 1.4 5.4 1.4 5.4 h-12 s1.4-1.4 1.4-5.4 a4.6 4.6 0 0 1 4.6-4.6z"/><path d="M8.3 16 a1.8 1.8 0 0 0 3.4 0"/></g>
    <g id="ic-menu" fill="none" stroke="currentColor" stroke-width="1.8" stroke-linecap="round"><path d="M3 6 h16 M3 11 h16 M3 16 h16"/></g>
    <g id="ic-edit" fill="none" stroke="currentColor" stroke-width="1.6" stroke-linejoin="round" stroke-linecap="round"><path d="M4 16 l1-3.5 7.5-7.5 2.5 2.5 -7.5 7.5z"/><path d="M11.5 5 l2.5 2.5"/></g>
    <g id="ic-download" fill="none" stroke="currentColor" stroke-width="1.6" stroke-linecap="round" stroke-linejoin="round"><path d="M10 4 V13 M6.5 9.5 L10 13 l3.5-3.5"/><path d="M4.5 15.5 h11"/></g>
  </defs>
  <style>
    .navi{fill:#5A6A85;font-weight:500}.col{fill:#8A95A5;font-weight:600;letter-spacing:.4px}
    .h{fill:#2A3547;font-weight:600}.sub{fill:#5A6A85;font-weight:400}.lbl{fill:#8A95A5;font-weight:500}.cell{fill:#2A3547;font-weight:500}.mut{fill:#8A95A5;font-weight:500}.lnk{fill:#c479c2;font-weight:600}.pill{font-weight:600}
  </style>
  <rect width="1440" height="1000" fill="#F4F6FB"/>
  <rect x="0" y="0" width="256" height="1000" fill="#FFFFFF"/><line x1="256" y1="0" x2="256" y2="1000" stroke="#ECEFF4"/>
  <rect x="24" y="21" width="30" height="30" rx="8" fill="#c479c2"/><text x="39" y="42" font-size="17" font-weight="700" fill="#FFFFFF" text-anchor="middle">S</text><text x="66" y="42" font-size="19" font-weight="700" fill="#2A3547">Squibbon</text>
  <text x="24" y="90" class="col" font-size="11">DASHBOARDS</text>
  <g style="color:#5A6A85"><use href="#ic-grid" x="22" y="102" width="18" height="18"/></g><text x="50" y="116" class="navi" font-size="12.5">Dashboard</text>
  <text x="24" y="142" class="col" font-size="11">MAINTENANCE</text>
  <g style="color:#5A6A85"><use href="#ic-shield" x="22" y="154" width="18" height="18"/></g><text x="50" y="168" class="navi" font-size="12.5">Compliance dashboard</text>
  <g style="color:#5A6A85"><use href="#ic-clip" x="22" y="184" width="18" height="18"/></g><text x="50" y="198" class="navi" font-size="12.5">DriveON · Ontario</text>
  <g style="color:#5A6A85"><use href="#ic-clip" x="22" y="214" width="18" height="18"/></g><text x="50" y="228" class="navi" font-size="12.5">SAAQ · Quebec</text>
  <g style="color:#5A6A85"><use href="#ic-clip" x="22" y="244" width="18" height="18"/></g><text x="50" y="258" class="navi" font-size="12.5">NSC inspections</text>
  <g style="color:#5A6A85"><use href="#ic-clip" x="22" y="274" width="18" height="18"/></g><text x="50" y="288" class="navi" font-size="12.5">Circle checks</text>
  <g style="color:#5A6A85"><use href="#ic-cal" x="22" y="304" width="18" height="18"/></g><text x="50" y="318" class="navi" font-size="12.5">Preventive maintenance</text>
  <g style="color:#5A6A85"><use href="#ic-gauge" x="22" y="334" width="18" height="18"/></g><text x="50" y="348" class="navi" font-size="12.5">Meter readings</text>
  <g style="color:#5A6A85"><use href="#ic-file" x="22" y="364" width="18" height="18"/></g><text x="50" y="378" class="navi" font-size="12.5">Credentials &amp; docs</text>
  <g style="color:#5A6A85"><use href="#ic-refresh" x="22" y="394" width="18" height="18"/></g><text x="50" y="408" class="navi" font-size="12.5">Recalls &amp; warranty</text>
  <g style="color:#5A6A85"><use href="#ic-alert" x="22" y="424" width="18" height="18"/></g><text x="50" y="438" class="navi" font-size="12.5">Defects &amp; repairs</text>
  <rect x="12" y="450" width="232" height="26" rx="7" fill="#FFEBFE"/>
  <g style="color:#c479c2"><use href="#ic-truck" x="22" y="454" width="18" height="18"/></g><text x="50" y="468" font-size="12.5" font-weight="600" fill="#c479c2">Equipment</text>
  <g style="color:#5A6A85"><use href="#ic-building" x="22" y="484" width="18" height="18"/></g><text x="50" y="498" class="navi" font-size="12.5">Carrier · CVOR/PEVL</text>
  <g style="color:#5A6A85"><use href="#ic-chart" x="22" y="514" width="18" height="18"/></g><text x="50" y="528" class="navi" font-size="12.5">Compliance reports</text>
  <text x="24" y="552" class="col" font-size="11">SETTINGS</text>
  <g style="color:#5A6A85"><use href="#ic-slider" x="22" y="564" width="18" height="18"/></g><text x="50" y="578" class="navi" font-size="12.5">Compliance settings</text>
  <g style="color:#5A6A85"><use href="#ic-user" x="22" y="594" width="18" height="18"/></g><text x="50" y="608" class="navi" font-size="12.5">Roles &amp; access</text>
  <rect x="256" y="0" width="1184" height="72" fill="#FFFFFF"/><line x1="256" y1="72" x2="1440" y2="72" stroke="#ECEFF4"/>
  <g style="color:#5A6A85"><use href="#ic-menu" x="282" y="26" width="20" height="20"/></g>
  <rect x="324" y="18" width="300" height="36" rx="18" fill="#F4F6FB"/><g style="color:#8A95A5"><use href="#ic-search" x="340" y="27" width="18" height="18"/></g><text x="366" y="41" font-size="12.5" fill="#9AA4B2">Search unit, plate or VIN…</text>
  <rect x="1108" y="17" width="170" height="38" rx="8" fill="#c479c2"/><g style="color:#FFFFFF"><use href="#ic-edit" x="1140" y="28" width="16" height="16"/></g><text x="1164" y="41" font-size="12.5" font-weight="600" fill="#FFFFFF">Edit unit</text>
  <g style="color:#5A6A85"><use href="#ic-bell" x="1300" y="26" width="20" height="20"/></g><circle cx="1317" cy="27" r="4" fill="#FA5A5A"/>
  <text x="1368" y="33" font-size="12.5" font-weight="600" fill="#2A3547" text-anchor="end">T. Hopper</text><text x="1368" y="47" font-size="10.5" fill="#8A95A5" text-anchor="end">Maintenance</text>
  <circle cx="1392" cy="36" r="16" fill="#FFEBFE"/><text x="1392" y="40" font-size="12" font-weight="700" fill="#c479c2" text-anchor="middle">TH</text>

  <text x="280" y="106" class="mut" font-size="12">Equipment  ›  TRK-1180</text>
  <text x="280" y="134" font-size="21" font-weight="700" fill="#2A3547">TRK-1180</text>
  <rect x="430" y="119" width="118" height="22" rx="11" fill="#FDECEC"/><text x="489" y="134" class="pill" font-size="11" fill="#C0392B" text-anchor="middle">Non-compliant</text>
  <text x="280" y="156" class="mut" font-size="12">Truck · Ontario · VIN 1FUJA6CK9LL… · Plate ABCD 123</text>

  <rect x="280" y="176" width="1136" height="92" rx="12" fill="#FFFFFF" stroke="#ECEFF4" filter="url(#sh)"/>
  <text x="304" y="212" class="lbl" font-size="12">Odometer</text><text x="304" y="240" class="h" font-size="18">412,880 km</text>
  <text x="560" y="212" class="lbl" font-size="12">Engine hours</text><text x="560" y="240" class="h" font-size="18">9,940 h</text>
  <text x="820" y="212" class="lbl" font-size="12">In service since</text><text x="820" y="240" class="h" font-size="18">2021</text>
  <text x="1080" y="212" class="lbl" font-size="12">Operational</text><rect x="1080" y="222" width="120" height="22" rx="11" fill="#EEF1F6"/><text x="1140" y="237" class="pill" font-size="11" fill="#5A6A85" text-anchor="middle">Out of service</text>

  <text x="288" y="300" font-size="13" font-weight="600" fill="#c479c2">Overview</text><rect x="284" y="309" width="62" height="3" rx="1.5" fill="#c479c2"/>
  <text x="368" y="300" class="navi" font-size="12.5">Inspections</text>
  <text x="470" y="300" class="navi" font-size="12.5">Maintenance</text>
  <text x="582" y="300" class="navi" font-size="12.5">Defects</text>
  <text x="660" y="300" class="navi" font-size="12.5">Documents</text>
  <line x1="280" y1="316" x2="1416" y2="316" stroke="#ECEFF4"/>

  <rect x="280" y="332" width="720" height="296" rx="12" fill="#FFFFFF" stroke="#ECEFF4" filter="url(#sh)"/>
  <text x="304" y="364" class="h" font-size="15">Compliance summary</text>
  <text x="304" y="396" class="cell" font-size="12.5">DriveON · Ontario</text><rect x="600" y="384" width="56" height="18" rx="9" fill="#FDECEC"/><text x="628" y="397" class="pill" font-size="10" fill="#C0392B" text-anchor="middle">Failed</text><text x="976" y="396" class="mut" font-size="11.5" text-anchor="end">re-inspection required</text>
  <line x1="304" y1="410" x2="976" y2="410" stroke="#F4F6FA"/>
  <text x="304" y="430" class="cell" font-size="12.5">Quebec SAAQ</text><text x="976" y="430" class="mut" font-size="11.5" text-anchor="end">not applicable</text>
  <line x1="304" y1="444" x2="976" y2="444" stroke="#F4F6FA"/>
  <text x="304" y="464" class="cell" font-size="12.5">NSC / CVIP</text><text x="976" y="464" class="mut" font-size="11.5" text-anchor="end">not applicable</text>
  <line x1="304" y1="478" x2="976" y2="478" stroke="#F4F6FA"/>
  <text x="304" y="498" class="cell" font-size="12.5">Preventive maintenance</text><rect x="600" y="486" width="56" height="18" rx="9" fill="#FEF4E6"/><text x="628" y="499" class="pill" font-size="10" fill="#A8720F" text-anchor="middle">Overdue</text><text x="976" y="498" class="mut" font-size="11.5" text-anchor="end">PM-A · +1,240 km</text>
  <line x1="304" y1="512" x2="976" y2="512" stroke="#F4F6FA"/>
  <text x="304" y="532" class="cell" font-size="12.5">Latest circle check</text><rect x="600" y="520" width="64" height="18" rx="9" fill="#FDECEC"/><text x="632" y="533" class="pill" font-size="10" fill="#C0392B" text-anchor="middle">Major</text><text x="976" y="532" class="mut" font-size="11.5" text-anchor="end">20 Jun · pre-trip</text>
  <line x1="304" y1="546" x2="976" y2="546" stroke="#F4F6FA"/>
  <text x="304" y="566" class="cell" font-size="12.5">Credentials</text><rect x="600" y="554" width="50" height="18" rx="9" fill="#E6FBF5"/><text x="625" y="567" class="pill" font-size="10" fill="#0F9C96" text-anchor="middle">Valid</text><text x="976" y="566" class="mut" font-size="11.5" text-anchor="end">insurance to 31 Dec</text>
  <line x1="304" y1="580" x2="976" y2="580" stroke="#F4F6FA"/>
  <text x="304" y="600" class="cell" font-size="12.5">Open recalls</text><rect x="600" y="588" width="60" height="18" rx="9" fill="#FEF4E6"/><text x="630" y="601" class="pill" font-size="10" fill="#A8720F" text-anchor="middle">1 open</text><text x="976" y="600" class="mut" font-size="11.5" text-anchor="end">brake caliper bolt</text>

  <rect x="280" y="644" width="352" height="166" rx="12" fill="#FFFFFF" stroke="#ECEFF4" filter="url(#sh)"/>
  <text x="304" y="676" class="h" font-size="15">Open defects</text>
  <text x="304" y="706" class="cell" font-size="12.5">Brakes — out of adjustment</text><rect x="556" y="694" width="56" height="18" rx="9" fill="#FDECEC"/><text x="584" y="707" class="pill" font-size="10" fill="#C0392B" text-anchor="middle">Major</text>
  <line x1="304" y1="722" x2="608" y2="722" stroke="#F4F6FA"/>
  <text x="304" y="746" class="cell" font-size="12.5">Brake caliper bolt (recall)</text><rect x="556" y="734" width="56" height="18" rx="9" fill="#FEF4E6"/><text x="584" y="747" class="pill" font-size="10" fill="#A8720F" text-anchor="middle">Open</text>
  <text x="304" y="784" class="lnk" font-size="12">View all defects →</text>

  <rect x="648" y="644" width="352" height="166" rx="12" fill="#FFFFFF" stroke="#ECEFF4" filter="url(#sh)"/>
  <text x="672" y="676" class="h" font-size="15">Repair history</text>
  <text x="672" y="706" class="cell" font-size="12.5">REP-2041 · Brake adjustment</text><rect x="900" y="694" width="76" height="18" rx="9" fill="#FEF4E6"/><text x="938" y="707" class="pill" font-size="10" fill="#A8720F" text-anchor="middle">In progress</text>
  <line x1="672" y1="722" x2="976" y2="722" stroke="#F4F6FA"/>
  <text x="672" y="746" class="cell" font-size="12.5">REP-1880 · Tire replaced</text><rect x="916" y="734" width="60" height="18" rx="9" fill="#E6FBF5"/><text x="946" y="747" class="pill" font-size="10" fill="#0F9C96" text-anchor="middle">Closed</text>
  <text x="672" y="784" class="lnk" font-size="12">Full repair history →</text>

  <rect x="280" y="826" width="720" height="120" rx="12" fill="#FFFFFF" stroke="#ECEFF4" filter="url(#sh)"/>
  <text x="304" y="858" class="h" font-size="15">Documents</text>
  <rect x="304" y="874" width="210" height="44" rx="8" fill="#FBFCFE" stroke="#E4E9F0"/><g style="color:#8A95A5"><use href="#ic-file" x="316" y="888" width="16" height="16"/></g><text x="340" y="901" class="cell" font-size="11.5">registration-2026.pdf</text>
  <rect x="528" y="874" width="210" height="44" rx="8" fill="#FBFCFE" stroke="#E4E9F0"/><g style="color:#8A95A5"><use href="#ic-file" x="540" y="888" width="16" height="16"/></g><text x="564" y="901" class="cell" font-size="11.5">insurance-cert.pdf</text>
  <rect x="752" y="874" width="216" height="44" rx="8" fill="#FBFCFE" stroke="#E4E9F0"/><g style="color:#8A95A5"><use href="#ic-file" x="764" y="888" width="16" height="16"/></g><text x="788" y="901" class="cell" font-size="11.5">driveon-cert-2024.pdf</text>

  <rect x="1032" y="332" width="384" height="214" rx="12" fill="#FFFFFF" stroke="#ECEFF4" filter="url(#sh)"/>
  <text x="1052" y="364" class="h" font-size="15">Vehicle</text>
  <text x="1052" y="392" class="lbl" font-size="12">Make / model</text><text x="1396" y="392" class="cell" font-size="12.5" text-anchor="end">Freightliner Cascadia</text>
  <text x="1052" y="418" class="lbl" font-size="12">Year</text><text x="1396" y="418" class="cell" font-size="12.5" text-anchor="end">2021</text>
  <text x="1052" y="444" class="lbl" font-size="12">VIN</text><text x="1396" y="444" class="cell" font-size="12.5" text-anchor="end">1FUJA6CK9LL…</text>
  <text x="1052" y="470" class="lbl" font-size="12">Plate</text><text x="1396" y="470" class="cell" font-size="12.5" text-anchor="end">ABCD 123 · ON</text>
  <text x="1052" y="496" class="lbl" font-size="12">GVWR</text><text x="1396" y="496" class="cell" font-size="12.5" text-anchor="end">36,287 kg</text>
  <text x="1052" y="522" class="lbl" font-size="12">Home terminal</text><text x="1396" y="522" class="cell" font-size="12.5" text-anchor="end">Mississauga</text>

  <rect x="1032" y="562" width="384" height="120" rx="12" fill="#FFFFFF" stroke="#ECEFF4" filter="url(#sh)"/>
  <text x="1052" y="594" class="h" font-size="15">Latest readings</text>
  <text x="1052" y="622" class="lbl" font-size="12">Odometer</text><text x="1396" y="622" class="cell" font-size="12.5" text-anchor="end">412,880 km · Samsara</text>
  <text x="1052" y="648" class="lbl" font-size="12">Engine hours</text><text x="1396" y="648" class="cell" font-size="12.5" text-anchor="end">9,940 h</text>
  <text x="1052" y="672" class="mut" font-size="11">Synced 2 minutes ago</text>

  <rect x="1032" y="698" width="384" height="248" rx="12" fill="#FFFFFF" stroke="#ECEFF4" filter="url(#sh)"/>
  <text x="1052" y="730" class="h" font-size="15">Upcoming &amp; alerts</text>
  <text x="1052" y="760" class="cell" font-size="12.5">DriveON re-inspection</text><text x="1396" y="760" font-size="12" font-weight="600" fill="#C0392B" text-anchor="end">required now</text>
  <line x1="1052" y1="774" x2="1396" y2="774" stroke="#F4F6FA"/>
  <text x="1052" y="798" class="cell" font-size="12.5">PM-A service</text><text x="1396" y="798" font-size="12" font-weight="600" fill="#A8720F" text-anchor="end">overdue</text>
  <line x1="1052" y1="812" x2="1396" y2="812" stroke="#F4F6FA"/>
  <text x="1052" y="836" class="cell" font-size="12.5">Insurance renewal</text><text x="1396" y="836" font-size="12" font-weight="600" fill="#5A6A85" text-anchor="end">31 Dec 2026</text>
  <line x1="1052" y1="850" x2="1396" y2="850" stroke="#F4F6FA"/>
  <text x="1052" y="874" class="cell" font-size="12.5">Recall — caliper bolt</text><text x="1396" y="874" font-size="12" font-weight="600" fill="#A8720F" text-anchor="end">open</text>
  <line x1="1052" y1="888" x2="1396" y2="888" stroke="#F4F6FA"/>
  <text x="1052" y="912" class="cell" font-size="12.5">Return to service</text><text x="1396" y="912" font-size="12" font-weight="600" fill="#5A6A85" text-anchor="end">pending repair</text>
</svg>
