<svg viewBox="0 0 1440 800" xmlns="http://www.w3.org/2000/svg" font-family="'Plus Jakarta Sans','Inter','Segoe UI',system-ui,sans-serif" role="img" aria-labelledby="t">
  <title id="t">Squibbon Shop — Warranty register &amp; claim</title>
  <defs>
    <filter id="sh" x="-6%" y="-10%" width="112%" height="124%"><feDropShadow dx="0" dy="3" stdDeviation="6" flood-color="#2A3547" flood-opacity="0.07"/></filter>
    <g id="ic-grid" fill="none" stroke="currentColor" stroke-width="1.6"><rect x="3" y="3" width="6" height="6" rx="1.5"/><rect x="11" y="3" width="6" height="6" rx="1.5"/><rect x="3" y="11" width="6" height="6" rx="1.5"/><rect x="11" y="11" width="6" height="6" rx="1.5"/></g>
    <g id="ic-board" fill="none" stroke="currentColor" stroke-width="1.6"><rect x="3" y="3.5" width="4" height="13" rx="1"/><rect x="8" y="3.5" width="4" height="9" rx="1"/><rect x="13" y="3.5" width="4" height="13" rx="1"/></g>
    <g id="ic-clip" fill="none" stroke="currentColor" stroke-width="1.6" stroke-linejoin="round" stroke-linecap="round"><rect x="4.5" y="3.5" width="11" height="13.5" rx="2"/><rect x="7.5" y="2" width="5" height="3" rx="1"/><path d="M7.2 9 h5.6 M7.2 12 h5.6"/></g>
    <g id="ic-user" fill="none" stroke="currentColor" stroke-width="1.6" stroke-linecap="round"><circle cx="10" cy="7" r="3.2"/><path d="M4.5 16.5 a5.5 5.5 0 0 1 11 0"/></g>
    <g id="ic-truck" fill="none" stroke="currentColor" stroke-width="1.6" stroke-linejoin="round" stroke-linecap="round"><path d="M2.5 6 h8 v7 h-8 z"/><path d="M10.5 8.5 h3.2 l2.4 2.3 v2.2 h-5.6 z"/><circle cx="6" cy="15" r="1.5"/><circle cx="13.7" cy="15" r="1.5"/></g>
    <g id="ic-box" fill="none" stroke="currentColor" stroke-width="1.6" stroke-linejoin="round" stroke-linecap="round"><path d="M10 2.6 l6.4 3.5 v7.8 l-6.4 3.5 -6.4-3.5 v-7.8z"/><path d="M3.6 6.1 L10 9.6 l6.4-3.5 M10 9.6 V17.4"/></g>
    <g id="ic-building" fill="none" stroke="currentColor" stroke-width="1.6" stroke-linejoin="round"><rect x="4.5" y="3.5" width="11" height="14" rx="1.2"/><path d="M7.5 7 h1 M11.5 7 h1 M7.5 10 h1 M11.5 10 h1"/><path d="M8.5 17.5 v-3 h3 v3"/></g>
    <g id="ic-cart" fill="none" stroke="currentColor" stroke-width="1.6" stroke-linejoin="round" stroke-linecap="round"><path d="M3 4 h2.2 l1.8 8.4 h7.6 l1.6-5.8 H6.2"/><circle cx="8" cy="16" r="1.3"/><circle cx="14.5" cy="16" r="1.3"/></g>
    <g id="ic-bill" fill="none" stroke="currentColor" stroke-width="1.6" stroke-linejoin="round" stroke-linecap="round"><path d="M5 2.6 h10 v15 l-2-1.3 -2 1.3 -2-1.3 -2 1.3 -2-1.3z"/><path d="M7.4 7 h5.2 M7.4 10 h5.2 M7.4 13 h3.2"/></g>
    <g id="ic-card" fill="none" stroke="currentColor" stroke-width="1.6" stroke-linejoin="round"><rect x="2.5" y="5" width="15" height="10" rx="2"/><path d="M2.5 8.5 h15 M5 12 h3"/></g>
    <g id="ic-chart" fill="none" stroke="currentColor" stroke-width="1.6" stroke-linejoin="round" stroke-linecap="round"><path d="M3 16.5 h14"/><rect x="4.5" y="9" width="2.6" height="5.5"/><rect x="8.7" y="6" width="2.6" height="8.5"/><rect x="12.9" y="11" width="2.6" height="3.5"/></g>
    <g id="ic-slider" fill="none" stroke="currentColor" stroke-width="1.6" stroke-linecap="round"><path d="M3 7 h14 M3 13 h14"/><circle cx="8" cy="7" r="1.9" fill="#fff"/><circle cx="13" cy="13" r="1.9" fill="#fff"/></g>
    <g id="ic-search" fill="none" stroke="currentColor" stroke-width="1.7" stroke-linecap="round"><circle cx="9" cy="9" r="5.5"/><path d="M13.2 13.2 L17.2 17.2"/></g>
    <g id="ic-bell" fill="none" stroke="currentColor" stroke-width="1.6" stroke-linejoin="round" stroke-linecap="round"><path d="M10 3 a4.6 4.6 0 0 1 4.6 4.6 c0 4 1.4 5.4 1.4 5.4 h-12 s1.4-1.4 1.4-5.4 a4.6 4.6 0 0 1 4.6-4.6z"/><path d="M8.3 16 a1.8 1.8 0 0 0 3.4 0"/></g>
    <g id="ic-menu" fill="none" stroke="currentColor" stroke-width="1.8" stroke-linecap="round"><path d="M3 6 h16 M3 11 h16 M3 16 h16"/></g>
    <g id="ic-shield" fill="none" stroke="currentColor" stroke-width="1.6" stroke-linejoin="round" stroke-linecap="round"><path d="M10 2.5 L16.5 5 v5 c0 4.5-3.2 6.8-6.5 8 -3.3-1.2-6.5-3.5-6.5-8 V5z"/><path d="M7 10 l2 2 4-4.2"/></g>
    <g id="ic-check" fill="none" stroke="currentColor" stroke-width="2" stroke-linecap="round" stroke-linejoin="round"><path d="M4 10.5 l3.6 3.6 L16 6"/></g>
  </defs>
  <style>
    .navi{fill:#5A6A85;font-weight:500}.col{fill:#8A95A5;font-weight:600;letter-spacing:.4px}
    .h{fill:#2A3547;font-weight:600}.sub{fill:#5A6A85;font-weight:400}.lbl{fill:#8A95A5;font-weight:600}.cell{fill:#2A3547;font-weight:500}.mut{fill:#8A95A5;font-weight:500}.val{fill:#2A3547;font-weight:600}.pill{font-weight:600}
  </style>
  <rect width="1440" height="800" fill="#F4F6FB"/>
  <rect x="0" y="0" width="256" height="800" fill="#FFFFFF"/><line x1="256" y1="0" x2="256" y2="800" stroke="#ECEFF4"/>
  <rect x="24" y="21" width="30" height="30" rx="8" fill="#c479c2"/><text x="39" y="42" font-size="17" font-weight="700" fill="#FFFFFF" text-anchor="middle">S</text><text x="66" y="42" font-size="19" font-weight="700" fill="#2A3547">Squibbon</text>
  <rect x="170" y="26" width="58" height="18" rx="9" fill="#E6FBFA"/><text x="199" y="39" font-size="10.5" font-weight="700" fill="#0F9C96" text-anchor="middle">SHOP</text>
  <text x="24" y="90" class="col" font-size="11">SHOP</text>
  <g style="color:#5A6A85"><use href="#ic-grid" x="22" y="100" width="18" height="18"/></g><text x="50" y="114" class="navi" font-size="12.5">Dashboard</text>
  <g style="color:#5A6A85"><use href="#ic-board" x="22" y="138" width="18" height="18"/></g><text x="50" y="152" class="navi" font-size="12.5">Workflow</text>
  <g style="color:#5A6A85"><use href="#ic-clip" x="22" y="177" width="18" height="18"/></g><text x="50" y="191" class="navi" font-size="12.5">Work orders</text>
  <g style="color:#5A6A85"><use href="#ic-user" x="22" y="214" width="18" height="18"/></g><text x="50" y="228" class="navi" font-size="12.5">Customers</text>
  <rect x="12" y="246" width="232" height="28" rx="7" fill="#FFEBFE"/>
  <g style="color:#c479c2"><use href="#ic-truck" x="22" y="251" width="18" height="18"/></g><text x="50" y="265" font-size="12.5" font-weight="600" fill="#c479c2">Vehicles</text>
  <text x="24" y="304" class="col" font-size="11">PARTS &amp; VENDORS</text>
  <g style="color:#5A6A85"><use href="#ic-box" x="22" y="314" width="18" height="18"/></g><text x="50" y="328" class="navi" font-size="12.5">Inventory / parts</text>
  <g style="color:#5A6A85"><use href="#ic-cart" x="22" y="352" width="18" height="18"/></g><text x="50" y="366" class="navi" font-size="12.5">Purchase orders</text>
  <g style="color:#5A6A85"><use href="#ic-building" x="22" y="390" width="18" height="18"/></g><text x="50" y="404" class="navi" font-size="12.5">Vendors</text>
  <text x="24" y="442" class="col" font-size="11">BILLING</text>
  <g style="color:#5A6A85"><use href="#ic-bill" x="22" y="452" width="18" height="18"/></g><text x="50" y="466" class="navi" font-size="12.5">Invoices</text>
  <g style="color:#5A6A85"><use href="#ic-card" x="22" y="490" width="18" height="18"/></g><text x="50" y="504" class="navi" font-size="12.5">Payments</text>
  <g style="color:#5A6A85"><use href="#ic-chart" x="22" y="528" width="18" height="18"/></g><text x="50" y="542" class="navi" font-size="12.5">Reports</text>
  <text x="24" y="580" class="col" font-size="11">SETTINGS</text>
  <g style="color:#5A6A85"><use href="#ic-slider" x="22" y="590" width="18" height="18"/></g><text x="50" y="604" class="navi" font-size="12.5">Shop settings</text>

  <rect x="256" y="0" width="1184" height="72" fill="#FFFFFF"/><line x1="256" y1="72" x2="1440" y2="72" stroke="#ECEFF4"/>
  <g style="color:#5A6A85"><use href="#ic-menu" x="282" y="26" width="20" height="20"/></g>
  <rect x="324" y="18" width="300" height="36" rx="18" fill="#F4F6FB"/><g style="color:#8A95A5"><use href="#ic-search" x="340" y="27" width="18" height="18"/></g><text x="366" y="41" font-size="12.5" fill="#9AA4B2">Search by vehicle, part or warranty…</text>
  <rect x="1118" y="17" width="160" height="38" rx="8" fill="#c479c2"/><text x="1198" y="41" font-size="12.5" font-weight="600" fill="#FFFFFF" text-anchor="middle">New warranty claim</text>
  <g style="color:#5A6A85"><use href="#ic-bell" x="1300" y="26" width="20" height="20"/></g><circle cx="1317" cy="27" r="4" fill="#FA5A5A"/>
  <text x="1368" y="33" font-size="12.5" font-weight="600" fill="#2A3547" text-anchor="end">T. Hopper</text><text x="1368" y="47" font-size="10.5" fill="#8A95A5" text-anchor="end">Advisor</text>
  <circle cx="1392" cy="36" r="16" fill="#FFEBFE"/><text x="1392" y="40" font-size="12" font-weight="700" fill="#c479c2" text-anchor="middle">TH</text>

  <text x="280" y="116" font-size="22" font-weight="700" fill="#2A3547">Warranty register</text>
  <text x="280" y="138" font-size="13" fill="#5A6A85">2019 Ford F-150 · Acme Fleet Ltd · ABCD 123 — coverage on past parts &amp; labour</text>

  <!-- LEFT register -->
  <rect x="280" y="158" width="620" height="600" rx="12" fill="#FFFFFF" stroke="#ECEFF4" filter="url(#sh)"/>
  <text x="304" y="188" class="h" font-size="15">Covered items</text><text x="876" y="188" class="mut" font-size="11.5" text-anchor="end">3 active · 2 expired</text>
  <line x1="304" y1="202" x2="876" y2="202" stroke="#ECEFF4"/>
  <!-- row1 selected -->
  <rect x="292" y="212" width="596" height="86" rx="9" fill="#FBF3FB" stroke="#EBD3EA"/>
  <g style="color:#c479c2"><use href="#ic-shield" x="308" y="230" width="18" height="18"/></g>
  <text x="336" y="240" class="val" font-size="13.5">Front brakes — pads &amp; rotors</text><rect x="700" y="226" width="120" height="20" rx="10" fill="#EAF2FE"/><text x="760" y="240" class="pill" font-size="9.5" fill="#1A5FB4" text-anchor="middle">NAPA AutoCare</text>
  <text x="336" y="262" class="mut" font-size="11.5">Parts + labour · 24 mo / 40,000 km · from WO-10210</text>
  <text x="336" y="284" class="sub" font-size="11">Expires May 2028 or 118,400 km</text><rect x="772" y="272" width="92" height="20" rx="10" fill="#E6FBF5"/><text x="818" y="286" class="pill" font-size="9.5" fill="#0F9C96" text-anchor="middle">Active</text>
  <!-- row2 -->
  <text x="336" y="334" class="val" font-size="13.5">Battery</text><rect x="700" y="320" width="120" height="20" rx="10" fill="#EEF1F6"/><text x="760" y="334" class="pill" font-size="9.5" fill="#5A6A85" text-anchor="middle">Manufacturer</text>
  <text x="336" y="356" class="mut" font-size="11.5">Parts · 36 mo · replaced Jan 2025</text><text x="828" y="356" class="pill" font-size="10" fill="#0F9C96" text-anchor="end">Active</text>
  <line x1="304" y1="378" x2="876" y2="378" stroke="#F4F6FA"/>
  <!-- row3 -->
  <text x="336" y="410" class="val" font-size="13.5">Alternator</text><rect x="700" y="396" width="120" height="20" rx="10" fill="#FBF3FB"/><text x="760" y="410" class="pill" font-size="9.5" fill="#c479c2" text-anchor="middle">Shop</text>
  <text x="336" y="432" class="mut" font-size="11.5">Parts + labour · 12 mo / 20,000 km</text><text x="828" y="432" class="pill" font-size="10" fill="#0F9C96" text-anchor="end">Active</text>
  <line x1="304" y1="454" x2="876" y2="454" stroke="#F4F6FA"/>
  <!-- row4 -->
  <text x="336" y="486" class="val" font-size="13.5" fill="#8A95A5">Windshield (sublet)</text><rect x="700" y="472" width="120" height="20" rx="10" fill="#EEF1F6"/><text x="760" y="486" class="pill" font-size="9.5" fill="#8A95A5" text-anchor="middle">Vendor</text>
  <text x="336" y="508" class="mut" font-size="11.5">12 mo · ClearView Glass · expired Nov 2025</text><text x="828" y="508" class="pill" font-size="10" fill="#8A95A5" text-anchor="end">Expired</text>
  <line x1="304" y1="530" x2="876" y2="530" stroke="#F4F6FA"/>
  <!-- row5 -->
  <text x="336" y="562" class="val" font-size="13.5" fill="#8A95A5">Brake fluid flush (QC statutory)</text>
  <text x="336" y="584" class="mut" font-size="11.5">3 mo / 5,000 km · expired</text><text x="828" y="584" class="pill" font-size="10" fill="#8A95A5" text-anchor="end">Expired</text>
  <rect x="304" y="620" width="572" height="118" rx="10" fill="#F4F6FB"/>
  <text x="324" y="646" class="lbl" font-size="10">HOW COVERAGE IS RECORDED</text>
  <text x="324" y="668" class="sub" font-size="11.5">Every completed job stamps a warranty from its source (shop, national</text>
  <text x="324" y="686" class="sub" font-size="11.5">program, manufacturer, or QC statutory). Expiry is the earlier of time or</text>
  <text x="324" y="704" class="sub" font-size="11.5">distance. Intake auto-checks "is this under warranty?" for the concern.</text>
  <text x="324" y="726" class="mut" font-size="11">Comebacks on covered items open a claim →</text>

  <!-- RIGHT claim -->
  <rect x="924" y="158" width="492" height="600" rx="12" fill="#FFFFFF" stroke="#ECEFF4" filter="url(#sh)"/>
  <text x="948" y="188" class="h" font-size="15">Warranty claim WCLM-204</text>
  <rect x="1308" y="172" width="88" height="22" rx="11" fill="#FEF4E6"/><text x="1352" y="187" class="pill" font-size="10.5" fill="#A8720F" text-anchor="middle">Approved</text>
  <line x1="948" y1="204" x2="1392" y2="204" stroke="#ECEFF4"/>
  <text x="948" y="230" class="lbl" font-size="10">COVERED ITEM</text><text x="948" y="250" class="val" font-size="13.5">Front brakes — pads &amp; rotors</text>
  <text x="948" y="272" class="mut" font-size="11.5">NAPA AutoCare · parts + labour · 24 mo / 40,000 km</text>
  <line x1="948" y1="290" x2="1392" y2="290" stroke="#F4F6FA"/>
  <g font-size="12.5">
  <text x="948" y="316" class="lbl" font-size="10">ORIGINAL RO</text><text x="948" y="335" class="cell">WO-10210 · 12 Mar 2026</text><text x="948" y="352" class="mut" font-size="11">78,400 km · tech A. Roy</text>
  <text x="1190" y="316" class="lbl" font-size="10">COMEBACK RO</text><text x="1190" y="335" class="cell">WO-10428 · 18 Jun 2026</text><text x="1190" y="352" class="mut" font-size="11">84,210 km · brake noise</text>
  </g>
  <line x1="948" y1="372" x2="1392" y2="372" stroke="#F4F6FA"/>
  <!-- status stepper -->
  <text x="948" y="398" class="lbl" font-size="10">CLAIM STATUS</text>
  <circle cx="958" cy="424" r="9" fill="#0F9C96"/><g style="color:#fff"><use href="#ic-check" x="950" y="416" width="16" height="16"/></g><text x="978" y="428" class="cell" font-size="12">Submitted</text>
  <line x1="1050" y1="424" x2="1110" y2="424" stroke="#0F9C96" stroke-width="2"/>
  <circle cx="1124" cy="424" r="9" fill="#0F9C96"/><g style="color:#fff"><use href="#ic-check" x="1116" y="416" width="16" height="16"/></g><text x="1144" y="428" class="cell" font-size="12">Approved</text>
  <line x1="1216" y1="424" x2="1276" y2="424" stroke="#DDE3EC" stroke-width="2"/>
  <circle cx="1290" cy="424" r="9" fill="#fff" stroke="#C7D0DC" stroke-width="2"/><text x="1310" y="428" class="mut" font-size="12">Reimbursed</text>
  <line x1="948" y1="452" x2="1392" y2="452" stroke="#F4F6FA"/>
  <!-- reimbursement -->
  <text x="948" y="478" class="lbl" font-size="10">REIMBURSEMENT</text>
  <rect x="948" y="488" width="216" height="64" rx="9" fill="#F4F6FB"/><text x="966" y="510" class="mut" font-size="11">Parts credit</text><text x="966" y="534" class="val" font-size="16">$58.00</text>
  <rect x="1176" y="488" width="216" height="64" rx="9" fill="#F4F6FB"/><text x="1194" y="510" class="mut" font-size="11">Labour credit</text><text x="1194" y="534" class="val" font-size="16">$120.00</text>
  <rect x="948" y="562" width="444" height="44" rx="9" fill="#E6FBF5"/><text x="966" y="589" class="cell" font-size="12.5">Total recovered from program</text><text x="1374" y="589" class="val" font-size="14" fill="#0F9C96" text-anchor="end">$178.00</text>
  <!-- evidence + actions -->
  <text x="948" y="636" class="lbl" font-size="10">EVIDENCE</text>
  <rect x="948" y="646" width="92" height="58" rx="8" fill="#F4F6FB"/><rect x="1048" y="646" width="92" height="58" rx="8" fill="#F4F6FB"/><text x="994" y="679" class="mut" font-size="10" text-anchor="middle">DVI photo</text><text x="1094" y="679" class="mut" font-size="10" text-anchor="middle">Old part</text>
  <rect x="1160" y="646" width="232" height="58" rx="9" fill="#FFFFFF" stroke="#DDE3EC"/><text x="1276" y="680" class="cell" font-size="12" text-anchor="middle">Mark reimbursed</text>
  <text x="948" y="730" class="mut" font-size="11">Comeback recorded as no-charge to the customer · cost recovered via warranty.</text>
</svg>
