<svg viewBox="0 0 1440 800" xmlns="http://www.w3.org/2000/svg" font-family="'Plus Jakarta Sans','Inter','Segoe UI',system-ui,sans-serif" role="img" aria-labelledby="t">
  <title id="t">Squibbon Shop — Cores &amp; vendor returns</title>
  <defs>
    <filter id="sh" x="-6%" y="-10%" width="112%" height="124%"><feDropShadow dx="0" dy="3" stdDeviation="6" flood-color="#2A3547" flood-opacity="0.07"/></filter>
    <g id="ic-grid" fill="none" stroke="currentColor" stroke-width="1.6"><rect x="3" y="3" width="6" height="6" rx="1.5"/><rect x="11" y="3" width="6" height="6" rx="1.5"/><rect x="3" y="11" width="6" height="6" rx="1.5"/><rect x="11" y="11" width="6" height="6" rx="1.5"/></g>
    <g id="ic-board" fill="none" stroke="currentColor" stroke-width="1.6"><rect x="3" y="3.5" width="4" height="13" rx="1"/><rect x="8" y="3.5" width="4" height="9" rx="1"/><rect x="13" y="3.5" width="4" height="13" rx="1"/></g>
    <g id="ic-clip" fill="none" stroke="currentColor" stroke-width="1.6" stroke-linejoin="round" stroke-linecap="round"><rect x="4.5" y="3.5" width="11" height="13.5" rx="2"/><rect x="7.5" y="2" width="5" height="3" rx="1"/><path d="M7.2 9 h5.6 M7.2 12 h5.6"/></g>
    <g id="ic-user" fill="none" stroke="currentColor" stroke-width="1.6" stroke-linecap="round"><circle cx="10" cy="7" r="3.2"/><path d="M4.5 16.5 a5.5 5.5 0 0 1 11 0"/></g>
    <g id="ic-truck" fill="none" stroke="currentColor" stroke-width="1.6" stroke-linejoin="round" stroke-linecap="round"><path d="M2.5 6 h8 v7 h-8 z"/><path d="M10.5 8.5 h3.2 l2.4 2.3 v2.2 h-5.6 z"/><circle cx="6" cy="15" r="1.5"/><circle cx="13.7" cy="15" r="1.5"/></g>
    <g id="ic-box" fill="none" stroke="currentColor" stroke-width="1.6" stroke-linejoin="round" stroke-linecap="round"><path d="M10 2.6 l6.4 3.5 v7.8 l-6.4 3.5 -6.4-3.5 v-7.8z"/><path d="M3.6 6.1 L10 9.6 l6.4-3.5 M10 9.6 V17.4"/></g>
    <g id="ic-building" fill="none" stroke="currentColor" stroke-width="1.6" stroke-linejoin="round"><rect x="4.5" y="3.5" width="11" height="14" rx="1.2"/><path d="M7.5 7 h1 M11.5 7 h1 M7.5 10 h1 M11.5 10 h1"/><path d="M8.5 17.5 v-3 h3 v3"/></g>
    <g id="ic-cart" fill="none" stroke="currentColor" stroke-width="1.6" stroke-linejoin="round" stroke-linecap="round"><path d="M3 4 h2.2 l1.8 8.4 h7.6 l1.6-5.8 H6.2"/><circle cx="8" cy="16" r="1.3"/><circle cx="14.5" cy="16" r="1.3"/></g>
    <g id="ic-bill" fill="none" stroke="currentColor" stroke-width="1.6" stroke-linejoin="round" stroke-linecap="round"><path d="M5 2.6 h10 v15 l-2-1.3 -2 1.3 -2-1.3 -2 1.3 -2-1.3z"/><path d="M7.4 7 h5.2 M7.4 10 h5.2 M7.4 13 h3.2"/></g>
    <g id="ic-card" fill="none" stroke="currentColor" stroke-width="1.6" stroke-linejoin="round"><rect x="2.5" y="5" width="15" height="10" rx="2"/><path d="M2.5 8.5 h15 M5 12 h3"/></g>
    <g id="ic-chart" fill="none" stroke="currentColor" stroke-width="1.6" stroke-linejoin="round" stroke-linecap="round"><path d="M3 16.5 h14"/><rect x="4.5" y="9" width="2.6" height="5.5"/><rect x="8.7" y="6" width="2.6" height="8.5"/><rect x="12.9" y="11" width="2.6" height="3.5"/></g>
    <g id="ic-slider" fill="none" stroke="currentColor" stroke-width="1.6" stroke-linecap="round"><path d="M3 7 h14 M3 13 h14"/><circle cx="8" cy="7" r="1.9" fill="#fff"/><circle cx="13" cy="13" r="1.9" fill="#fff"/></g>
    <g id="ic-search" fill="none" stroke="currentColor" stroke-width="1.7" stroke-linecap="round"><circle cx="9" cy="9" r="5.5"/><path d="M13.2 13.2 L17.2 17.2"/></g>
    <g id="ic-bell" fill="none" stroke="currentColor" stroke-width="1.6" stroke-linejoin="round" stroke-linecap="round"><path d="M10 3 a4.6 4.6 0 0 1 4.6 4.6 c0 4 1.4 5.4 1.4 5.4 h-12 s1.4-1.4 1.4-5.4 a4.6 4.6 0 0 1 4.6-4.6z"/><path d="M8.3 16 a1.8 1.8 0 0 0 3.4 0"/></g>
    <g id="ic-menu" fill="none" stroke="currentColor" stroke-width="1.8" stroke-linecap="round"><path d="M3 6 h16 M3 11 h16 M3 16 h16"/></g>
    <g id="ic-check" fill="none" stroke="currentColor" stroke-width="2" stroke-linecap="round" stroke-linejoin="round"><path d="M4 10.5 l3.6 3.6 L16 6"/></g>
    <g id="ic-ret" fill="none" stroke="currentColor" stroke-width="1.6" stroke-linecap="round" stroke-linejoin="round"><path d="M7 5 L3 9 l4 4 M3 9 h9 a5 5 0 0 1 5 5 v1"/></g>
  </defs>
  <style>
    .navi{fill:#5A6A85;font-weight:500}.col{fill:#8A95A5;font-weight:600;letter-spacing:.4px}
    .h{fill:#2A3547;font-weight:600}.lbl{fill:#5A6A85;font-weight:500}.num{fill:#2A3547;font-weight:700}.cell{fill:#2A3547;font-weight:500}.mut{fill:#8A95A5;font-weight:500}.pill{font-weight:600}.val{fill:#2A3547;font-weight:600}
  </style>
  <rect width="1440" height="800" fill="#F4F6FB"/>
  <rect x="0" y="0" width="256" height="800" fill="#FFFFFF"/><line x1="256" y1="0" x2="256" y2="800" stroke="#ECEFF4"/>
  <rect x="24" y="21" width="30" height="30" rx="8" fill="#c479c2"/><text x="39" y="42" font-size="17" font-weight="700" fill="#FFFFFF" text-anchor="middle">S</text><text x="66" y="42" font-size="19" font-weight="700" fill="#2A3547">Squibbon</text>
  <rect x="170" y="26" width="58" height="18" rx="9" fill="#E6FBFA"/><text x="199" y="39" font-size="10.5" font-weight="700" fill="#0F9C96" text-anchor="middle">SHOP</text>
  <text x="24" y="90" class="col" font-size="11">SHOP</text>
  <g style="color:#5A6A85"><use href="#ic-grid" x="22" y="100" width="18" height="18"/></g><text x="50" y="114" class="navi" font-size="12.5">Dashboard</text>
  <g style="color:#5A6A85"><use href="#ic-board" x="22" y="138" width="18" height="18"/></g><text x="50" y="152" class="navi" font-size="12.5">Workflow</text>
  <g style="color:#5A6A85"><use href="#ic-clip" x="22" y="177" width="18" height="18"/></g><text x="50" y="191" class="navi" font-size="12.5">Work orders</text>
  <g style="color:#5A6A85"><use href="#ic-user" x="22" y="214" width="18" height="18"/></g><text x="50" y="228" class="navi" font-size="12.5">Customers</text>
  <g style="color:#5A6A85"><use href="#ic-truck" x="22" y="252" width="18" height="18"/></g><text x="50" y="266" class="navi" font-size="12.5">Vehicles</text>
  <text x="24" y="304" class="col" font-size="11">PARTS &amp; VENDORS</text>
  <g style="color:#5A6A85"><use href="#ic-box" x="22" y="314" width="18" height="18"/></g><text x="50" y="328" class="navi" font-size="12.5">Inventory / parts</text>
  <rect x="12" y="346" width="232" height="28" rx="7" fill="#FFEBFE"/>
  <g style="color:#c479c2"><use href="#ic-cart" x="22" y="351" width="18" height="18"/></g><text x="50" y="365" font-size="12.5" font-weight="600" fill="#c479c2">Purchase orders</text>
  <g style="color:#5A6A85"><use href="#ic-building" x="22" y="390" width="18" height="18"/></g><text x="50" y="404" class="navi" font-size="12.5">Vendors</text>
  <text x="24" y="442" class="col" font-size="11">BILLING</text>
  <g style="color:#5A6A85"><use href="#ic-bill" x="22" y="452" width="18" height="18"/></g><text x="50" y="466" class="navi" font-size="12.5">Invoices</text>
  <g style="color:#5A6A85"><use href="#ic-card" x="22" y="490" width="18" height="18"/></g><text x="50" y="504" class="navi" font-size="12.5">Payments</text>
  <g style="color:#5A6A85"><use href="#ic-chart" x="22" y="528" width="18" height="18"/></g><text x="50" y="542" class="navi" font-size="12.5">Reports</text>
  <text x="24" y="580" class="col" font-size="11">SETTINGS</text>
  <g style="color:#5A6A85"><use href="#ic-slider" x="22" y="590" width="18" height="18"/></g><text x="50" y="604" class="navi" font-size="12.5">Shop settings</text>

  <rect x="256" y="0" width="1184" height="72" fill="#FFFFFF"/><line x1="256" y1="72" x2="1440" y2="72" stroke="#ECEFF4"/>
  <g style="color:#5A6A85"><use href="#ic-menu" x="282" y="26" width="20" height="20"/></g>
  <rect x="324" y="18" width="300" height="36" rx="18" fill="#F4F6FB"/><g style="color:#8A95A5"><use href="#ic-search" x="340" y="27" width="18" height="18"/></g><text x="366" y="41" font-size="12.5" fill="#9AA4B2">Search part, RO or vendor…</text>
  <rect x="1118" y="17" width="160" height="38" rx="8" fill="#c479c2"/><g style="color:#FFFFFF"><use href="#ic-ret" x="1146" y="28" width="16" height="16"/></g><text x="1182" y="41" font-size="12.5" font-weight="600" fill="#FFFFFF">New RMA</text>
  <g style="color:#5A6A85"><use href="#ic-bell" x="1300" y="26" width="20" height="20"/></g><circle cx="1317" cy="27" r="4" fill="#FA5A5A"/>
  <text x="1368" y="33" font-size="12.5" font-weight="600" fill="#2A3547" text-anchor="end">D. Cho</text><text x="1368" y="47" font-size="10.5" fill="#8A95A5" text-anchor="end">Parts manager</text>
  <circle cx="1392" cy="36" r="16" fill="#FFEBFE"/><text x="1392" y="40" font-size="12" font-weight="700" fill="#c479c2" text-anchor="middle">DC</text>

  <text x="280" y="116" font-size="22" font-weight="700" fill="#2A3547">Cores &amp; vendor returns</text>
  <text x="280" y="138" font-size="13" fill="#5A6A85">Track core charges to credit, and return defective / warranty parts to vendors</text>

  <!-- KPIs -->
  <g font-size="12">
  <rect x="280" y="158" width="270" height="80" rx="12" fill="#FFFFFF" stroke="#ECEFF4" filter="url(#sh)"/><text x="298" y="186" class="lbl">Outstanding core value</text><text x="298" y="220" class="num" font-size="22">$1,243</text>
  <rect x="566" y="158" width="270" height="80" rx="12" fill="#FFFFFF" stroke="#ECEFF4" filter="url(#sh)"/><text x="584" y="186" class="lbl">Cores pending return</text><text x="584" y="220" class="num" font-size="22">18</text>
  <rect x="852" y="158" width="270" height="80" rx="12" fill="#FFFFFF" stroke="#ECEFF4" filter="url(#sh)"/><text x="870" y="186" class="lbl">Awaiting vendor credit</text><text x="870" y="220" class="num" font-size="22">$640</text>
  <rect x="1138" y="158" width="278" height="80" rx="12" fill="#FFFFFF" stroke="#ECEFF4" filter="url(#sh)"/><text x="1156" y="186" class="lbl">Credited this month</text><text x="1156" y="220" class="num" font-size="22" fill="#0F9C96">$2,100</text>
  </g>

  <!-- cores table -->
  <rect x="280" y="254" width="780" height="504" rx="12" fill="#FFFFFF" stroke="#ECEFF4" filter="url(#sh)"/>
  <g font-size="12.5" font-weight="600"><rect x="296" y="270" width="64" height="26" rx="13" fill="#c479c2"/><text x="328" y="287" fill="#fff" text-anchor="middle">Cores</text><text x="386" y="287" fill="#5A6A85">Vendor returns</text></g>
  <line x1="296" y1="312" x2="1044" y2="312" stroke="#ECEFF4"/>
  <g class="col" font-size="10"><text x="304" y="334">PART</text><text x="600" y="334">CORE $</text><text x="690" y="334">SOURCE RO</text><text x="840" y="334">VENDOR</text><text x="1044" y="334" text-anchor="end">STATUS</text></g>
  <line x1="304" y1="342" x2="1044" y2="342" stroke="#ECEFF4"/>
  <g font-size="12.5">
  <text x="304" y="368" class="cell">Alternator core</text><text x="304" y="384" class="mut" font-size="10.5">6 days old</text><text x="600" y="368" class="val">$45</text><text x="690" y="368" class="mut">WO-10310</text><text x="840" y="368" class="mut">NAPA</text><rect x="936" y="356" width="108" height="20" rx="10" fill="#EAF2FE"/><text x="990" y="370" class="pill" font-size="9.5" fill="#1A5FB4" text-anchor="middle">Returned · credit?</text>
  <line x1="304" y1="398" x2="1044" y2="398" stroke="#F4F6FA"/>
  <text x="304" y="424" class="cell">Battery core</text><text x="304" y="440" class="mut" font-size="10.5">1 day old</text><text x="600" y="424" class="val">$18</text><text x="690" y="424" class="mut">WO-10428</text><text x="840" y="424" class="mut">NAPA</text><rect x="960" y="412" width="84" height="20" rx="10" fill="#FEF4E6"/><text x="1002" y="426" class="pill" font-size="9.5" fill="#A8720F" text-anchor="middle">Pending</text>
  <line x1="304" y1="454" x2="1044" y2="454" stroke="#F4F6FA"/>
  <text x="304" y="480" class="cell">Brake caliper core</text><text x="304" y="496" class="mut" font-size="10.5">12 days old</text><text x="600" y="480" class="val">$60</text><text x="690" y="480" class="mut">WO-10355</text><text x="840" y="480" class="mut">Worldpac</text><rect x="958" y="468" width="86" height="20" rx="10" fill="#E6FBF5"/><text x="1001" y="482" class="pill" font-size="9.5" fill="#0F9C96" text-anchor="middle">Credited</text>
  <line x1="304" y1="510" x2="1044" y2="510" stroke="#F4F6FA"/>
  <text x="304" y="536" class="cell">DPF core (heavy-duty)</text><text x="304" y="552" class="mut" font-size="10.5">9 days old · high value</text><text x="600" y="536" class="val">$420</text><text x="690" y="536" class="mut">WO-10288</text><text x="840" y="536" class="mut">Cummins</text><rect x="960" y="524" width="84" height="20" rx="10" fill="#FEF4E6"/><text x="1002" y="538" class="pill" font-size="9.5" fill="#A8720F" text-anchor="middle">Pending</text>
  <line x1="304" y1="566" x2="1044" y2="566" stroke="#F4F6FA"/>
  <text x="304" y="592" class="cell">A/C compressor core</text><text x="304" y="608" class="mut" font-size="10.5">3 days old</text><text x="600" y="592" class="val">$90</text><text x="690" y="592" class="mut">WO-10402</text><text x="840" y="592" class="mut">NAPA</text><rect x="936" y="580" width="108" height="20" rx="10" fill="#EAF2FE"/><text x="990" y="594" class="pill" font-size="9.5" fill="#1A5FB4" text-anchor="middle">Returned · credit?</text>
  <line x1="304" y1="622" x2="1044" y2="622" stroke="#F4F6FA"/>
  <text x="304" y="648" class="cell">Turbo core (heavy-duty)</text><text x="304" y="664" class="mut" font-size="10.5">14 days old · follow up</text><text x="600" y="648" class="val">$350</text><text x="690" y="648" class="mut">WO-10299</text><text x="840" y="648" class="mut">Cummins</text><rect x="960" y="636" width="84" height="20" rx="10" fill="#FDECEC"/><text x="1002" y="650" class="pill" font-size="9.5" fill="#C0392B" text-anchor="middle">Overdue</text>
  </g>
  <line x1="304" y1="690" x2="1044" y2="690" stroke="#ECEFF4"/>
  <text x="304" y="716" class="mut" font-size="12">Cores post as a distinct line on the RO · returning the old unit reverses the charge to a vendor credit.</text>
  <text x="304" y="738" class="mut" font-size="12">Aging flags overdue cores before the credit window closes.</text>

  <!-- vendor RMA rail -->
  <rect x="1084" y="254" width="332" height="504" rx="12" fill="#FFFFFF" stroke="#ECEFF4" filter="url(#sh)"/>
  <text x="1104" y="284" class="h" font-size="15">Vendor returns (RMA)</text>
  <text x="1104" y="304" class="mut" font-size="11">Defective / warranty / over-ordered parts</text>
  <!-- rma1 -->
  <rect x="1104" y="318" width="292" height="120" rx="10" fill="#FBF3FB" stroke="#EBD3EA"/>
  <text x="1122" y="342" class="val" font-size="13">RMA-88 · Alternator</text><rect x="1300" y="328" width="80" height="20" rx="10" fill="#E6FBF5"/><text x="1340" y="342" class="pill" font-size="9.5" fill="#0F9C96" text-anchor="middle">Approved</text>
  <text x="1122" y="364" class="mut" font-size="11">Defective on arrival · NAPA · PO-1188</text>
  <line x1="1122" y1="378" x2="1378" y2="378" stroke="#EEE3ED"/>
  <text x="1122" y="400" class="cell" font-size="12">Credit expected</text><text x="1378" y="400" class="val" font-size="13" text-anchor="end">$128.00</text>
  <text x="1122" y="424" class="mut" font-size="11">Matched to PO-1188 ✓ reconciled</text>
  <!-- rma2 -->
  <rect x="1104" y="450" width="292" height="120" rx="10" fill="#FFFFFF" stroke="#ECEFF4"/>
  <text x="1122" y="474" class="val" font-size="13">RMA-90 · Water pump</text><rect x="1308" y="460" width="72" height="20" rx="10" fill="#FEF4E6"/><text x="1344" y="474" class="pill" font-size="9.5" fill="#A8720F" text-anchor="middle">Pending</text>
  <text x="1122" y="496" class="mut" font-size="11">Warranty failure · Worldpac · PO-1140</text>
  <line x1="1122" y1="510" x2="1378" y2="510" stroke="#F4F6FA"/>
  <text x="1122" y="532" class="cell" font-size="12">Credit expected</text><text x="1378" y="532" class="val" font-size="13" text-anchor="end">$96.00</text>
  <text x="1122" y="556" class="mut" font-size="11">Awaiting vendor RA number</text>
  <!-- reconcile note -->
  <rect x="1104" y="586" width="292" height="152" rx="10" fill="#F4F6FB"/>
  <text x="1122" y="612" class="lbl" font-size="10">RECONCILIATION</text>
  <g font-size="12"><text x="1122" y="636" class="cell">Open RMAs</text><text x="1378" y="636" class="val" text-anchor="end">2</text>
  <line x1="1122" y1="650" x2="1378" y2="650" stroke="#E6EAF0"/>
  <text x="1122" y="672" class="cell">Credit expected</text><text x="1378" y="672" class="val" text-anchor="end">$224.00</text>
  <line x1="1122" y1="686" x2="1378" y2="686" stroke="#E6EAF0"/>
  <text x="1122" y="708" class="cell">Credited &amp; matched</text><text x="1378" y="708" class="val" text-anchor="end" fill="#0F9C96">$2,100</text></g>
  <text x="1122" y="730" class="mut" font-size="10.5">Each credit reconciles back to its PO.</text>
</svg>
