<svg viewBox="0 0 1440 800" xmlns="http://www.w3.org/2000/svg" font-family="'Plus Jakarta Sans','Inter','Segoe UI',system-ui,sans-serif" role="img" aria-labelledby="t">
  <title id="t">Squibbon Shop — Audiences &amp; segments</title>
  <defs>
    <filter id="sh" x="-6%" y="-10%" width="112%" height="124%"><feDropShadow dx="0" dy="3" stdDeviation="6" flood-color="#2A3547" flood-opacity="0.07"/></filter>
    <g id="ic-grid" fill="none" stroke="currentColor" stroke-width="1.6"><rect x="3" y="3" width="6" height="6" rx="1.5"/><rect x="11" y="3" width="6" height="6" rx="1.5"/><rect x="3" y="11" width="6" height="6" rx="1.5"/><rect x="11" y="11" width="6" height="6" rx="1.5"/></g>
    <g id="ic-board" fill="none" stroke="currentColor" stroke-width="1.6"><rect x="3" y="3.5" width="4" height="13" rx="1"/><rect x="8" y="3.5" width="4" height="9" rx="1"/><rect x="13" y="3.5" width="4" height="13" rx="1"/></g>
    <g id="ic-clip" fill="none" stroke="currentColor" stroke-width="1.6" stroke-linejoin="round" stroke-linecap="round"><rect x="4.5" y="3.5" width="11" height="13.5" rx="2"/><rect x="7.5" y="2" width="5" height="3" rx="1"/><path d="M7.2 9 h5.6 M7.2 12 h5.6"/></g>
    <g id="ic-user" fill="none" stroke="currentColor" stroke-width="1.6" stroke-linecap="round"><circle cx="10" cy="7" r="3.2"/><path d="M4.5 16.5 a5.5 5.5 0 0 1 11 0"/></g>
    <g id="ic-mega" fill="none" stroke="currentColor" stroke-width="1.6" stroke-linejoin="round" stroke-linecap="round"><path d="M4.5 8 L14 4.5 v11 L4.5 12 z"/><path d="M4.5 8 H3 a1.2 1.2 0 0 0-1.2 1.2 v1.6 A1.2 1.2 0 0 0 3 12 h1.5"/><path d="M6.5 12.4 v2 a1.6 1.6 0 0 0 3.1 .4"/></g>
    <g id="ic-send" fill="none" stroke="currentColor" stroke-width="1.6" stroke-linejoin="round" stroke-linecap="round"><path d="M17.5 2.5 L8.8 11.2 M17.5 2.5 l-6.2 14.5 -2.6-5.7 L3 8.7 z"/></g>
    <g id="ic-users" fill="none" stroke="currentColor" stroke-width="1.6" stroke-linecap="round" stroke-linejoin="round"><circle cx="7.5" cy="7" r="2.8"/><path d="M2.5 16 a5 5 0 0 1 10 0"/><path d="M13 4.6 a2.8 2.8 0 0 1 0 5.4"/><path d="M14.5 16 a5 5 0 0 0-2.2-4.1"/></g>
    <g id="ic-bell" fill="none" stroke="currentColor" stroke-width="1.6" stroke-linejoin="round" stroke-linecap="round"><path d="M10 3 a4.6 4.6 0 0 1 4.6 4.6 c0 4 1.4 5.4 1.4 5.4 h-12 s1.4-1.4 1.4-5.4 a4.6 4.6 0 0 1 4.6-4.6z"/><path d="M8.3 16 a1.8 1.8 0 0 0 3.4 0"/></g>
    <g id="ic-back" fill="none" stroke="currentColor" stroke-width="1.6" stroke-linecap="round" stroke-linejoin="round"><path d="M8 4.5 L3.5 9 L8 13.5"/><path d="M3.5 9 H12 a5 5 0 0 1 5 5 v1"/></g>
    <g id="ic-bolt" fill="none" stroke="currentColor" stroke-width="1.6" stroke-linejoin="round" stroke-linecap="round"><path d="M11 2 L4.5 11 H9 l-1 7 6.5-9 H10 l1-7z"/></g>
    <g id="ic-file" fill="none" stroke="currentColor" stroke-width="1.6" stroke-linejoin="round"><path d="M6 2.8 h5 l4 4 v10.4 a1 1 0 0 1-1 1 H6 a1 1 0 0 1-1-1 V3.8 a1 1 0 0 1 1-1z"/><path d="M11 2.8 v4 h4"/></g>
    <g id="ic-star" fill="none" stroke="currentColor" stroke-width="1.6" stroke-linejoin="round"><path d="M10 2.5 l2.3 4.7 5.2 .8 -3.8 3.7 .9 5.2 -4.6-2.4 -4.6 2.4 .9-5.2 -3.8-3.7 5.2-.8z"/></g>
    <g id="ic-slider" fill="none" stroke="currentColor" stroke-width="1.6" stroke-linecap="round"><path d="M3 7 h14 M3 13 h14"/><circle cx="8" cy="7" r="1.9" fill="#fff"/><circle cx="13" cy="13" r="1.9" fill="#fff"/></g>
    <g id="ic-search" fill="none" stroke="currentColor" stroke-width="1.7" stroke-linecap="round"><circle cx="9" cy="9" r="5.5"/><path d="M13.2 13.2 L17.2 17.2"/></g>
    <g id="ic-menu" fill="none" stroke="currentColor" stroke-width="1.8" stroke-linecap="round"><path d="M3 6 h16 M3 11 h16 M3 16 h16"/></g>
    <g id="ic-plus" fill="none" stroke="currentColor" stroke-width="1.8" stroke-linecap="round"><path d="M10 4 V16 M4 10 H16"/></g>
    <g id="ic-x" fill="none" stroke="currentColor" stroke-width="1.6" stroke-linecap="round"><path d="M5.5 5.5 l9 9 M14.5 5.5 l-9 9"/></g>
  </defs>
  <style>
    .navi{fill:#5A6A85;font-weight:500}.col{fill:#8A95A5;font-weight:600;letter-spacing:.4px}
    .h{fill:#2A3547;font-weight:600}.cell{fill:#2A3547;font-weight:500}.mut{fill:#8A95A5;font-weight:500}.lnk{fill:#c479c2;font-weight:600}.sub{fill:#5A6A85;font-weight:400}
  </style>
  <rect width="1440" height="800" fill="#F4F6FB"/>
  <rect x="0" y="0" width="256" height="800" fill="#FFFFFF"/><line x1="256" y1="0" x2="256" y2="800" stroke="#ECEFF4"/>
  <rect x="24" y="21" width="30" height="30" rx="8" fill="#c479c2"/><text x="39" y="42" font-size="17" font-weight="700" fill="#FFFFFF" text-anchor="middle">S</text><text x="66" y="42" font-size="19" font-weight="700" fill="#2A3547">Squibbon</text>
  <rect x="170" y="26" width="58" height="18" rx="9" fill="#E6FBFA"/><text x="199" y="39" font-size="10.5" font-weight="700" fill="#0F9C96" text-anchor="middle">SHOP</text>
  <text x="24" y="88" class="col" font-size="11">SHOP</text>
  <g style="color:#5A6A85"><use href="#ic-grid" x="22" y="100" width="18" height="18"/></g><text x="50" y="114" class="navi" font-size="12.5">Dashboard</text>
  <g style="color:#5A6A85"><use href="#ic-board" x="22" y="132" width="18" height="18"/></g><text x="50" y="146" class="navi" font-size="12.5">Workflow</text>
  <g style="color:#5A6A85"><use href="#ic-clip" x="22" y="164" width="18" height="18"/></g><text x="50" y="178" class="navi" font-size="12.5">Work orders</text>
  <g style="color:#5A6A85"><use href="#ic-user" x="22" y="196" width="18" height="18"/></g><text x="50" y="210" class="navi" font-size="12.5">Customers</text>
  <text x="24" y="228" class="col" font-size="11">GROW</text>
  <g style="color:#5A6A85"><use href="#ic-mega" x="22" y="240" width="18" height="18"/></g><text x="50" y="254" class="navi" font-size="12.5">Marketing</text>
  <g style="color:#5A6A85"><use href="#ic-send" x="22" y="272" width="18" height="18"/></g><text x="50" y="286" class="navi" font-size="12.5">Campaigns</text>
  <rect x="12" y="300" width="232" height="26" rx="7" fill="#FFEBFE"/>
  <g style="color:#c479c2"><use href="#ic-users" x="22" y="304" width="18" height="18"/></g><text x="50" y="318" font-size="12.5" font-weight="600" fill="#c479c2">Audiences</text>
  <g style="color:#5A6A85"><use href="#ic-bell" x="22" y="336" width="18" height="18"/></g><text x="50" y="350" class="navi" font-size="12.5">Service reminders</text>
  <g style="color:#5A6A85"><use href="#ic-back" x="22" y="368" width="18" height="18"/></g><text x="50" y="382" class="navi" font-size="12.5">Declined follow-up</text>
  <g style="color:#5A6A85"><use href="#ic-bolt" x="22" y="400" width="18" height="18"/></g><text x="50" y="414" class="navi" font-size="12.5">Automations</text>
  <g style="color:#5A6A85"><use href="#ic-file" x="22" y="432" width="18" height="18"/></g><text x="50" y="446" class="navi" font-size="12.5">Templates</text>
  <g style="color:#5A6A85"><use href="#ic-star" x="22" y="464" width="18" height="18"/></g><text x="50" y="478" class="navi" font-size="12.5">Reviews</text>
  <text x="24" y="506" class="col" font-size="11">SETTINGS</text>
  <g style="color:#5A6A85"><use href="#ic-slider" x="22" y="518" width="18" height="18"/></g><text x="50" y="532" class="navi" font-size="12.5">Marketing settings</text>

  <rect x="256" y="0" width="1184" height="72" fill="#FFFFFF"/><line x1="256" y1="72" x2="1440" y2="72" stroke="#ECEFF4"/>
  <g style="color:#5A6A85"><use href="#ic-menu" x="282" y="26" width="20" height="20"/></g>
  <rect x="324" y="18" width="300" height="36" rx="18" fill="#F4F6FB"/><g style="color:#8A95A5"><use href="#ic-search" x="340" y="27" width="18" height="18"/></g><text x="366" y="41" font-size="12.5" fill="#9AA4B2">Search segments…</text>
  <rect x="1108" y="17" width="170" height="38" rx="8" fill="#c479c2"/><g style="color:#FFFFFF"><use href="#ic-plus" x="1138" y="28" width="16" height="16"/></g><text x="1162" y="41" font-size="12.5" font-weight="600" fill="#FFFFFF">New segment</text>
  <g style="color:#5A6A85"><use href="#ic-bell" x="1300" y="26" width="20" height="20"/></g><circle cx="1317" cy="27" r="4" fill="#FA5A5A"/>
  <text x="1368" y="33" font-size="12.5" font-weight="600" fill="#2A3547" text-anchor="end">T. Hopper</text><text x="1368" y="47" font-size="10.5" fill="#8A95A5" text-anchor="end">Marketing</text>
  <circle cx="1392" cy="36" r="16" fill="#FFEBFE"/><text x="1392" y="40" font-size="12" font-weight="700" fill="#c479c2" text-anchor="middle">TH</text>

  <text x="280" y="118" font-size="22" font-weight="700" fill="#2A3547">Audiences &amp; segments</text>
  <text x="280" y="140" font-size="13" fill="#5A6A85">Target the right customers · consent always respected</text>

  <rect x="280" y="160" width="400" height="600" rx="12" fill="#FFFFFF" stroke="#ECEFF4" filter="url(#sh)"/>
  <text x="304" y="192" class="h" font-size="15">Segments</text>
  <rect x="296" y="212" width="368" height="40" rx="8" fill="#FBF4FB"/><text x="312" y="237" class="cell" font-size="13" font-weight="700">Lapsed 6 months</text><text x="652" y="237" class="cell" font-size="12.5" text-anchor="end">318</text>
  <text x="312" y="282" class="cell" font-size="13">Lapsed 12 months</text><text x="652" y="282" class="sub" text-anchor="end" font-size="12.5">96</text><line x1="296" y1="298" x2="664" y2="298" stroke="#F4F6FA"/>
  <text x="312" y="324" class="cell" font-size="13">Due this month</text><text x="652" y="324" class="sub" text-anchor="end" font-size="12.5">210</text><line x1="296" y1="340" x2="664" y2="340" stroke="#F4F6FA"/>
  <text x="312" y="366" class="cell" font-size="13">Declined work</text><text x="652" y="366" class="sub" text-anchor="end" font-size="12.5">96</text><line x1="296" y1="382" x2="664" y2="382" stroke="#F4F6FA"/>
  <text x="312" y="408" class="cell" font-size="13">Winter-tire customers</text><text x="652" y="408" class="sub" text-anchor="end" font-size="12.5">412</text><line x1="296" y1="424" x2="664" y2="424" stroke="#F4F6FA"/>
  <text x="312" y="450" class="cell" font-size="13">Top spenders</text><text x="652" y="450" class="sub" text-anchor="end" font-size="12.5">84</text><line x1="296" y1="466" x2="664" y2="466" stroke="#F4F6FA"/>
  <text x="312" y="492" class="cell" font-size="13">New customers (30d)</text><text x="652" y="492" class="sub" text-anchor="end" font-size="12.5">60</text>
  <text x="304" y="546" class="col" font-size="11">STARTER SEGMENTS — clone &amp; edit</text>
  <text x="304" y="572" class="lnk" font-size="12">+ Lapsed · Due for service · Declined · Win-back · Winter-tire</text>

  <rect x="700" y="160" width="716" height="600" rx="12" fill="#FFFFFF" stroke="#ECEFF4" filter="url(#sh)"/>
  <text x="724" y="192" class="h" font-size="15">Lapsed 6 months</text><text x="1392" y="192" class="lnk" font-size="12" text-anchor="end">Save segment</text>
  <text x="724" y="226" class="col" font-size="11">FILTERS — match all</text>
  <rect x="724" y="238" width="668" height="40" rx="8" fill="#F4F6FB"/><text x="742" y="263" class="cell" font-size="12.5">Last visit  ·  more than 6 months ago</text><g style="color:#8A95A5"><use href="#ic-x" x="1366" y="251" width="14" height="14"/></g>
  <rect x="724" y="286" width="668" height="40" rx="8" fill="#F4F6FB"/><text x="742" y="311" class="cell" font-size="12.5">Marketing consent  ·  Email or SMS</text><g style="color:#8A95A5"><use href="#ic-x" x="1366" y="299" width="14" height="14"/></g>
  <rect x="724" y="334" width="668" height="40" rx="8" fill="#F4F6FB"/><text x="742" y="359" class="cell" font-size="12.5">Location  ·  Mississauga</text><g style="color:#8A95A5"><use href="#ic-x" x="1366" y="347" width="14" height="14"/></g>
  <text x="724" y="402" class="lnk" font-size="12.5">+ Add filter  (last service · vehicle · spend · declined work · tag)</text>
  <line x1="724" y1="424" x2="1392" y2="424" stroke="#ECEFF4"/>

  <rect x="724" y="442" width="668" height="84" rx="10" fill="#FFEBFE"/>
  <text x="744" y="478" font-size="30" font-weight="700" fill="#c479c2">318</text><text x="828" y="478" font-size="13" fill="#8E3A8C">contacts match</text>
  <text x="744" y="502" font-size="12" fill="#9A5198">296 consented (CASL) will receive · 22 excluded (no consent / unsubscribed)</text>

  <text x="724" y="556" class="col" font-size="11">PREVIEW</text>
  <g font-size="12.5">
  <text x="724" y="582" class="cell">Jordan Carter</text><text x="980" y="582" class="sub">2019 Ford F-150</text><text x="1392" y="582" class="mut" text-anchor="end">last visit 18 Dec 2025</text><line x1="724" y1="598" x2="1392" y2="598" stroke="#F4F6FA"/>
  <text x="724" y="624" class="cell">Maria Delgado</text><text x="980" y="624" class="sub">2021 Honda CR-V</text><text x="1392" y="624" class="mut" text-anchor="end">last visit 02 Dec 2025</text><line x1="724" y1="640" x2="1392" y2="640" stroke="#F4F6FA"/>
  <text x="724" y="666" class="cell">Ray Okafor</text><text x="980" y="666" class="sub">2018 RAM 1500</text><text x="1392" y="666" class="mut" text-anchor="end">last visit 24 Nov 2025</text><line x1="724" y1="682" x2="1392" y2="682" stroke="#F4F6FA"/>
  <text x="724" y="708" class="cell">Sophie Tremblay</text><text x="980" y="708" class="sub">2017 Toyota Camry</text><text x="1392" y="708" class="mut" text-anchor="end">last visit 11 Nov 2025</text>
  </g>
  <text x="724" y="744" class="lnk" font-size="12">Use this segment in a campaign →</text>
</svg>
