<svg viewBox="0 0 1440 740" xmlns="http://www.w3.org/2000/svg" font-family="'Plus Jakarta Sans','Inter','Segoe UI',system-ui,sans-serif" role="img" aria-labelledby="t">
  <title id="t">Squibbon Shop — Service reminders</title>
  <defs>
    <filter id="sh" x="-6%" y="-10%" width="112%" height="124%"><feDropShadow dx="0" dy="3" stdDeviation="6" flood-color="#2A3547" flood-opacity="0.07"/></filter>
    <g id="ic-grid" fill="none" stroke="currentColor" stroke-width="1.6"><rect x="3" y="3" width="6" height="6" rx="1.5"/><rect x="11" y="3" width="6" height="6" rx="1.5"/><rect x="3" y="11" width="6" height="6" rx="1.5"/><rect x="11" y="11" width="6" height="6" rx="1.5"/></g>
    <g id="ic-board" fill="none" stroke="currentColor" stroke-width="1.6"><rect x="3" y="3.5" width="4" height="13" rx="1"/><rect x="8" y="3.5" width="4" height="9" rx="1"/><rect x="13" y="3.5" width="4" height="13" rx="1"/></g>
    <g id="ic-clip" fill="none" stroke="currentColor" stroke-width="1.6" stroke-linejoin="round" stroke-linecap="round"><rect x="4.5" y="3.5" width="11" height="13.5" rx="2"/><rect x="7.5" y="2" width="5" height="3" rx="1"/><path d="M7.2 9 h5.6 M7.2 12 h5.6"/></g>
    <g id="ic-user" fill="none" stroke="currentColor" stroke-width="1.6" stroke-linecap="round"><circle cx="10" cy="7" r="3.2"/><path d="M4.5 16.5 a5.5 5.5 0 0 1 11 0"/></g>
    <g id="ic-mega" fill="none" stroke="currentColor" stroke-width="1.6" stroke-linejoin="round" stroke-linecap="round"><path d="M4.5 8 L14 4.5 v11 L4.5 12 z"/><path d="M4.5 8 H3 a1.2 1.2 0 0 0-1.2 1.2 v1.6 A1.2 1.2 0 0 0 3 12 h1.5"/><path d="M6.5 12.4 v2 a1.6 1.6 0 0 0 3.1 .4"/></g>
    <g id="ic-send" fill="none" stroke="currentColor" stroke-width="1.6" stroke-linejoin="round" stroke-linecap="round"><path d="M17.5 2.5 L8.8 11.2 M17.5 2.5 l-6.2 14.5 -2.6-5.7 L3 8.7 z"/></g>
    <g id="ic-users" fill="none" stroke="currentColor" stroke-width="1.6" stroke-linecap="round" stroke-linejoin="round"><circle cx="7.5" cy="7" r="2.8"/><path d="M2.5 16 a5 5 0 0 1 10 0"/><path d="M13 4.6 a2.8 2.8 0 0 1 0 5.4"/><path d="M14.5 16 a5 5 0 0 0-2.2-4.1"/></g>
    <g id="ic-bell" fill="none" stroke="currentColor" stroke-width="1.6" stroke-linejoin="round" stroke-linecap="round"><path d="M10 3 a4.6 4.6 0 0 1 4.6 4.6 c0 4 1.4 5.4 1.4 5.4 h-12 s1.4-1.4 1.4-5.4 a4.6 4.6 0 0 1 4.6-4.6z"/><path d="M8.3 16 a1.8 1.8 0 0 0 3.4 0"/></g>
    <g id="ic-back" fill="none" stroke="currentColor" stroke-width="1.6" stroke-linecap="round" stroke-linejoin="round"><path d="M8 4.5 L3.5 9 L8 13.5"/><path d="M3.5 9 H12 a5 5 0 0 1 5 5 v1"/></g>
    <g id="ic-bolt" fill="none" stroke="currentColor" stroke-width="1.6" stroke-linejoin="round" stroke-linecap="round"><path d="M11 2 L4.5 11 H9 l-1 7 6.5-9 H10 l1-7z"/></g>
    <g id="ic-file" fill="none" stroke="currentColor" stroke-width="1.6" stroke-linejoin="round"><path d="M6 2.8 h5 l4 4 v10.4 a1 1 0 0 1-1 1 H6 a1 1 0 0 1-1-1 V3.8 a1 1 0 0 1 1-1z"/><path d="M11 2.8 v4 h4"/></g>
    <g id="ic-star" fill="none" stroke="currentColor" stroke-width="1.6" stroke-linejoin="round"><path d="M10 2.5 l2.3 4.7 5.2 .8 -3.8 3.7 .9 5.2 -4.6-2.4 -4.6 2.4 .9-5.2 -3.8-3.7 5.2-.8z"/></g>
    <g id="ic-slider" fill="none" stroke="currentColor" stroke-width="1.6" stroke-linecap="round"><path d="M3 7 h14 M3 13 h14"/><circle cx="8" cy="7" r="1.9" fill="#fff"/><circle cx="13" cy="13" r="1.9" fill="#fff"/></g>
    <g id="ic-search" fill="none" stroke="currentColor" stroke-width="1.7" stroke-linecap="round"><circle cx="9" cy="9" r="5.5"/><path d="M13.2 13.2 L17.2 17.2"/></g>
    <g id="ic-menu" fill="none" stroke="currentColor" stroke-width="1.8" stroke-linecap="round"><path d="M3 6 h16 M3 11 h16 M3 16 h16"/></g>
    <g id="ic-plus" fill="none" stroke="currentColor" stroke-width="1.8" stroke-linecap="round"><path d="M10 4 V16 M4 10 H16"/></g>
  </defs>
  <style>
    .navi{fill:#5A6A85;font-weight:500}.col{fill:#8A95A5;font-weight:600;letter-spacing:.4px}
    .h{fill:#2A3547;font-weight:600}.cell{fill:#2A3547;font-weight:500}.mut{fill:#8A95A5;font-weight:500}.sub{fill:#5A6A85;font-weight:400}.pill{font-weight:600}
  </style>
  <rect width="1440" height="740" fill="#F4F6FB"/>
  <rect x="0" y="0" width="256" height="740" fill="#FFFFFF"/><line x1="256" y1="0" x2="256" y2="740" stroke="#ECEFF4"/>
  <rect x="24" y="21" width="30" height="30" rx="8" fill="#c479c2"/><text x="39" y="42" font-size="17" font-weight="700" fill="#FFFFFF" text-anchor="middle">S</text><text x="66" y="42" font-size="19" font-weight="700" fill="#2A3547">Squibbon</text>
  <rect x="170" y="26" width="58" height="18" rx="9" fill="#E6FBFA"/><text x="199" y="39" font-size="10.5" font-weight="700" fill="#0F9C96" text-anchor="middle">SHOP</text>
  <text x="24" y="88" class="col" font-size="11">SHOP</text>
  <g style="color:#5A6A85"><use href="#ic-grid" x="22" y="100" width="18" height="18"/></g><text x="50" y="114" class="navi" font-size="12.5">Dashboard</text>
  <g style="color:#5A6A85"><use href="#ic-board" x="22" y="132" width="18" height="18"/></g><text x="50" y="146" class="navi" font-size="12.5">Workflow</text>
  <g style="color:#5A6A85"><use href="#ic-clip" x="22" y="164" width="18" height="18"/></g><text x="50" y="178" class="navi" font-size="12.5">Work orders</text>
  <g style="color:#5A6A85"><use href="#ic-user" x="22" y="196" width="18" height="18"/></g><text x="50" y="210" class="navi" font-size="12.5">Customers</text>
  <text x="24" y="228" class="col" font-size="11">GROW</text>
  <g style="color:#5A6A85"><use href="#ic-mega" x="22" y="240" width="18" height="18"/></g><text x="50" y="254" class="navi" font-size="12.5">Marketing</text>
  <g style="color:#5A6A85"><use href="#ic-send" x="22" y="272" width="18" height="18"/></g><text x="50" y="286" class="navi" font-size="12.5">Campaigns</text>
  <g style="color:#5A6A85"><use href="#ic-users" x="22" y="304" width="18" height="18"/></g><text x="50" y="318" class="navi" font-size="12.5">Audiences</text>
  <rect x="12" y="332" width="232" height="26" rx="7" fill="#FFEBFE"/>
  <g style="color:#c479c2"><use href="#ic-bell" x="22" y="336" width="18" height="18"/></g><text x="50" y="350" font-size="12.5" font-weight="600" fill="#c479c2">Service reminders</text>
  <g style="color:#5A6A85"><use href="#ic-back" x="22" y="368" width="18" height="18"/></g><text x="50" y="382" class="navi" font-size="12.5">Declined follow-up</text>
  <g style="color:#5A6A85"><use href="#ic-bolt" x="22" y="400" width="18" height="18"/></g><text x="50" y="414" class="navi" font-size="12.5">Automations</text>
  <g style="color:#5A6A85"><use href="#ic-file" x="22" y="432" width="18" height="18"/></g><text x="50" y="446" class="navi" font-size="12.5">Templates</text>
  <g style="color:#5A6A85"><use href="#ic-star" x="22" y="464" width="18" height="18"/></g><text x="50" y="478" class="navi" font-size="12.5">Reviews</text>
  <text x="24" y="506" class="col" font-size="11">SETTINGS</text>
  <g style="color:#5A6A85"><use href="#ic-slider" x="22" y="518" width="18" height="18"/></g><text x="50" y="532" class="navi" font-size="12.5">Marketing settings</text>

  <rect x="256" y="0" width="1184" height="72" fill="#FFFFFF"/><line x1="256" y1="72" x2="1440" y2="72" stroke="#ECEFF4"/>
  <g style="color:#5A6A85"><use href="#ic-menu" x="282" y="26" width="20" height="20"/></g>
  <rect x="324" y="18" width="300" height="36" rx="18" fill="#F4F6FB"/><g style="color:#8A95A5"><use href="#ic-search" x="340" y="27" width="18" height="18"/></g><text x="366" y="41" font-size="12.5" fill="#9AA4B2">Search…</text>
  <rect x="1108" y="17" width="170" height="38" rx="8" fill="#c479c2"/><g style="color:#FFFFFF"><use href="#ic-plus" x="1136" y="28" width="16" height="16"/></g><text x="1160" y="41" font-size="12.5" font-weight="600" fill="#FFFFFF">New reminder</text>
  <g style="color:#5A6A85"><use href="#ic-bell" x="1300" y="26" width="20" height="20"/></g><circle cx="1317" cy="27" r="4" fill="#FA5A5A"/>
  <text x="1368" y="33" font-size="12.5" font-weight="600" fill="#2A3547" text-anchor="end">T. Hopper</text><text x="1368" y="47" font-size="10.5" fill="#8A95A5" text-anchor="end">Marketing</text>
  <circle cx="1392" cy="36" r="16" fill="#FFEBFE"/><text x="1392" y="40" font-size="12" font-weight="700" fill="#c479c2" text-anchor="middle">TH</text>

  <text x="280" y="118" font-size="22" font-weight="700" fill="#2A3547">Service reminders</text>
  <text x="280" y="140" font-size="13" fill="#5A6A85">Time- &amp; mileage-based · auto-queued · linked to online booking</text>

  <rect x="280" y="160" width="720" height="560" rx="12" fill="#FFFFFF" stroke="#ECEFF4" filter="url(#sh)"/>
  <text x="304" y="192" class="h" font-size="15">Reminder rules</text>
  <text x="304" y="234" class="cell" font-size="14" font-weight="600">Oil change</text><text x="304" y="254" class="mut" font-size="12">Every 6 months or 8,000 km · 7-day lead</text><rect x="760" y="222" width="56" height="20" rx="10" fill="#EEF1F6"/><text x="788" y="236" class="pill" font-size="10.5" fill="#5A6A85" text-anchor="middle">SMS</text><rect x="942" y="226" width="34" height="20" rx="10" fill="#c479c2"/><circle cx="967" cy="236" r="7" fill="#fff"/>
  <line x1="304" y1="276" x2="976" y2="276" stroke="#F4F6FA"/>
  <text x="304" y="306" class="cell" font-size="14" font-weight="600">Brake inspection</text><text x="304" y="326" class="mut" font-size="12">Every 12 months</text><rect x="754" y="294" width="62" height="20" rx="10" fill="#EEF1F6"/><text x="785" y="308" class="pill" font-size="10.5" fill="#5A6A85" text-anchor="middle">Email</text><rect x="942" y="298" width="34" height="20" rx="10" fill="#c479c2"/><circle cx="967" cy="308" r="7" fill="#fff"/>
  <line x1="304" y1="348" x2="976" y2="348" stroke="#F4F6FA"/>
  <text x="304" y="378" class="cell" font-size="14" font-weight="600">Winter-tire swap</text><rect x="450" y="366" width="76" height="18" rx="9" fill="#FFEBFE"/><text x="488" y="379" class="pill" font-size="9.5" fill="#c479c2" text-anchor="middle">seasonal</text><text x="304" y="398" class="mut" font-size="12">Sent every Oct &amp; Apr · Quebec winter-tire law</text><rect x="760" y="366" width="56" height="20" rx="10" fill="#EEF1F6"/><text x="788" y="380" class="pill" font-size="10.5" fill="#5A6A85" text-anchor="middle">SMS</text><rect x="942" y="370" width="34" height="20" rx="10" fill="#c479c2"/><circle cx="967" cy="380" r="7" fill="#fff"/>
  <line x1="304" y1="420" x2="976" y2="420" stroke="#F4F6FA"/>
  <text x="304" y="450" class="cell" font-size="14" font-weight="600">Safety inspection / PMVI</text><text x="304" y="470" class="mut" font-size="12">Every 12 months</text><rect x="754" y="438" width="62" height="20" rx="10" fill="#EEF1F6"/><text x="785" y="452" class="pill" font-size="10.5" fill="#5A6A85" text-anchor="middle">Email</text><rect x="942" y="442" width="34" height="20" rx="10" fill="#c479c2"/><circle cx="967" cy="452" r="7" fill="#fff"/>
  <line x1="304" y1="492" x2="976" y2="492" stroke="#F4F6FA"/>
  <text x="304" y="522" class="cell" font-size="14" font-weight="600" fill="#8A95A5">Cabin air filter</text><text x="304" y="542" class="mut" font-size="12">Every 12 months</text><rect x="754" y="510" width="62" height="20" rx="10" fill="#EEF1F6"/><text x="785" y="524" class="pill" font-size="10.5" fill="#5A6A85" text-anchor="middle">Email</text><rect x="942" y="514" width="34" height="20" rx="10" fill="#DDE3EC"/><circle cx="956" cy="524" r="7" fill="#fff"/>
  <text x="304" y="592" class="mut" font-size="11.5">Reminders are suppressed for customers with an upcoming appointment or who have unsubscribed.</text>

  <rect x="1032" y="160" width="384" height="560" rx="12" fill="#FFFFFF" stroke="#ECEFF4" filter="url(#sh)"/>
  <text x="1052" y="192" class="h" font-size="15">Upcoming queue</text><text x="1396" y="192" class="mut" font-size="11.5" text-anchor="end">210 queued</text>
  <text x="1052" y="226" class="cell" font-size="12.5" font-weight="600">J. Carter · F-150</text><text x="1052" y="244" class="mut" font-size="11">Oil change · SMS</text><text x="1396" y="234" font-size="12" font-weight="600" fill="#A8720F" text-anchor="end">in 3 days</text>
  <line x1="1052" y1="262" x2="1396" y2="262" stroke="#F4F6FA"/>
  <text x="1052" y="288" class="cell" font-size="12.5" font-weight="600">M. Lee · Mazda3</text><text x="1052" y="306" class="mut" font-size="11">Winter-tire swap · SMS</text><text x="1396" y="296" font-size="12" font-weight="600" fill="#5A6A85" text-anchor="end">Oct 15</text>
  <line x1="1052" y1="324" x2="1396" y2="324" stroke="#F4F6FA"/>
  <text x="1052" y="350" class="cell" font-size="12.5" font-weight="600">R. Okafor · RAM 1500</text><text x="1052" y="368" class="mut" font-size="11">Brake inspection · Email</text><text x="1396" y="358" font-size="12" font-weight="600" fill="#C0392B" text-anchor="end">overdue</text>
  <line x1="1052" y1="386" x2="1396" y2="386" stroke="#F4F6FA"/>
  <text x="1052" y="412" class="cell" font-size="12.5" font-weight="600">S. Tremblay · Camry</text><text x="1052" y="430" class="mut" font-size="11">Oil change · SMS</text><text x="1396" y="420" font-size="12" font-weight="600" fill="#5A6A85" text-anchor="end">in 9 days</text>
  <line x1="1052" y1="448" x2="1396" y2="448" stroke="#F4F6FA"/>
  <text x="1052" y="474" class="cell" font-size="12.5" font-weight="600">D. Park · Sierra</text><text x="1052" y="492" class="mut" font-size="11">PMVI safety · Email</text><text x="1396" y="482" font-size="12" font-weight="600" fill="#5A6A85" text-anchor="end">in 14 days</text>
  <line x1="1052" y1="510" x2="1396" y2="510" stroke="#F4F6FA"/>
  <text x="1052" y="536" class="cell" font-size="12.5" font-weight="600">Acme Fleet · Transit</text><text x="1052" y="554" class="mut" font-size="11">Oil change · Email</text><text x="1396" y="544" font-size="12" font-weight="600" fill="#5A6A85" text-anchor="end">in 16 days</text>
  <rect x="1052" y="596" width="344" height="40" rx="8" fill="#F4F6FB"/><text x="1072" y="621" class="cell" font-size="12.5">Each reminder deep-links to online booking →</text>
</svg>
