<svg viewBox="0 0 1440 760" xmlns="http://www.w3.org/2000/svg" font-family="'Plus Jakarta Sans','Inter','Segoe UI',system-ui,sans-serif" role="img" aria-labelledby="t">
  <title id="t">Squibbon Shop — Declined-work follow-up</title>
  <defs>
    <filter id="sh" x="-6%" y="-10%" width="112%" height="124%"><feDropShadow dx="0" dy="3" stdDeviation="6" flood-color="#2A3547" flood-opacity="0.07"/></filter>
    <g id="ic-grid" fill="none" stroke="currentColor" stroke-width="1.6"><rect x="3" y="3" width="6" height="6" rx="1.5"/><rect x="11" y="3" width="6" height="6" rx="1.5"/><rect x="3" y="11" width="6" height="6" rx="1.5"/><rect x="11" y="11" width="6" height="6" rx="1.5"/></g>
    <g id="ic-board" fill="none" stroke="currentColor" stroke-width="1.6"><rect x="3" y="3.5" width="4" height="13" rx="1"/><rect x="8" y="3.5" width="4" height="9" rx="1"/><rect x="13" y="3.5" width="4" height="13" rx="1"/></g>
    <g id="ic-clip" fill="none" stroke="currentColor" stroke-width="1.6" stroke-linejoin="round" stroke-linecap="round"><rect x="4.5" y="3.5" width="11" height="13.5" rx="2"/><rect x="7.5" y="2" width="5" height="3" rx="1"/><path d="M7.2 9 h5.6 M7.2 12 h5.6"/></g>
    <g id="ic-user" fill="none" stroke="currentColor" stroke-width="1.6" stroke-linecap="round"><circle cx="10" cy="7" r="3.2"/><path d="M4.5 16.5 a5.5 5.5 0 0 1 11 0"/></g>
    <g id="ic-mega" fill="none" stroke="currentColor" stroke-width="1.6" stroke-linejoin="round" stroke-linecap="round"><path d="M4.5 8 L14 4.5 v11 L4.5 12 z"/><path d="M4.5 8 H3 a1.2 1.2 0 0 0-1.2 1.2 v1.6 A1.2 1.2 0 0 0 3 12 h1.5"/><path d="M6.5 12.4 v2 a1.6 1.6 0 0 0 3.1 .4"/></g>
    <g id="ic-send" fill="none" stroke="currentColor" stroke-width="1.6" stroke-linejoin="round" stroke-linecap="round"><path d="M17.5 2.5 L8.8 11.2 M17.5 2.5 l-6.2 14.5 -2.6-5.7 L3 8.7 z"/></g>
    <g id="ic-users" fill="none" stroke="currentColor" stroke-width="1.6" stroke-linecap="round" stroke-linejoin="round"><circle cx="7.5" cy="7" r="2.8"/><path d="M2.5 16 a5 5 0 0 1 10 0"/><path d="M13 4.6 a2.8 2.8 0 0 1 0 5.4"/><path d="M14.5 16 a5 5 0 0 0-2.2-4.1"/></g>
    <g id="ic-bell" fill="none" stroke="currentColor" stroke-width="1.6" stroke-linejoin="round" stroke-linecap="round"><path d="M10 3 a4.6 4.6 0 0 1 4.6 4.6 c0 4 1.4 5.4 1.4 5.4 h-12 s1.4-1.4 1.4-5.4 a4.6 4.6 0 0 1 4.6-4.6z"/><path d="M8.3 16 a1.8 1.8 0 0 0 3.4 0"/></g>
    <g id="ic-back" fill="none" stroke="currentColor" stroke-width="1.6" stroke-linecap="round" stroke-linejoin="round"><path d="M8 4.5 L3.5 9 L8 13.5"/><path d="M3.5 9 H12 a5 5 0 0 1 5 5 v1"/></g>
    <g id="ic-bolt" fill="none" stroke="currentColor" stroke-width="1.6" stroke-linejoin="round" stroke-linecap="round"><path d="M11 2 L4.5 11 H9 l-1 7 6.5-9 H10 l1-7z"/></g>
    <g id="ic-file" fill="none" stroke="currentColor" stroke-width="1.6" stroke-linejoin="round"><path d="M6 2.8 h5 l4 4 v10.4 a1 1 0 0 1-1 1 H6 a1 1 0 0 1-1-1 V3.8 a1 1 0 0 1 1-1z"/><path d="M11 2.8 v4 h4"/></g>
    <g id="ic-star" fill="none" stroke="currentColor" stroke-width="1.6" stroke-linejoin="round"><path d="M10 2.5 l2.3 4.7 5.2 .8 -3.8 3.7 .9 5.2 -4.6-2.4 -4.6 2.4 .9-5.2 -3.8-3.7 5.2-.8z"/></g>
    <g id="ic-slider" fill="none" stroke="currentColor" stroke-width="1.6" stroke-linecap="round"><path d="M3 7 h14 M3 13 h14"/><circle cx="8" cy="7" r="1.9" fill="#fff"/><circle cx="13" cy="13" r="1.9" fill="#fff"/></g>
    <g id="ic-search" fill="none" stroke="currentColor" stroke-width="1.7" stroke-linecap="round"><circle cx="9" cy="9" r="5.5"/><path d="M13.2 13.2 L17.2 17.2"/></g>
    <g id="ic-menu" fill="none" stroke="currentColor" stroke-width="1.8" stroke-linecap="round"><path d="M3 6 h16 M3 11 h16 M3 16 h16"/></g>
    <g id="ic-check" fill="none" stroke="currentColor" stroke-width="2" stroke-linecap="round" stroke-linejoin="round"><path d="M4 10.5 l3.6 3.6 L16 6"/></g>
  </defs>
  <style>
    .navi{fill:#5A6A85;font-weight:500}.col{fill:#8A95A5;font-weight:600;letter-spacing:.4px}
    .h{fill:#2A3547;font-weight:600}.sub{fill:#5A6A85;font-weight:400}.lbl{fill:#5A6A85;font-weight:500}
    .num{fill:#2A3547;font-weight:700}.cell{fill:#2A3547;font-weight:500}.mut{fill:#8A95A5;font-weight:500}.pill{font-weight:600}
  </style>
  <rect width="1440" height="760" fill="#F4F6FB"/>
  <rect x="0" y="0" width="256" height="760" fill="#FFFFFF"/><line x1="256" y1="0" x2="256" y2="760" stroke="#ECEFF4"/>
  <rect x="24" y="21" width="30" height="30" rx="8" fill="#c479c2"/><text x="39" y="42" font-size="17" font-weight="700" fill="#FFFFFF" text-anchor="middle">S</text><text x="66" y="42" font-size="19" font-weight="700" fill="#2A3547">Squibbon</text>
  <rect x="170" y="26" width="58" height="18" rx="9" fill="#E6FBFA"/><text x="199" y="39" font-size="10.5" font-weight="700" fill="#0F9C96" text-anchor="middle">SHOP</text>
  <text x="24" y="88" class="col" font-size="11">SHOP</text>
  <g style="color:#5A6A85"><use href="#ic-grid" x="22" y="100" width="18" height="18"/></g><text x="50" y="114" class="navi" font-size="12.5">Dashboard</text>
  <g style="color:#5A6A85"><use href="#ic-board" x="22" y="132" width="18" height="18"/></g><text x="50" y="146" class="navi" font-size="12.5">Workflow</text>
  <g style="color:#5A6A85"><use href="#ic-clip" x="22" y="164" width="18" height="18"/></g><text x="50" y="178" class="navi" font-size="12.5">Work orders</text>
  <g style="color:#5A6A85"><use href="#ic-user" x="22" y="196" width="18" height="18"/></g><text x="50" y="210" class="navi" font-size="12.5">Customers</text>
  <text x="24" y="228" class="col" font-size="11">GROW</text>
  <g style="color:#5A6A85"><use href="#ic-mega" x="22" y="240" width="18" height="18"/></g><text x="50" y="254" class="navi" font-size="12.5">Marketing</text>
  <g style="color:#5A6A85"><use href="#ic-send" x="22" y="272" width="18" height="18"/></g><text x="50" y="286" class="navi" font-size="12.5">Campaigns</text>
  <g style="color:#5A6A85"><use href="#ic-users" x="22" y="304" width="18" height="18"/></g><text x="50" y="318" class="navi" font-size="12.5">Audiences</text>
  <g style="color:#5A6A85"><use href="#ic-bell" x="22" y="336" width="18" height="18"/></g><text x="50" y="350" class="navi" font-size="12.5">Service reminders</text>
  <rect x="12" y="364" width="232" height="26" rx="7" fill="#FFEBFE"/>
  <g style="color:#c479c2"><use href="#ic-back" x="22" y="368" width="18" height="18"/></g><text x="50" y="382" font-size="12.5" font-weight="600" fill="#c479c2">Declined follow-up</text>
  <g style="color:#5A6A85"><use href="#ic-bolt" x="22" y="400" width="18" height="18"/></g><text x="50" y="414" class="navi" font-size="12.5">Automations</text>
  <g style="color:#5A6A85"><use href="#ic-file" x="22" y="432" width="18" height="18"/></g><text x="50" y="446" class="navi" font-size="12.5">Templates</text>
  <g style="color:#5A6A85"><use href="#ic-star" x="22" y="464" width="18" height="18"/></g><text x="50" y="478" class="navi" font-size="12.5">Reviews</text>
  <text x="24" y="506" class="col" font-size="11">SETTINGS</text>
  <g style="color:#5A6A85"><use href="#ic-slider" x="22" y="518" width="18" height="18"/></g><text x="50" y="532" class="navi" font-size="12.5">Marketing settings</text>

  <rect x="256" y="0" width="1184" height="72" fill="#FFFFFF"/><line x1="256" y1="72" x2="1440" y2="72" stroke="#ECEFF4"/>
  <g style="color:#5A6A85"><use href="#ic-menu" x="282" y="26" width="20" height="20"/></g>
  <rect x="324" y="18" width="300" height="36" rx="18" fill="#F4F6FB"/><g style="color:#8A95A5"><use href="#ic-search" x="340" y="27" width="18" height="18"/></g><text x="366" y="41" font-size="12.5" fill="#9AA4B2">Search…</text>
  <rect x="1108" y="17" width="170" height="38" rx="8" fill="#c479c2"/><g style="color:#FFFFFF"><use href="#ic-send" x="1126" y="28" width="16" height="16"/></g><text x="1150" y="41" font-size="12.5" font-weight="600" fill="#FFFFFF">Send follow-up</text>
  <g style="color:#5A6A85"><use href="#ic-bell" x="1300" y="26" width="20" height="20"/></g><circle cx="1317" cy="27" r="4" fill="#FA5A5A"/>
  <text x="1368" y="33" font-size="12.5" font-weight="600" fill="#2A3547" text-anchor="end">T. Hopper</text><text x="1368" y="47" font-size="10.5" fill="#8A95A5" text-anchor="end">Marketing</text>
  <circle cx="1392" cy="36" r="16" fill="#FFEBFE"/><text x="1392" y="40" font-size="12" font-weight="700" fill="#c479c2" text-anchor="middle">TH</text>

  <text x="280" y="118" font-size="22" font-weight="700" fill="#2A3547">Declined-work follow-up</text>
  <text x="280" y="140" font-size="13" fill="#5A6A85">Turn "maybe next time" into booked work · pulled from work orders</text>

  <g font-size="12">
  <rect x="280" y="158" width="270" height="84" rx="12" fill="#FFFFFF" stroke="#ECEFF4" filter="url(#sh)"/><text x="298" y="188" class="lbl">Open declined value</text><text x="298" y="222" class="num" font-size="24">$14,240</text><text x="298" y="242" font-size="11" font-weight="600" fill="#A8720F">96 jobs</text>
  <rect x="566" y="158" width="270" height="84" rx="12" fill="#FFFFFF" stroke="#ECEFF4" filter="url(#sh)"/><text x="584" y="188" class="lbl">Followed up</text><text x="584" y="222" class="num" font-size="24">$9,820</text><text x="584" y="242" font-size="11" font-weight="600" fill="#1A5FB4">69 jobs</text>
  <rect x="852" y="158" width="270" height="84" rx="12" fill="#FFFFFF" stroke="#ECEFF4" filter="url(#sh)"/><text x="870" y="188" class="lbl">Recovered</text><text x="870" y="222" class="num" font-size="24">$4,140</text><text x="870" y="242" font-size="11" font-weight="600" fill="#0F9C96">28 booked</text>
  <rect x="1138" y="158" width="278" height="84" rx="12" fill="#FFFFFF" stroke="#ECEFF4" filter="url(#sh)"/><text x="1156" y="188" class="lbl">Recovery rate</text><text x="1156" y="222" class="num" font-size="24">29%</text><text x="1156" y="242" font-size="11" font-weight="600" fill="#0F9C96">of followed-up</text>
  </g>

  <rect x="280" y="262" width="1136" height="474" rx="12" fill="#FFFFFF" stroke="#ECEFF4" filter="url(#sh)"/>
  <g class="col" font-size="10.5"><text x="338" y="294">CUSTOMER</text><text x="520" y="294">VEHICLE</text><text x="710" y="294">DECLINED JOB</text><text x="980" y="294">DATE</text><text x="1150" y="294" text-anchor="end">VALUE</text><text x="1392" y="294" text-anchor="end">STATUS</text></g>
  <line x1="304" y1="304" x2="1392" y2="304" stroke="#ECEFF4"/>
  <g font-size="12.5">
  <rect x="304" y="322" width="18" height="18" rx="5" fill="#c479c2"/><g style="color:#FFFFFF"><use href="#ic-check" x="305" y="323" width="16" height="16"/></g><text x="338" y="336" class="cell">Maria Delgado</text><text x="520" y="336" class="sub">2021 Honda CR-V</text><text x="710" y="336" class="sub">Rear brake pads &amp; rotors</text><text x="980" y="336" class="sub">18 Jun 26</text><text x="1150" y="336" class="cell" text-anchor="end">$420.00</text><rect x="1326" y="323" width="66" height="19" rx="9.5" fill="#EAF2FE"/><text x="1359" y="336" class="pill" font-size="10.5" fill="#1A5FB4" text-anchor="middle">Sent</text><line x1="304" y1="352" x2="1392" y2="352" stroke="#F4F6FA"/>
  <rect x="304" y="370" width="18" height="18" rx="5" fill="#c479c2"/><g style="color:#FFFFFF"><use href="#ic-check" x="305" y="371" width="16" height="16"/></g><text x="338" y="384" class="cell">Ray Okafor</text><text x="520" y="384" class="sub">2018 RAM 1500</text><text x="710" y="384" class="sub">Front suspension</text><text x="980" y="384" class="sub">12 Jun 26</text><text x="1150" y="384" class="cell" text-anchor="end">$1,240.00</text><rect x="1326" y="371" width="66" height="19" rx="9.5" fill="#EAF2FE"/><text x="1359" y="384" class="pill" font-size="10.5" fill="#1A5FB4" text-anchor="middle">Sent</text><line x1="304" y1="400" x2="1392" y2="400" stroke="#F4F6FA"/>
  <rect x="304" y="418" width="18" height="18" rx="5" fill="#FFFFFF" stroke="#C7D0DC"/><text x="338" y="432" class="cell">Sophie Tremblay</text><text x="520" y="432" class="sub">2017 Toyota Camry</text><text x="710" y="432" class="sub">Wiper blades</text><text x="980" y="432" class="sub">19 Jun 26</text><text x="1150" y="432" class="cell" text-anchor="end">$36.00</text><rect x="1336" y="419" width="56" height="19" rx="9.5" fill="#EEF1F6"/><text x="1364" y="432" class="pill" font-size="10.5" fill="#5A6A85" text-anchor="middle">New</text><line x1="304" y1="448" x2="1392" y2="448" stroke="#F4F6FA"/>
  <rect x="304" y="466" width="18" height="18" rx="5" fill="#FFFFFF" stroke="#C7D0DC"/><text x="338" y="480" class="cell">Northstar Logistics</text><text x="520" y="480" class="sub">2020 Freightliner</text><text x="710" y="480" class="sub">Air dryer cartridge</text><text x="980" y="480" class="sub">19 Jun 26</text><text x="1150" y="480" class="cell" text-anchor="end">$380.00</text><rect x="1336" y="467" width="56" height="19" rx="9.5" fill="#EEF1F6"/><text x="1364" y="480" class="pill" font-size="10.5" fill="#5A6A85" text-anchor="middle">New</text><line x1="304" y1="496" x2="1392" y2="496" stroke="#F4F6FA"/>
  <rect x="304" y="514" width="18" height="18" rx="5" fill="#c479c2"/><g style="color:#FFFFFF"><use href="#ic-check" x="305" y="515" width="16" height="16"/></g><text x="338" y="528" class="cell">Dan Park</text><text x="520" y="528" class="sub">2016 GMC Sierra</text><text x="710" y="528" class="sub">Wheel alignment</text><text x="980" y="528" class="sub">05 Jun 26</text><text x="1150" y="528" class="cell" text-anchor="end">$120.00</text><rect x="1326" y="515" width="66" height="19" rx="9.5" fill="#EAF2FE"/><text x="1359" y="528" class="pill" font-size="10.5" fill="#1A5FB4" text-anchor="middle">Sent</text><line x1="304" y1="544" x2="1392" y2="544" stroke="#F4F6FA"/>
  <text x="338" y="576" class="cell" fill="#8A95A5">Lina Romano</text><text x="520" y="576" class="sub">2014 Subaru Outback</text><text x="710" y="576" class="sub">Coolant flush</text><text x="980" y="576" class="sub">02 Jun 26</text><text x="1150" y="576" class="cell" text-anchor="end">$140.00</text><rect x="1320" y="563" width="72" height="19" rx="9.5" fill="#E6FBF5"/><text x="1356" y="576" class="pill" font-size="10.5" fill="#0F9C96" text-anchor="middle">Recovered</text><line x1="304" y1="592" x2="1392" y2="592" stroke="#F4F6FA"/>
  <text x="338" y="624" class="cell" fill="#8A95A5">Acme Fleet Ltd</text><text x="520" y="624" class="sub">2019 Ford F-150</text><text x="710" y="624" class="sub">Cabin air filter</text><text x="980" y="624" class="sub">10 Mar 26</text><text x="1150" y="624" class="cell" text-anchor="end">$58.00</text><rect x="1320" y="611" width="72" height="19" rx="9.5" fill="#E6FBF5"/><text x="1356" y="624" class="pill" font-size="10.5" fill="#0F9C96" text-anchor="middle">Recovered</text>
  </g>
  <line x1="304" y1="668" x2="1392" y2="668" stroke="#ECEFF4"/>
  <text x="304" y="700" class="mut" font-size="12">2 selected · follow-up references the exact declined job &amp; offers online booking</text>
  <text x="1392" y="700" class="mut" font-size="12" text-anchor="end">Jobs auto-expire from the list once performed</text>
</svg>
