<svg viewBox="0 0 1440 760" xmlns="http://www.w3.org/2000/svg" font-family="'Plus Jakarta Sans','Inter','Segoe UI',system-ui,sans-serif" role="img" aria-labelledby="t">
  <title id="t">Squibbon Shop — Automations</title>
  <defs>
    <filter id="sh" x="-6%" y="-10%" width="112%" height="124%"><feDropShadow dx="0" dy="3" stdDeviation="6" flood-color="#2A3547" flood-opacity="0.07"/></filter>
    <g id="ic-grid" fill="none" stroke="currentColor" stroke-width="1.6"><rect x="3" y="3" width="6" height="6" rx="1.5"/><rect x="11" y="3" width="6" height="6" rx="1.5"/><rect x="3" y="11" width="6" height="6" rx="1.5"/><rect x="11" y="11" width="6" height="6" rx="1.5"/></g>
    <g id="ic-board" fill="none" stroke="currentColor" stroke-width="1.6"><rect x="3" y="3.5" width="4" height="13" rx="1"/><rect x="8" y="3.5" width="4" height="9" rx="1"/><rect x="13" y="3.5" width="4" height="13" rx="1"/></g>
    <g id="ic-clip" fill="none" stroke="currentColor" stroke-width="1.6" stroke-linejoin="round" stroke-linecap="round"><rect x="4.5" y="3.5" width="11" height="13.5" rx="2"/><rect x="7.5" y="2" width="5" height="3" rx="1"/><path d="M7.2 9 h5.6 M7.2 12 h5.6"/></g>
    <g id="ic-user" fill="none" stroke="currentColor" stroke-width="1.6" stroke-linecap="round"><circle cx="10" cy="7" r="3.2"/><path d="M4.5 16.5 a5.5 5.5 0 0 1 11 0"/></g>
    <g id="ic-mega" fill="none" stroke="currentColor" stroke-width="1.6" stroke-linejoin="round" stroke-linecap="round"><path d="M4.5 8 L14 4.5 v11 L4.5 12 z"/><path d="M4.5 8 H3 a1.2 1.2 0 0 0-1.2 1.2 v1.6 A1.2 1.2 0 0 0 3 12 h1.5"/><path d="M6.5 12.4 v2 a1.6 1.6 0 0 0 3.1 .4"/></g>
    <g id="ic-send" fill="none" stroke="currentColor" stroke-width="1.6" stroke-linejoin="round" stroke-linecap="round"><path d="M17.5 2.5 L8.8 11.2 M17.5 2.5 l-6.2 14.5 -2.6-5.7 L3 8.7 z"/></g>
    <g id="ic-users" fill="none" stroke="currentColor" stroke-width="1.6" stroke-linecap="round" stroke-linejoin="round"><circle cx="7.5" cy="7" r="2.8"/><path d="M2.5 16 a5 5 0 0 1 10 0"/><path d="M13 4.6 a2.8 2.8 0 0 1 0 5.4"/><path d="M14.5 16 a5 5 0 0 0-2.2-4.1"/></g>
    <g id="ic-bell" fill="none" stroke="currentColor" stroke-width="1.6" stroke-linejoin="round" stroke-linecap="round"><path d="M10 3 a4.6 4.6 0 0 1 4.6 4.6 c0 4 1.4 5.4 1.4 5.4 h-12 s1.4-1.4 1.4-5.4 a4.6 4.6 0 0 1 4.6-4.6z"/><path d="M8.3 16 a1.8 1.8 0 0 0 3.4 0"/></g>
    <g id="ic-back" fill="none" stroke="currentColor" stroke-width="1.6" stroke-linecap="round" stroke-linejoin="round"><path d="M8 4.5 L3.5 9 L8 13.5"/><path d="M3.5 9 H12 a5 5 0 0 1 5 5 v1"/></g>
    <g id="ic-bolt" fill="none" stroke="currentColor" stroke-width="1.6" stroke-linejoin="round" stroke-linecap="round"><path d="M11 2 L4.5 11 H9 l-1 7 6.5-9 H10 l1-7z"/></g>
    <g id="ic-file" fill="none" stroke="currentColor" stroke-width="1.6" stroke-linejoin="round"><path d="M6 2.8 h5 l4 4 v10.4 a1 1 0 0 1-1 1 H6 a1 1 0 0 1-1-1 V3.8 a1 1 0 0 1 1-1z"/><path d="M11 2.8 v4 h4"/></g>
    <g id="ic-star" fill="none" stroke="currentColor" stroke-width="1.6" stroke-linejoin="round"><path d="M10 2.5 l2.3 4.7 5.2 .8 -3.8 3.7 .9 5.2 -4.6-2.4 -4.6 2.4 .9-5.2 -3.8-3.7 5.2-.8z"/></g>
    <g id="ic-slider" fill="none" stroke="currentColor" stroke-width="1.6" stroke-linecap="round"><path d="M3 7 h14 M3 13 h14"/><circle cx="8" cy="7" r="1.9" fill="#fff"/><circle cx="13" cy="13" r="1.9" fill="#fff"/></g>
    <g id="ic-search" fill="none" stroke="currentColor" stroke-width="1.7" stroke-linecap="round"><circle cx="9" cy="9" r="5.5"/><path d="M13.2 13.2 L17.2 17.2"/></g>
    <g id="ic-menu" fill="none" stroke="currentColor" stroke-width="1.8" stroke-linecap="round"><path d="M3 6 h16 M3 11 h16 M3 16 h16"/></g>
    <g id="ic-plus" fill="none" stroke="currentColor" stroke-width="1.8" stroke-linecap="round"><path d="M10 4 V16 M4 10 H16"/></g>
    <g id="ic-clock" fill="none" stroke="currentColor" stroke-width="1.6" stroke-linecap="round"><circle cx="10" cy="10" r="7"/><path d="M10 6 v4.2 l3 2"/></g>
    <g id="ic-fork" fill="none" stroke="currentColor" stroke-width="1.6" stroke-linecap="round" stroke-linejoin="round"><path d="M6 3 v6 M6 9 a8 8 0 0 0 8 8 M14 14 l1 3 3-1"/><circle cx="6" cy="3" r="1.4" fill="#fff"/></g>
    <g id="ic-chat" fill="none" stroke="currentColor" stroke-width="1.6" stroke-linejoin="round" stroke-linecap="round"><path d="M3 5.5 a2 2 0 0 1 2-2 h10 a2 2 0 0 1 2 2 v6 a2 2 0 0 1-2 2 H8 l-3.5 3 v-3 H5 a2 2 0 0 1-2-2z"/></g>
  </defs>
  <style>
    .navi{fill:#5A6A85;font-weight:500}.col{fill:#8A95A5;font-weight:600;letter-spacing:.4px}
    .h{fill:#2A3547;font-weight:600}.cell{fill:#2A3547;font-weight:500}.mut{fill:#8A95A5;font-weight:500}.nt{fill:#2A3547;font-weight:600}.badge{font-weight:700;letter-spacing:.4px}
  </style>
  <rect width="1440" height="760" fill="#F4F6FB"/>
  <rect x="0" y="0" width="256" height="760" fill="#FFFFFF"/><line x1="256" y1="0" x2="256" y2="760" stroke="#ECEFF4"/>
  <rect x="24" y="21" width="30" height="30" rx="8" fill="#c479c2"/><text x="39" y="42" font-size="17" font-weight="700" fill="#FFFFFF" text-anchor="middle">S</text><text x="66" y="42" font-size="19" font-weight="700" fill="#2A3547">Squibbon</text>
  <rect x="170" y="26" width="58" height="18" rx="9" fill="#E6FBFA"/><text x="199" y="39" font-size="10.5" font-weight="700" fill="#0F9C96" text-anchor="middle">SHOP</text>
  <text x="24" y="88" class="col" font-size="11">SHOP</text>
  <g style="color:#5A6A85"><use href="#ic-grid" x="22" y="100" width="18" height="18"/></g><text x="50" y="114" class="navi" font-size="12.5">Dashboard</text>
  <g style="color:#5A6A85"><use href="#ic-board" x="22" y="132" width="18" height="18"/></g><text x="50" y="146" class="navi" font-size="12.5">Workflow</text>
  <g style="color:#5A6A85"><use href="#ic-clip" x="22" y="164" width="18" height="18"/></g><text x="50" y="178" class="navi" font-size="12.5">Work orders</text>
  <g style="color:#5A6A85"><use href="#ic-user" x="22" y="196" width="18" height="18"/></g><text x="50" y="210" class="navi" font-size="12.5">Customers</text>
  <text x="24" y="228" class="col" font-size="11">GROW</text>
  <g style="color:#5A6A85"><use href="#ic-mega" x="22" y="240" width="18" height="18"/></g><text x="50" y="254" class="navi" font-size="12.5">Marketing</text>
  <g style="color:#5A6A85"><use href="#ic-send" x="22" y="272" width="18" height="18"/></g><text x="50" y="286" class="navi" font-size="12.5">Campaigns</text>
  <g style="color:#5A6A85"><use href="#ic-users" x="22" y="304" width="18" height="18"/></g><text x="50" y="318" class="navi" font-size="12.5">Audiences</text>
  <g style="color:#5A6A85"><use href="#ic-bell" x="22" y="336" width="18" height="18"/></g><text x="50" y="350" class="navi" font-size="12.5">Service reminders</text>
  <g style="color:#5A6A85"><use href="#ic-back" x="22" y="368" width="18" height="18"/></g><text x="50" y="382" class="navi" font-size="12.5">Declined follow-up</text>
  <rect x="12" y="396" width="232" height="26" rx="7" fill="#FFEBFE"/>
  <g style="color:#c479c2"><use href="#ic-bolt" x="22" y="400" width="18" height="18"/></g><text x="50" y="414" font-size="12.5" font-weight="600" fill="#c479c2">Automations</text>
  <g style="color:#5A6A85"><use href="#ic-file" x="22" y="432" width="18" height="18"/></g><text x="50" y="446" class="navi" font-size="12.5">Templates</text>
  <g style="color:#5A6A85"><use href="#ic-star" x="22" y="464" width="18" height="18"/></g><text x="50" y="478" class="navi" font-size="12.5">Reviews</text>
  <text x="24" y="506" class="col" font-size="11">SETTINGS</text>
  <g style="color:#5A6A85"><use href="#ic-slider" x="22" y="518" width="18" height="18"/></g><text x="50" y="532" class="navi" font-size="12.5">Marketing settings</text>

  <rect x="256" y="0" width="1184" height="72" fill="#FFFFFF"/><line x1="256" y1="72" x2="1440" y2="72" stroke="#ECEFF4"/>
  <g style="color:#5A6A85"><use href="#ic-menu" x="282" y="26" width="20" height="20"/></g>
  <rect x="324" y="18" width="300" height="36" rx="18" fill="#F4F6FB"/><g style="color:#8A95A5"><use href="#ic-search" x="340" y="27" width="18" height="18"/></g><text x="366" y="41" font-size="12.5" fill="#9AA4B2">Search…</text>
  <rect x="1108" y="17" width="170" height="38" rx="8" fill="#c479c2"/><g style="color:#FFFFFF"><use href="#ic-plus" x="1136" y="28" width="16" height="16"/></g><text x="1160" y="41" font-size="12.5" font-weight="600" fill="#FFFFFF">New automation</text>
  <g style="color:#5A6A85"><use href="#ic-bell" x="1300" y="26" width="20" height="20"/></g><circle cx="1317" cy="27" r="4" fill="#FA5A5A"/>
  <text x="1368" y="33" font-size="12.5" font-weight="600" fill="#2A3547" text-anchor="end">T. Hopper</text><text x="1368" y="47" font-size="10.5" fill="#8A95A5" text-anchor="end">Marketing</text>
  <circle cx="1392" cy="36" r="16" fill="#FFEBFE"/><text x="1392" y="40" font-size="12" font-weight="700" fill="#c479c2" text-anchor="middle">TH</text>

  <text x="280" y="118" font-size="22" font-weight="700" fill="#2A3547">Automations</text>
  <text x="280" y="140" font-size="13" fill="#5A6A85">Trigger → wait → action · runs quietly in the background, consent-aware</text>

  <rect x="280" y="160" width="448" height="560" rx="12" fill="#FFFFFF" stroke="#ECEFF4" filter="url(#sh)"/>
  <text x="304" y="192" class="h" font-size="15">Recipes</text><text x="704" y="192" class="mut" font-size="11.5" text-anchor="end">7 · 6 active</text>
  <line x1="304" y1="206" x2="704" y2="206" stroke="#ECEFF4"/>
  <rect x="292" y="216" width="424" height="66" rx="9" fill="#FBF3FB" stroke="#EBD3EA"/><text x="312" y="242" class="nt" font-size="13.5">Post-service thank-you + review</text><text x="312" y="262" class="mut" font-size="11.5">When a work order is marked Paid · 1,240 sent</text><rect x="660" y="232" width="34" height="20" rx="10" fill="#c479c2"/><circle cx="685" cy="242" r="7" fill="#fff"/>
  <text x="312" y="312" class="nt" font-size="13.5">Service-reminder follow-up</text><text x="312" y="332" class="mut" font-size="11.5">When a reminder goes unbooked +5 days</text><rect x="660" y="302" width="34" height="20" rx="10" fill="#c479c2"/><circle cx="685" cy="312" r="7" fill="#fff"/><line x1="312" y1="354" x2="696" y2="354" stroke="#F4F6FA"/>
  <text x="312" y="382" class="nt" font-size="13.5">Win-back lapsed customers</text><text x="312" y="402" class="mut" font-size="11.5">When no visit in 6 months</text><rect x="660" y="372" width="34" height="20" rx="10" fill="#c479c2"/><circle cx="685" cy="382" r="7" fill="#fff"/><line x1="312" y1="424" x2="696" y2="424" stroke="#F4F6FA"/>
  <text x="312" y="452" class="nt" font-size="13.5">Declined-work nudge</text><text x="312" y="472" class="mut" font-size="11.5">14 days after a job is declined</text><rect x="660" y="442" width="34" height="20" rx="10" fill="#c479c2"/><circle cx="685" cy="452" r="7" fill="#fff"/><line x1="312" y1="494" x2="696" y2="494" stroke="#F4F6FA"/>
  <text x="312" y="522" class="nt" font-size="13.5" fill="#8A95A5">Birthday / anniversary</text><text x="312" y="542" class="mut" font-size="11.5">On customer's birthday</text><rect x="660" y="512" width="34" height="20" rx="10" fill="#DDE3EC"/><circle cx="674" cy="522" r="7" fill="#fff"/><line x1="312" y1="564" x2="696" y2="564" stroke="#F4F6FA"/>
  <text x="312" y="592" class="nt" font-size="13.5">Missed-appointment re-book</text><text x="312" y="612" class="mut" font-size="11.5">When an appointment is a no-show</text><rect x="660" y="582" width="34" height="20" rx="10" fill="#c479c2"/><circle cx="685" cy="592" r="7" fill="#fff"/><line x1="312" y1="634" x2="696" y2="634" stroke="#F4F6FA"/>
  <text x="312" y="662" class="nt" font-size="13.5">New-customer welcome</text><text x="312" y="682" class="mut" font-size="11.5">After a customer's first work order</text><rect x="660" y="652" width="34" height="20" rx="10" fill="#c479c2"/><circle cx="685" cy="662" r="7" fill="#fff"/>

  <rect x="760" y="160" width="656" height="560" rx="12" fill="#FFFFFF" stroke="#ECEFF4" filter="url(#sh)"/>
  <text x="784" y="192" class="h" font-size="15">Post-service thank-you + review</text><rect x="1300" y="176" width="92" height="24" rx="12" fill="#E6FBF5"/><circle cx="1318" cy="188" r="4" fill="#0F9C96"/><text x="1330" y="192" font-size="11" font-weight="600" fill="#0F9C96">Active</text>
  <line x1="784" y1="208" x2="1392" y2="208" stroke="#ECEFF4"/>

  <line x1="1088" y1="288" x2="1088" y2="640" stroke="#D7DEE8" stroke-width="2"/>
  <!-- Trigger -->
  <rect x="898" y="230" width="380" height="58" rx="10" fill="#FFFFFF" stroke="#16CDC7" stroke-width="1.5"/><rect x="898" y="230" width="5" height="58" rx="2.5" fill="#16CDC7"/><rect x="916" y="246" width="26" height="26" rx="7" fill="#E6FBFA"/><g style="color:#0F9C96"><use href="#ic-bolt" x="921" y="251" width="16" height="16"/></g><text x="954" y="252" class="badge" font-size="9.5" fill="#0F9C96">TRIGGER</text><text x="954" y="272" class="nt" font-size="13">Work order marked Paid</text>
  <!-- Wait -->
  <rect x="938" y="304" width="300" height="46" rx="10" fill="#F7F9FC" stroke="#E2E8F0"/><rect x="956" y="316" width="24" height="24" rx="7" fill="#EEF1F6"/><g style="color:#5A6A85"><use href="#ic-clock" x="960" y="320" width="16" height="16"/></g><text x="992" y="332" class="badge" font-size="9.5" fill="#8A95A5">WAIT</text><text x="992" y="345" class="cell" font-size="12.5">2 hours</text>
  <!-- Condition -->
  <rect x="898" y="366" width="380" height="52" rx="10" fill="#FFFBF2" stroke="#F0DFBE"/><rect x="916" y="379" width="26" height="26" rx="7" fill="#FBEFD3"/><g style="color:#A8720F"><use href="#ic-fork" x="921" y="384" width="16" height="16"/></g><text x="954" y="386" class="badge" font-size="9.5" fill="#A8720F">CONDITION</text><text x="954" y="405" class="cell" font-size="12.5">If marketing consent = Yes  ·  else stop</text>
  <!-- Action SMS -->
  <rect x="898" y="434" width="380" height="58" rx="10" fill="#FFFFFF" stroke="#E7C9E6" stroke-width="1.5"/><rect x="898" y="434" width="5" height="58" rx="2.5" fill="#c479c2"/><rect x="916" y="450" width="26" height="26" rx="7" fill="#FFEBFE"/><g style="color:#c479c2"><use href="#ic-chat" x="921" y="455" width="16" height="16"/></g><text x="954" y="456" class="badge" font-size="9.5" fill="#c479c2">ACTION · SMS</text><text x="954" y="476" class="nt" font-size="13">"Thanks for visiting — book your next service →"</text>
  <!-- Wait 2 -->
  <rect x="938" y="508" width="300" height="46" rx="10" fill="#F7F9FC" stroke="#E2E8F0"/><rect x="956" y="520" width="24" height="24" rx="7" fill="#EEF1F6"/><g style="color:#5A6A85"><use href="#ic-clock" x="960" y="524" width="16" height="16"/></g><text x="992" y="536" class="badge" font-size="9.5" fill="#8A95A5">WAIT</text><text x="992" y="549" class="cell" font-size="12.5">1 day</text>
  <!-- Action review -->
  <rect x="898" y="570" width="380" height="64" rx="10" fill="#FFFFFF" stroke="#E7C9E6" stroke-width="1.5"/><rect x="898" y="570" width="5" height="64" rx="2.5" fill="#c479c2"/><rect x="916" y="586" width="26" height="26" rx="7" fill="#FFEBFE"/><g style="color:#c479c2"><use href="#ic-star" x="921" y="591" width="16" height="16"/></g><text x="954" y="592" class="badge" font-size="9.5" fill="#c479c2">ACTION · REVIEW REQUEST</text><text x="954" y="611" class="nt" font-size="13">Send Google review link</text><text x="954" y="628" class="mut" font-size="11">Only if internal satisfaction rating ≥ 4★ (no review-gating of public text)</text>

  <text x="784" y="676" class="mut" font-size="11.5">Every step respects unsubscribe &amp; quiet hours · transactional steps are exempt from consent gating.</text>
  <text x="784" y="700" class="mut" font-size="11.5">Last run 12 min ago · 1,240 entered · 86 booked · 142 reviews</text>
</svg>
