<svg viewBox="0 0 1440 760" xmlns="http://www.w3.org/2000/svg" font-family="'Plus Jakarta Sans','Inter','Segoe UI',system-ui,sans-serif" role="img" aria-labelledby="t">
  <title id="t">Squibbon Shop — Message templates</title>
  <defs>
    <filter id="sh" x="-6%" y="-10%" width="112%" height="124%"><feDropShadow dx="0" dy="3" stdDeviation="6" flood-color="#2A3547" flood-opacity="0.07"/></filter>
    <g id="ic-grid" fill="none" stroke="currentColor" stroke-width="1.6"><rect x="3" y="3" width="6" height="6" rx="1.5"/><rect x="11" y="3" width="6" height="6" rx="1.5"/><rect x="3" y="11" width="6" height="6" rx="1.5"/><rect x="11" y="11" width="6" height="6" rx="1.5"/></g>
    <g id="ic-board" fill="none" stroke="currentColor" stroke-width="1.6"><rect x="3" y="3.5" width="4" height="13" rx="1"/><rect x="8" y="3.5" width="4" height="9" rx="1"/><rect x="13" y="3.5" width="4" height="13" rx="1"/></g>
    <g id="ic-clip" fill="none" stroke="currentColor" stroke-width="1.6" stroke-linejoin="round" stroke-linecap="round"><rect x="4.5" y="3.5" width="11" height="13.5" rx="2"/><rect x="7.5" y="2" width="5" height="3" rx="1"/><path d="M7.2 9 h5.6 M7.2 12 h5.6"/></g>
    <g id="ic-user" fill="none" stroke="currentColor" stroke-width="1.6" stroke-linecap="round"><circle cx="10" cy="7" r="3.2"/><path d="M4.5 16.5 a5.5 5.5 0 0 1 11 0"/></g>
    <g id="ic-mega" fill="none" stroke="currentColor" stroke-width="1.6" stroke-linejoin="round" stroke-linecap="round"><path d="M4.5 8 L14 4.5 v11 L4.5 12 z"/><path d="M4.5 8 H3 a1.2 1.2 0 0 0-1.2 1.2 v1.6 A1.2 1.2 0 0 0 3 12 h1.5"/><path d="M6.5 12.4 v2 a1.6 1.6 0 0 0 3.1 .4"/></g>
    <g id="ic-send" fill="none" stroke="currentColor" stroke-width="1.6" stroke-linejoin="round" stroke-linecap="round"><path d="M17.5 2.5 L8.8 11.2 M17.5 2.5 l-6.2 14.5 -2.6-5.7 L3 8.7 z"/></g>
    <g id="ic-users" fill="none" stroke="currentColor" stroke-width="1.6" stroke-linecap="round" stroke-linejoin="round"><circle cx="7.5" cy="7" r="2.8"/><path d="M2.5 16 a5 5 0 0 1 10 0"/><path d="M13 4.6 a2.8 2.8 0 0 1 0 5.4"/><path d="M14.5 16 a5 5 0 0 0-2.2-4.1"/></g>
    <g id="ic-bell" fill="none" stroke="currentColor" stroke-width="1.6" stroke-linejoin="round" stroke-linecap="round"><path d="M10 3 a4.6 4.6 0 0 1 4.6 4.6 c0 4 1.4 5.4 1.4 5.4 h-12 s1.4-1.4 1.4-5.4 a4.6 4.6 0 0 1 4.6-4.6z"/><path d="M8.3 16 a1.8 1.8 0 0 0 3.4 0"/></g>
    <g id="ic-back" fill="none" stroke="currentColor" stroke-width="1.6" stroke-linecap="round" stroke-linejoin="round"><path d="M8 4.5 L3.5 9 L8 13.5"/><path d="M3.5 9 H12 a5 5 0 0 1 5 5 v1"/></g>
    <g id="ic-bolt" fill="none" stroke="currentColor" stroke-width="1.6" stroke-linejoin="round" stroke-linecap="round"><path d="M11 2 L4.5 11 H9 l-1 7 6.5-9 H10 l1-7z"/></g>
    <g id="ic-file" fill="none" stroke="currentColor" stroke-width="1.6" stroke-linejoin="round"><path d="M6 2.8 h5 l4 4 v10.4 a1 1 0 0 1-1 1 H6 a1 1 0 0 1-1-1 V3.8 a1 1 0 0 1 1-1z"/><path d="M11 2.8 v4 h4"/></g>
    <g id="ic-star" fill="none" stroke="currentColor" stroke-width="1.6" stroke-linejoin="round"><path d="M10 2.5 l2.3 4.7 5.2 .8 -3.8 3.7 .9 5.2 -4.6-2.4 -4.6 2.4 .9-5.2 -3.8-3.7 5.2-.8z"/></g>
    <g id="ic-slider" fill="none" stroke="currentColor" stroke-width="1.6" stroke-linecap="round"><path d="M3 7 h14 M3 13 h14"/><circle cx="8" cy="7" r="1.9" fill="#fff"/><circle cx="13" cy="13" r="1.9" fill="#fff"/></g>
    <g id="ic-search" fill="none" stroke="currentColor" stroke-width="1.7" stroke-linecap="round"><circle cx="9" cy="9" r="5.5"/><path d="M13.2 13.2 L17.2 17.2"/></g>
    <g id="ic-menu" fill="none" stroke="currentColor" stroke-width="1.8" stroke-linecap="round"><path d="M3 6 h16 M3 11 h16 M3 16 h16"/></g>
    <g id="ic-plus" fill="none" stroke="currentColor" stroke-width="1.8" stroke-linecap="round"><path d="M10 4 V16 M4 10 H16"/></g>
    <g id="ic-copy" fill="none" stroke="currentColor" stroke-width="1.6" stroke-linejoin="round"><rect x="6" y="6" width="10" height="11" rx="2"/><path d="M12 6 V4.5 a1.5 1.5 0 0 0-1.5-1.5 H5 A1.5 1.5 0 0 0 3.5 4.5 V12 a1.5 1.5 0 0 0 1.5 1.5 H6"/></g>
    <g id="ic-pen" fill="none" stroke="currentColor" stroke-width="1.6" stroke-linejoin="round" stroke-linecap="round"><path d="M13.5 3.5 l3 3 L7 16 H4 v-3z"/><path d="M11.5 5.5 l3 3"/></g>
  </defs>
  <style>
    .navi{fill:#5A6A85;font-weight:500}.col{fill:#8A95A5;font-weight:600;letter-spacing:.4px}
    .h{fill:#2A3547;font-weight:600}.cell{fill:#2A3547;font-weight:500}.mut{fill:#8A95A5;font-weight:500}.nt{fill:#2A3547;font-weight:600}.mf{font-weight:600;fill:#1A5FB4}
  </style>
  <rect width="1440" height="760" fill="#F4F6FB"/>
  <rect x="0" y="0" width="256" height="760" fill="#FFFFFF"/><line x1="256" y1="0" x2="256" y2="760" stroke="#ECEFF4"/>
  <rect x="24" y="21" width="30" height="30" rx="8" fill="#c479c2"/><text x="39" y="42" font-size="17" font-weight="700" fill="#FFFFFF" text-anchor="middle">S</text><text x="66" y="42" font-size="19" font-weight="700" fill="#2A3547">Squibbon</text>
  <rect x="170" y="26" width="58" height="18" rx="9" fill="#E6FBFA"/><text x="199" y="39" font-size="10.5" font-weight="700" fill="#0F9C96" text-anchor="middle">SHOP</text>
  <text x="24" y="88" class="col" font-size="11">SHOP</text>
  <g style="color:#5A6A85"><use href="#ic-grid" x="22" y="100" width="18" height="18"/></g><text x="50" y="114" class="navi" font-size="12.5">Dashboard</text>
  <g style="color:#5A6A85"><use href="#ic-board" x="22" y="132" width="18" height="18"/></g><text x="50" y="146" class="navi" font-size="12.5">Workflow</text>
  <g style="color:#5A6A85"><use href="#ic-clip" x="22" y="164" width="18" height="18"/></g><text x="50" y="178" class="navi" font-size="12.5">Work orders</text>
  <g style="color:#5A6A85"><use href="#ic-user" x="22" y="196" width="18" height="18"/></g><text x="50" y="210" class="navi" font-size="12.5">Customers</text>
  <text x="24" y="228" class="col" font-size="11">GROW</text>
  <g style="color:#5A6A85"><use href="#ic-mega" x="22" y="240" width="18" height="18"/></g><text x="50" y="254" class="navi" font-size="12.5">Marketing</text>
  <g style="color:#5A6A85"><use href="#ic-send" x="22" y="272" width="18" height="18"/></g><text x="50" y="286" class="navi" font-size="12.5">Campaigns</text>
  <g style="color:#5A6A85"><use href="#ic-users" x="22" y="304" width="18" height="18"/></g><text x="50" y="318" class="navi" font-size="12.5">Audiences</text>
  <g style="color:#5A6A85"><use href="#ic-bell" x="22" y="336" width="18" height="18"/></g><text x="50" y="350" class="navi" font-size="12.5">Service reminders</text>
  <g style="color:#5A6A85"><use href="#ic-back" x="22" y="368" width="18" height="18"/></g><text x="50" y="382" class="navi" font-size="12.5">Declined follow-up</text>
  <g style="color:#5A6A85"><use href="#ic-bolt" x="22" y="400" width="18" height="18"/></g><text x="50" y="414" class="navi" font-size="12.5">Automations</text>
  <rect x="12" y="428" width="232" height="26" rx="7" fill="#FFEBFE"/>
  <g style="color:#c479c2"><use href="#ic-file" x="22" y="432" width="18" height="18"/></g><text x="50" y="446" font-size="12.5" font-weight="600" fill="#c479c2">Templates</text>
  <g style="color:#5A6A85"><use href="#ic-star" x="22" y="464" width="18" height="18"/></g><text x="50" y="478" class="navi" font-size="12.5">Reviews</text>
  <text x="24" y="506" class="col" font-size="11">SETTINGS</text>
  <g style="color:#5A6A85"><use href="#ic-slider" x="22" y="518" width="18" height="18"/></g><text x="50" y="532" class="navi" font-size="12.5">Marketing settings</text>

  <rect x="256" y="0" width="1184" height="72" fill="#FFFFFF"/><line x1="256" y1="72" x2="1440" y2="72" stroke="#ECEFF4"/>
  <g style="color:#5A6A85"><use href="#ic-menu" x="282" y="26" width="20" height="20"/></g>
  <rect x="324" y="18" width="300" height="36" rx="18" fill="#F4F6FB"/><g style="color:#8A95A5"><use href="#ic-search" x="340" y="27" width="18" height="18"/></g><text x="366" y="41" font-size="12.5" fill="#9AA4B2">Search…</text>
  <rect x="1108" y="17" width="170" height="38" rx="8" fill="#c479c2"/><g style="color:#FFFFFF"><use href="#ic-plus" x="1136" y="28" width="16" height="16"/></g><text x="1160" y="41" font-size="12.5" font-weight="600" fill="#FFFFFF">New template</text>
  <g style="color:#5A6A85"><use href="#ic-bell" x="1300" y="26" width="20" height="20"/></g><circle cx="1317" cy="27" r="4" fill="#FA5A5A"/>
  <text x="1368" y="33" font-size="12.5" font-weight="600" fill="#2A3547" text-anchor="end">T. Hopper</text><text x="1368" y="47" font-size="10.5" fill="#8A95A5" text-anchor="end">Marketing</text>
  <circle cx="1392" cy="36" r="16" fill="#FFEBFE"/><text x="1392" y="40" font-size="12" font-weight="700" fill="#c479c2" text-anchor="middle">TH</text>

  <text x="280" y="118" font-size="22" font-weight="700" fill="#2A3547">Templates</text>
  <text x="280" y="140" font-size="13" fill="#5A6A85">Reusable email &amp; SMS · bilingual EN / FR · merge fields auto-fill from the work order</text>

  <!-- gallery -->
  <rect x="280" y="160" width="560" height="560" rx="12" fill="#FFFFFF" stroke="#ECEFF4" filter="url(#sh)"/>
  <g font-size="11.5" font-weight="600"><rect x="296" y="178" width="56" height="26" rx="13" fill="#c479c2"/><text x="324" y="195" fill="#fff" text-anchor="middle">All</text><text x="378" y="195" fill="#5A6A85">Email</text><text x="442" y="195" fill="#5A6A85">SMS</text><text x="502" y="195" fill="#5A6A85">Reminders</text><text x="600" y="195" fill="#5A6A85">Reviews</text></g>
  <line x1="296" y1="218" x2="824" y2="218" stroke="#ECEFF4"/>
  <!-- card grid: 2 cols x 3 rows -->
  <g>
  <rect x="296" y="232" width="252" height="142" rx="10" fill="#FBF3FB" stroke="#c479c2" stroke-width="1.5"/><rect x="308" y="244" width="228" height="40" rx="6" fill="#fff" stroke="#EBD3EA"/><rect x="316" y="252" width="80" height="6" rx="3" fill="#E2D0E1"/><rect x="316" y="266" width="150" height="6" rx="3" fill="#EDE3EC"/><text x="308" y="312" class="nt" font-size="13.5">Service reminder</text><rect x="308" y="324" width="60" height="19" rx="9.5" fill="#EEF1F6"/><text x="338" y="337" font-size="10" font-weight="600" fill="#5A6A85" text-anchor="middle">Email</text><rect x="374" y="324" width="50" height="19" rx="9.5" fill="#EAF2FE"/><text x="399" y="337" font-size="10" font-weight="600" fill="#1A5FB4" text-anchor="middle">EN / FR</text><text x="308" y="362" class="mut" font-size="10.5">Edited 3 days ago · used 1,210×</text></g>
  <g>
  <rect x="572" y="232" width="252" height="142" rx="10" fill="#FCFCFD" stroke="#ECEFF4"/><rect x="584" y="244" width="228" height="40" rx="6" fill="#fff" stroke="#EEF1F6"/><rect x="592" y="252" width="70" height="6" rx="3" fill="#E5E9EF"/><rect x="592" y="266" width="160" height="6" rx="3" fill="#EEF1F4"/><text x="584" y="312" class="nt" font-size="13.5">Thank-you + review</text><rect x="584" y="324" width="48" height="19" rx="9.5" fill="#EEF1F6"/><text x="608" y="337" font-size="10" font-weight="600" fill="#5A6A85" text-anchor="middle">SMS</text><rect x="638" y="324" width="50" height="19" rx="9.5" fill="#EAF2FE"/><text x="663" y="337" font-size="10" font-weight="600" fill="#1A5FB4" text-anchor="middle">EN / FR</text><text x="584" y="362" class="mut" font-size="10.5">Edited 1 week ago · used 1,240×</text></g>
  <g>
  <rect x="296" y="388" width="252" height="142" rx="10" fill="#FCFCFD" stroke="#ECEFF4"/><rect x="308" y="400" width="228" height="40" rx="6" fill="#fff" stroke="#EEF1F6"/><rect x="316" y="408" width="90" height="6" rx="3" fill="#E5E9EF"/><rect x="316" y="422" width="150" height="6" rx="3" fill="#EEF1F4"/><text x="308" y="468" class="nt" font-size="13.5">Win-back offer</text><rect x="308" y="480" width="60" height="19" rx="9.5" fill="#EEF1F6"/><text x="338" y="493" font-size="10" font-weight="600" fill="#5A6A85" text-anchor="middle">Email</text><rect x="374" y="480" width="50" height="19" rx="9.5" fill="#EAF2FE"/><text x="399" y="493" font-size="10" font-weight="600" fill="#1A5FB4" text-anchor="middle">EN / FR</text><text x="308" y="518" class="mut" font-size="10.5">Edited 2 weeks ago · used 312×</text></g>
  <g>
  <rect x="572" y="388" width="252" height="142" rx="10" fill="#FCFCFD" stroke="#ECEFF4"/><rect x="584" y="400" width="228" height="40" rx="6" fill="#fff" stroke="#EEF1F6"/><rect x="592" y="408" width="70" height="6" rx="3" fill="#E5E9EF"/><rect x="592" y="422" width="140" height="6" rx="3" fill="#EEF1F4"/><text x="584" y="468" class="nt" font-size="13.5">Declined-work nudge</text><rect x="584" y="480" width="48" height="19" rx="9.5" fill="#EEF1F6"/><text x="608" y="493" font-size="10" font-weight="600" fill="#5A6A85" text-anchor="middle">SMS</text><rect x="638" y="480" width="36" height="19" rx="9.5" fill="#EAF2FE"/><text x="656" y="493" font-size="10" font-weight="600" fill="#1A5FB4" text-anchor="middle">EN</text><text x="584" y="518" class="mut" font-size="10.5">Edited 5 days ago · used 96×</text></g>
  <g>
  <rect x="296" y="544" width="252" height="142" rx="10" fill="#FCFCFD" stroke="#ECEFF4"/><rect x="308" y="556" width="228" height="40" rx="6" fill="#fff" stroke="#EEF1F6"/><rect x="316" y="564" width="80" height="6" rx="3" fill="#E5E9EF"/><rect x="316" y="578" width="150" height="6" rx="3" fill="#EEF1F4"/><text x="308" y="624" class="nt" font-size="13.5">Appointment confirmation</text><rect x="308" y="636" width="48" height="19" rx="9.5" fill="#EEF1F6"/><text x="332" y="649" font-size="10" font-weight="600" fill="#5A6A85" text-anchor="middle">SMS</text><rect x="362" y="636" width="50" height="19" rx="9.5" fill="#EAF2FE"/><text x="387" y="649" font-size="10" font-weight="600" fill="#1A5FB4" text-anchor="middle">EN / FR</text><text x="308" y="674" class="mut" font-size="10.5">Edited 1 month ago · used 2,030×</text></g>
  <g>
  <rect x="572" y="544" width="252" height="142" rx="10" fill="#FCFCFD" stroke="#ECEFF4"/><rect x="584" y="556" width="228" height="40" rx="6" fill="#fff" stroke="#EEF1F6"/><rect x="592" y="564" width="90" height="6" rx="3" fill="#E5E9EF"/><rect x="592" y="578" width="130" height="6" rx="3" fill="#EEF1F4"/><text x="584" y="624" class="nt" font-size="13.5">Seasonal · winter tires</text><rect x="584" y="636" width="60" height="19" rx="9.5" fill="#EEF1F6"/><text x="614" y="649" font-size="10" font-weight="600" fill="#5A6A85" text-anchor="middle">Email</text><rect x="650" y="636" width="50" height="19" rx="9.5" fill="#EAF2FE"/><text x="675" y="649" font-size="10" font-weight="600" fill="#1A5FB4" text-anchor="middle">EN / FR</text><text x="584" y="674" class="mut" font-size="10.5">Edited 3 months ago · used 412×</text></g>

  <!-- preview -->
  <rect x="864" y="160" width="552" height="560" rx="12" fill="#FFFFFF" stroke="#ECEFF4" filter="url(#sh)"/>
  <text x="888" y="190" class="h" font-size="15">Service reminder</text>
  <g font-size="11" font-weight="700"><rect x="1226" y="174" width="78" height="26" rx="8" fill="#c479c2"/><text x="1248" y="191" fill="#fff">EN</text><line x1="1265" y1="178" x2="1265" y2="196" stroke="#fff" stroke-opacity="0.5"/><text x="1284" y="191" fill="#fff" fill-opacity="0.7">FR</text><rect x="1316" y="174" width="40" height="26" rx="8" fill="#F4F6FB"/><g style="color:#5A6A85"><use href="#ic-copy" x="1326" y="178" width="18" height="18"/></g><rect x="1364" y="174" width="28" height="26" rx="8" fill="#F4F6FB"/><g style="color:#5A6A85"><use href="#ic-pen" x="1366" y="178" width="18" height="18"/></g></g>
  <line x1="888" y1="214" x2="1392" y2="214" stroke="#ECEFF4"/>
  <!-- email render -->
  <rect x="888" y="232" width="504" height="356" rx="10" fill="#FAFBFD" stroke="#ECEFF4"/>
  <text x="908" y="262" class="mut" font-size="11">Subject</text><text x="908" y="282" class="nt" font-size="13.5">Your <tspan class="mf">{{vehicle}}</tspan> is due for <tspan class="mf">{{service}}</tspan></text>
  <line x1="908" y1="298" x2="1372" y2="298" stroke="#EEF1F4"/>
  <text x="908" y="324" class="cell" font-size="12.5">Hi <tspan class="mf">{{first_name}}</tspan>,</text>
  <text x="908" y="348" class="cell" font-size="12.5">Our records show your <tspan class="mf">{{vehicle}}</tspan> is due for</text>
  <text x="908" y="368" class="cell" font-size="12.5"><tspan class="mf">{{service}}</tspan> around <tspan class="mf">{{due_date}}</tspan>. Book online in</text>
  <text x="908" y="388" class="cell" font-size="12.5">under a minute — we'll have you in and out.</text>
  <rect x="908" y="408" width="150" height="38" rx="8" fill="#c479c2"/><text x="983" y="432" font-size="12.5" font-weight="600" fill="#fff" text-anchor="middle">Book service</text>
  <text x="908" y="476" class="mut" font-size="11">— The team at <tspan class="mf">{{shop_name}}</tspan></text>
  <line x1="908" y1="498" x2="1372" y2="498" stroke="#EEF1F4"/>
  <text x="908" y="520" class="mut" font-size="10">{{shop_name}} · {{shop_address}}</text>
  <text x="908" y="538" class="mut" font-size="10">You're receiving this because you're a customer. <tspan fill="#1A5FB4" font-weight="600">Unsubscribe</tspan> · <tspan fill="#1A5FB4" font-weight="600">Se désabonner</tspan></text>
  <text x="908" y="568" class="mut" font-size="10">Sender ID &amp; mailing address inserted automatically (CASL).</text>
  <!-- merge fields -->
  <text x="888" y="616" class="h" font-size="13">Merge fields</text>
  <g font-size="11" font-weight="600" fill="#1A5FB4">
  <rect x="888" y="628" width="104" height="24" rx="12" fill="#EAF2FE"/><text x="940" y="644" text-anchor="middle">{{first_name}}</text>
  <rect x="1000" y="628" width="86" height="24" rx="12" fill="#EAF2FE"/><text x="1043" y="644" text-anchor="middle">{{vehicle}}</text>
  <rect x="1094" y="628" width="86" height="24" rx="12" fill="#EAF2FE"/><text x="1137" y="644" text-anchor="middle">{{service}}</text>
  <rect x="1188" y="628" width="92" height="24" rx="12" fill="#EAF2FE"/><text x="1234" y="644" text-anchor="middle">{{due_date}}</text>
  <rect x="888" y="660" width="100" height="24" rx="12" fill="#EAF2FE"/><text x="938" y="676" text-anchor="middle">{{shop_name}}</text>
  <rect x="996" y="660" width="92" height="24" rx="12" fill="#EAF2FE"/><text x="1042" y="676" text-anchor="middle">{{book_link}}</text>
  <rect x="1096" y="660" width="100" height="24" rx="12" fill="#F4F6FB" stroke="#E2E8F0"/><text x="1146" y="676" text-anchor="middle" fill="#8A95A5">+ add field</text>
  </g>
</svg>
