<svg viewBox="0 0 1440 860" xmlns="http://www.w3.org/2000/svg" font-family="'Plus Jakarta Sans','Inter','Segoe UI',system-ui,sans-serif" role="img" aria-labelledby="t">
  <title id="t">Squibbon Shop — Estimate with labor guide</title>
  <defs>
    <filter id="sh" x="-6%" y="-10%" width="112%" height="124%"><feDropShadow dx="0" dy="3" stdDeviation="6" flood-color="#2A3547" flood-opacity="0.07"/></filter>
    <g id="ic-grid" fill="none" stroke="currentColor" stroke-width="1.6"><rect x="3" y="3" width="6" height="6" rx="1.5"/><rect x="11" y="3" width="6" height="6" rx="1.5"/><rect x="3" y="11" width="6" height="6" rx="1.5"/><rect x="11" y="11" width="6" height="6" rx="1.5"/></g>
    <g id="ic-board" fill="none" stroke="currentColor" stroke-width="1.6"><rect x="3" y="3.5" width="4" height="13" rx="1"/><rect x="8" y="3.5" width="4" height="9" rx="1"/><rect x="13" y="3.5" width="4" height="13" rx="1"/></g>
    <g id="ic-clip" fill="none" stroke="currentColor" stroke-width="1.6" stroke-linejoin="round" stroke-linecap="round"><rect x="4.5" y="3.5" width="11" height="13.5" rx="2"/><rect x="7.5" y="2" width="5" height="3" rx="1"/><path d="M7.2 9 h5.6 M7.2 12 h5.6"/></g>
    <g id="ic-user" fill="none" stroke="currentColor" stroke-width="1.6" stroke-linecap="round"><circle cx="10" cy="7" r="3.2"/><path d="M4.5 16.5 a5.5 5.5 0 0 1 11 0"/></g>
    <g id="ic-truck" fill="none" stroke="currentColor" stroke-width="1.6" stroke-linejoin="round" stroke-linecap="round"><path d="M2.5 6 h8 v7 h-8 z"/><path d="M10.5 8.5 h3.2 l2.4 2.3 v2.2 h-5.6 z"/><circle cx="6" cy="15" r="1.5"/><circle cx="13.7" cy="15" r="1.5"/></g>
    <g id="ic-box" fill="none" stroke="currentColor" stroke-width="1.6" stroke-linejoin="round" stroke-linecap="round"><path d="M10 2.6 l6.4 3.5 v7.8 l-6.4 3.5 -6.4-3.5 v-7.8z"/><path d="M3.6 6.1 L10 9.6 l6.4-3.5 M10 9.6 V17.4"/></g>
    <g id="ic-building" fill="none" stroke="currentColor" stroke-width="1.6" stroke-linejoin="round"><rect x="4.5" y="3.5" width="11" height="14" rx="1.2"/><path d="M7.5 7 h1 M11.5 7 h1 M7.5 10 h1 M11.5 10 h1"/><path d="M8.5 17.5 v-3 h3 v3"/></g>
    <g id="ic-cart" fill="none" stroke="currentColor" stroke-width="1.6" stroke-linejoin="round" stroke-linecap="round"><path d="M3 4 h2.2 l1.8 8.4 h7.6 l1.6-5.8 H6.2"/><circle cx="8" cy="16" r="1.3"/><circle cx="14.5" cy="16" r="1.3"/></g>
    <g id="ic-bill" fill="none" stroke="currentColor" stroke-width="1.6" stroke-linejoin="round" stroke-linecap="round"><path d="M5 2.6 h10 v15 l-2-1.3 -2 1.3 -2-1.3 -2 1.3 -2-1.3z"/><path d="M7.4 7 h5.2 M7.4 10 h5.2 M7.4 13 h3.2"/></g>
    <g id="ic-card" fill="none" stroke="currentColor" stroke-width="1.6" stroke-linejoin="round"><rect x="2.5" y="5" width="15" height="10" rx="2"/><path d="M2.5 8.5 h15 M5 12 h3"/></g>
    <g id="ic-chart" fill="none" stroke="currentColor" stroke-width="1.6" stroke-linejoin="round" stroke-linecap="round"><path d="M3 16.5 h14"/><rect x="4.5" y="9" width="2.6" height="5.5"/><rect x="8.7" y="6" width="2.6" height="8.5"/><rect x="12.9" y="11" width="2.6" height="3.5"/></g>
    <g id="ic-slider" fill="none" stroke="currentColor" stroke-width="1.6" stroke-linecap="round"><path d="M3 7 h14 M3 13 h14"/><circle cx="8" cy="7" r="1.9" fill="#fff"/><circle cx="13" cy="13" r="1.9" fill="#fff"/></g>
    <g id="ic-search" fill="none" stroke="currentColor" stroke-width="1.7" stroke-linecap="round"><circle cx="9" cy="9" r="5.5"/><path d="M13.2 13.2 L17.2 17.2"/></g>
    <g id="ic-bell" fill="none" stroke="currentColor" stroke-width="1.6" stroke-linejoin="round" stroke-linecap="round"><path d="M10 3 a4.6 4.6 0 0 1 4.6 4.6 c0 4 1.4 5.4 1.4 5.4 h-12 s1.4-1.4 1.4-5.4 a4.6 4.6 0 0 1 4.6-4.6z"/><path d="M8.3 16 a1.8 1.8 0 0 0 3.4 0"/></g>
    <g id="ic-menu" fill="none" stroke="currentColor" stroke-width="1.8" stroke-linecap="round"><path d="M3 6 h16 M3 11 h16 M3 16 h16"/></g>
    <g id="ic-plus" fill="none" stroke="currentColor" stroke-width="1.8" stroke-linecap="round"><path d="M10 4 V16 M4 10 H16"/></g>
    <g id="ic-book" fill="none" stroke="currentColor" stroke-width="1.6" stroke-linejoin="round" stroke-linecap="round"><path d="M3.5 4 a2 2 0 0 1 2-1.5 H10 v13 H5.5 a2 2 0 0 0-2 1.5z"/><path d="M16.5 4 a2 2 0 0 0-2-1.5 H10 v13 h4.5 a2 2 0 0 1 2 1.5z"/></g>
    <g id="ic-down" fill="none" stroke="currentColor" stroke-width="1.7" stroke-linecap="round" stroke-linejoin="round"><path d="M10 3 v11 M5.5 9.5 L10 14 l4.5-4.5 M4 17 h12"/></g>
  </defs>
  <style>
    .navi{fill:#5A6A85;font-weight:500}.col{fill:#8A95A5;font-weight:600;letter-spacing:.4px}
    .h{fill:#2A3547;font-weight:600}.sub{fill:#5A6A85;font-weight:400}.lbl{fill:#8A95A5;font-weight:500}.cell{fill:#2A3547;font-weight:500}.mut{fill:#8A95A5;font-weight:500}.lnk{fill:#c479c2;font-weight:600}.pill{font-weight:600}.num{fill:#2A3547;font-weight:700}
  </style>
  <rect width="1440" height="860" fill="#F4F6FB"/>
  <rect x="0" y="0" width="256" height="860" fill="#FFFFFF"/><line x1="256" y1="0" x2="256" y2="860" stroke="#ECEFF4"/>
  <rect x="24" y="21" width="30" height="30" rx="8" fill="#c479c2"/><text x="39" y="42" font-size="17" font-weight="700" fill="#FFFFFF" text-anchor="middle">S</text><text x="66" y="42" font-size="19" font-weight="700" fill="#2A3547">Squibbon</text>
  <rect x="170" y="26" width="58" height="18" rx="9" fill="#E6FBFA"/><text x="199" y="39" font-size="10.5" font-weight="700" fill="#0F9C96" text-anchor="middle">SHOP</text>
  <text x="24" y="90" class="col" font-size="11">SHOP</text>
  <g style="color:#5A6A85"><use href="#ic-grid" x="22" y="100" width="18" height="18"/></g><text x="50" y="114" class="navi" font-size="12.5">Dashboard</text>
  <g style="color:#5A6A85"><use href="#ic-board" x="22" y="138" width="18" height="18"/></g><text x="50" y="152" class="navi" font-size="12.5">Workflow</text>
  <rect x="12" y="172" width="232" height="28" rx="7" fill="#FFEBFE"/>
  <g style="color:#c479c2"><use href="#ic-clip" x="22" y="177" width="18" height="18"/></g><text x="50" y="191" font-size="12.5" font-weight="600" fill="#c479c2">Work orders</text>
  <g style="color:#5A6A85"><use href="#ic-user" x="22" y="214" width="18" height="18"/></g><text x="50" y="228" class="navi" font-size="12.5">Customers</text>
  <g style="color:#5A6A85"><use href="#ic-truck" x="22" y="252" width="18" height="18"/></g><text x="50" y="266" class="navi" font-size="12.5">Vehicles</text>
  <text x="24" y="304" class="col" font-size="11">PARTS &amp; VENDORS</text>
  <g style="color:#5A6A85"><use href="#ic-box" x="22" y="314" width="18" height="18"/></g><text x="50" y="328" class="navi" font-size="12.5">Inventory / parts</text>
  <g style="color:#5A6A85"><use href="#ic-cart" x="22" y="352" width="18" height="18"/></g><text x="50" y="366" class="navi" font-size="12.5">Purchase orders</text>
  <g style="color:#5A6A85"><use href="#ic-building" x="22" y="390" width="18" height="18"/></g><text x="50" y="404" class="navi" font-size="12.5">Vendors</text>
  <text x="24" y="442" class="col" font-size="11">BILLING</text>
  <g style="color:#5A6A85"><use href="#ic-bill" x="22" y="452" width="18" height="18"/></g><text x="50" y="466" class="navi" font-size="12.5">Invoices</text>
  <g style="color:#5A6A85"><use href="#ic-card" x="22" y="490" width="18" height="18"/></g><text x="50" y="504" class="navi" font-size="12.5">Payments</text>
  <g style="color:#5A6A85"><use href="#ic-chart" x="22" y="528" width="18" height="18"/></g><text x="50" y="542" class="navi" font-size="12.5">Reports</text>
  <text x="24" y="580" class="col" font-size="11">SETTINGS</text>
  <g style="color:#5A6A85"><use href="#ic-slider" x="22" y="590" width="18" height="18"/></g><text x="50" y="604" class="navi" font-size="12.5">Shop settings</text>

  <rect x="256" y="0" width="1184" height="72" fill="#FFFFFF"/><line x1="256" y1="72" x2="1440" y2="72" stroke="#ECEFF4"/>
  <g style="color:#5A6A85"><use href="#ic-menu" x="282" y="26" width="20" height="20"/></g>
  <rect x="324" y="18" width="300" height="36" rx="18" fill="#F4F6FB"/><g style="color:#8A95A5"><use href="#ic-search" x="340" y="27" width="18" height="18"/></g><text x="366" y="41" font-size="12.5" fill="#9AA4B2">Search WO, customer, plate or VIN…</text>
  <rect x="1108" y="17" width="170" height="38" rx="8" fill="#c479c2"/><g style="color:#FFFFFF"><use href="#ic-bill" x="1136" y="28" width="16" height="16"/></g><text x="1160" y="41" font-size="12.5" font-weight="600" fill="#FFFFFF">Send estimate</text>
  <g style="color:#5A6A85"><use href="#ic-bell" x="1300" y="26" width="20" height="20"/></g><circle cx="1317" cy="27" r="4" fill="#FA5A5A"/>
  <text x="1368" y="33" font-size="12.5" font-weight="600" fill="#2A3547" text-anchor="end">T. Hopper</text><text x="1368" y="47" font-size="10.5" fill="#8A95A5" text-anchor="end">Advisor</text>
  <circle cx="1392" cy="36" r="16" fill="#FFEBFE"/><text x="1392" y="40" font-size="12" font-weight="700" fill="#c479c2" text-anchor="middle">TH</text>

  <text x="280" y="116" font-size="22" font-weight="700" fill="#2A3547">WO-10428</text>
  <rect x="424" y="101" width="84" height="22" rx="11" fill="#FEF4E6"/><text x="466" y="116" class="pill" font-size="11" fill="#A8720F" text-anchor="middle">Estimate</text>
  <text x="280" y="138" font-size="12.5" fill="#5A6A85">Acme Fleet Ltd · 2019 Ford F-150 · VIN 1FTEW1E5XKF… · decoded ✓</text>

  <!-- ESTIMATE (left) -->
  <rect x="280" y="158" width="712" height="120" rx="12" fill="#FFFFFF" stroke="#ECEFF4" filter="url(#sh)"/>
  <text x="304" y="188" class="h" font-size="15">Front brake service</text>
  <rect x="490" y="176" width="86" height="20" rx="10" fill="#FEF4E6"/><text x="533" y="190" class="pill" font-size="10" fill="#A8720F" text-anchor="middle">Building…</text>
  <text x="968" y="188" class="num" font-size="15" text-anchor="end">$402.00</text>
  <g class="col" font-size="10"><text x="372" y="222">ITEM</text><text x="690" y="222">QTY / HRS</text><text x="968" y="222" text-anchor="end">TOTAL</text></g>
  <line x1="304" y1="230" x2="968" y2="230" stroke="#ECEFF4"/>
  <rect x="304" y="240" width="54" height="18" rx="9" fill="#EAF2FE"/><text x="331" y="253" class="pill" font-size="9.5" fill="#1A5FB4" text-anchor="middle">Labour</text>
  <text x="372" y="250" class="cell" font-size="12.5">Replace front pads &amp; rotors</text>
  <rect x="372" y="258" width="180" height="15" rx="7" fill="#E6FBFA"/><text x="382" y="270" class="pill" font-size="9" fill="#0F9C96">⏱ ProDemand 2.3 hr · flat-rate</text>
  <text x="690" y="250" class="sub" font-size="12.5">2.3 hr</text><text x="968" y="250" class="cell" font-size="12.5" text-anchor="end">$276.00</text>

  <text x="280" y="312" class="mut" font-size="12">Add labour and parts from your repair-data subscription →</text>

  <!-- LABOR GUIDE PANEL (right) -->
  <rect x="1008" y="158" width="408" height="660" rx="12" fill="#FFFFFF" stroke="#D7B8D6" stroke-width="1.5" filter="url(#sh)"/>
  <g style="color:#c479c2"><use href="#ic-book" x="1028" y="178" width="20" height="20"/></g>
  <text x="1056" y="186" class="h" font-size="15">Repair data</text><text x="1056" y="204" class="mut" font-size="11">2019 Ford F-150 5.0L · VIN-matched</text>
  <text x="1396" y="186" class="lnk" font-size="18" text-anchor="end">×</text>
  <!-- provider tabs -->
  <g font-size="11.5" font-weight="600"><rect x="1028" y="218" width="92" height="26" rx="13" fill="#c479c2"/><text x="1074" y="235" fill="#fff" text-anchor="middle">ProDemand</text><text x="1146" y="235" fill="#5A6A85">ALLDATA</text><text x="1228" y="235" fill="#5A6A85">Identifix</text><text x="1308" y="235" fill="#5A6A85">MOTOR</text></g>
  <rect x="1028" y="256" width="368" height="34" rx="8" fill="#F4F6FB"/><g style="color:#8A95A5"><use href="#ic-search" x="1040" y="265" width="16" height="16"/></g><text x="1064" y="278" font-size="12" fill="#5A6A85">front brake</text>
  <!-- result 1 -->
  <rect x="1028" y="302" width="368" height="150" rx="10" fill="#FBF3FB" stroke="#EBD3EA"/>
  <text x="1046" y="326" class="h" font-size="13">Brake Pads &amp; Rotors — Front, Replace</text>
  <text x="1046" y="350" class="lbl" font-size="10">LABOUR TIME</text>
  <rect x="1046" y="356" width="120" height="22" rx="6" fill="#FFFFFF" stroke="#E2D0E1"/><text x="1056" y="371" class="cell" font-size="11.5">Standard 2.3 hr</text>
  <rect x="1174" y="356" width="110" height="22" rx="6" fill="#FFFFFF" stroke="#E2D0E1"/><text x="1184" y="371" class="mut" font-size="11.5">Severe 2.8 hr</text>
  <text x="1046" y="398" class="lbl" font-size="10">INCLUDED OEM PARTS</text>
  <text x="1046" y="416" class="sub" font-size="11.5">• Pads (set) · • Rotors ×2 · • Hardware kit · • Brake fluid DOT 3</text>
  <rect x="1046" y="426" width="160" height="30" rx="7" fill="#c479c2"/><g style="color:#fff"><use href="#ic-down" x="1058" y="434" width="14" height="14"/></g><text x="1082" y="446" font-size="11.5" font-weight="600" fill="#fff">Transfer to estimate</text>
  <text x="1380" y="446" class="lnk" font-size="11.5" text-anchor="end">Procedure →</text>
  <!-- result 2 -->
  <rect x="1028" y="466" width="368" height="92" rx="10" fill="#FFFFFF" stroke="#ECEFF4"/>
  <text x="1046" y="490" class="h" font-size="13">Brake Fluid Flush</text>
  <rect x="1046" y="500" width="120" height="22" rx="6" fill="#F4F6FB"/><text x="1056" y="515" class="cell" font-size="11.5">Standard 0.6 hr</text>
  <text x="1046" y="540" class="sub" font-size="11">Fluid: DOT 3 · capacity 0.9 L</text>
  <rect x="1256" y="520" width="128" height="28" rx="7" fill="#FFEBFE"/><g style="color:#c479c2"><use href="#ic-plus" x="1268" y="527" width="14" height="14"/></g><text x="1292" y="539" font-size="11" font-weight="600" fill="#c479c2">Add to estimate</text>
  <!-- result 3 maintenance -->
  <rect x="1028" y="572" width="368" height="78" rx="10" fill="#FFFFFF" stroke="#ECEFF4"/>
  <text x="1046" y="596" class="h" font-size="13">Factory maintenance — 84,000 km</text>
  <text x="1046" y="618" class="sub" font-size="11">Due: brake inspection, cabin filter, rotate tires</text>
  <text x="1046" y="636" class="lnk" font-size="11">View schedule →</text>
  <!-- footer -->
  <line x1="1028" y1="668" x2="1396" y2="668" stroke="#ECEFF4"/>
  <text x="1028" y="692" class="lbl" font-size="10">SOURCE</text>
  <text x="1028" y="712" class="mut" font-size="11">Times from your ProDemand subscription (BYO login,</text>
  <text x="1028" y="728" class="mut" font-size="11">set in Shop settings). Flat-rate. VIN decoded first.</text>
  <rect x="1028" y="744" width="368" height="56" rx="9" fill="#F4F6FB"/><text x="1048" y="767" class="cell" font-size="11.5">Labour line shows the guide &amp; value used —</text><text x="1048" y="785" class="cell" font-size="11.5">advisors and techs see where the time came from.</text>
</svg>
