<svg viewBox="0 0 1440 800" xmlns="http://www.w3.org/2000/svg" font-family="'Plus Jakarta Sans','Inter','Segoe UI',system-ui,sans-serif" role="img" aria-labelledby="t">
  <title id="t">Squibbon Shop — Intake: VIN decode, recalls, history</title>
  <defs>
    <filter id="sh" x="-6%" y="-10%" width="112%" height="124%"><feDropShadow dx="0" dy="3" stdDeviation="6" flood-color="#2A3547" flood-opacity="0.07"/></filter>
    <g id="ic-grid" fill="none" stroke="currentColor" stroke-width="1.6"><rect x="3" y="3" width="6" height="6" rx="1.5"/><rect x="11" y="3" width="6" height="6" rx="1.5"/><rect x="3" y="11" width="6" height="6" rx="1.5"/><rect x="11" y="11" width="6" height="6" rx="1.5"/></g>
    <g id="ic-board" fill="none" stroke="currentColor" stroke-width="1.6"><rect x="3" y="3.5" width="4" height="13" rx="1"/><rect x="8" y="3.5" width="4" height="9" rx="1"/><rect x="13" y="3.5" width="4" height="13" rx="1"/></g>
    <g id="ic-clip" fill="none" stroke="currentColor" stroke-width="1.6" stroke-linejoin="round" stroke-linecap="round"><rect x="4.5" y="3.5" width="11" height="13.5" rx="2"/><rect x="7.5" y="2" width="5" height="3" rx="1"/><path d="M7.2 9 h5.6 M7.2 12 h5.6"/></g>
    <g id="ic-user" fill="none" stroke="currentColor" stroke-width="1.6" stroke-linecap="round"><circle cx="10" cy="7" r="3.2"/><path d="M4.5 16.5 a5.5 5.5 0 0 1 11 0"/></g>
    <g id="ic-truck" fill="none" stroke="currentColor" stroke-width="1.6" stroke-linejoin="round" stroke-linecap="round"><path d="M2.5 6 h8 v7 h-8 z"/><path d="M10.5 8.5 h3.2 l2.4 2.3 v2.2 h-5.6 z"/><circle cx="6" cy="15" r="1.5"/><circle cx="13.7" cy="15" r="1.5"/></g>
    <g id="ic-box" fill="none" stroke="currentColor" stroke-width="1.6" stroke-linejoin="round" stroke-linecap="round"><path d="M10 2.6 l6.4 3.5 v7.8 l-6.4 3.5 -6.4-3.5 v-7.8z"/><path d="M3.6 6.1 L10 9.6 l6.4-3.5 M10 9.6 V17.4"/></g>
    <g id="ic-building" fill="none" stroke="currentColor" stroke-width="1.6" stroke-linejoin="round"><rect x="4.5" y="3.5" width="11" height="14" rx="1.2"/><path d="M7.5 7 h1 M11.5 7 h1 M7.5 10 h1 M11.5 10 h1"/><path d="M8.5 17.5 v-3 h3 v3"/></g>
    <g id="ic-cart" fill="none" stroke="currentColor" stroke-width="1.6" stroke-linejoin="round" stroke-linecap="round"><path d="M3 4 h2.2 l1.8 8.4 h7.6 l1.6-5.8 H6.2"/><circle cx="8" cy="16" r="1.3"/><circle cx="14.5" cy="16" r="1.3"/></g>
    <g id="ic-bill" fill="none" stroke="currentColor" stroke-width="1.6" stroke-linejoin="round" stroke-linecap="round"><path d="M5 2.6 h10 v15 l-2-1.3 -2 1.3 -2-1.3 -2 1.3 -2-1.3z"/><path d="M7.4 7 h5.2 M7.4 10 h5.2 M7.4 13 h3.2"/></g>
    <g id="ic-card" fill="none" stroke="currentColor" stroke-width="1.6" stroke-linejoin="round"><rect x="2.5" y="5" width="15" height="10" rx="2"/><path d="M2.5 8.5 h15 M5 12 h3"/></g>
    <g id="ic-chart" fill="none" stroke="currentColor" stroke-width="1.6" stroke-linejoin="round" stroke-linecap="round"><path d="M3 16.5 h14"/><rect x="4.5" y="9" width="2.6" height="5.5"/><rect x="8.7" y="6" width="2.6" height="8.5"/><rect x="12.9" y="11" width="2.6" height="3.5"/></g>
    <g id="ic-slider" fill="none" stroke="currentColor" stroke-width="1.6" stroke-linecap="round"><path d="M3 7 h14 M3 13 h14"/><circle cx="8" cy="7" r="1.9" fill="#fff"/><circle cx="13" cy="13" r="1.9" fill="#fff"/></g>
    <g id="ic-search" fill="none" stroke="currentColor" stroke-width="1.7" stroke-linecap="round"><circle cx="9" cy="9" r="5.5"/><path d="M13.2 13.2 L17.2 17.2"/></g>
    <g id="ic-bell" fill="none" stroke="currentColor" stroke-width="1.6" stroke-linejoin="round" stroke-linecap="round"><path d="M10 3 a4.6 4.6 0 0 1 4.6 4.6 c0 4 1.4 5.4 1.4 5.4 h-12 s1.4-1.4 1.4-5.4 a4.6 4.6 0 0 1 4.6-4.6z"/><path d="M8.3 16 a1.8 1.8 0 0 0 3.4 0"/></g>
    <g id="ic-menu" fill="none" stroke="currentColor" stroke-width="1.8" stroke-linecap="round"><path d="M3 6 h16 M3 11 h16 M3 16 h16"/></g>
    <g id="ic-recall" fill="none" stroke="currentColor" stroke-width="1.6" stroke-linejoin="round" stroke-linecap="round"><path d="M10 3 L18 16.5 H2 z"/><path d="M10 8 v4.2 M10 14.4 v.1"/></g>
    <g id="ic-check" fill="none" stroke="currentColor" stroke-width="2" stroke-linecap="round" stroke-linejoin="round"><path d="M4 10.5 l3.6 3.6 L16 6"/></g>
    <g id="ic-chev" fill="none" stroke="currentColor" stroke-width="1.7" stroke-linecap="round" stroke-linejoin="round"><path d="M5 8 l5 5 5-5"/></g>
  </defs>
  <style>
    .navi{fill:#5A6A85;font-weight:500}.col{fill:#8A95A5;font-weight:600;letter-spacing:.4px}
    .h{fill:#2A3547;font-weight:600}.sub{fill:#5A6A85;font-weight:400}.lbl{fill:#8A95A5;font-weight:600}.cell{fill:#2A3547;font-weight:500}.mut{fill:#8A95A5;font-weight:500}.lnk{fill:#c479c2;font-weight:600}.val{fill:#2A3547;font-weight:600}
  </style>
  <rect width="1440" height="800" fill="#F4F6FB"/>
  <rect x="0" y="0" width="256" height="800" fill="#FFFFFF"/><line x1="256" y1="0" x2="256" y2="800" stroke="#ECEFF4"/>
  <rect x="24" y="21" width="30" height="30" rx="8" fill="#c479c2"/><text x="39" y="42" font-size="17" font-weight="700" fill="#FFFFFF" text-anchor="middle">S</text><text x="66" y="42" font-size="19" font-weight="700" fill="#2A3547">Squibbon</text>
  <rect x="170" y="26" width="58" height="18" rx="9" fill="#E6FBFA"/><text x="199" y="39" font-size="10.5" font-weight="700" fill="#0F9C96" text-anchor="middle">SHOP</text>
  <text x="24" y="90" class="col" font-size="11">SHOP</text>
  <g style="color:#5A6A85"><use href="#ic-grid" x="22" y="100" width="18" height="18"/></g><text x="50" y="114" class="navi" font-size="12.5">Dashboard</text>
  <g style="color:#5A6A85"><use href="#ic-board" x="22" y="138" width="18" height="18"/></g><text x="50" y="152" class="navi" font-size="12.5">Workflow</text>
  <rect x="12" y="172" width="232" height="28" rx="7" fill="#FFEBFE"/>
  <g style="color:#c479c2"><use href="#ic-clip" x="22" y="177" width="18" height="18"/></g><text x="50" y="191" font-size="12.5" font-weight="600" fill="#c479c2">Work orders</text>
  <g style="color:#5A6A85"><use href="#ic-user" x="22" y="214" width="18" height="18"/></g><text x="50" y="228" class="navi" font-size="12.5">Customers</text>
  <g style="color:#5A6A85"><use href="#ic-truck" x="22" y="252" width="18" height="18"/></g><text x="50" y="266" class="navi" font-size="12.5">Vehicles</text>
  <text x="24" y="304" class="col" font-size="11">PARTS &amp; VENDORS</text>
  <g style="color:#5A6A85"><use href="#ic-box" x="22" y="314" width="18" height="18"/></g><text x="50" y="328" class="navi" font-size="12.5">Inventory / parts</text>
  <g style="color:#5A6A85"><use href="#ic-cart" x="22" y="352" width="18" height="18"/></g><text x="50" y="366" class="navi" font-size="12.5">Purchase orders</text>
  <g style="color:#5A6A85"><use href="#ic-building" x="22" y="390" width="18" height="18"/></g><text x="50" y="404" class="navi" font-size="12.5">Vendors</text>
  <text x="24" y="442" class="col" font-size="11">BILLING</text>
  <g style="color:#5A6A85"><use href="#ic-bill" x="22" y="452" width="18" height="18"/></g><text x="50" y="466" class="navi" font-size="12.5">Invoices</text>
  <g style="color:#5A6A85"><use href="#ic-card" x="22" y="490" width="18" height="18"/></g><text x="50" y="504" class="navi" font-size="12.5">Payments</text>
  <g style="color:#5A6A85"><use href="#ic-chart" x="22" y="528" width="18" height="18"/></g><text x="50" y="542" class="navi" font-size="12.5">Reports</text>
  <text x="24" y="580" class="col" font-size="11">SETTINGS</text>
  <g style="color:#5A6A85"><use href="#ic-slider" x="22" y="590" width="18" height="18"/></g><text x="50" y="604" class="navi" font-size="12.5">Shop settings</text>

  <rect x="256" y="0" width="1184" height="72" fill="#FFFFFF"/><line x1="256" y1="72" x2="1440" y2="72" stroke="#ECEFF4"/>
  <g style="color:#5A6A85"><use href="#ic-menu" x="282" y="26" width="20" height="20"/></g>
  <rect x="324" y="18" width="300" height="36" rx="18" fill="#F4F6FB"/><g style="color:#8A95A5"><use href="#ic-search" x="340" y="27" width="18" height="18"/></g><text x="366" y="41" font-size="12.5" fill="#9AA4B2">Search WO, customer, plate or VIN…</text>
  <rect x="1118" y="17" width="160" height="38" rx="8" fill="#c479c2"/><text x="1198" y="41" font-size="12.5" font-weight="600" fill="#FFFFFF" text-anchor="middle">Create work order</text>
  <g style="color:#5A6A85"><use href="#ic-bell" x="1300" y="26" width="20" height="20"/></g><circle cx="1317" cy="27" r="4" fill="#FA5A5A"/>
  <text x="1368" y="33" font-size="12.5" font-weight="600" fill="#2A3547" text-anchor="end">T. Hopper</text><text x="1368" y="47" font-size="10.5" fill="#8A95A5" text-anchor="end">Advisor</text>
  <circle cx="1392" cy="36" r="16" fill="#FFEBFE"/><text x="1392" y="40" font-size="12" font-weight="700" fill="#c479c2" text-anchor="middle">TH</text>

  <text x="280" y="116" font-size="22" font-weight="700" fill="#2A3547">New work order — intake</text>
  <text x="280" y="138" font-size="13" fill="#5A6A85">Decode the vehicle, surface open recalls, and pull prior history before the estimate</text>

  <!-- LEFT: decode -->
  <rect x="280" y="158" width="556" height="250" rx="12" fill="#FFFFFF" stroke="#ECEFF4" filter="url(#sh)"/>
  <text x="304" y="188" class="h" font-size="15">Vehicle decode</text><rect x="744" y="172" width="72" height="22" rx="11" fill="#E6FBF5"/><g style="color:#0F9C96"><use href="#ic-check" x="752" y="175" width="15" height="15"/></g><text x="792" y="187" font-size="10.5" font-weight="700" fill="#0F9C96" text-anchor="middle">Decoded</text>
  <text x="304" y="216" class="lbl" font-size="10.5">PLATE (ON)</text><rect x="304" y="222" width="150" height="32" rx="8" fill="#F7F9FC" stroke="#E8EDF3"/><text x="318" y="243" class="val" font-size="13">ABCD 123</text>
  <text x="470" y="216" class="lbl" font-size="10.5">VIN</text><rect x="470" y="222" width="240" height="32" rx="8" fill="#F7F9FC" stroke="#E8EDF3"/><text x="484" y="243" class="val" font-size="12">1FTEW1E5XKFA12345</text>
  <rect x="726" y="222" width="86" height="32" rx="8" fill="#c479c2"/><text x="769" y="243" font-size="12" font-weight="600" fill="#fff" text-anchor="middle">Decode</text>
  <line x1="304" y1="270" x2="812" y2="270" stroke="#F4F6FA"/>
  <g font-size="12.5">
  <text x="304" y="294" class="lbl" font-size="10">YEAR</text><text x="304" y="312" class="val">2019</text>
  <text x="430" y="294" class="lbl" font-size="10">MAKE</text><text x="430" y="312" class="val">Ford</text>
  <text x="560" y="294" class="lbl" font-size="10">MODEL</text><text x="560" y="312" class="val">F-150</text>
  <text x="690" y="294" class="lbl" font-size="10">TRIM</text><text x="690" y="312" class="val">XLT</text>
  <text x="304" y="344" class="lbl" font-size="10">ENGINE</text><text x="304" y="362" class="val">5.0L V8</text>
  <text x="430" y="344" class="lbl" font-size="10">DRIVE</text><text x="430" y="362" class="val">4WD</text>
  <text x="560" y="344" class="lbl" font-size="10">BODY</text><text x="560" y="362" class="val">SuperCrew</text>
  <text x="690" y="344" class="lbl" font-size="10">PLANT</text><text x="690" y="362" class="val">Dearborn</text>
  </g>
  <text x="304" y="392" class="mut" font-size="11">Source: VIN decode · auto-fills the vehicle record &amp; unlocks the labor guide.</text>

  <!-- LEFT: odometer/history check -->
  <rect x="280" y="424" width="556" height="160" rx="12" fill="#FFFFFF" stroke="#ECEFF4" filter="url(#sh)"/>
  <text x="304" y="454" class="h" font-size="15">Odometer &amp; integrity check</text>
  <text x="304" y="486" class="lbl" font-size="10.5">MILEAGE IN</text><text x="304" y="508" class="val" font-size="20">84,210 km</text>
  <rect x="470" y="476" width="180" height="34" rx="8" fill="#E6FBF5"/><g style="color:#0F9C96"><use href="#ic-check" x="484" y="485" width="16" height="16"/></g><text x="510" y="498" font-size="12" font-weight="600" fill="#0F9C96">No rollback detected</text>
  <text x="304" y="540" class="mut" font-size="11.5">Last seen 78,400 km · 12 Mar 2026 (internal) — consistent.</text>
  <text x="304" y="562" class="mut" font-size="11.5">CARFAX Service History pulled ✓ · 6 prior records.</text>

  <!-- RIGHT: open recalls -->
  <rect x="860" y="158" width="556" height="250" rx="12" fill="#FFFFFF" stroke="#F0C9C0" stroke-width="1.5" filter="url(#sh)"/>
  <g style="color:#C0392B"><use href="#ic-recall" x="884" y="174" width="20" height="20"/></g>
  <text x="912" y="188" class="h" font-size="15">Open safety recalls</text><rect x="1356" y="172" width="40" height="22" rx="11" fill="#FDECEC"/><text x="1376" y="187" font-size="11" font-weight="700" fill="#C0392B" text-anchor="middle">2</text>
  <text x="884" y="210" class="mut" font-size="11">Transport Canada + NHTSA · matched to this VIN</text>
  <!-- recall 1 -->
  <rect x="884" y="222" width="508" height="76" rx="9" fill="#FEF6F4" stroke="#F3D6CF"/>
  <text x="904" y="244" class="val" font-size="12.5">Recall 2020-123 — Engine block heater cable</text>
  <text x="904" y="262" class="mut" font-size="11">Transport Canada · risk of short circuit / fire</text>
  <rect x="904" y="270" width="120" height="22" rx="11" fill="#FFFFFF" stroke="#E3C2BB"/><text x="916" y="285" font-size="10.5" font-weight="600" fill="#C0392B">Refer to dealer</text><g style="color:#C0392B"><use href="#ic-chev" x="996" y="272" width="16" height="16"/></g>
  <text x="1376" y="285" class="lnk" font-size="11" text-anchor="end">Add customer note</text>
  <!-- recall 2 -->
  <rect x="884" y="306" width="508" height="76" rx="9" fill="#FEF6F4" stroke="#F3D6CF"/>
  <text x="904" y="328" class="val" font-size="12.5">Recall 2019-445 — Transmission downshift</text>
  <text x="904" y="346" class="mut" font-size="11">NHTSA 19V-xxx · unexpected downshift to first gear</text>
  <rect x="904" y="354" width="120" height="22" rx="11" fill="#FFFFFF" stroke="#E3C2BB"/><text x="916" y="369" font-size="10.5" font-weight="600" fill="#C0392B">Refer to dealer</text><g style="color:#C0392B"><use href="#ic-chev" x="996" y="356" width="16" height="16"/></g>
  <text x="1376" y="369" class="mut" font-size="10.5" text-anchor="end">OEM remedy only — not performed here</text>

  <!-- RIGHT: service history -->
  <rect x="860" y="424" width="556" height="316" rx="12" fill="#FFFFFF" stroke="#ECEFF4" filter="url(#sh)"/>
  <text x="884" y="454" class="h" font-size="15">Prior service history</text>
  <g font-size="11" font-weight="600"><rect x="1228" y="438" width="74" height="22" rx="11" fill="#FFEBFE"/><text x="1265" y="453" fill="#c479c2" text-anchor="middle">Squibbon</text><rect x="1310" y="438" width="86" height="22" rx="11" fill="#EAF2FE"/><text x="1353" y="453" fill="#1A5FB4" text-anchor="middle">CARFAX</text></g>
  <line x1="908" y1="478" x2="908" y2="716" stroke="#ECEFF4"/>
  <circle cx="908" cy="496" r="5" fill="#c479c2"/><text x="930" y="492" class="val" font-size="12.5">12 Mar 2026 · 78,400 km</text><text x="930" y="510" class="mut" font-size="11">Oil change, tire rotation · Squibbon WO-10210</text><text x="1392" y="500" class="mut" font-size="11" text-anchor="end">$118</text>
  <circle cx="908" cy="540" r="5" fill="#c479c2"/><text x="930" y="536" class="val" font-size="12.5">04 Nov 2025 · 71,900 km</text><text x="930" y="554" class="mut" font-size="11">Winter tire swap + storage · WO-9988</text><text x="1392" y="544" class="mut" font-size="11" text-anchor="end">$90</text>
  <circle cx="908" cy="584" r="5" fill="#9AA4B2"/><text x="930" y="580" class="val" font-size="12.5">22 Jun 2025 · 64,100 km</text><text x="930" y="598" class="mut" font-size="11">Brake inspection, cabin filter · CARFAX</text><text x="1392" y="588" class="mut" font-size="11" text-anchor="end">—</text>
  <circle cx="908" cy="628" r="5" fill="#9AA4B2"/><text x="930" y="624" class="val" font-size="12.5">15 Jan 2025 · 58,000 km</text><text x="930" y="642" class="mut" font-size="11">Battery replacement · CARFAX</text><text x="1392" y="632" class="mut" font-size="11" text-anchor="end">—</text>
  <circle cx="908" cy="672" r="5" fill="#9AA4B2"/><text x="930" y="668" class="val" font-size="12.5">09 Sep 2024 · 49,500 km</text><text x="930" y="686" class="mut" font-size="11">Scheduled maintenance · CARFAX</text><text x="1392" y="676" class="mut" font-size="11" text-anchor="end">—</text>
  <text x="884" y="726" class="mut" font-size="11">Purple = performed at Squibbon · blue = imported from CARFAX Service History.</text>
</svg>
