<svg viewBox="0 0 1440 912" xmlns="http://www.w3.org/2000/svg" font-family="'Plus Jakarta Sans','Inter','Segoe UI',system-ui,sans-serif" role="img" aria-labelledby="t">
  <title id="t">Squibbon Shop — Dashboard</title>
  <defs>
    <filter id="sh" x="-6%" y="-10%" width="112%" height="124%"><feDropShadow dx="0" dy="3" stdDeviation="6" flood-color="#2A3547" flood-opacity="0.07"/></filter>
    <g id="ic-grid" fill="none" stroke="currentColor" stroke-width="1.6"><rect x="3" y="3" width="6" height="6" rx="1.5"/><rect x="11" y="3" width="6" height="6" rx="1.5"/><rect x="3" y="11" width="6" height="6" rx="1.5"/><rect x="11" y="11" width="6" height="6" rx="1.5"/></g>
    <g id="ic-board" fill="none" stroke="currentColor" stroke-width="1.6"><rect x="3" y="3.5" width="4" height="13" rx="1"/><rect x="8" y="3.5" width="4" height="9" rx="1"/><rect x="13" y="3.5" width="4" height="13" rx="1"/></g>
    <g id="ic-clip" fill="none" stroke="currentColor" stroke-width="1.6" stroke-linejoin="round" stroke-linecap="round"><rect x="4.5" y="3.5" width="11" height="13.5" rx="2"/><rect x="7.5" y="2" width="5" height="3" rx="1"/><path d="M7.2 9 h5.6 M7.2 12 h5.6"/></g>
    <g id="ic-user" fill="none" stroke="currentColor" stroke-width="1.6" stroke-linecap="round"><circle cx="10" cy="7" r="3.2"/><path d="M4.5 16.5 a5.5 5.5 0 0 1 11 0"/></g>
    <g id="ic-truck" fill="none" stroke="currentColor" stroke-width="1.6" stroke-linejoin="round" stroke-linecap="round"><path d="M2.5 6 h8 v7 h-8 z"/><path d="M10.5 8.5 h3.2 l2.4 2.3 v2.2 h-5.6 z"/><circle cx="6" cy="15" r="1.5"/><circle cx="13.7" cy="15" r="1.5"/></g>
    <g id="ic-box" fill="none" stroke="currentColor" stroke-width="1.6" stroke-linejoin="round" stroke-linecap="round"><path d="M10 2.6 l6.4 3.5 v7.8 l-6.4 3.5 -6.4-3.5 v-7.8z"/><path d="M3.6 6.1 L10 9.6 l6.4-3.5 M10 9.6 V17.4"/></g>
    <g id="ic-cart" fill="none" stroke="currentColor" stroke-width="1.6" stroke-linejoin="round" stroke-linecap="round"><path d="M3 4 h2.2 l1.8 8.4 h7.6 l1.6-5.8 H6.2"/><circle cx="8" cy="16" r="1.3"/><circle cx="14.5" cy="16" r="1.3"/></g>
    <g id="ic-building" fill="none" stroke="currentColor" stroke-width="1.6" stroke-linejoin="round"><rect x="4.5" y="3.5" width="11" height="14" rx="1.2"/><path d="M7.5 7 h1 M11.5 7 h1 M7.5 10 h1 M11.5 10 h1"/><path d="M8.5 17.5 v-3 h3 v3"/></g>
    <g id="ic-bill" fill="none" stroke="currentColor" stroke-width="1.6" stroke-linejoin="round" stroke-linecap="round"><path d="M5 2.6 h10 v15 l-2-1.3 -2 1.3 -2-1.3 -2 1.3 -2-1.3z"/><path d="M7.4 7 h5.2 M7.4 10 h5.2 M7.4 13 h3.2"/></g>
    <g id="ic-card" fill="none" stroke="currentColor" stroke-width="1.6" stroke-linejoin="round"><rect x="2.5" y="5" width="15" height="10" rx="2"/><path d="M2.5 8.5 h15 M5 12 h3"/></g>
    <g id="ic-chart" fill="none" stroke="currentColor" stroke-width="1.6" stroke-linejoin="round" stroke-linecap="round"><path d="M3 16.5 h14"/><rect x="4.5" y="9" width="2.6" height="5.5"/><rect x="8.7" y="6" width="2.6" height="8.5"/><rect x="12.9" y="11" width="2.6" height="3.5"/></g>
    <g id="ic-slider" fill="none" stroke="currentColor" stroke-width="1.6" stroke-linecap="round"><path d="M3 7 h14 M3 13 h14"/><circle cx="8" cy="7" r="1.9" fill="#fff"/><circle cx="13" cy="13" r="1.9" fill="#fff"/></g>
    <g id="ic-search" fill="none" stroke="currentColor" stroke-width="1.7" stroke-linecap="round"><circle cx="9" cy="9" r="5.5"/><path d="M13.2 13.2 L17.2 17.2"/></g>
    <g id="ic-bell" fill="none" stroke="currentColor" stroke-width="1.6" stroke-linejoin="round" stroke-linecap="round"><path d="M10 3 a4.6 4.6 0 0 1 4.6 4.6 c0 4 1.4 5.4 1.4 5.4 h-12 s1.4-1.4 1.4-5.4 a4.6 4.6 0 0 1 4.6-4.6z"/><path d="M8.3 16 a1.8 1.8 0 0 0 3.4 0"/></g>
    <g id="ic-menu" fill="none" stroke="currentColor" stroke-width="1.8" stroke-linecap="round"><path d="M3 6 h16 M3 11 h16 M3 16 h16"/></g>
    <g id="ic-plus" fill="none" stroke="currentColor" stroke-width="1.8" stroke-linecap="round"><path d="M10 4 V16 M4 10 H16"/></g>
    <g id="ic-alert" fill="none" stroke="currentColor" stroke-width="1.6" stroke-linejoin="round" stroke-linecap="round"><path d="M10 3.4 L17 16 H3 Z"/><path d="M10 8 v3.4"/><circle cx="10" cy="13.6" r="0.5" fill="currentColor" stroke="none"/></g>
    <g id="ic-clock" fill="none" stroke="currentColor" stroke-width="1.6" stroke-linecap="round" stroke-linejoin="round"><circle cx="10" cy="10" r="7"/><path d="M10 6 v4 l2.6 1.6"/></g>
  </defs>
  <style>
    .navi{fill:#5A6A85;font-weight:500}.col{fill:#8A95A5;font-weight:600;letter-spacing:.4px}
    .h{fill:#2A3547;font-weight:600}.sub{fill:#5A6A85;font-weight:400}.lbl{fill:#5A6A85;font-weight:500}
    .num{fill:#2A3547;font-weight:700}.cell{fill:#2A3547;font-weight:500}.mut{fill:#8A95A5;font-weight:500}.lnk{fill:#c479c2;font-weight:600}.pill{font-weight:600}
  </style>
  <rect width="1440" height="912" fill="#F4F6FB"/>
  <rect x="0" y="0" width="256" height="912" fill="#FFFFFF"/><line x1="256" y1="0" x2="256" y2="912" stroke="#ECEFF4"/>
  <rect x="24" y="21" width="30" height="30" rx="8" fill="#c479c2"/><text x="39" y="42" font-size="17" font-weight="700" fill="#FFFFFF" text-anchor="middle">S</text><text x="66" y="42" font-size="19" font-weight="700" fill="#2A3547">Squibbon</text>
  <rect x="170" y="26" width="58" height="18" rx="9" fill="#E6FBFA"/><text x="199" y="39" font-size="10.5" font-weight="700" fill="#0F9C96" text-anchor="middle">SHOP</text>
  <text x="24" y="90" class="col" font-size="11">SHOP</text>
  <rect x="12" y="95" width="232" height="28" rx="7" fill="#FFEBFE"/>
  <g style="color:#c479c2"><use href="#ic-grid" x="22" y="100" width="18" height="18"/></g><text x="50" y="114" font-size="12.5" font-weight="600" fill="#c479c2">Dashboard</text>
  <g style="color:#5A6A85"><use href="#ic-board" x="22" y="138" width="18" height="18"/></g><text x="50" y="152" class="navi" font-size="12.5">Workflow</text>
  <g style="color:#5A6A85"><use href="#ic-clip" x="22" y="177" width="18" height="18"/></g><text x="50" y="191" class="navi" font-size="12.5">Work orders</text>
  <g style="color:#5A6A85"><use href="#ic-user" x="22" y="214" width="18" height="18"/></g><text x="50" y="228" class="navi" font-size="12.5">Customers</text>
  <g style="color:#5A6A85"><use href="#ic-truck" x="22" y="252" width="18" height="18"/></g><text x="50" y="266" class="navi" font-size="12.5">Vehicles</text>
  <text x="24" y="304" class="col" font-size="11">PARTS &amp; VENDORS</text>
  <g style="color:#5A6A85"><use href="#ic-box" x="22" y="314" width="18" height="18"/></g><text x="50" y="328" class="navi" font-size="12.5">Inventory / parts</text>
  <g style="color:#5A6A85"><use href="#ic-cart" x="22" y="352" width="18" height="18"/></g><text x="50" y="366" class="navi" font-size="12.5">Purchase orders</text>
  <g style="color:#5A6A85"><use href="#ic-building" x="22" y="390" width="18" height="18"/></g><text x="50" y="404" class="navi" font-size="12.5">Vendors</text>
  <text x="24" y="442" class="col" font-size="11">BILLING</text>
  <g style="color:#5A6A85"><use href="#ic-bill" x="22" y="452" width="18" height="18"/></g><text x="50" y="466" class="navi" font-size="12.5">Invoices</text>
  <g style="color:#5A6A85"><use href="#ic-card" x="22" y="490" width="18" height="18"/></g><text x="50" y="504" class="navi" font-size="12.5">Payments</text>
  <g style="color:#5A6A85"><use href="#ic-chart" x="22" y="528" width="18" height="18"/></g><text x="50" y="542" class="navi" font-size="12.5">Reports</text>
  <text x="24" y="580" class="col" font-size="11">SETTINGS</text>
  <g style="color:#5A6A85"><use href="#ic-slider" x="22" y="590" width="18" height="18"/></g><text x="50" y="604" class="navi" font-size="12.5">Shop settings</text>

  <rect x="256" y="0" width="1184" height="72" fill="#FFFFFF"/><line x1="256" y1="72" x2="1440" y2="72" stroke="#ECEFF4"/>
  <g style="color:#5A6A85"><use href="#ic-menu" x="282" y="26" width="20" height="20"/></g>
  <rect x="324" y="18" width="300" height="36" rx="18" fill="#F4F6FB"/><g style="color:#8A95A5"><use href="#ic-search" x="340" y="27" width="18" height="18"/></g><text x="366" y="41" font-size="12.5" fill="#9AA4B2">Search WO, customer, plate or VIN…</text>
  <rect x="1108" y="17" width="170" height="38" rx="8" fill="#c479c2"/><g style="color:#FFFFFF"><use href="#ic-plus" x="1126" y="28" width="16" height="16"/></g><text x="1150" y="41" font-size="12.5" font-weight="600" fill="#FFFFFF">New work order</text>
  <g style="color:#5A6A85"><use href="#ic-bell" x="1300" y="26" width="20" height="20"/></g><circle cx="1317" cy="27" r="4" fill="#FA5A5A"/>
  <text x="1368" y="33" font-size="12.5" font-weight="600" fill="#2A3547" text-anchor="end">T. Hopper</text><text x="1368" y="47" font-size="10.5" fill="#8A95A5" text-anchor="end">Advisor</text>
  <circle cx="1392" cy="36" r="16" fill="#FFEBFE"/><text x="1392" y="40" font-size="12" font-weight="700" fill="#c479c2" text-anchor="middle">TH</text>

  <text x="280" y="118" font-size="22" font-weight="700" fill="#2A3547">Shop dashboard</text>
  <text x="280" y="140" font-size="13" fill="#5A6A85">Today — Mississauga location · 22 Jun 2026</text>

  <g font-size="12">
  <rect x="280" y="158" width="176" height="96" rx="12" fill="#FFFFFF" stroke="#ECEFF4" filter="url(#sh)"/><text x="296" y="194" class="lbl">Cars in shop</text><rect x="402" y="172" width="34" height="34" rx="9" fill="#EAF2FE"/><g style="color:#3F87E0"><use href="#ic-truck" x="409" y="179" width="20" height="20"/></g><text x="296" y="228" class="num" font-size="24">14</text><text x="296" y="246" font-size="11" font-weight="600" fill="#1A5FB4">active WOs</text>
  <rect x="472" y="158" width="176" height="96" rx="12" fill="#FFFFFF" stroke="#ECEFF4" filter="url(#sh)"/><text x="488" y="194" class="lbl">In progress</text><rect x="594" y="172" width="34" height="34" rx="9" fill="#FEF4E6"/><g style="color:#E0941A"><use href="#ic-board" x="601" y="179" width="20" height="20"/></g><text x="488" y="228" class="num" font-size="24">8</text><text x="488" y="246" font-size="11" font-weight="600" fill="#A8720F">on the bays</text>
  <rect x="664" y="158" width="176" height="96" rx="12" fill="#FFFFFF" stroke="#ECEFF4" filter="url(#sh)"/><text x="680" y="194" class="lbl">Sublet out</text><rect x="786" y="172" width="34" height="34" rx="9" fill="#FFEBFE"/><g style="color:#c479c2"><use href="#ic-building" x="793" y="179" width="20" height="20"/></g><text x="680" y="228" class="num" font-size="24">3</text><text x="680" y="246" font-size="11" font-weight="600" fill="#c479c2">at vendors</text>
  <rect x="856" y="158" width="176" height="96" rx="12" fill="#FFFFFF" stroke="#ECEFF4" filter="url(#sh)"/><text x="872" y="194" class="lbl">Ready for pickup</text><rect x="978" y="172" width="34" height="34" rx="9" fill="#E6FBF5"/><g style="color:#13B89B"><use href="#ic-clip" x="985" y="179" width="20" height="20"/></g><text x="872" y="228" class="num" font-size="24">4</text><text x="872" y="246" font-size="11" font-weight="600" fill="#0F9C96">awaiting customer</text>
  <rect x="1048" y="158" width="176" height="96" rx="12" fill="#FFFFFF" stroke="#ECEFF4" filter="url(#sh)"/><text x="1064" y="194" class="lbl">Invoiced today</text><rect x="1170" y="172" width="34" height="34" rx="9" fill="#E6FBFA"/><g style="color:#0F9C96"><use href="#ic-bill" x="1177" y="179" width="20" height="20"/></g><text x="1064" y="228" class="num" font-size="24">$6,420</text><text x="1064" y="246" font-size="11" font-weight="600" fill="#0F9C96">ARO $512</text>
  <rect x="1240" y="158" width="176" height="96" rx="12" fill="#FFFFFF" stroke="#ECEFF4" filter="url(#sh)"/><text x="1256" y="194" class="lbl">Open A/R</text><rect x="1362" y="172" width="34" height="34" rx="9" fill="#FEF4E6"/><g style="color:#E0941A"><use href="#ic-card" x="1369" y="181" width="20" height="20"/></g><text x="1256" y="228" class="num" font-size="24">$18.2k</text><text x="1256" y="246" font-size="11" font-weight="600" fill="#A8720F">fleet terms</text>
  </g>

  <rect x="280" y="270" width="760" height="516" rx="12" fill="#FFFFFF" stroke="#ECEFF4" filter="url(#sh)"/>
  <text x="304" y="302" class="h" font-size="15">Open work orders</text><text x="1016" y="302" class="lnk" font-size="12" text-anchor="end">View all →</text>
  <g class="col" font-size="10.5"><text x="304" y="334">WO #</text><text x="396" y="334">CUSTOMER</text><text x="600" y="334">VEHICLE</text><text x="820" y="334">STATUS</text><text x="1016" y="334" text-anchor="end">TOTAL</text></g>
  <line x1="304" y1="344" x2="1016" y2="344" stroke="#ECEFF4"/>
  <g font-size="12.5">
  <text x="304" y="372" class="cell">WO-10428</text><text x="396" y="372" class="sub">Acme Fleet Ltd</text><text x="600" y="372" class="sub">2019 Ford F-150</text><rect x="820" y="359" width="76" height="19" rx="9.5" fill="#FFEBFE"/><text x="858" y="372" class="pill" font-size="10.5" fill="#c479c2" text-anchor="middle">Sublet out</text><text x="1016" y="372" class="cell" text-anchor="end">$711.90</text><line x1="304" y1="390" x2="1016" y2="390" stroke="#F4F6FA"/>
  <text x="304" y="418" class="cell">WO-10427</text><text x="396" y="418" class="sub">M. Delgado</text><text x="600" y="418" class="sub">2021 Honda CR-V</text><rect x="820" y="405" width="76" height="19" rx="9.5" fill="#FEF4E6"/><text x="858" y="418" class="pill" font-size="10.5" fill="#A8720F" text-anchor="middle">In progress</text><text x="1016" y="418" class="cell" text-anchor="end">$284.50</text><line x1="304" y1="436" x2="1016" y2="436" stroke="#F4F6FA"/>
  <text x="304" y="464" class="cell">WO-10425</text><text x="396" y="464" class="sub">R. Okafor</text><text x="600" y="464" class="sub">2018 RAM 1500</text><rect x="820" y="451" width="86" height="19" rx="9.5" fill="#EAF2FE"/><text x="863" y="464" class="pill" font-size="10.5" fill="#1A5FB4" text-anchor="middle">Awaiting auth</text><text x="1016" y="464" class="cell" text-anchor="end">$1,940.00</text><line x1="304" y1="482" x2="1016" y2="482" stroke="#F4F6FA"/>
  <text x="304" y="510" class="cell">WO-10422</text><text x="396" y="510" class="sub">Northstar Logistics</text><text x="600" y="510" class="sub">2020 Freightliner</text><rect x="820" y="497" width="72" height="19" rx="9.5" fill="#FEF4E6"/><text x="856" y="510" class="pill" font-size="10.5" fill="#A8720F" text-anchor="middle">Parts on order</text><text x="1016" y="510" class="cell" text-anchor="end">$3,210.00</text><line x1="304" y1="528" x2="1016" y2="528" stroke="#F4F6FA"/>
  <text x="304" y="556" class="cell">WO-10419</text><text x="396" y="556" class="sub">S. Tremblay</text><text x="600" y="556" class="sub">2017 Toyota Camry</text><rect x="820" y="543" width="60" height="19" rx="9.5" fill="#E6FBF5"/><text x="850" y="556" class="pill" font-size="10.5" fill="#0F9C96" text-anchor="middle">Ready</text><text x="1016" y="556" class="cell" text-anchor="end">$612.30</text><line x1="304" y1="574" x2="1016" y2="574" stroke="#F4F6FA"/>
  <text x="304" y="602" class="cell">WO-10416</text><text x="396" y="602" class="sub">Acme Fleet Ltd</text><text x="600" y="602" class="sub">2019 Ford Transit</text><rect x="820" y="589" width="60" height="19" rx="9.5" fill="#E6FBF5"/><text x="850" y="602" class="pill" font-size="10.5" fill="#0F9C96" text-anchor="middle">Ready</text><text x="1016" y="602" class="cell" text-anchor="end">$430.75</text>
  </g>
  <text x="304" y="660" class="h" font-size="15">Sublet out — at vendors</text>
  <g font-size="12.5">
  <text x="304" y="692" class="cell">WO-10428 · Windshield</text><text x="700" y="692" class="sub">ClearView Glass</text><text x="1016" y="692" font-weight="600" fill="#A8720F" text-anchor="end">due today</text><line x1="304" y1="708" x2="1016" y2="708" stroke="#F4F6FA"/>
  <text x="304" y="732" class="cell">WO-10422 · Turn rotors</text><text x="700" y="732" class="sub">Precision Machine</text><text x="1016" y="732" font-weight="600" fill="#0F9C96" text-anchor="end">returned</text><line x1="304" y1="748" x2="1016" y2="748" stroke="#F4F6FA"/>
  <text x="304" y="772" class="cell">WO-10410 · Alignment</text><text x="700" y="772" class="sub">TrueLine Alignment</text><text x="1016" y="772" font-weight="600" fill="#C0392B" text-anchor="end">overdue 1 d</text>
  </g>

  <rect x="1056" y="270" width="360" height="516" rx="12" fill="#FFFFFF" stroke="#ECEFF4" filter="url(#sh)"/>
  <text x="1080" y="302" class="h" font-size="15">Needs attention</text>
  <rect x="1080" y="320" width="40" height="40" rx="10" fill="#EAF2FE"/><g style="color:#3F87E0"><use href="#ic-clip" x="1090" y="330" width="20" height="20"/></g><text x="1132" y="338" class="cell" font-size="13">Awaiting authorization</text><text x="1132" y="356" class="mut" font-size="11.5">2 estimates · $4,180</text>
  <line x1="1080" y1="378" x2="1392" y2="378" stroke="#F4F6FA"/>
  <rect x="1080" y="392" width="40" height="40" rx="10" fill="#FFEBFE"/><g style="color:#c479c2"><use href="#ic-building" x="1090" y="402" width="20" height="20"/></g><text x="1132" y="410" class="cell" font-size="13">Sublet overdue</text><text x="1132" y="428" class="mut" font-size="11.5">WO-10410 · TrueLine · 1 day</text>
  <line x1="1080" y1="450" x2="1392" y2="450" stroke="#F4F6FA"/>
  <rect x="1080" y="464" width="40" height="40" rx="10" fill="#FEF4E6"/><g style="color:#E0941A"><use href="#ic-cart" x="1090" y="474" width="20" height="20"/></g><text x="1132" y="482" class="cell" font-size="13">Parts backordered</text><text x="1132" y="500" class="mut" font-size="11.5">2 lines · WO-10422, WO-10425</text>
  <line x1="1080" y1="522" x2="1392" y2="522" stroke="#F4F6FA"/>
  <rect x="1080" y="536" width="40" height="40" rx="10" fill="#FDECEC"/><g style="color:#E25C5C"><use href="#ic-alert" x="1090" y="546" width="20" height="20"/></g><text x="1132" y="554" class="cell" font-size="13">Comeback</text><text x="1132" y="572" class="mut" font-size="11.5">WO-10399 · brake noise · warranty</text>
  <line x1="1080" y1="594" x2="1392" y2="594" stroke="#F4F6FA"/>
  <rect x="1080" y="608" width="40" height="40" rx="10" fill="#FEF4E6"/><g style="color:#E0941A"><use href="#ic-clock" x="1090" y="618" width="20" height="20"/></g><text x="1132" y="626" class="cell" font-size="13">Overdue A/R</text><text x="1132" y="644" class="mut" font-size="11.5">Northstar Logistics · $4,120 · 45 d</text>
  <line x1="1080" y1="666" x2="1392" y2="666" stroke="#F4F6FA"/>
  <rect x="1080" y="680" width="40" height="40" rx="10" fill="#E6FBF5"/><g style="color:#13B89B"><use href="#ic-card" x="1090" y="690" width="20" height="20"/></g><text x="1132" y="698" class="cell" font-size="13">Deposits to collect</text><text x="1132" y="716" class="mut" font-size="11.5">3 special-order jobs</text>
  <text x="1080" y="760" class="lnk" font-size="12">Go to workflow board →</text>
</svg>
