<svg viewBox="0 0 1440 912" xmlns="http://www.w3.org/2000/svg" font-family="'Plus Jakarta Sans','Inter','Segoe UI',system-ui,sans-serif" role="img" aria-labelledby="t">
  <title id="t">Squibbon Shop — Workflow board</title>
  <defs>
    <filter id="sh" x="-8%" y="-12%" width="116%" height="128%"><feDropShadow dx="0" dy="2" stdDeviation="5" flood-color="#2A3547" flood-opacity="0.07"/></filter>
    <g id="ic-grid" fill="none" stroke="currentColor" stroke-width="1.6"><rect x="3" y="3" width="6" height="6" rx="1.5"/><rect x="11" y="3" width="6" height="6" rx="1.5"/><rect x="3" y="11" width="6" height="6" rx="1.5"/><rect x="11" y="11" width="6" height="6" rx="1.5"/></g>
    <g id="ic-board" fill="none" stroke="currentColor" stroke-width="1.6"><rect x="3" y="3.5" width="4" height="13" rx="1"/><rect x="8" y="3.5" width="4" height="9" rx="1"/><rect x="13" y="3.5" width="4" height="13" rx="1"/></g>
    <g id="ic-clip" fill="none" stroke="currentColor" stroke-width="1.6" stroke-linejoin="round" stroke-linecap="round"><rect x="4.5" y="3.5" width="11" height="13.5" rx="2"/><rect x="7.5" y="2" width="5" height="3" rx="1"/><path d="M7.2 9 h5.6 M7.2 12 h5.6"/></g>
    <g id="ic-user" fill="none" stroke="currentColor" stroke-width="1.6" stroke-linecap="round"><circle cx="10" cy="7" r="3.2"/><path d="M4.5 16.5 a5.5 5.5 0 0 1 11 0"/></g>
    <g id="ic-truck" fill="none" stroke="currentColor" stroke-width="1.6" stroke-linejoin="round" stroke-linecap="round"><path d="M2.5 6 h8 v7 h-8 z"/><path d="M10.5 8.5 h3.2 l2.4 2.3 v2.2 h-5.6 z"/><circle cx="6" cy="15" r="1.5"/><circle cx="13.7" cy="15" r="1.5"/></g>
    <g id="ic-box" fill="none" stroke="currentColor" stroke-width="1.6" stroke-linejoin="round" stroke-linecap="round"><path d="M10 2.6 l6.4 3.5 v7.8 l-6.4 3.5 -6.4-3.5 v-7.8z"/><path d="M3.6 6.1 L10 9.6 l6.4-3.5 M10 9.6 V17.4"/></g>
    <g id="ic-cart" fill="none" stroke="currentColor" stroke-width="1.6" stroke-linejoin="round" stroke-linecap="round"><path d="M3 4 h2.2 l1.8 8.4 h7.6 l1.6-5.8 H6.2"/><circle cx="8" cy="16" r="1.3"/><circle cx="14.5" cy="16" r="1.3"/></g>
    <g id="ic-building" fill="none" stroke="currentColor" stroke-width="1.6" stroke-linejoin="round"><rect x="4.5" y="3.5" width="11" height="14" rx="1.2"/><path d="M7.5 7 h1 M11.5 7 h1 M7.5 10 h1 M11.5 10 h1"/><path d="M8.5 17.5 v-3 h3 v3"/></g>
    <g id="ic-bill" fill="none" stroke="currentColor" stroke-width="1.6" stroke-linejoin="round" stroke-linecap="round"><path d="M5 2.6 h10 v15 l-2-1.3 -2 1.3 -2-1.3 -2 1.3 -2-1.3z"/><path d="M7.4 7 h5.2 M7.4 10 h5.2 M7.4 13 h3.2"/></g>
    <g id="ic-card" fill="none" stroke="currentColor" stroke-width="1.6" stroke-linejoin="round"><rect x="2.5" y="5" width="15" height="10" rx="2"/><path d="M2.5 8.5 h15 M5 12 h3"/></g>
    <g id="ic-chart" fill="none" stroke="currentColor" stroke-width="1.6" stroke-linejoin="round" stroke-linecap="round"><path d="M3 16.5 h14"/><rect x="4.5" y="9" width="2.6" height="5.5"/><rect x="8.7" y="6" width="2.6" height="8.5"/><rect x="12.9" y="11" width="2.6" height="3.5"/></g>
    <g id="ic-slider" fill="none" stroke="currentColor" stroke-width="1.6" stroke-linecap="round"><path d="M3 7 h14 M3 13 h14"/><circle cx="8" cy="7" r="1.9" fill="#fff"/><circle cx="13" cy="13" r="1.9" fill="#fff"/></g>
    <g id="ic-search" fill="none" stroke="currentColor" stroke-width="1.7" stroke-linecap="round"><circle cx="9" cy="9" r="5.5"/><path d="M13.2 13.2 L17.2 17.2"/></g>
    <g id="ic-bell" fill="none" stroke="currentColor" stroke-width="1.6" stroke-linejoin="round" stroke-linecap="round"><path d="M10 3 a4.6 4.6 0 0 1 4.6 4.6 c0 4 1.4 5.4 1.4 5.4 h-12 s1.4-1.4 1.4-5.4 a4.6 4.6 0 0 1 4.6-4.6z"/><path d="M8.3 16 a1.8 1.8 0 0 0 3.4 0"/></g>
    <g id="ic-menu" fill="none" stroke="currentColor" stroke-width="1.8" stroke-linecap="round"><path d="M3 6 h16 M3 11 h16 M3 16 h16"/></g>
    <g id="ic-plus" fill="none" stroke="currentColor" stroke-width="1.8" stroke-linecap="round"><path d="M10 4 V16 M4 10 H16"/></g>
  </defs>
  <style>
    .navi{fill:#5A6A85;font-weight:500}.col{fill:#8A95A5;font-weight:600;letter-spacing:.4px}
    .h{fill:#2A3547;font-weight:600}.cell{fill:#2A3547;font-weight:500}.mut{fill:#8A95A5;font-weight:500}.pill{font-weight:600}.num{fill:#2A3547;font-weight:700}
  </style>
  <rect width="1440" height="912" fill="#F4F6FB"/>
  <rect x="0" y="0" width="256" height="912" fill="#FFFFFF"/><line x1="256" y1="0" x2="256" y2="912" stroke="#ECEFF4"/>
  <rect x="24" y="21" width="30" height="30" rx="8" fill="#c479c2"/><text x="39" y="42" font-size="17" font-weight="700" fill="#FFFFFF" text-anchor="middle">S</text><text x="66" y="42" font-size="19" font-weight="700" fill="#2A3547">Squibbon</text>
  <rect x="170" y="26" width="58" height="18" rx="9" fill="#E6FBFA"/><text x="199" y="39" font-size="10.5" font-weight="700" fill="#0F9C96" text-anchor="middle">SHOP</text>
  <text x="24" y="90" class="col" font-size="11">SHOP</text>
  <g style="color:#5A6A85"><use href="#ic-grid" x="22" y="100" width="18" height="18"/></g><text x="50" y="114" class="navi" font-size="12.5">Dashboard</text>
  <rect x="12" y="133" width="232" height="28" rx="7" fill="#FFEBFE"/>
  <g style="color:#c479c2"><use href="#ic-board" x="22" y="138" width="18" height="18"/></g><text x="50" y="152" font-size="12.5" font-weight="600" fill="#c479c2">Workflow</text>
  <g style="color:#5A6A85"><use href="#ic-clip" x="22" y="177" width="18" height="18"/></g><text x="50" y="191" class="navi" font-size="12.5">Work orders</text>
  <g style="color:#5A6A85"><use href="#ic-user" x="22" y="214" width="18" height="18"/></g><text x="50" y="228" class="navi" font-size="12.5">Customers</text>
  <g style="color:#5A6A85"><use href="#ic-truck" x="22" y="252" width="18" height="18"/></g><text x="50" y="266" class="navi" font-size="12.5">Vehicles</text>
  <text x="24" y="304" class="col" font-size="11">PARTS &amp; VENDORS</text>
  <g style="color:#5A6A85"><use href="#ic-box" x="22" y="314" width="18" height="18"/></g><text x="50" y="328" class="navi" font-size="12.5">Inventory / parts</text>
  <g style="color:#5A6A85"><use href="#ic-cart" x="22" y="352" width="18" height="18"/></g><text x="50" y="366" class="navi" font-size="12.5">Purchase orders</text>
  <g style="color:#5A6A85"><use href="#ic-building" x="22" y="390" width="18" height="18"/></g><text x="50" y="404" class="navi" font-size="12.5">Vendors</text>
  <text x="24" y="442" class="col" font-size="11">BILLING</text>
  <g style="color:#5A6A85"><use href="#ic-bill" x="22" y="452" width="18" height="18"/></g><text x="50" y="466" class="navi" font-size="12.5">Invoices</text>
  <g style="color:#5A6A85"><use href="#ic-card" x="22" y="490" width="18" height="18"/></g><text x="50" y="504" class="navi" font-size="12.5">Payments</text>
  <g style="color:#5A6A85"><use href="#ic-chart" x="22" y="528" width="18" height="18"/></g><text x="50" y="542" class="navi" font-size="12.5">Reports</text>
  <text x="24" y="580" class="col" font-size="11">SETTINGS</text>
  <g style="color:#5A6A85"><use href="#ic-slider" x="22" y="590" width="18" height="18"/></g><text x="50" y="604" class="navi" font-size="12.5">Shop settings</text>

  <rect x="256" y="0" width="1184" height="72" fill="#FFFFFF"/><line x1="256" y1="72" x2="1440" y2="72" stroke="#ECEFF4"/>
  <g style="color:#5A6A85"><use href="#ic-menu" x="282" y="26" width="20" height="20"/></g>
  <rect x="324" y="18" width="300" height="36" rx="18" fill="#F4F6FB"/><g style="color:#8A95A5"><use href="#ic-search" x="340" y="27" width="18" height="18"/></g><text x="366" y="41" font-size="12.5" fill="#9AA4B2">Search WO, customer, plate or VIN…</text>
  <rect x="1108" y="17" width="170" height="38" rx="8" fill="#c479c2"/><g style="color:#FFFFFF"><use href="#ic-plus" x="1126" y="28" width="16" height="16"/></g><text x="1150" y="41" font-size="12.5" font-weight="600" fill="#FFFFFF">New work order</text>
  <g style="color:#5A6A85"><use href="#ic-bell" x="1300" y="26" width="20" height="20"/></g><circle cx="1317" cy="27" r="4" fill="#FA5A5A"/>
  <text x="1368" y="33" font-size="12.5" font-weight="600" fill="#2A3547" text-anchor="end">T. Hopper</text><text x="1368" y="47" font-size="10.5" fill="#8A95A5" text-anchor="end">Advisor</text>
  <circle cx="1392" cy="36" r="16" fill="#FFEBFE"/><text x="1392" y="40" font-size="12" font-weight="700" fill="#c479c2" text-anchor="middle">TH</text>

  <text x="280" y="118" font-size="22" font-weight="700" fill="#2A3547">Workflow</text>
  <text x="280" y="140" font-size="13" fill="#5A6A85">Drag work orders through the shop · the Sublet-out column tracks outside repairs</text>

  <rect x="280" y="158" width="176" height="712" rx="12" fill="#F1F4F9"/>
  <rect x="472" y="158" width="176" height="712" rx="12" fill="#F1F4F9"/>
  <rect x="664" y="158" width="176" height="712" rx="12" fill="#F1F4F9"/>
  <rect x="856" y="158" width="176" height="712" rx="12" fill="#F3ECFA"/>
  <rect x="1048" y="158" width="176" height="712" rx="12" fill="#F1F4F9"/>
  <rect x="1240" y="158" width="176" height="712" rx="12" fill="#F1F4F9"/>
  <text x="296" y="188" class="h" font-size="13">Estimate</text><text x="440" y="188" class="num" font-size="12" text-anchor="end">3</text>
  <text x="488" y="188" class="h" font-size="13">Dropped off</text><text x="632" y="188" class="num" font-size="12" text-anchor="end">2</text>
  <text x="680" y="188" class="h" font-size="13">In progress</text><text x="824" y="188" class="num" font-size="12" text-anchor="end">4</text>
  <text x="872" y="188" class="h" font-size="13" fill="#c479c2">Sublet out</text><text x="1016" y="188" class="num" font-size="12" fill="#c479c2" text-anchor="end">3</text>
  <text x="1064" y="188" class="h" font-size="13">Ready</text><text x="1208" y="188" class="num" font-size="12" text-anchor="end">4</text>
  <text x="1256" y="188" class="h" font-size="13">Invoice</text><text x="1400" y="188" class="num" font-size="12" text-anchor="end">2</text>

  <rect x="288" y="204" width="160" height="96" rx="10" fill="#FFFFFF" stroke="#ECEFF4" filter="url(#sh)"/><text x="302" y="228" class="cell" font-size="12.5" font-weight="700">WO-10425</text><text x="434" y="228" class="cell" font-size="11" text-anchor="end">$1,940</text><text x="302" y="246" class="mut" font-size="11">R. Okafor</text><text x="302" y="262" class="mut" font-size="11">2018 RAM 1500</text><rect x="302" y="272" width="92" height="18" rx="9" fill="#EAF2FE"/><text x="348" y="285" class="pill" font-size="9.5" fill="#1A5FB4" text-anchor="middle">Awaiting auth</text>
  <rect x="288" y="312" width="160" height="80" rx="10" fill="#FFFFFF" stroke="#ECEFF4" filter="url(#sh)"/><text x="302" y="336" class="cell" font-size="12.5" font-weight="700">WO-10431</text><text x="302" y="354" class="mut" font-size="11">Walk-in · J. Singh</text><text x="302" y="370" class="mut" font-size="11">2015 Honda Civic</text><rect x="302" y="378" width="44" height="18" rx="9" fill="#EEF1F6"/><text x="324" y="391" class="pill" font-size="9.5" fill="#5A6A85" text-anchor="middle">New</text>

  <rect x="480" y="204" width="160" height="96" rx="10" fill="#FFFFFF" stroke="#ECEFF4" filter="url(#sh)"/><text x="494" y="228" class="cell" font-size="12.5" font-weight="700">WO-10430</text><text x="494" y="246" class="mut" font-size="11">S. Lee</text><text x="494" y="262" class="mut" font-size="11">2020 Mazda3</text><rect x="494" y="272" width="74" height="18" rx="9" fill="#FEF4E6"/><text x="531" y="285" class="pill" font-size="9.5" fill="#A8720F" text-anchor="middle">Inspecting</text>

  <rect x="672" y="204" width="160" height="96" rx="10" fill="#FFFFFF" stroke="#ECEFF4" filter="url(#sh)"/><text x="686" y="228" class="cell" font-size="12.5" font-weight="700">WO-10427</text><text x="818" y="228" class="cell" font-size="11" text-anchor="end">$284</text><text x="686" y="246" class="mut" font-size="11">M. Delgado</text><text x="686" y="262" class="mut" font-size="11">2021 Honda CR-V</text><rect x="686" y="272" width="56" height="18" rx="9" fill="#EEF1F6"/><text x="714" y="285" class="pill" font-size="9.5" fill="#5A6A85" text-anchor="middle">Brakes</text><circle cx="816" cy="281" r="10" fill="#FFEBFE"/><text x="816" y="285" font-size="8.5" font-weight="700" fill="#c479c2" text-anchor="middle">AR</text>

  <rect x="864" y="204" width="160" height="112" rx="10" fill="#FFFFFF" stroke="#E6D6F2" filter="url(#sh)"/><text x="878" y="228" class="cell" font-size="12.5" font-weight="700">WO-10428</text><text x="1010" y="228" class="cell" font-size="11" text-anchor="end">$712</text><text x="878" y="246" class="mut" font-size="11">Acme Fleet Ltd</text><text x="878" y="262" class="mut" font-size="11">2019 Ford F-150</text><rect x="878" y="272" width="132" height="18" rx="9" fill="#FFEBFE"/><text x="944" y="285" class="pill" font-size="9.5" fill="#c479c2" text-anchor="middle">ClearView Glass · sublet</text><text x="878" y="306" class="mut" font-size="10">Windshield · due today</text>
  <rect x="864" y="328" width="160" height="96" rx="10" fill="#FFFFFF" stroke="#ECEFF4" filter="url(#sh)"/><text x="878" y="352" class="cell" font-size="12.5" font-weight="700">WO-10410</text><text x="1010" y="352" class="cell" font-size="11" text-anchor="end">$980</text><text x="878" y="370" class="mut" font-size="11">D. Park</text><text x="878" y="386" class="mut" font-size="11">2016 GMC Sierra</text><rect x="878" y="396" width="118" height="18" rx="9" fill="#FDECEC"/><text x="937" y="409" class="pill" font-size="9.5" fill="#C0392B" text-anchor="middle">Alignment · overdue</text>

  <rect x="1056" y="204" width="160" height="96" rx="10" fill="#FFFFFF" stroke="#ECEFF4" filter="url(#sh)"/><text x="1070" y="228" class="cell" font-size="12.5" font-weight="700">WO-10419</text><text x="1202" y="228" class="cell" font-size="11" text-anchor="end">$612</text><text x="1070" y="246" class="mut" font-size="11">S. Tremblay</text><text x="1070" y="262" class="mut" font-size="11">2017 Toyota Camry</text><rect x="1070" y="272" width="92" height="18" rx="9" fill="#E6FBF5"/><text x="1116" y="285" class="pill" font-size="9.5" fill="#0F9C96" text-anchor="middle">Ready · notified</text>

  <rect x="1248" y="204" width="160" height="96" rx="10" fill="#FFFFFF" stroke="#ECEFF4" filter="url(#sh)"/><text x="1262" y="228" class="cell" font-size="12.5" font-weight="700">WO-10416</text><text x="1394" y="228" class="cell" font-size="11" text-anchor="end">$430</text><text x="1262" y="246" class="mut" font-size="11">Acme Fleet Ltd</text><text x="1262" y="262" class="mut" font-size="11">2019 Ford Transit</text><rect x="1262" y="272" width="84" height="18" rx="9" fill="#E6FBF5"/><text x="1304" y="285" class="pill" font-size="9.5" fill="#0F9C96" text-anchor="middle">Paid · closed</text>
</svg>
