<svg viewBox="0 0 1440 880" xmlns="http://www.w3.org/2000/svg" font-family="'Plus Jakarta Sans','Inter','Segoe UI',system-ui,sans-serif" role="img" aria-labelledby="t">
  <title id="t">Squibbon Shop — New work order intake</title>
  <defs>
    <filter id="sh" x="-6%" y="-10%" width="112%" height="124%"><feDropShadow dx="0" dy="3" stdDeviation="6" flood-color="#2A3547" flood-opacity="0.07"/></filter>
    <g id="ic-grid" fill="none" stroke="currentColor" stroke-width="1.6"><rect x="3" y="3" width="6" height="6" rx="1.5"/><rect x="11" y="3" width="6" height="6" rx="1.5"/><rect x="3" y="11" width="6" height="6" rx="1.5"/><rect x="11" y="11" width="6" height="6" rx="1.5"/></g>
    <g id="ic-board" fill="none" stroke="currentColor" stroke-width="1.6"><rect x="3" y="3.5" width="4" height="13" rx="1"/><rect x="8" y="3.5" width="4" height="9" rx="1"/><rect x="13" y="3.5" width="4" height="13" rx="1"/></g>
    <g id="ic-clip" fill="none" stroke="currentColor" stroke-width="1.6" stroke-linejoin="round" stroke-linecap="round"><rect x="4.5" y="3.5" width="11" height="13.5" rx="2"/><rect x="7.5" y="2" width="5" height="3" rx="1"/><path d="M7.2 9 h5.6 M7.2 12 h5.6"/></g>
    <g id="ic-user" fill="none" stroke="currentColor" stroke-width="1.6" stroke-linecap="round"><circle cx="10" cy="7" r="3.2"/><path d="M4.5 16.5 a5.5 5.5 0 0 1 11 0"/></g>
    <g id="ic-truck" fill="none" stroke="currentColor" stroke-width="1.6" stroke-linejoin="round" stroke-linecap="round"><path d="M2.5 6 h8 v7 h-8 z"/><path d="M10.5 8.5 h3.2 l2.4 2.3 v2.2 h-5.6 z"/><circle cx="6" cy="15" r="1.5"/><circle cx="13.7" cy="15" r="1.5"/></g>
    <g id="ic-box" fill="none" stroke="currentColor" stroke-width="1.6" stroke-linejoin="round" stroke-linecap="round"><path d="M10 2.6 l6.4 3.5 v7.8 l-6.4 3.5 -6.4-3.5 v-7.8z"/><path d="M3.6 6.1 L10 9.6 l6.4-3.5 M10 9.6 V17.4"/></g>
    <g id="ic-cart" fill="none" stroke="currentColor" stroke-width="1.6" stroke-linejoin="round" stroke-linecap="round"><path d="M3 4 h2.2 l1.8 8.4 h7.6 l1.6-5.8 H6.2"/><circle cx="8" cy="16" r="1.3"/><circle cx="14.5" cy="16" r="1.3"/></g>
    <g id="ic-building" fill="none" stroke="currentColor" stroke-width="1.6" stroke-linejoin="round"><rect x="4.5" y="3.5" width="11" height="14" rx="1.2"/><path d="M7.5 7 h1 M11.5 7 h1 M7.5 10 h1 M11.5 10 h1"/><path d="M8.5 17.5 v-3 h3 v3"/></g>
    <g id="ic-bill" fill="none" stroke="currentColor" stroke-width="1.6" stroke-linejoin="round" stroke-linecap="round"><path d="M5 2.6 h10 v15 l-2-1.3 -2 1.3 -2-1.3 -2 1.3 -2-1.3z"/><path d="M7.4 7 h5.2 M7.4 10 h5.2 M7.4 13 h3.2"/></g>
    <g id="ic-card" fill="none" stroke="currentColor" stroke-width="1.6" stroke-linejoin="round"><rect x="2.5" y="5" width="15" height="10" rx="2"/><path d="M2.5 8.5 h15 M5 12 h3"/></g>
    <g id="ic-chart" fill="none" stroke="currentColor" stroke-width="1.6" stroke-linejoin="round" stroke-linecap="round"><path d="M3 16.5 h14"/><rect x="4.5" y="9" width="2.6" height="5.5"/><rect x="8.7" y="6" width="2.6" height="8.5"/><rect x="12.9" y="11" width="2.6" height="3.5"/></g>
    <g id="ic-slider" fill="none" stroke="currentColor" stroke-width="1.6" stroke-linecap="round"><path d="M3 7 h14 M3 13 h14"/><circle cx="8" cy="7" r="1.9" fill="#fff"/><circle cx="13" cy="13" r="1.9" fill="#fff"/></g>
    <g id="ic-search" fill="none" stroke="currentColor" stroke-width="1.7" stroke-linecap="round"><circle cx="9" cy="9" r="5.5"/><path d="M13.2 13.2 L17.2 17.2"/></g>
    <g id="ic-bell" fill="none" stroke="currentColor" stroke-width="1.6" stroke-linejoin="round" stroke-linecap="round"><path d="M10 3 a4.6 4.6 0 0 1 4.6 4.6 c0 4 1.4 5.4 1.4 5.4 h-12 s1.4-1.4 1.4-5.4 a4.6 4.6 0 0 1 4.6-4.6z"/><path d="M8.3 16 a1.8 1.8 0 0 0 3.4 0"/></g>
    <g id="ic-menu" fill="none" stroke="currentColor" stroke-width="1.8" stroke-linecap="round"><path d="M3 6 h16 M3 11 h16 M3 16 h16"/></g>
    <g id="ic-check" fill="none" stroke="currentColor" stroke-width="1.8" stroke-linecap="round" stroke-linejoin="round"><path d="M4 10.5 l3.6 3.6 L16 6"/></g>
    <g id="ic-chevd" fill="none" stroke="currentColor" stroke-width="1.7" stroke-linecap="round" stroke-linejoin="round"><path d="M5.5 8 L10 12.5 L14.5 8"/></g>
    <g id="ic-cal" fill="none" stroke="currentColor" stroke-width="1.6" stroke-linejoin="round" stroke-linecap="round"><rect x="3.5" y="4.5" width="13" height="12" rx="2"/><path d="M3.5 8 h13 M7 3 v3 M13 3 v3"/></g>
  </defs>
  <style>
    .navi{fill:#5A6A85;font-weight:500}.col{fill:#8A95A5;font-weight:600;letter-spacing:.4px}
    .h{fill:#2A3547;font-weight:600}.lbl{fill:#5A6A85;font-weight:500}.cell{fill:#2A3547;font-weight:500}.mut{fill:#8A95A5;font-weight:500}.val{fill:#2A3547;font-weight:500}.ph{fill:#9AA4B2;font-weight:400}.lnk{fill:#c479c2;font-weight:600}
  </style>
  <rect width="1440" height="880" fill="#F4F6FB"/>
  <rect x="0" y="0" width="256" height="880" fill="#FFFFFF"/><line x1="256" y1="0" x2="256" y2="880" stroke="#ECEFF4"/>
  <rect x="24" y="21" width="30" height="30" rx="8" fill="#c479c2"/><text x="39" y="42" font-size="17" font-weight="700" fill="#FFFFFF" text-anchor="middle">S</text><text x="66" y="42" font-size="19" font-weight="700" fill="#2A3547">Squibbon</text>
  <rect x="170" y="26" width="58" height="18" rx="9" fill="#E6FBFA"/><text x="199" y="39" font-size="10.5" font-weight="700" fill="#0F9C96" text-anchor="middle">SHOP</text>
  <text x="24" y="90" class="col" font-size="11">SHOP</text>
  <g style="color:#5A6A85"><use href="#ic-grid" x="22" y="100" width="18" height="18"/></g><text x="50" y="114" class="navi" font-size="12.5">Dashboard</text>
  <g style="color:#5A6A85"><use href="#ic-board" x="22" y="138" width="18" height="18"/></g><text x="50" y="152" class="navi" font-size="12.5">Workflow</text>
  <rect x="12" y="172" width="232" height="28" rx="7" fill="#FFEBFE"/>
  <g style="color:#c479c2"><use href="#ic-clip" x="22" y="177" width="18" height="18"/></g><text x="50" y="191" font-size="12.5" font-weight="600" fill="#c479c2">Work orders</text>
  <g style="color:#5A6A85"><use href="#ic-user" x="22" y="214" width="18" height="18"/></g><text x="50" y="228" class="navi" font-size="12.5">Customers</text>
  <g style="color:#5A6A85"><use href="#ic-truck" x="22" y="252" width="18" height="18"/></g><text x="50" y="266" class="navi" font-size="12.5">Vehicles</text>
  <text x="24" y="304" class="col" font-size="11">PARTS &amp; VENDORS</text>
  <g style="color:#5A6A85"><use href="#ic-box" x="22" y="314" width="18" height="18"/></g><text x="50" y="328" class="navi" font-size="12.5">Inventory / parts</text>
  <g style="color:#5A6A85"><use href="#ic-cart" x="22" y="352" width="18" height="18"/></g><text x="50" y="366" class="navi" font-size="12.5">Purchase orders</text>
  <g style="color:#5A6A85"><use href="#ic-building" x="22" y="390" width="18" height="18"/></g><text x="50" y="404" class="navi" font-size="12.5">Vendors</text>
  <text x="24" y="442" class="col" font-size="11">BILLING</text>
  <g style="color:#5A6A85"><use href="#ic-bill" x="22" y="452" width="18" height="18"/></g><text x="50" y="466" class="navi" font-size="12.5">Invoices</text>
  <g style="color:#5A6A85"><use href="#ic-card" x="22" y="490" width="18" height="18"/></g><text x="50" y="504" class="navi" font-size="12.5">Payments</text>
  <g style="color:#5A6A85"><use href="#ic-chart" x="22" y="528" width="18" height="18"/></g><text x="50" y="542" class="navi" font-size="12.5">Reports</text>
  <text x="24" y="580" class="col" font-size="11">SETTINGS</text>
  <g style="color:#5A6A85"><use href="#ic-slider" x="22" y="590" width="18" height="18"/></g><text x="50" y="604" class="navi" font-size="12.5">Shop settings</text>

  <rect x="256" y="0" width="1184" height="72" fill="#FFFFFF"/><line x1="256" y1="72" x2="1440" y2="72" stroke="#ECEFF4"/>
  <g style="color:#5A6A85"><use href="#ic-menu" x="282" y="26" width="20" height="20"/></g>
  <rect x="324" y="18" width="300" height="36" rx="18" fill="#F4F6FB"/><g style="color:#8A95A5"><use href="#ic-search" x="340" y="27" width="18" height="18"/></g><text x="366" y="41" font-size="12.5" fill="#9AA4B2">Search WO, customer, plate or VIN…</text>
  <rect x="1108" y="17" width="170" height="38" rx="8" fill="#c479c2"/><g style="color:#FFFFFF"><use href="#ic-check" x="1130" y="28" width="16" height="16"/></g><text x="1154" y="41" font-size="12.5" font-weight="600" fill="#FFFFFF">Create order</text>
  <g style="color:#5A6A85"><use href="#ic-bell" x="1300" y="26" width="20" height="20"/></g><circle cx="1317" cy="27" r="4" fill="#FA5A5A"/>
  <text x="1368" y="33" font-size="12.5" font-weight="600" fill="#2A3547" text-anchor="end">T. Hopper</text><text x="1368" y="47" font-size="10.5" fill="#8A95A5" text-anchor="end">Advisor</text>
  <circle cx="1392" cy="36" r="16" fill="#FFEBFE"/><text x="1392" y="40" font-size="12" font-weight="700" fill="#c479c2" text-anchor="middle">TH</text>

  <text x="280" y="110" class="mut" font-size="12">Work orders  ›  New</text>
  <text x="280" y="136" font-size="21" font-weight="700" fill="#2A3547">New work order</text>

  <rect x="280" y="160" width="1136" height="640" rx="12" fill="#FFFFFF" stroke="#ECEFF4" filter="url(#sh)"/>
  <text x="304" y="192" class="h" font-size="13.5">Customer</text><text x="1392" y="192" class="lnk" font-size="12" text-anchor="end">+ New customer</text>
  <text x="304" y="210" class="lbl" font-size="12">Customer</text><rect x="304" y="218" width="520" height="38" rx="8" fill="#FFFFFF" stroke="#DDE3EC"/><g style="color:#8A95A5"><use href="#ic-search" x="318" y="229" width="16" height="16"/></g><text x="344" y="242" class="val" font-size="13">Acme Fleet Ltd</text><g style="color:#8A95A5"><use href="#ic-chevd" x="798" y="230" width="16" height="16"/></g>
  <text x="856" y="210" class="lbl" font-size="12">Account &amp; terms</text><rect x="856" y="218" width="520" height="38" rx="8" fill="#F4F6FB"/><text x="874" y="242" class="val" font-size="13">Fleet · Net 30 · tax-exempt: no</text>
  <text x="304" y="266" class="lbl" font-size="12">Phone</text><rect x="304" y="274" width="520" height="38" rx="8" fill="#FFFFFF" stroke="#DDE3EC"/><text x="322" y="298" class="val" font-size="13">(416) 555-0148</text>
  <text x="856" y="266" class="lbl" font-size="12">Email</text><rect x="856" y="274" width="520" height="38" rx="8" fill="#FFFFFF" stroke="#DDE3EC"/><text x="874" y="298" class="val" font-size="13">ap@acmefleet.ca</text>

  <text x="304" y="346" class="h" font-size="13.5">Vehicle</text><text x="1392" y="346" class="lnk" font-size="12" text-anchor="end">Decode VIN / plate →</text>
  <text x="304" y="364" class="lbl" font-size="12">Vehicle</text><rect x="304" y="372" width="520" height="38" rx="8" fill="#FFFFFF" stroke="#DDE3EC"/><text x="322" y="396" class="val" font-size="13">2019 Ford F-150 · XLT · 3.5L</text><g style="color:#8A95A5"><use href="#ic-chevd" x="798" y="384" width="16" height="16"/></g>
  <text x="856" y="364" class="lbl" font-size="12">VIN</text><rect x="856" y="372" width="520" height="38" rx="8" fill="#FFFFFF" stroke="#DDE3EC"/><text x="874" y="396" class="val" font-size="13">1FTEW1E5XKFA12345</text>
  <text x="304" y="420" class="lbl" font-size="12">Plate</text><rect x="304" y="428" width="520" height="38" rx="8" fill="#FFFFFF" stroke="#DDE3EC"/><text x="322" y="452" class="val" font-size="13">ABCD 123 · ON</text>
  <text x="856" y="420" class="lbl" font-size="12">Mileage in (km)</text><rect x="856" y="428" width="520" height="38" rx="8" fill="#FFFFFF" stroke="#DDE3EC"/><text x="874" y="452" class="val" font-size="13">84,210</text>

  <text x="304" y="500" class="h" font-size="13.5">Order details</text>
  <text x="304" y="518" class="lbl" font-size="12">Service advisor</text><rect x="304" y="526" width="338" height="38" rx="8" fill="#FFFFFF" stroke="#DDE3EC"/><text x="322" y="550" class="val" font-size="13">T. Hopper</text><g style="color:#8A95A5"><use href="#ic-chevd" x="616" y="538" width="16" height="16"/></g>
  <text x="668" y="518" class="lbl" font-size="12">Source</text><rect x="668" y="526" width="338" height="38" rx="8" fill="#FFFFFF" stroke="#DDE3EC"/><text x="686" y="550" class="val" font-size="13">Appointment</text><g style="color:#8A95A5"><use href="#ic-chevd" x="980" y="538" width="16" height="16"/></g>
  <text x="1032" y="518" class="lbl" font-size="12">Promised</text><rect x="1032" y="526" width="344" height="38" rx="8" fill="#FFFFFF" stroke="#DDE3EC"/><text x="1050" y="550" class="val" font-size="13">Today, 5:00 PM</text><g style="color:#8A95A5"><use href="#ic-cal" x="1350" y="538" width="16" height="16"/></g>
  <text x="304" y="586" class="lbl" font-size="12">Drop-off type</text>
  <rect x="304" y="594" width="338" height="38" rx="8" fill="#F4F6FB"/><rect x="308" y="598" width="165" height="30" rx="6" fill="#FFEBFE"/><text x="390" y="618" font-size="12.5" font-weight="600" fill="#c479c2" text-anchor="middle">Drop-off</text><text x="557" y="618" font-size="12.5" font-weight="500" fill="#5A6A85" text-anchor="middle">Waiter</text>
  <text x="668" y="586" class="lbl" font-size="12">Key tag / location</text><rect x="668" y="594" width="338" height="38" rx="8" fill="#FFFFFF" stroke="#DDE3EC"/><text x="686" y="618" class="val" font-size="13">Hook 14 · lot B</text>
  <text x="1032" y="586" class="lbl" font-size="12">Tags</text><rect x="1032" y="594" width="344" height="38" rx="8" fill="#FFFFFF" stroke="#DDE3EC"/><rect x="1044" y="601" width="44" height="24" rx="12" fill="#FFEBFE"/><text x="1066" y="617" font-size="10.5" font-weight="600" fill="#c479c2" text-anchor="middle">Fleet</text><rect x="1094" y="601" width="40" height="24" rx="12" fill="#EEF1F6"/><text x="1114" y="617" font-size="10.5" font-weight="600" fill="#5A6A85" text-anchor="middle">VIP</text>

  <text x="304" y="668" class="h" font-size="13.5">Customer concern</text>
  <rect x="304" y="678" width="1072" height="100" rx="8" fill="#FFFFFF" stroke="#DDE3EC"/><text x="322" y="700" class="val" font-size="12.5">Grinding noise from front brakes when stopping. Also needs windshield replaced —</text><text x="322" y="720" class="val" font-size="12.5">crack across driver side from a stone chip.</text>

  <rect x="1166" y="820" width="110" height="40" rx="8" fill="#FFFFFF" stroke="#DDE3EC"/><text x="1221" y="845" font-size="12.5" font-weight="500" fill="#5A6A85" text-anchor="middle">Cancel</text>
  <rect x="1286" y="820" width="130" height="40" rx="8" fill="#c479c2"/><text x="1351" y="845" font-size="12.5" font-weight="600" fill="#FFFFFF" text-anchor="middle">Create order</text>
</svg>
