<svg viewBox="0 0 1440 912" xmlns="http://www.w3.org/2000/svg" font-family="'Plus Jakarta Sans','Inter','Segoe UI',system-ui,sans-serif" role="img" aria-labelledby="t">
  <title id="t">Squibbon Shop — Parts &amp; labour lookup</title>
  <defs>
    <filter id="msh" x="-20%" y="-20%" width="140%" height="140%"><feDropShadow dx="0" dy="10" stdDeviation="24" flood-color="#0B1220" flood-opacity="0.30"/></filter>
    <g id="ic-grid" fill="none" stroke="currentColor" stroke-width="1.6"><rect x="3" y="3" width="6" height="6" rx="1.5"/><rect x="11" y="3" width="6" height="6" rx="1.5"/><rect x="3" y="11" width="6" height="6" rx="1.5"/><rect x="11" y="11" width="6" height="6" rx="1.5"/></g>
    <g id="ic-board" fill="none" stroke="currentColor" stroke-width="1.6"><rect x="3" y="3.5" width="4" height="13" rx="1"/><rect x="8" y="3.5" width="4" height="9" rx="1"/><rect x="13" y="3.5" width="4" height="13" rx="1"/></g>
    <g id="ic-clip" fill="none" stroke="currentColor" stroke-width="1.6" stroke-linejoin="round" stroke-linecap="round"><rect x="4.5" y="3.5" width="11" height="13.5" rx="2"/><rect x="7.5" y="2" width="5" height="3" rx="1"/><path d="M7.2 9 h5.6 M7.2 12 h5.6"/></g>
    <g id="ic-user" fill="none" stroke="currentColor" stroke-width="1.6" stroke-linecap="round"><circle cx="10" cy="7" r="3.2"/><path d="M4.5 16.5 a5.5 5.5 0 0 1 11 0"/></g>
    <g id="ic-truck" fill="none" stroke="currentColor" stroke-width="1.6" stroke-linejoin="round" stroke-linecap="round"><path d="M2.5 6 h8 v7 h-8 z"/><path d="M10.5 8.5 h3.2 l2.4 2.3 v2.2 h-5.6 z"/><circle cx="6" cy="15" r="1.5"/><circle cx="13.7" cy="15" r="1.5"/></g>
    <g id="ic-box" fill="none" stroke="currentColor" stroke-width="1.6" stroke-linejoin="round" stroke-linecap="round"><path d="M10 2.6 l6.4 3.5 v7.8 l-6.4 3.5 -6.4-3.5 v-7.8z"/><path d="M3.6 6.1 L10 9.6 l6.4-3.5 M10 9.6 V17.4"/></g>
    <g id="ic-cart" fill="none" stroke="currentColor" stroke-width="1.6" stroke-linejoin="round" stroke-linecap="round"><path d="M3 4 h2.2 l1.8 8.4 h7.6 l1.6-5.8 H6.2"/><circle cx="8" cy="16" r="1.3"/><circle cx="14.5" cy="16" r="1.3"/></g>
    <g id="ic-building" fill="none" stroke="currentColor" stroke-width="1.6" stroke-linejoin="round"><rect x="4.5" y="3.5" width="11" height="14" rx="1.2"/><path d="M7.5 7 h1 M11.5 7 h1 M7.5 10 h1 M11.5 10 h1"/><path d="M8.5 17.5 v-3 h3 v3"/></g>
    <g id="ic-bill" fill="none" stroke="currentColor" stroke-width="1.6" stroke-linejoin="round" stroke-linecap="round"><path d="M5 2.6 h10 v15 l-2-1.3 -2 1.3 -2-1.3 -2 1.3 -2-1.3z"/><path d="M7.4 7 h5.2 M7.4 10 h5.2 M7.4 13 h3.2"/></g>
    <g id="ic-card" fill="none" stroke="currentColor" stroke-width="1.6" stroke-linejoin="round"><rect x="2.5" y="5" width="15" height="10" rx="2"/><path d="M2.5 8.5 h15 M5 12 h3"/></g>
    <g id="ic-chart" fill="none" stroke="currentColor" stroke-width="1.6" stroke-linejoin="round" stroke-linecap="round"><path d="M3 16.5 h14"/><rect x="4.5" y="9" width="2.6" height="5.5"/><rect x="8.7" y="6" width="2.6" height="8.5"/><rect x="12.9" y="11" width="2.6" height="3.5"/></g>
    <g id="ic-slider" fill="none" stroke="currentColor" stroke-width="1.6" stroke-linecap="round"><path d="M3 7 h14 M3 13 h14"/><circle cx="8" cy="7" r="1.9" fill="#fff"/><circle cx="13" cy="13" r="1.9" fill="#fff"/></g>
    <g id="ic-search" fill="none" stroke="currentColor" stroke-width="1.7" stroke-linecap="round"><circle cx="9" cy="9" r="5.5"/><path d="M13.2 13.2 L17.2 17.2"/></g>
    <g id="ic-bell" fill="none" stroke="currentColor" stroke-width="1.6" stroke-linejoin="round" stroke-linecap="round"><path d="M10 3 a4.6 4.6 0 0 1 4.6 4.6 c0 4 1.4 5.4 1.4 5.4 h-12 s1.4-1.4 1.4-5.4 a4.6 4.6 0 0 1 4.6-4.6z"/><path d="M8.3 16 a1.8 1.8 0 0 0 3.4 0"/></g>
    <g id="ic-menu" fill="none" stroke="currentColor" stroke-width="1.8" stroke-linecap="round"><path d="M3 6 h16 M3 11 h16 M3 16 h16"/></g>
    <g id="ic-x" fill="none" stroke="currentColor" stroke-width="1.7" stroke-linecap="round"><path d="M5.5 5.5 l9 9 M14.5 5.5 l-9 9"/></g>
    <g id="ic-chevd" fill="none" stroke="currentColor" stroke-width="1.7" stroke-linecap="round" stroke-linejoin="round"><path d="M5.5 8 L10 12.5 L14.5 8"/></g>
  </defs>
  <style>
    .navi{fill:#9AA6B8;font-weight:500}.col{fill:#A6B0C0;font-weight:600;letter-spacing:.4px}
    .hc{fill:#8A95A5;font-weight:600;letter-spacing:.4px}.cell{fill:#2A3547;font-weight:500}.sub{fill:#5A6A85;font-weight:400}.mut{fill:#8A95A5;font-weight:500}.pill{font-weight:600}
  </style>
  <rect width="1440" height="912" fill="#F4F6FB"/>
  <rect x="0" y="0" width="256" height="912" fill="#FFFFFF"/><line x1="256" y1="0" x2="256" y2="912" stroke="#ECEFF4"/>
  <rect x="24" y="21" width="30" height="30" rx="8" fill="#c479c2"/><text x="39" y="42" font-size="17" font-weight="700" fill="#FFFFFF" text-anchor="middle">S</text><text x="66" y="42" font-size="19" font-weight="700" fill="#2A3547">Squibbon</text>
  <text x="24" y="90" class="col" font-size="11">SHOP</text>
  <g style="color:#9AA6B8"><use href="#ic-grid" x="22" y="100" width="18" height="18"/></g><text x="50" y="114" class="navi" font-size="12.5">Dashboard</text>
  <g style="color:#9AA6B8"><use href="#ic-board" x="22" y="138" width="18" height="18"/></g><text x="50" y="152" class="navi" font-size="12.5">Workflow</text>
  <rect x="12" y="172" width="232" height="28" rx="7" fill="#FFEBFE"/>
  <g style="color:#c479c2"><use href="#ic-clip" x="22" y="177" width="18" height="18"/></g><text x="50" y="191" font-size="12.5" font-weight="600" fill="#c479c2">Work orders</text>
  <g style="color:#9AA6B8"><use href="#ic-user" x="22" y="214" width="18" height="18"/></g><text x="50" y="228" class="navi" font-size="12.5">Customers</text>
  <g style="color:#9AA6B8"><use href="#ic-truck" x="22" y="252" width="18" height="18"/></g><text x="50" y="266" class="navi" font-size="12.5">Vehicles</text>
  <text x="24" y="304" class="col" font-size="11">PARTS &amp; VENDORS</text>
  <g style="color:#9AA6B8"><use href="#ic-box" x="22" y="314" width="18" height="18"/></g><text x="50" y="328" class="navi" font-size="12.5">Inventory / parts</text>
  <g style="color:#9AA6B8"><use href="#ic-cart" x="22" y="352" width="18" height="18"/></g><text x="50" y="366" class="navi" font-size="12.5">Purchase orders</text>
  <g style="color:#9AA6B8"><use href="#ic-building" x="22" y="390" width="18" height="18"/></g><text x="50" y="404" class="navi" font-size="12.5">Vendors</text>
  <text x="24" y="442" class="col" font-size="11">BILLING</text>
  <g style="color:#9AA6B8"><use href="#ic-bill" x="22" y="452" width="18" height="18"/></g><text x="50" y="466" class="navi" font-size="12.5">Invoices</text>
  <g style="color:#9AA6B8"><use href="#ic-card" x="22" y="490" width="18" height="18"/></g><text x="50" y="504" class="navi" font-size="12.5">Payments</text>
  <g style="color:#9AA6B8"><use href="#ic-chart" x="22" y="528" width="18" height="18"/></g><text x="50" y="542" class="navi" font-size="12.5">Reports</text>
  <rect x="256" y="0" width="1184" height="72" fill="#FFFFFF"/><line x1="256" y1="72" x2="1440" y2="72" stroke="#ECEFF4"/>
  <g style="color:#9AA6B8"><use href="#ic-menu" x="282" y="26" width="20" height="20"/></g>
  <rect x="324" y="18" width="300" height="36" rx="18" fill="#F4F6FB"/><g style="color:#9AA6B8"><use href="#ic-search" x="340" y="27" width="18" height="18"/></g>
  <circle cx="1392" cy="36" r="16" fill="#FFEBFE"/><text x="1392" y="40" font-size="12" font-weight="700" fill="#c479c2" text-anchor="middle">TH</text>
  <text x="280" y="118" font-size="22" font-weight="700" fill="#2A3547">WO-10428</text>
  <text x="280" y="140" font-size="13" fill="#8A95A5">Front brake service · adding parts</text>

  <rect x="256" y="72" width="1184" height="840" fill="#1B2233" fill-opacity="0.55"/>

  <rect x="438" y="178" width="820" height="560" rx="16" fill="#FFFFFF" filter="url(#msh)"/>
  <text x="462" y="216" font-size="17" font-weight="700" fill="#2A3547">Parts &amp; labour lookup</text>
  <text x="462" y="236" font-size="12" fill="#8A95A5">Front brake service · WO-10428 · prices via parts matrix</text>
  <g style="color:#8A95A5"><use href="#ic-x" x="1216" y="194" width="18" height="18"/></g>
  <text x="462" y="272" font-size="13" font-weight="600" fill="#c479c2">Parts (PartsTech)</text><rect x="458" y="281" width="128" height="3" rx="1.5" fill="#c479c2"/>
  <text x="606" y="272" class="mut" font-size="13">Labour (MOTOR)</text>
  <rect x="462" y="294" width="600" height="36" rx="8" fill="#F4F6FB"/><g style="color:#8A95A5"><use href="#ic-search" x="476" y="303" width="18" height="18"/></g><text x="502" y="317" font-size="12.5" fill="#9AA4B2">Search part # or name — "brake pads"</text>
  <rect x="1074" y="294" width="160" height="36" rx="8" fill="#FFFFFF" stroke="#DDE3EC"/><text x="1090" y="316" class="cell" font-size="12">All suppliers</text><g style="color:#8A95A5"><use href="#ic-chevd" x="1206" y="303" width="16" height="16"/></g>

  <g class="hc" font-size="10"><text x="462" y="358">PART</text><text x="700" y="358">BRAND</text><text x="800" y="358">SUPPLIER</text><text x="956" y="358">AVAIL</text><text x="1066" y="358" text-anchor="end">COST</text><text x="1150" y="358" text-anchor="end">PRICE</text></g>
  <line x1="462" y1="368" x2="1234" y2="368" stroke="#ECEFF4"/>
  <text x="462" y="394" class="cell" font-size="12.5">Brake pads — BP-1234</text><text x="700" y="394" class="sub" font-size="12">Bosch</text><text x="800" y="394" class="sub" font-size="12">NAPA #221</text><rect x="950" y="382" width="58" height="18" rx="9" fill="#E6FBF5"/><text x="979" y="395" class="pill" font-size="9.5" fill="#0F9C96" text-anchor="middle">In stock</text><text x="1066" y="394" class="sub" font-size="12.5" text-anchor="end">$28.00</text><text x="1150" y="394" class="cell" font-size="12.5" text-anchor="end">$58.00</text><rect x="1178" y="380" width="56" height="26" rx="7" fill="#FFEBFE"/><text x="1206" y="397" font-size="11.5" font-weight="600" fill="#c479c2" text-anchor="middle">Add</text>
  <line x1="462" y1="414" x2="1234" y2="414" stroke="#F4F6FA"/>
  <text x="462" y="440" class="cell" font-size="12.5">Brake pads — BP-1240</text><text x="700" y="440" class="sub" font-size="12">Wagner</text><text x="800" y="440" class="sub" font-size="12">PartsTech</text><rect x="950" y="428" width="64" height="18" rx="9" fill="#FEF4E6"/><text x="982" y="441" class="pill" font-size="9.5" fill="#A8720F" text-anchor="middle">4 nearby</text><text x="1066" y="440" class="sub" font-size="12.5" text-anchor="end">$24.00</text><text x="1150" y="440" class="cell" font-size="12.5" text-anchor="end">$52.00</text><rect x="1178" y="426" width="56" height="26" rx="7" fill="#FFEBFE"/><text x="1206" y="443" font-size="11.5" font-weight="600" fill="#c479c2" text-anchor="middle">Add</text>
  <line x1="462" y1="460" x2="1234" y2="460" stroke="#F4F6FA"/>
  <text x="462" y="486" class="cell" font-size="12.5">Rotors — RT-77</text><text x="700" y="486" class="sub" font-size="12">Raybestos</text><text x="800" y="486" class="sub" font-size="12">PartsTech</text><rect x="950" y="474" width="64" height="18" rx="9" fill="#E6FBF5"/><text x="982" y="487" class="pill" font-size="9.5" fill="#0F9C96" text-anchor="middle">2 stock</text><text x="1066" y="486" class="sub" font-size="12.5" text-anchor="end">$30.00</text><text x="1150" y="486" class="cell" font-size="12.5" text-anchor="end">$52.00</text><rect x="1178" y="472" width="56" height="26" rx="7" fill="#FFEBFE"/><text x="1206" y="489" font-size="11.5" font-weight="600" fill="#c479c2" text-anchor="middle">Add</text>
  <line x1="462" y1="506" x2="1234" y2="506" stroke="#F4F6FA"/>
  <text x="462" y="532" class="cell" font-size="12.5">Rotors — RT-80</text><text x="700" y="532" class="sub" font-size="12">ACDelco</text><text x="800" y="532" class="sub" font-size="12">Worldpac</text><rect x="950" y="520" width="64" height="18" rx="9" fill="#FEF4E6"/><text x="982" y="533" class="pill" font-size="9.5" fill="#A8720F" text-anchor="middle">next day</text><text x="1066" y="532" class="sub" font-size="12.5" text-anchor="end">$34.00</text><text x="1150" y="532" class="cell" font-size="12.5" text-anchor="end">$58.00</text><rect x="1178" y="518" width="56" height="26" rx="7" fill="#FFEBFE"/><text x="1206" y="535" font-size="11.5" font-weight="600" fill="#c479c2" text-anchor="middle">Add</text>
  <line x1="462" y1="552" x2="1234" y2="552" stroke="#F4F6FA"/>
  <text x="462" y="578" class="cell" font-size="12.5">Brake hardware kit</text><text x="700" y="578" class="sub" font-size="12">Carlson</text><text x="800" y="578" class="sub" font-size="12">NAPA #221</text><rect x="950" y="566" width="58" height="18" rx="9" fill="#E6FBF5"/><text x="979" y="579" class="pill" font-size="9.5" fill="#0F9C96" text-anchor="middle">In stock</text><text x="1066" y="578" class="sub" font-size="12.5" text-anchor="end">$9.50</text><text x="1150" y="578" class="cell" font-size="12.5" text-anchor="end">$22.00</text><rect x="1178" y="564" width="56" height="26" rx="7" fill="#FFEBFE"/><text x="1206" y="581" font-size="11.5" font-weight="600" fill="#c479c2" text-anchor="middle">Add</text>

  <line x1="462" y1="688" x2="1234" y2="688" stroke="#ECEFF4"/>
  <text x="462" y="716" class="mut" font-size="11.5">Out-of-stock parts create a special-order PO on the work order automatically.</text>
  <rect x="1146" y="702" width="88" height="32" rx="8" fill="#FFFFFF" stroke="#DDE3EC"/><text x="1190" y="723" font-size="12.5" font-weight="600" fill="#5A6A85" text-anchor="middle">Done</text>
</svg>
