<svg viewBox="0 0 1440 912" xmlns="http://www.w3.org/2000/svg" font-family="'Plus Jakarta Sans','Inter','Segoe UI',system-ui,sans-serif" role="img" aria-labelledby="t">
  <title id="t">Squibbon Shop — Add sublet job</title>
  <defs>
    <filter id="msh" x="-20%" y="-20%" width="140%" height="140%"><feDropShadow dx="0" dy="10" stdDeviation="24" flood-color="#0B1220" flood-opacity="0.30"/></filter>
    <g id="ic-grid" fill="none" stroke="currentColor" stroke-width="1.6"><rect x="3" y="3" width="6" height="6" rx="1.5"/><rect x="11" y="3" width="6" height="6" rx="1.5"/><rect x="3" y="11" width="6" height="6" rx="1.5"/><rect x="11" y="11" width="6" height="6" rx="1.5"/></g>
    <g id="ic-board" fill="none" stroke="currentColor" stroke-width="1.6"><rect x="3" y="3.5" width="4" height="13" rx="1"/><rect x="8" y="3.5" width="4" height="9" rx="1"/><rect x="13" y="3.5" width="4" height="13" rx="1"/></g>
    <g id="ic-clip" fill="none" stroke="currentColor" stroke-width="1.6" stroke-linejoin="round" stroke-linecap="round"><rect x="4.5" y="3.5" width="11" height="13.5" rx="2"/><rect x="7.5" y="2" width="5" height="3" rx="1"/><path d="M7.2 9 h5.6 M7.2 12 h5.6"/></g>
    <g id="ic-user" fill="none" stroke="currentColor" stroke-width="1.6" stroke-linecap="round"><circle cx="10" cy="7" r="3.2"/><path d="M4.5 16.5 a5.5 5.5 0 0 1 11 0"/></g>
    <g id="ic-truck" fill="none" stroke="currentColor" stroke-width="1.6" stroke-linejoin="round" stroke-linecap="round"><path d="M2.5 6 h8 v7 h-8 z"/><path d="M10.5 8.5 h3.2 l2.4 2.3 v2.2 h-5.6 z"/><circle cx="6" cy="15" r="1.5"/><circle cx="13.7" cy="15" r="1.5"/></g>
    <g id="ic-box" fill="none" stroke="currentColor" stroke-width="1.6" stroke-linejoin="round" stroke-linecap="round"><path d="M10 2.6 l6.4 3.5 v7.8 l-6.4 3.5 -6.4-3.5 v-7.8z"/><path d="M3.6 6.1 L10 9.6 l6.4-3.5 M10 9.6 V17.4"/></g>
    <g id="ic-cart" fill="none" stroke="currentColor" stroke-width="1.6" stroke-linejoin="round" stroke-linecap="round"><path d="M3 4 h2.2 l1.8 8.4 h7.6 l1.6-5.8 H6.2"/><circle cx="8" cy="16" r="1.3"/><circle cx="14.5" cy="16" r="1.3"/></g>
    <g id="ic-building" fill="none" stroke="currentColor" stroke-width="1.6" stroke-linejoin="round"><rect x="4.5" y="3.5" width="11" height="14" rx="1.2"/><path d="M7.5 7 h1 M11.5 7 h1 M7.5 10 h1 M11.5 10 h1"/><path d="M8.5 17.5 v-3 h3 v3"/></g>
    <g id="ic-bill" fill="none" stroke="currentColor" stroke-width="1.6" stroke-linejoin="round" stroke-linecap="round"><path d="M5 2.6 h10 v15 l-2-1.3 -2 1.3 -2-1.3 -2 1.3 -2-1.3z"/><path d="M7.4 7 h5.2 M7.4 10 h5.2 M7.4 13 h3.2"/></g>
    <g id="ic-card" fill="none" stroke="currentColor" stroke-width="1.6" stroke-linejoin="round"><rect x="2.5" y="5" width="15" height="10" rx="2"/><path d="M2.5 8.5 h15 M5 12 h3"/></g>
    <g id="ic-chart" fill="none" stroke="currentColor" stroke-width="1.6" stroke-linejoin="round" stroke-linecap="round"><path d="M3 16.5 h14"/><rect x="4.5" y="9" width="2.6" height="5.5"/><rect x="8.7" y="6" width="2.6" height="8.5"/><rect x="12.9" y="11" width="2.6" height="3.5"/></g>
    <g id="ic-slider" fill="none" stroke="currentColor" stroke-width="1.6" stroke-linecap="round"><path d="M3 7 h14 M3 13 h14"/><circle cx="8" cy="7" r="1.9" fill="#fff"/><circle cx="13" cy="13" r="1.9" fill="#fff"/></g>
    <g id="ic-search" fill="none" stroke="currentColor" stroke-width="1.7" stroke-linecap="round"><circle cx="9" cy="9" r="5.5"/><path d="M13.2 13.2 L17.2 17.2"/></g>
    <g id="ic-bell" fill="none" stroke="currentColor" stroke-width="1.6" stroke-linejoin="round" stroke-linecap="round"><path d="M10 3 a4.6 4.6 0 0 1 4.6 4.6 c0 4 1.4 5.4 1.4 5.4 h-12 s1.4-1.4 1.4-5.4 a4.6 4.6 0 0 1 4.6-4.6z"/><path d="M8.3 16 a1.8 1.8 0 0 0 3.4 0"/></g>
    <g id="ic-menu" fill="none" stroke="currentColor" stroke-width="1.8" stroke-linecap="round"><path d="M3 6 h16 M3 11 h16 M3 16 h16"/></g>
    <g id="ic-x" fill="none" stroke="currentColor" stroke-width="1.7" stroke-linecap="round"><path d="M5.5 5.5 l9 9 M14.5 5.5 l-9 9"/></g>
    <g id="ic-chevd" fill="none" stroke="currentColor" stroke-width="1.7" stroke-linecap="round" stroke-linejoin="round"><path d="M5.5 8 L10 12.5 L14.5 8"/></g>
  </defs>
  <style>
    .navi{fill:#9AA6B8;font-weight:500}.col{fill:#A6B0C0;font-weight:600;letter-spacing:.4px}
    .lbl{fill:#5A6A85;font-weight:500}.val{fill:#2A3547;font-weight:500}.cell{fill:#2A3547;font-weight:500}.mut{fill:#8A95A5;font-weight:500}
  </style>
  <rect width="1440" height="912" fill="#F4F6FB"/>
  <rect x="0" y="0" width="256" height="912" fill="#FFFFFF"/><line x1="256" y1="0" x2="256" y2="912" stroke="#ECEFF4"/>
  <rect x="24" y="21" width="30" height="30" rx="8" fill="#c479c2"/><text x="39" y="42" font-size="17" font-weight="700" fill="#FFFFFF" text-anchor="middle">S</text><text x="66" y="42" font-size="19" font-weight="700" fill="#2A3547">Squibbon</text>
  <text x="24" y="90" class="col" font-size="11">SHOP</text>
  <g style="color:#9AA6B8"><use href="#ic-grid" x="22" y="100" width="18" height="18"/></g><text x="50" y="114" class="navi" font-size="12.5">Dashboard</text>
  <g style="color:#9AA6B8"><use href="#ic-board" x="22" y="138" width="18" height="18"/></g><text x="50" y="152" class="navi" font-size="12.5">Workflow</text>
  <rect x="12" y="172" width="232" height="28" rx="7" fill="#FFEBFE"/>
  <g style="color:#c479c2"><use href="#ic-clip" x="22" y="177" width="18" height="18"/></g><text x="50" y="191" font-size="12.5" font-weight="600" fill="#c479c2">Work orders</text>
  <g style="color:#9AA6B8"><use href="#ic-user" x="22" y="214" width="18" height="18"/></g><text x="50" y="228" class="navi" font-size="12.5">Customers</text>
  <g style="color:#9AA6B8"><use href="#ic-truck" x="22" y="252" width="18" height="18"/></g><text x="50" y="266" class="navi" font-size="12.5">Vehicles</text>
  <text x="24" y="304" class="col" font-size="11">PARTS &amp; VENDORS</text>
  <g style="color:#9AA6B8"><use href="#ic-box" x="22" y="314" width="18" height="18"/></g><text x="50" y="328" class="navi" font-size="12.5">Inventory / parts</text>
  <g style="color:#9AA6B8"><use href="#ic-cart" x="22" y="352" width="18" height="18"/></g><text x="50" y="366" class="navi" font-size="12.5">Purchase orders</text>
  <g style="color:#9AA6B8"><use href="#ic-building" x="22" y="390" width="18" height="18"/></g><text x="50" y="404" class="navi" font-size="12.5">Vendors</text>
  <text x="24" y="442" class="col" font-size="11">BILLING</text>
  <g style="color:#9AA6B8"><use href="#ic-bill" x="22" y="452" width="18" height="18"/></g><text x="50" y="466" class="navi" font-size="12.5">Invoices</text>
  <g style="color:#9AA6B8"><use href="#ic-card" x="22" y="490" width="18" height="18"/></g><text x="50" y="504" class="navi" font-size="12.5">Payments</text>
  <g style="color:#9AA6B8"><use href="#ic-chart" x="22" y="528" width="18" height="18"/></g><text x="50" y="542" class="navi" font-size="12.5">Reports</text>
  <rect x="256" y="0" width="1184" height="72" fill="#FFFFFF"/><line x1="256" y1="72" x2="1440" y2="72" stroke="#ECEFF4"/>
  <g style="color:#9AA6B8"><use href="#ic-menu" x="282" y="26" width="20" height="20"/></g>
  <rect x="324" y="18" width="300" height="36" rx="18" fill="#F4F6FB"/><g style="color:#9AA6B8"><use href="#ic-search" x="340" y="27" width="18" height="18"/></g>
  <circle cx="1392" cy="36" r="16" fill="#FFEBFE"/><text x="1392" y="40" font-size="12" font-weight="700" fill="#c479c2" text-anchor="middle">TH</text>
  <text x="280" y="118" font-size="22" font-weight="700" fill="#2A3547">WO-10428</text>
  <text x="280" y="140" font-size="13" fill="#8A95A5">Adding an outside repair</text>

  <rect x="256" y="72" width="1184" height="840" fill="#1B2233" fill-opacity="0.55"/>

  <rect x="538" y="190" width="620" height="560" rx="16" fill="#FFFFFF" filter="url(#msh)"/>
  <text x="562" y="228" font-size="17" font-weight="700" fill="#2A3547">Add sublet / outside repair</text>
  <text x="562" y="248" font-size="12" fill="#8A95A5">WO-10428 · billed to customer as vendor cost + markup</text>
  <g style="color:#8A95A5"><use href="#ic-x" x="1116" y="206" width="18" height="18"/></g>
  <line x1="562" y1="268" x2="1134" y2="268" stroke="#ECEFF4"/>

  <text x="562" y="294" class="lbl" font-size="12">Service description</text><rect x="562" y="302" width="572" height="38" rx="8" fill="#FFFFFF" stroke="#DDE3EC"/><text x="580" y="326" class="val" font-size="13">Windshield replacement</text>
  <text x="562" y="362" class="lbl" font-size="12">Vendor</text><rect x="562" y="370" width="278" height="38" rx="8" fill="#FFFFFF" stroke="#DDE3EC"/><g style="color:#8A95A5"><use href="#ic-building" x="576" y="381" width="16" height="16"/></g><text x="602" y="394" class="val" font-size="13">ClearView Glass</text><g style="color:#8A95A5"><use href="#ic-chevd" x="814" y="382" width="16" height="16"/></g>
  <text x="858" y="362" class="lbl" font-size="12">Sublet type</text><rect x="858" y="370" width="276" height="38" rx="8" fill="#F4F6FB"/><rect x="862" y="374" width="134" height="30" rx="6" fill="#FFEBFE"/><text x="929" y="394" font-size="12" font-weight="600" fill="#c479c2" text-anchor="middle">Full sublet</text><text x="1066" y="394" font-size="12" font-weight="500" fill="#5A6A85" text-anchor="middle">Partial</text>

  <text x="562" y="430" class="lbl" font-size="12">Vendor cost</text><rect x="562" y="438" width="176" height="38" rx="8" fill="#FFFFFF" stroke="#DDE3EC"/><text x="580" y="462" class="val" font-size="13">$180.00</text>
  <text x="758" y="430" class="lbl" font-size="12">Markup</text><rect x="758" y="438" width="176" height="38" rx="8" fill="#FFFFFF" stroke="#DDE3EC"/><text x="776" y="462" class="val" font-size="13">28%  · matrix</text>
  <text x="954" y="430" class="lbl" font-size="12">Customer price</text><rect x="954" y="438" width="180" height="38" rx="8" fill="#FFEBFE"/><text x="972" y="462" font-size="13" font-weight="700" fill="#c479c2">$230.00</text>
  <text x="562" y="504" font-size="11.5" font-weight="600" fill="#0F9C96">Margin $50.00 (22%) · auto from sublet matrix</text>

  <text x="562" y="540" class="cell" font-size="12.5">Taxable</text><rect x="660" y="532" width="34" height="20" rx="10" fill="#c479c2"/><circle cx="685" cy="542" r="7" fill="#fff"/>
  <text x="758" y="540" class="cell" font-size="12.5">Create sublet PO to vendor</text><rect x="1100" y="532" width="34" height="20" rx="10" fill="#c479c2"/><circle cx="1125" cy="542" r="7" fill="#fff"/>

  <text x="562" y="586" class="lbl" font-size="12">Vendor warranty</text><rect x="562" y="594" width="278" height="38" rx="8" fill="#FFFFFF" stroke="#DDE3EC"/><text x="580" y="618" class="val" font-size="13">12 months · OEM glass</text>
  <text x="858" y="586" class="lbl" font-size="12">Note</text><rect x="858" y="594" width="276" height="38" rx="8" fill="#FFFFFF" stroke="#DDE3EC"/><text x="876" y="618" class="val" font-size="13">Crack driver side, stone chip</text>

  <line x1="562" y1="666" x2="1134" y2="666" stroke="#ECEFF4"/>
  <text x="562" y="712" class="mut" font-size="11.5">Outside repair will be tracked: sent-out → returned, with vendor invoice on receipt.</text>
  <rect x="908" y="696" width="100" height="38" rx="8" fill="#FFFFFF" stroke="#DDE3EC"/><text x="958" y="720" font-size="12.5" font-weight="600" fill="#5A6A85" text-anchor="middle">Cancel</text>
  <rect x="1018" y="696" width="116" height="38" rx="8" fill="#c479c2"/><text x="1076" y="720" font-size="12.5" font-weight="600" fill="#FFFFFF" text-anchor="middle">Add sublet</text>
</svg>
