<svg viewBox="0 0 1440 740" xmlns="http://www.w3.org/2000/svg" font-family="'Plus Jakarta Sans','Inter','Segoe UI',system-ui,sans-serif" role="img" aria-labelledby="t">
  <title id="t">Squibbon Shop — Purchase order editor</title>
  <defs>
    <filter id="sh" x="-6%" y="-10%" width="112%" height="124%"><feDropShadow dx="0" dy="3" stdDeviation="6" flood-color="#2A3547" flood-opacity="0.07"/></filter>
    <g id="ic-grid" fill="none" stroke="currentColor" stroke-width="1.6"><rect x="3" y="3" width="6" height="6" rx="1.5"/><rect x="11" y="3" width="6" height="6" rx="1.5"/><rect x="3" y="11" width="6" height="6" rx="1.5"/><rect x="11" y="11" width="6" height="6" rx="1.5"/></g>
    <g id="ic-board" fill="none" stroke="currentColor" stroke-width="1.6"><rect x="3" y="3.5" width="4" height="13" rx="1"/><rect x="8" y="3.5" width="4" height="9" rx="1"/><rect x="13" y="3.5" width="4" height="13" rx="1"/></g>
    <g id="ic-clip" fill="none" stroke="currentColor" stroke-width="1.6" stroke-linejoin="round" stroke-linecap="round"><rect x="4.5" y="3.5" width="11" height="13.5" rx="2"/><rect x="7.5" y="2" width="5" height="3" rx="1"/><path d="M7.2 9 h5.6 M7.2 12 h5.6"/></g>
    <g id="ic-user" fill="none" stroke="currentColor" stroke-width="1.6" stroke-linecap="round"><circle cx="10" cy="7" r="3.2"/><path d="M4.5 16.5 a5.5 5.5 0 0 1 11 0"/></g>
    <g id="ic-truck" fill="none" stroke="currentColor" stroke-width="1.6" stroke-linejoin="round" stroke-linecap="round"><path d="M2.5 6 h8 v7 h-8 z"/><path d="M10.5 8.5 h3.2 l2.4 2.3 v2.2 h-5.6 z"/><circle cx="6" cy="15" r="1.5"/><circle cx="13.7" cy="15" r="1.5"/></g>
    <g id="ic-box" fill="none" stroke="currentColor" stroke-width="1.6" stroke-linejoin="round" stroke-linecap="round"><path d="M10 2.6 l6.4 3.5 v7.8 l-6.4 3.5 -6.4-3.5 v-7.8z"/><path d="M3.6 6.1 L10 9.6 l6.4-3.5 M10 9.6 V17.4"/></g>
    <g id="ic-cart" fill="none" stroke="currentColor" stroke-width="1.6" stroke-linejoin="round" stroke-linecap="round"><path d="M3 4 h2.2 l1.8 8.4 h7.6 l1.6-5.8 H6.2"/><circle cx="8" cy="16" r="1.3"/><circle cx="14.5" cy="16" r="1.3"/></g>
    <g id="ic-building" fill="none" stroke="currentColor" stroke-width="1.6" stroke-linejoin="round"><rect x="4.5" y="3.5" width="11" height="14" rx="1.2"/><path d="M7.5 7 h1 M11.5 7 h1 M7.5 10 h1 M11.5 10 h1"/><path d="M8.5 17.5 v-3 h3 v3"/></g>
    <g id="ic-bill" fill="none" stroke="currentColor" stroke-width="1.6" stroke-linejoin="round" stroke-linecap="round"><path d="M5 2.6 h10 v15 l-2-1.3 -2 1.3 -2-1.3 -2 1.3 -2-1.3z"/><path d="M7.4 7 h5.2 M7.4 10 h5.2 M7.4 13 h3.2"/></g>
    <g id="ic-card" fill="none" stroke="currentColor" stroke-width="1.6" stroke-linejoin="round"><rect x="2.5" y="5" width="15" height="10" rx="2"/><path d="M2.5 8.5 h15 M5 12 h3"/></g>
    <g id="ic-chart" fill="none" stroke="currentColor" stroke-width="1.6" stroke-linejoin="round" stroke-linecap="round"><path d="M3 16.5 h14"/><rect x="4.5" y="9" width="2.6" height="5.5"/><rect x="8.7" y="6" width="2.6" height="8.5"/><rect x="12.9" y="11" width="2.6" height="3.5"/></g>
    <g id="ic-slider" fill="none" stroke="currentColor" stroke-width="1.6" stroke-linecap="round"><path d="M3 7 h14 M3 13 h14"/><circle cx="8" cy="7" r="1.9" fill="#fff"/><circle cx="13" cy="13" r="1.9" fill="#fff"/></g>
    <g id="ic-search" fill="none" stroke="currentColor" stroke-width="1.7" stroke-linecap="round"><circle cx="9" cy="9" r="5.5"/><path d="M13.2 13.2 L17.2 17.2"/></g>
    <g id="ic-bell" fill="none" stroke="currentColor" stroke-width="1.6" stroke-linejoin="round" stroke-linecap="round"><path d="M10 3 a4.6 4.6 0 0 1 4.6 4.6 c0 4 1.4 5.4 1.4 5.4 h-12 s1.4-1.4 1.4-5.4 a4.6 4.6 0 0 1 4.6-4.6z"/><path d="M8.3 16 a1.8 1.8 0 0 0 3.4 0"/></g>
    <g id="ic-menu" fill="none" stroke="currentColor" stroke-width="1.8" stroke-linecap="round"><path d="M3 6 h16 M3 11 h16 M3 16 h16"/></g>
    <g id="ic-check" fill="none" stroke="currentColor" stroke-width="1.8" stroke-linecap="round" stroke-linejoin="round"><path d="M4 10.5 l3.6 3.6 L16 6"/></g>
    <g id="ic-chevd" fill="none" stroke="currentColor" stroke-width="1.7" stroke-linecap="round" stroke-linejoin="round"><path d="M5.5 8 L10 12.5 L14.5 8"/></g>
    <g id="ic-plus" fill="none" stroke="currentColor" stroke-width="1.8" stroke-linecap="round"><path d="M10 4 V16 M4 10 H16"/></g>
  </defs>
  <style>
    .navi{fill:#5A6A85;font-weight:500}.col{fill:#8A95A5;font-weight:600;letter-spacing:.4px}
    .h{fill:#2A3547;font-weight:600}.lbl{fill:#5A6A85;font-weight:500}.cell{fill:#2A3547;font-weight:500}.sub{fill:#5A6A85;font-weight:400}.mut{fill:#8A95A5;font-weight:500}.val{fill:#2A3547;font-weight:500}.lnk{fill:#c479c2;font-weight:600}
  </style>
  <rect width="1440" height="740" fill="#F4F6FB"/>
  <rect x="0" y="0" width="256" height="740" fill="#FFFFFF"/><line x1="256" y1="0" x2="256" y2="740" stroke="#ECEFF4"/>
  <rect x="24" y="21" width="30" height="30" rx="8" fill="#c479c2"/><text x="39" y="42" font-size="17" font-weight="700" fill="#FFFFFF" text-anchor="middle">S</text><text x="66" y="42" font-size="19" font-weight="700" fill="#2A3547">Squibbon</text>
  <text x="24" y="90" class="col" font-size="11">SHOP</text>
  <g style="color:#5A6A85"><use href="#ic-grid" x="22" y="100" width="18" height="18"/></g><text x="50" y="114" class="navi" font-size="12.5">Dashboard</text>
  <g style="color:#5A6A85"><use href="#ic-board" x="22" y="138" width="18" height="18"/></g><text x="50" y="152" class="navi" font-size="12.5">Workflow</text>
  <g style="color:#5A6A85"><use href="#ic-clip" x="22" y="177" width="18" height="18"/></g><text x="50" y="191" class="navi" font-size="12.5">Work orders</text>
  <g style="color:#5A6A85"><use href="#ic-user" x="22" y="214" width="18" height="18"/></g><text x="50" y="228" class="navi" font-size="12.5">Customers</text>
  <g style="color:#5A6A85"><use href="#ic-truck" x="22" y="252" width="18" height="18"/></g><text x="50" y="266" class="navi" font-size="12.5">Vehicles</text>
  <text x="24" y="304" class="col" font-size="11">PARTS &amp; VENDORS</text>
  <g style="color:#5A6A85"><use href="#ic-box" x="22" y="314" width="18" height="18"/></g><text x="50" y="328" class="navi" font-size="12.5">Inventory / parts</text>
  <rect x="12" y="347" width="232" height="28" rx="7" fill="#FFEBFE"/>
  <g style="color:#c479c2"><use href="#ic-cart" x="22" y="352" width="18" height="18"/></g><text x="50" y="366" font-size="12.5" font-weight="600" fill="#c479c2">Purchase orders</text>
  <g style="color:#5A6A85"><use href="#ic-building" x="22" y="390" width="18" height="18"/></g><text x="50" y="404" class="navi" font-size="12.5">Vendors</text>
  <text x="24" y="442" class="col" font-size="11">BILLING</text>
  <g style="color:#5A6A85"><use href="#ic-bill" x="22" y="452" width="18" height="18"/></g><text x="50" y="466" class="navi" font-size="12.5">Invoices</text>
  <g style="color:#5A6A85"><use href="#ic-card" x="22" y="490" width="18" height="18"/></g><text x="50" y="504" class="navi" font-size="12.5">Payments</text>
  <g style="color:#5A6A85"><use href="#ic-chart" x="22" y="528" width="18" height="18"/></g><text x="50" y="542" class="navi" font-size="12.5">Reports</text>
  <text x="24" y="580" class="col" font-size="11">SETTINGS</text>
  <g style="color:#5A6A85"><use href="#ic-slider" x="22" y="590" width="18" height="18"/></g><text x="50" y="604" class="navi" font-size="12.5">Shop settings</text>

  <rect x="256" y="0" width="1184" height="72" fill="#FFFFFF"/><line x1="256" y1="72" x2="1440" y2="72" stroke="#ECEFF4"/>
  <g style="color:#5A6A85"><use href="#ic-menu" x="282" y="26" width="20" height="20"/></g>
  <rect x="324" y="18" width="300" height="36" rx="18" fill="#F4F6FB"/><g style="color:#8A95A5"><use href="#ic-search" x="340" y="27" width="18" height="18"/></g><text x="366" y="41" font-size="12.5" fill="#9AA4B2">Search PO, vendor or part…</text>
  <rect x="1108" y="17" width="170" height="38" rx="8" fill="#c479c2"/><g style="color:#FFFFFF"><use href="#ic-check" x="1132" y="28" width="16" height="16"/></g><text x="1156" y="41" font-size="12.5" font-weight="600" fill="#FFFFFF">Send order</text>
  <g style="color:#5A6A85"><use href="#ic-bell" x="1300" y="26" width="20" height="20"/></g><circle cx="1317" cy="27" r="4" fill="#FA5A5A"/>
  <text x="1368" y="33" font-size="12.5" font-weight="600" fill="#2A3547" text-anchor="end">T. Hopper</text><text x="1368" y="47" font-size="10.5" fill="#8A95A5" text-anchor="end">Advisor</text>
  <circle cx="1392" cy="36" r="16" fill="#FFEBFE"/><text x="1392" y="40" font-size="12" font-weight="700" fill="#c479c2" text-anchor="middle">TH</text>

  <text x="280" y="110" class="mut" font-size="12">Purchase orders  ›  PO-1051</text>
  <text x="280" y="136" font-size="21" font-weight="700" fill="#2A3547">PO-1051</text>
  <rect x="380" y="121" width="78" height="22" rx="11" fill="#EAF2FE"/><text x="419" y="136" font-size="11" font-weight="600" fill="#1A5FB4" text-anchor="middle">Ordered</text>
  <rect x="466" y="121" width="92" height="22" rx="11" fill="#EEF1F6"/><text x="512" y="136" font-size="11" font-weight="600" fill="#5A6A85" text-anchor="middle">Parts PO</text>

  <rect x="280" y="160" width="1136" height="500" rx="12" fill="#FFFFFF" stroke="#ECEFF4" filter="url(#sh)"/>
  <text x="304" y="192" class="h" font-size="13.5">Order details</text>
  <text x="304" y="210" class="lbl" font-size="12">Vendor</text><rect x="304" y="218" width="520" height="38" rx="8" fill="#FFFFFF" stroke="#DDE3EC"/><g style="color:#8A95A5"><use href="#ic-building" x="318" y="229" width="16" height="16"/></g><text x="344" y="242" class="val" font-size="13">NAPA Auto Parts #221</text><g style="color:#8A95A5"><use href="#ic-chevd" x="798" y="230" width="16" height="16"/></g>
  <text x="856" y="210" class="lbl" font-size="12">Provider / integration</text><rect x="856" y="218" width="520" height="38" rx="8" fill="#FFFFFF" stroke="#DDE3EC"/><text x="874" y="242" class="val" font-size="13">PartsTech</text><g style="color:#8A95A5"><use href="#ic-chevd" x="1350" y="230" width="16" height="16"/></g>
  <text x="304" y="266" class="lbl" font-size="12">Linked work order</text><rect x="304" y="274" width="250" height="38" rx="8" fill="#FFFFFF" stroke="#DDE3EC"/><text x="322" y="298" class="val" font-size="13">WO-10428</text>
  <text x="570" y="266" class="lbl" font-size="12">Ship-to</text><rect x="570" y="274" width="254" height="38" rx="8" fill="#FFFFFF" stroke="#DDE3EC"/><text x="588" y="298" class="val" font-size="13">Mississauga shop</text>
  <text x="856" y="266" class="lbl" font-size="12">Ordered / expected</text><rect x="856" y="274" width="520" height="38" rx="8" fill="#FFFFFF" stroke="#DDE3EC"/><text x="874" y="298" class="val" font-size="13">20 Jun 2026  →  22 Jun 2026</text>

  <text x="304" y="354" class="h" font-size="13.5">Lines</text><text x="1392" y="354" class="lnk" font-size="12" text-anchor="end">+ Add line</text>
  <g class="col" font-size="10.5"><text x="304" y="384">PART</text><text x="620" y="384">VENDOR #</text><text x="800" y="384">QTY</text><text x="888" y="384">RECEIVED</text><text x="1030" y="384" text-anchor="end">UNIT COST</text><text x="1136" y="384" text-anchor="end">EXT</text></g>
  <line x1="304" y1="394" x2="1136" y2="394" stroke="#ECEFF4"/>
  <text x="304" y="420" class="cell" font-size="12.5">Rotors — RT-77</text><text x="304" y="436" class="mut" font-size="10.5">Special order → WO-10428 brake job</text><text x="620" y="420" class="sub" font-size="12.5">RAY-580-77</text><text x="800" y="420" class="sub" font-size="12.5">2</text><text x="900" y="420" class="sub" font-size="12.5">0</text><text x="1030" y="420" class="cell" font-size="12.5" text-anchor="end">$30.00</text><text x="1136" y="420" class="cell" font-size="12.5" text-anchor="end">$60.00</text>
  <line x1="304" y1="452" x2="1136" y2="452" stroke="#ECEFF4"/>

  <text x="304" y="500" class="mut" font-size="11.5">Special-order parts link back to the WO part line and update inventory cost &amp; on-hand on receipt.</text>
  <text x="304" y="524" class="mut" font-size="11.5">Switch Kind → Sublet order to raise an outside-repair PO instead.</text>

  <text x="980" y="500" class="sub" font-size="12.5">Subtotal</text><text x="1136" y="500" class="cell" font-size="12.5" text-anchor="end">$60.00</text>
  <text x="980" y="524" class="sub" font-size="12.5">Shipping</text><text x="1136" y="524" class="cell" font-size="12.5" text-anchor="end">$8.00</text>
  <text x="980" y="548" class="sub" font-size="12.5">Tax (13%)</text><text x="1136" y="548" class="cell" font-size="12.5" text-anchor="end">$8.84</text>
  <line x1="980" y1="562" x2="1136" y2="562" stroke="#ECEFF4"/>
  <text x="980" y="586" font-size="13" font-weight="700" fill="#2A3547">Total</text><text x="1136" y="586" font-size="13" font-weight="700" fill="#2A3547" text-anchor="end">$76.84</text>

  <rect x="1080" y="680" width="0" height="0"/>
  <rect x="918" y="620" width="100" height="34" rx="8" fill="#FFFFFF" stroke="#DDE3EC"/><text x="968" y="642" font-size="12.5" font-weight="600" fill="#5A6A85" text-anchor="middle">Cancel</text>
  <rect x="1028" y="620" width="120" height="34" rx="8" fill="#FFFFFF" stroke="#DDE3EC"/><text x="1088" y="642" font-size="12.5" font-weight="600" fill="#5A6A85" text-anchor="middle">Save draft</text>
  <rect x="1158" y="620" width="234" height="34" rx="8" fill="#c479c2"/><text x="1275" y="642" font-size="12.5" font-weight="600" fill="#FFFFFF" text-anchor="middle">Send order to vendor</text>
</svg>
