<svg viewBox="0 0 1440 640" xmlns="http://www.w3.org/2000/svg" font-family="'Plus Jakarta Sans','Inter','Segoe UI',system-ui,sans-serif" role="img" aria-labelledby="t">
  <title id="t">Squibbon Shop — Receive PO &amp; reconcile</title>
  <defs>
    <filter id="sh" x="-6%" y="-10%" width="112%" height="124%"><feDropShadow dx="0" dy="3" stdDeviation="6" flood-color="#2A3547" flood-opacity="0.07"/></filter>
    <g id="ic-grid" fill="none" stroke="currentColor" stroke-width="1.6"><rect x="3" y="3" width="6" height="6" rx="1.5"/><rect x="11" y="3" width="6" height="6" rx="1.5"/><rect x="3" y="11" width="6" height="6" rx="1.5"/><rect x="11" y="11" width="6" height="6" rx="1.5"/></g>
    <g id="ic-board" fill="none" stroke="currentColor" stroke-width="1.6"><rect x="3" y="3.5" width="4" height="13" rx="1"/><rect x="8" y="3.5" width="4" height="9" rx="1"/><rect x="13" y="3.5" width="4" height="13" rx="1"/></g>
    <g id="ic-clip" fill="none" stroke="currentColor" stroke-width="1.6" stroke-linejoin="round" stroke-linecap="round"><rect x="4.5" y="3.5" width="11" height="13.5" rx="2"/><rect x="7.5" y="2" width="5" height="3" rx="1"/><path d="M7.2 9 h5.6 M7.2 12 h5.6"/></g>
    <g id="ic-user" fill="none" stroke="currentColor" stroke-width="1.6" stroke-linecap="round"><circle cx="10" cy="7" r="3.2"/><path d="M4.5 16.5 a5.5 5.5 0 0 1 11 0"/></g>
    <g id="ic-truck" fill="none" stroke="currentColor" stroke-width="1.6" stroke-linejoin="round" stroke-linecap="round"><path d="M2.5 6 h8 v7 h-8 z"/><path d="M10.5 8.5 h3.2 l2.4 2.3 v2.2 h-5.6 z"/><circle cx="6" cy="15" r="1.5"/><circle cx="13.7" cy="15" r="1.5"/></g>
    <g id="ic-box" fill="none" stroke="currentColor" stroke-width="1.6" stroke-linejoin="round" stroke-linecap="round"><path d="M10 2.6 l6.4 3.5 v7.8 l-6.4 3.5 -6.4-3.5 v-7.8z"/><path d="M3.6 6.1 L10 9.6 l6.4-3.5 M10 9.6 V17.4"/></g>
    <g id="ic-cart" fill="none" stroke="currentColor" stroke-width="1.6" stroke-linejoin="round" stroke-linecap="round"><path d="M3 4 h2.2 l1.8 8.4 h7.6 l1.6-5.8 H6.2"/><circle cx="8" cy="16" r="1.3"/><circle cx="14.5" cy="16" r="1.3"/></g>
    <g id="ic-building" fill="none" stroke="currentColor" stroke-width="1.6" stroke-linejoin="round"><rect x="4.5" y="3.5" width="11" height="14" rx="1.2"/><path d="M7.5 7 h1 M11.5 7 h1 M7.5 10 h1 M11.5 10 h1"/><path d="M8.5 17.5 v-3 h3 v3"/></g>
    <g id="ic-bill" fill="none" stroke="currentColor" stroke-width="1.6" stroke-linejoin="round" stroke-linecap="round"><path d="M5 2.6 h10 v15 l-2-1.3 -2 1.3 -2-1.3 -2 1.3 -2-1.3z"/><path d="M7.4 7 h5.2 M7.4 10 h5.2 M7.4 13 h3.2"/></g>
    <g id="ic-card" fill="none" stroke="currentColor" stroke-width="1.6" stroke-linejoin="round"><rect x="2.5" y="5" width="15" height="10" rx="2"/><path d="M2.5 8.5 h15 M5 12 h3"/></g>
    <g id="ic-chart" fill="none" stroke="currentColor" stroke-width="1.6" stroke-linejoin="round" stroke-linecap="round"><path d="M3 16.5 h14"/><rect x="4.5" y="9" width="2.6" height="5.5"/><rect x="8.7" y="6" width="2.6" height="8.5"/><rect x="12.9" y="11" width="2.6" height="3.5"/></g>
    <g id="ic-slider" fill="none" stroke="currentColor" stroke-width="1.6" stroke-linecap="round"><path d="M3 7 h14 M3 13 h14"/><circle cx="8" cy="7" r="1.9" fill="#fff"/><circle cx="13" cy="13" r="1.9" fill="#fff"/></g>
    <g id="ic-search" fill="none" stroke="currentColor" stroke-width="1.7" stroke-linecap="round"><circle cx="9" cy="9" r="5.5"/><path d="M13.2 13.2 L17.2 17.2"/></g>
    <g id="ic-bell" fill="none" stroke="currentColor" stroke-width="1.6" stroke-linejoin="round" stroke-linecap="round"><path d="M10 3 a4.6 4.6 0 0 1 4.6 4.6 c0 4 1.4 5.4 1.4 5.4 h-12 s1.4-1.4 1.4-5.4 a4.6 4.6 0 0 1 4.6-4.6z"/><path d="M8.3 16 a1.8 1.8 0 0 0 3.4 0"/></g>
    <g id="ic-menu" fill="none" stroke="currentColor" stroke-width="1.8" stroke-linecap="round"><path d="M3 6 h16 M3 11 h16 M3 16 h16"/></g>
    <g id="ic-check" fill="none" stroke="currentColor" stroke-width="1.8" stroke-linecap="round" stroke-linejoin="round"><path d="M4 10.5 l3.6 3.6 L16 6"/></g>
  </defs>
  <style>
    .navi{fill:#5A6A85;font-weight:500}.col{fill:#8A95A5;font-weight:600;letter-spacing:.4px}
    .h{fill:#2A3547;font-weight:600}.lbl{fill:#5A6A85;font-weight:500}.cell{fill:#2A3547;font-weight:500}.sub{fill:#5A6A85;font-weight:400}.mut{fill:#8A95A5;font-weight:500}.val{fill:#2A3547;font-weight:500}
  </style>
  <rect width="1440" height="640" fill="#F4F6FB"/>
  <rect x="0" y="0" width="256" height="640" fill="#FFFFFF"/><line x1="256" y1="0" x2="256" y2="640" stroke="#ECEFF4"/>
  <rect x="24" y="21" width="30" height="30" rx="8" fill="#c479c2"/><text x="39" y="42" font-size="17" font-weight="700" fill="#FFFFFF" text-anchor="middle">S</text><text x="66" y="42" font-size="19" font-weight="700" fill="#2A3547">Squibbon</text>
  <text x="24" y="90" class="col" font-size="11">SHOP</text>
  <g style="color:#5A6A85"><use href="#ic-grid" x="22" y="100" width="18" height="18"/></g><text x="50" y="114" class="navi" font-size="12.5">Dashboard</text>
  <g style="color:#5A6A85"><use href="#ic-board" x="22" y="138" width="18" height="18"/></g><text x="50" y="152" class="navi" font-size="12.5">Workflow</text>
  <g style="color:#5A6A85"><use href="#ic-clip" x="22" y="177" width="18" height="18"/></g><text x="50" y="191" class="navi" font-size="12.5">Work orders</text>
  <g style="color:#5A6A85"><use href="#ic-user" x="22" y="214" width="18" height="18"/></g><text x="50" y="228" class="navi" font-size="12.5">Customers</text>
  <g style="color:#5A6A85"><use href="#ic-truck" x="22" y="252" width="18" height="18"/></g><text x="50" y="266" class="navi" font-size="12.5">Vehicles</text>
  <text x="24" y="304" class="col" font-size="11">PARTS &amp; VENDORS</text>
  <g style="color:#5A6A85"><use href="#ic-box" x="22" y="314" width="18" height="18"/></g><text x="50" y="328" class="navi" font-size="12.5">Inventory / parts</text>
  <rect x="12" y="347" width="232" height="28" rx="7" fill="#FFEBFE"/>
  <g style="color:#c479c2"><use href="#ic-cart" x="22" y="352" width="18" height="18"/></g><text x="50" y="366" font-size="12.5" font-weight="600" fill="#c479c2">Purchase orders</text>
  <g style="color:#5A6A85"><use href="#ic-building" x="22" y="390" width="18" height="18"/></g><text x="50" y="404" class="navi" font-size="12.5">Vendors</text>
  <text x="24" y="442" class="col" font-size="11">BILLING</text>
  <g style="color:#5A6A85"><use href="#ic-bill" x="22" y="452" width="18" height="18"/></g><text x="50" y="466" class="navi" font-size="12.5">Invoices</text>
  <g style="color:#5A6A85"><use href="#ic-card" x="22" y="490" width="18" height="18"/></g><text x="50" y="504" class="navi" font-size="12.5">Payments</text>
  <g style="color:#5A6A85"><use href="#ic-chart" x="22" y="528" width="18" height="18"/></g><text x="50" y="542" class="navi" font-size="12.5">Reports</text>

  <rect x="256" y="0" width="1184" height="72" fill="#FFFFFF"/><line x1="256" y1="72" x2="1440" y2="72" stroke="#ECEFF4"/>
  <g style="color:#5A6A85"><use href="#ic-menu" x="282" y="26" width="20" height="20"/></g>
  <rect x="324" y="18" width="300" height="36" rx="18" fill="#F4F6FB"/><g style="color:#8A95A5"><use href="#ic-search" x="340" y="27" width="18" height="18"/></g><text x="366" y="41" font-size="12.5" fill="#9AA4B2">Search PO, vendor or part…</text>
  <rect x="1108" y="17" width="170" height="38" rx="8" fill="#c479c2"/><g style="color:#FFFFFF"><use href="#ic-check" x="1130" y="28" width="16" height="16"/></g><text x="1154" y="41" font-size="12.5" font-weight="600" fill="#FFFFFF">Confirm receipt</text>
  <g style="color:#5A6A85"><use href="#ic-bell" x="1300" y="26" width="20" height="20"/></g><circle cx="1317" cy="27" r="4" fill="#FA5A5A"/>
  <text x="1368" y="33" font-size="12.5" font-weight="600" fill="#2A3547" text-anchor="end">T. Hopper</text><text x="1368" y="47" font-size="10.5" fill="#8A95A5" text-anchor="end">Parts</text>
  <circle cx="1392" cy="36" r="16" fill="#FFEBFE"/><text x="1392" y="40" font-size="12" font-weight="700" fill="#c479c2" text-anchor="middle">TH</text>

  <text x="280" y="110" class="mut" font-size="12">Purchase orders  ›  PO-1051  ›  Receive</text>
  <text x="280" y="136" font-size="21" font-weight="700" fill="#2A3547">Receive PO-1051 — NAPA #221</text>

  <rect x="280" y="160" width="720" height="400" rx="12" fill="#FFFFFF" stroke="#ECEFF4" filter="url(#sh)"/>
  <text x="304" y="192" class="h" font-size="15">Receiving</text>
  <text x="304" y="222" class="lbl" font-size="12">Vendor invoice #</text><rect x="304" y="230" width="320" height="38" rx="8" fill="#FFFFFF" stroke="#DDE3EC"/><text x="322" y="254" class="val" font-size="13">NAPA-558210</text>
  <text x="656" y="222" class="lbl" font-size="12">Invoice date</text><rect x="656" y="230" width="320" height="38" rx="8" fill="#FFFFFF" stroke="#DDE3EC"/><text x="674" y="254" class="val" font-size="13">21 Jun 2026</text>
  <text x="304" y="296" class="lbl" font-size="12">Freight</text><rect x="304" y="304" width="320" height="38" rx="8" fill="#FFFFFF" stroke="#DDE3EC"/><text x="322" y="328" class="val" font-size="13">$8.00</text>
  <text x="656" y="296" class="lbl" font-size="12">Received by</text><rect x="656" y="304" width="320" height="38" rx="8" fill="#F4F6FB"/><text x="674" y="328" class="val" font-size="13">T. Hopper · 21 Jun</text>

  <g class="col" font-size="10.5"><text x="304" y="372">PART</text><text x="560" y="372">ORDERED</text><text x="660" y="372">RECEIVE NOW</text><text x="826" y="372">UNIT COST</text><text x="976" y="372" text-anchor="end">CONDITION</text></g>
  <line x1="304" y1="382" x2="976" y2="382" stroke="#ECEFF4"/>
  <text x="304" y="412" class="cell" font-size="12.5">Rotors — RT-77</text><text x="304" y="428" class="mut" font-size="10.5">RAY-580-77 · bin C-04</text><text x="560" y="412" class="sub" font-size="12.5">2</text><rect x="660" y="396" width="56" height="30" rx="7" fill="#FFFFFF" stroke="#DDE3EC"/><text x="688" y="416" class="val" font-size="13" text-anchor="middle">2</text><text x="826" y="412" class="cell" font-size="12.5">$30.00</text><rect x="906" y="400" width="70" height="20" rx="10" fill="#E6FBF5"/><text x="941" y="414" font-size="10.5" font-weight="600" fill="#0F9C96" text-anchor="middle">Good</text>
  <line x1="304" y1="448" x2="976" y2="448" stroke="#F4F6FA"/>
  <text x="304" y="492" class="mut" font-size="11.5">Sublet returns use this same flow — mark the sublet line returned and enter the vendor invoice (PO-1052).</text>

  <rect x="1032" y="160" width="384" height="400" rx="12" fill="#FFFFFF" stroke="#ECEFF4" filter="url(#sh)"/>
  <text x="1052" y="192" class="h" font-size="15">Reconcile &amp; update</text>
  <text x="1052" y="224" class="sub" font-size="12.5">PO cost (est.)</text><text x="1396" y="224" class="cell" font-size="12.5" text-anchor="end">$60.00</text>
  <line x1="1052" y1="238" x2="1396" y2="238" stroke="#F4F6FA"/>
  <text x="1052" y="262" class="sub" font-size="12.5">Vendor invoice</text><text x="1396" y="262" class="cell" font-size="12.5" text-anchor="end">$62.00</text>
  <line x1="1052" y1="276" x2="1396" y2="276" stroke="#F4F6FA"/>
  <text x="1052" y="300" class="cell" font-size="12.5">Variance</text><text x="1396" y="300" font-size="12.5" font-weight="700" fill="#A8720F" text-anchor="end">+$2.00</text>
  <rect x="1052" y="324" width="344" height="120" rx="10" fill="#F4F6FB"/>
  <text x="1072" y="350" class="lbl" font-size="11">ON CONFIRM</text>
  <text x="1072" y="372" class="cell" font-size="12.5">Inventory +2 · bin C-04</text>
  <text x="1072" y="392" class="cell" font-size="12.5">Unit cost updated → $31.00</text>
  <text x="1072" y="412" class="cell" font-size="12.5">WO-10428 rotors → received</text>
  <text x="1072" y="432" class="cell" font-size="12.5">PO status → Received / Fulfilled</text>
  <rect x="1052" y="460" width="344" height="40" rx="8" fill="#c479c2"/><g style="color:#FFFFFF"><use href="#ic-check" x="1172" y="471" width="16" height="16"/></g><text x="1196" y="485" font-size="12.5" font-weight="600" fill="#FFFFFF">Confirm receipt</text>
  <text x="1052" y="528" class="mut" font-size="11">Partial receipts keep the PO open with a backorder line.</text>
</svg>
