<svg viewBox="0 0 1440 912" xmlns="http://www.w3.org/2000/svg" font-family="'Plus Jakarta Sans','Inter','Segoe UI',system-ui,sans-serif" role="img" aria-labelledby="t">
  <title id="t">Squibbon Shop — Vendors</title>
  <defs>
    <filter id="sh" x="-6%" y="-10%" width="112%" height="124%"><feDropShadow dx="0" dy="3" stdDeviation="6" flood-color="#2A3547" flood-opacity="0.07"/></filter>
    <g id="ic-grid" fill="none" stroke="currentColor" stroke-width="1.6"><rect x="3" y="3" width="6" height="6" rx="1.5"/><rect x="11" y="3" width="6" height="6" rx="1.5"/><rect x="3" y="11" width="6" height="6" rx="1.5"/><rect x="11" y="11" width="6" height="6" rx="1.5"/></g>
    <g id="ic-board" fill="none" stroke="currentColor" stroke-width="1.6"><rect x="3" y="3.5" width="4" height="13" rx="1"/><rect x="8" y="3.5" width="4" height="9" rx="1"/><rect x="13" y="3.5" width="4" height="13" rx="1"/></g>
    <g id="ic-clip" fill="none" stroke="currentColor" stroke-width="1.6" stroke-linejoin="round" stroke-linecap="round"><rect x="4.5" y="3.5" width="11" height="13.5" rx="2"/><rect x="7.5" y="2" width="5" height="3" rx="1"/><path d="M7.2 9 h5.6 M7.2 12 h5.6"/></g>
    <g id="ic-user" fill="none" stroke="currentColor" stroke-width="1.6" stroke-linecap="round"><circle cx="10" cy="7" r="3.2"/><path d="M4.5 16.5 a5.5 5.5 0 0 1 11 0"/></g>
    <g id="ic-truck" fill="none" stroke="currentColor" stroke-width="1.6" stroke-linejoin="round" stroke-linecap="round"><path d="M2.5 6 h8 v7 h-8 z"/><path d="M10.5 8.5 h3.2 l2.4 2.3 v2.2 h-5.6 z"/><circle cx="6" cy="15" r="1.5"/><circle cx="13.7" cy="15" r="1.5"/></g>
    <g id="ic-box" fill="none" stroke="currentColor" stroke-width="1.6" stroke-linejoin="round" stroke-linecap="round"><path d="M10 2.6 l6.4 3.5 v7.8 l-6.4 3.5 -6.4-3.5 v-7.8z"/><path d="M3.6 6.1 L10 9.6 l6.4-3.5 M10 9.6 V17.4"/></g>
    <g id="ic-cart" fill="none" stroke="currentColor" stroke-width="1.6" stroke-linejoin="round" stroke-linecap="round"><path d="M3 4 h2.2 l1.8 8.4 h7.6 l1.6-5.8 H6.2"/><circle cx="8" cy="16" r="1.3"/><circle cx="14.5" cy="16" r="1.3"/></g>
    <g id="ic-building" fill="none" stroke="currentColor" stroke-width="1.6" stroke-linejoin="round"><rect x="4.5" y="3.5" width="11" height="14" rx="1.2"/><path d="M7.5 7 h1 M11.5 7 h1 M7.5 10 h1 M11.5 10 h1"/><path d="M8.5 17.5 v-3 h3 v3"/></g>
    <g id="ic-bill" fill="none" stroke="currentColor" stroke-width="1.6" stroke-linejoin="round" stroke-linecap="round"><path d="M5 2.6 h10 v15 l-2-1.3 -2 1.3 -2-1.3 -2 1.3 -2-1.3z"/><path d="M7.4 7 h5.2 M7.4 10 h5.2 M7.4 13 h3.2"/></g>
    <g id="ic-card" fill="none" stroke="currentColor" stroke-width="1.6" stroke-linejoin="round"><rect x="2.5" y="5" width="15" height="10" rx="2"/><path d="M2.5 8.5 h15 M5 12 h3"/></g>
    <g id="ic-chart" fill="none" stroke="currentColor" stroke-width="1.6" stroke-linejoin="round" stroke-linecap="round"><path d="M3 16.5 h14"/><rect x="4.5" y="9" width="2.6" height="5.5"/><rect x="8.7" y="6" width="2.6" height="8.5"/><rect x="12.9" y="11" width="2.6" height="3.5"/></g>
    <g id="ic-slider" fill="none" stroke="currentColor" stroke-width="1.6" stroke-linecap="round"><path d="M3 7 h14 M3 13 h14"/><circle cx="8" cy="7" r="1.9" fill="#fff"/><circle cx="13" cy="13" r="1.9" fill="#fff"/></g>
    <g id="ic-search" fill="none" stroke="currentColor" stroke-width="1.7" stroke-linecap="round"><circle cx="9" cy="9" r="5.5"/><path d="M13.2 13.2 L17.2 17.2"/></g>
    <g id="ic-bell" fill="none" stroke="currentColor" stroke-width="1.6" stroke-linejoin="round" stroke-linecap="round"><path d="M10 3 a4.6 4.6 0 0 1 4.6 4.6 c0 4 1.4 5.4 1.4 5.4 h-12 s1.4-1.4 1.4-5.4 a4.6 4.6 0 0 1 4.6-4.6z"/><path d="M8.3 16 a1.8 1.8 0 0 0 3.4 0"/></g>
    <g id="ic-menu" fill="none" stroke="currentColor" stroke-width="1.8" stroke-linecap="round"><path d="M3 6 h16 M3 11 h16 M3 16 h16"/></g>
    <g id="ic-plus" fill="none" stroke="currentColor" stroke-width="1.8" stroke-linecap="round"><path d="M10 4 V16 M4 10 H16"/></g>
    <g id="ic-search2" fill="none" stroke="currentColor" stroke-width="1.7" stroke-linecap="round"><circle cx="9" cy="9" r="5.5"/><path d="M13.2 13.2 L17.2 17.2"/></g>
  </defs>
  <style>
    .navi{fill:#5A6A85;font-weight:500}.col{fill:#8A95A5;font-weight:600;letter-spacing:.4px}
    .h{fill:#2A3547;font-weight:600}.lbl{fill:#8A95A5;font-weight:500}.cell{fill:#2A3547;font-weight:500}.sub{fill:#5A6A85;font-weight:400}.mut{fill:#8A95A5;font-weight:500}.pill{font-weight:600}.lnk{fill:#c479c2;font-weight:600}
  </style>
  <rect width="1440" height="912" fill="#F4F6FB"/>
  <rect x="0" y="0" width="256" height="912" fill="#FFFFFF"/><line x1="256" y1="0" x2="256" y2="912" stroke="#ECEFF4"/>
  <rect x="24" y="21" width="30" height="30" rx="8" fill="#c479c2"/><text x="39" y="42" font-size="17" font-weight="700" fill="#FFFFFF" text-anchor="middle">S</text><text x="66" y="42" font-size="19" font-weight="700" fill="#2A3547">Squibbon</text>
  <text x="24" y="90" class="col" font-size="11">SHOP</text>
  <g style="color:#5A6A85"><use href="#ic-grid" x="22" y="100" width="18" height="18"/></g><text x="50" y="114" class="navi" font-size="12.5">Dashboard</text>
  <g style="color:#5A6A85"><use href="#ic-board" x="22" y="138" width="18" height="18"/></g><text x="50" y="152" class="navi" font-size="12.5">Workflow</text>
  <g style="color:#5A6A85"><use href="#ic-clip" x="22" y="177" width="18" height="18"/></g><text x="50" y="191" class="navi" font-size="12.5">Work orders</text>
  <g style="color:#5A6A85"><use href="#ic-user" x="22" y="214" width="18" height="18"/></g><text x="50" y="228" class="navi" font-size="12.5">Customers</text>
  <g style="color:#5A6A85"><use href="#ic-truck" x="22" y="252" width="18" height="18"/></g><text x="50" y="266" class="navi" font-size="12.5">Vehicles</text>
  <text x="24" y="304" class="col" font-size="11">PARTS &amp; VENDORS</text>
  <g style="color:#5A6A85"><use href="#ic-box" x="22" y="314" width="18" height="18"/></g><text x="50" y="328" class="navi" font-size="12.5">Inventory / parts</text>
  <g style="color:#5A6A85"><use href="#ic-cart" x="22" y="352" width="18" height="18"/></g><text x="50" y="366" class="navi" font-size="12.5">Purchase orders</text>
  <rect x="12" y="385" width="232" height="28" rx="7" fill="#FFEBFE"/>
  <g style="color:#c479c2"><use href="#ic-building" x="22" y="390" width="18" height="18"/></g><text x="50" y="404" font-size="12.5" font-weight="600" fill="#c479c2">Vendors</text>
  <text x="24" y="442" class="col" font-size="11">BILLING</text>
  <g style="color:#5A6A85"><use href="#ic-bill" x="22" y="452" width="18" height="18"/></g><text x="50" y="466" class="navi" font-size="12.5">Invoices</text>
  <g style="color:#5A6A85"><use href="#ic-card" x="22" y="490" width="18" height="18"/></g><text x="50" y="504" class="navi" font-size="12.5">Payments</text>
  <g style="color:#5A6A85"><use href="#ic-chart" x="22" y="528" width="18" height="18"/></g><text x="50" y="542" class="navi" font-size="12.5">Reports</text>
  <text x="24" y="580" class="col" font-size="11">SETTINGS</text>
  <g style="color:#5A6A85"><use href="#ic-slider" x="22" y="590" width="18" height="18"/></g><text x="50" y="604" class="navi" font-size="12.5">Shop settings</text>

  <rect x="256" y="0" width="1184" height="72" fill="#FFFFFF"/><line x1="256" y1="72" x2="1440" y2="72" stroke="#ECEFF4"/>
  <g style="color:#5A6A85"><use href="#ic-menu" x="282" y="26" width="20" height="20"/></g>
  <rect x="324" y="18" width="300" height="36" rx="18" fill="#F4F6FB"/><g style="color:#8A95A5"><use href="#ic-search" x="340" y="27" width="18" height="18"/></g><text x="366" y="41" font-size="12.5" fill="#9AA4B2">Search vendors…</text>
  <rect x="1108" y="17" width="170" height="38" rx="8" fill="#c479c2"/><g style="color:#FFFFFF"><use href="#ic-plus" x="1140" y="28" width="16" height="16"/></g><text x="1164" y="41" font-size="12.5" font-weight="600" fill="#FFFFFF">Add vendor</text>
  <g style="color:#5A6A85"><use href="#ic-bell" x="1300" y="26" width="20" height="20"/></g><circle cx="1317" cy="27" r="4" fill="#FA5A5A"/>
  <text x="1368" y="33" font-size="12.5" font-weight="600" fill="#2A3547" text-anchor="end">T. Hopper</text><text x="1368" y="47" font-size="10.5" fill="#8A95A5" text-anchor="end">Advisor</text>
  <circle cx="1392" cy="36" r="16" fill="#FFEBFE"/><text x="1392" y="40" font-size="12" font-weight="700" fill="#c479c2" text-anchor="middle">TH</text>

  <text x="280" y="118" font-size="22" font-weight="700" fill="#2A3547">Vendors</text>
  <text x="280" y="140" font-size="13" fill="#5A6A85">Parts suppliers &amp; sublet vendors</text>

  <rect x="280" y="158" width="720" height="628" rx="12" fill="#FFFFFF" stroke="#ECEFF4" filter="url(#sh)"/>
  <rect x="304" y="184" width="320" height="34" rx="8" fill="#F4F6FB"/><g style="color:#8A95A5"><use href="#ic-search2" x="318" y="193" width="18" height="18"/></g><text x="344" y="206" font-size="12" fill="#9AA4B2">Search name or account #</text>
  <rect x="636" y="184" width="120" height="34" rx="8" fill="#FFFFFF" stroke="#DDE3EC"/><text x="652" y="206" class="cell" font-size="12">Type: All</text>
  <g class="col" font-size="10.5"><text x="304" y="256">VENDOR</text><text x="500" y="256">TYPE</text><text x="630" y="256">ACCOUNT #</text><text x="780" y="256">TERMS</text><text x="976" y="256" text-anchor="end">MARKUP</text></g>
  <line x1="304" y1="266" x2="976" y2="266" stroke="#ECEFF4"/>
  <g font-size="12.5">
  <text x="304" y="296" class="cell">NAPA Auto Parts #221</text><rect x="500" y="284" width="44" height="18" rx="9" fill="#E6FBFA"/><text x="522" y="297" class="pill" font-size="9.5" fill="#0F9C96" text-anchor="middle">Parts</text><text x="630" y="296" class="sub">5582-21</text><text x="780" y="296" class="sub">Net 30</text><text x="976" y="296" class="sub" text-anchor="end">matrix</text><line x1="304" y1="316" x2="976" y2="316" stroke="#F4F6FA"/>
  <text x="304" y="346" class="cell">PartsTech</text><rect x="500" y="334" width="76" height="18" rx="9" fill="#E6FBFA"/><text x="538" y="347" class="pill" font-size="9.5" fill="#0F9C96" text-anchor="middle">Parts · integ</text><text x="630" y="346" class="sub">—</text><text x="780" y="346" class="sub">—</text><text x="976" y="346" class="sub" text-anchor="end">matrix</text><line x1="304" y1="366" x2="976" y2="366" stroke="#F4F6FA"/>
  <text x="304" y="396" class="cell">Worldpac</text><rect x="500" y="384" width="44" height="18" rx="9" fill="#E6FBFA"/><text x="522" y="397" class="pill" font-size="9.5" fill="#0F9C96" text-anchor="middle">Parts</text><text x="630" y="396" class="sub">WP-4410</text><text x="780" y="396" class="sub">Net 15</text><text x="976" y="396" class="sub" text-anchor="end">matrix</text>
  <rect x="296" y="416" width="688" height="36" rx="8" fill="#FBF4FB"/>
  <text x="304" y="440" class="cell" font-weight="700">ClearView Glass</text><rect x="500" y="428" width="50" height="18" rx="9" fill="#FFEBFE"/><text x="525" y="441" class="pill" font-size="9.5" fill="#c479c2" text-anchor="middle">Sublet</text><text x="630" y="440" class="sub">CV-88</text><text x="780" y="440" class="sub">Net 30</text><text x="976" y="440" class="cell" text-anchor="end">28%</text>
  <text x="304" y="486" class="cell">TrueLine Alignment</text><rect x="500" y="474" width="50" height="18" rx="9" fill="#FFEBFE"/><text x="525" y="487" class="pill" font-size="9.5" fill="#c479c2" text-anchor="middle">Sublet</text><text x="630" y="486" class="sub">TL-12</text><text x="780" y="486" class="sub">COD</text><text x="976" y="486" class="cell" text-anchor="end">20%</text><line x1="304" y1="506" x2="976" y2="506" stroke="#F4F6FA"/>
  <text x="304" y="536" class="cell">Precision Machine</text><rect x="500" y="524" width="50" height="18" rx="9" fill="#FFEBFE"/><text x="525" y="537" class="pill" font-size="9.5" fill="#c479c2" text-anchor="middle">Sublet</text><text x="630" y="536" class="sub">PM-7</text><text x="780" y="536" class="sub">Net 30</text><text x="976" y="536" class="cell" text-anchor="end">25%</text>
  </g>

  <rect x="1032" y="158" width="384" height="628" rx="12" fill="#FFFFFF" stroke="#ECEFF4" filter="url(#sh)"/>
  <text x="1052" y="194" class="h" font-size="16">ClearView Glass</text>
  <rect x="1052" y="206" width="100" height="22" rx="11" fill="#FFEBFE"/><text x="1102" y="221" class="pill" font-size="11" fill="#c479c2" text-anchor="middle">Sublet vendor</text>
  <text x="1052" y="262" class="lbl" font-size="12">Phone</text><text x="1396" y="262" class="cell" font-size="12.5" text-anchor="end">(905) 555-0199</text>
  <line x1="1052" y1="276" x2="1396" y2="276" stroke="#F4F6FA"/>
  <text x="1052" y="300" class="lbl" font-size="12">Email</text><text x="1396" y="300" class="cell" font-size="12.5" text-anchor="end">orders@clearview.ca</text>
  <line x1="1052" y1="314" x2="1396" y2="314" stroke="#F4F6FA"/>
  <text x="1052" y="338" class="lbl" font-size="12">Account rep</text><text x="1396" y="338" class="cell" font-size="12.5" text-anchor="end">D. Cho</text>
  <line x1="1052" y1="352" x2="1396" y2="352" stroke="#F4F6FA"/>
  <text x="1052" y="376" class="lbl" font-size="12">Account #</text><text x="1396" y="376" class="cell" font-size="12.5" text-anchor="end">CV-88</text>
  <line x1="1052" y1="390" x2="1396" y2="390" stroke="#F4F6FA"/>
  <text x="1052" y="414" class="lbl" font-size="12">Terms</text><text x="1396" y="414" class="cell" font-size="12.5" text-anchor="end">Net 30</text>
  <line x1="1052" y1="428" x2="1396" y2="428" stroke="#F4F6FA"/>
  <text x="1052" y="452" class="lbl" font-size="12">Default markup</text><text x="1396" y="452" class="cell" font-size="12.5" text-anchor="end">28% (sublet matrix)</text>

  <text x="1052" y="500" class="h" font-size="14">Open sublet orders</text>
  <text x="1052" y="528" class="cell" font-size="12.5">PO-1052 · WO-10428 · Windshield</text><rect x="1314" y="516" width="82" height="19" rx="9.5" fill="#FFEBFE"/><text x="1355" y="529" class="pill" font-size="10" fill="#c479c2" text-anchor="middle">Sent out</text>
  <line x1="1052" y1="544" x2="1396" y2="544" stroke="#F4F6FA"/>
  <text x="1052" y="572" class="cell" font-size="12.5">PO-1041 · WO-10388 · Windshield</text><rect x="1336" y="560" width="60" height="19" rx="9.5" fill="#E6FBF5"/><text x="1366" y="573" class="pill" font-size="10" fill="#0F9C96" text-anchor="middle">Closed</text>

  <rect x="1052" y="724" width="166" height="40" rx="8" fill="#FFFFFF" stroke="#DDE3EC"/><text x="1135" y="749" font-size="12.5" font-weight="600" fill="#5A6A85" text-anchor="middle">Edit vendor</text>
  <rect x="1230" y="724" width="166" height="40" rx="8" fill="#c479c2"/><text x="1313" y="749" font-size="12.5" font-weight="600" fill="#FFFFFF" text-anchor="middle">New sublet order</text>
</svg>
