<svg viewBox="0 0 1440 912" xmlns="http://www.w3.org/2000/svg" font-family="'Plus Jakarta Sans','Inter','Segoe UI',system-ui,sans-serif" role="img" aria-labelledby="t">
  <title id="t">Squibbon Shop — Inventory / parts</title>
  <defs>
    <filter id="sh" x="-6%" y="-10%" width="112%" height="124%"><feDropShadow dx="0" dy="3" stdDeviation="6" flood-color="#2A3547" flood-opacity="0.07"/></filter>
    <g id="ic-grid" fill="none" stroke="currentColor" stroke-width="1.6"><rect x="3" y="3" width="6" height="6" rx="1.5"/><rect x="11" y="3" width="6" height="6" rx="1.5"/><rect x="3" y="11" width="6" height="6" rx="1.5"/><rect x="11" y="11" width="6" height="6" rx="1.5"/></g>
    <g id="ic-board" fill="none" stroke="currentColor" stroke-width="1.6"><rect x="3" y="3.5" width="4" height="13" rx="1"/><rect x="8" y="3.5" width="4" height="9" rx="1"/><rect x="13" y="3.5" width="4" height="13" rx="1"/></g>
    <g id="ic-clip" fill="none" stroke="currentColor" stroke-width="1.6" stroke-linejoin="round" stroke-linecap="round"><rect x="4.5" y="3.5" width="11" height="13.5" rx="2"/><rect x="7.5" y="2" width="5" height="3" rx="1"/><path d="M7.2 9 h5.6 M7.2 12 h5.6"/></g>
    <g id="ic-user" fill="none" stroke="currentColor" stroke-width="1.6" stroke-linecap="round"><circle cx="10" cy="7" r="3.2"/><path d="M4.5 16.5 a5.5 5.5 0 0 1 11 0"/></g>
    <g id="ic-truck" fill="none" stroke="currentColor" stroke-width="1.6" stroke-linejoin="round" stroke-linecap="round"><path d="M2.5 6 h8 v7 h-8 z"/><path d="M10.5 8.5 h3.2 l2.4 2.3 v2.2 h-5.6 z"/><circle cx="6" cy="15" r="1.5"/><circle cx="13.7" cy="15" r="1.5"/></g>
    <g id="ic-box" fill="none" stroke="currentColor" stroke-width="1.6" stroke-linejoin="round" stroke-linecap="round"><path d="M10 2.6 l6.4 3.5 v7.8 l-6.4 3.5 -6.4-3.5 v-7.8z"/><path d="M3.6 6.1 L10 9.6 l6.4-3.5 M10 9.6 V17.4"/></g>
    <g id="ic-cart" fill="none" stroke="currentColor" stroke-width="1.6" stroke-linejoin="round" stroke-linecap="round"><path d="M3 4 h2.2 l1.8 8.4 h7.6 l1.6-5.8 H6.2"/><circle cx="8" cy="16" r="1.3"/><circle cx="14.5" cy="16" r="1.3"/></g>
    <g id="ic-building" fill="none" stroke="currentColor" stroke-width="1.6" stroke-linejoin="round"><rect x="4.5" y="3.5" width="11" height="14" rx="1.2"/><path d="M7.5 7 h1 M11.5 7 h1 M7.5 10 h1 M11.5 10 h1"/><path d="M8.5 17.5 v-3 h3 v3"/></g>
    <g id="ic-bill" fill="none" stroke="currentColor" stroke-width="1.6" stroke-linejoin="round" stroke-linecap="round"><path d="M5 2.6 h10 v15 l-2-1.3 -2 1.3 -2-1.3 -2 1.3 -2-1.3z"/><path d="M7.4 7 h5.2 M7.4 10 h5.2 M7.4 13 h3.2"/></g>
    <g id="ic-card" fill="none" stroke="currentColor" stroke-width="1.6" stroke-linejoin="round"><rect x="2.5" y="5" width="15" height="10" rx="2"/><path d="M2.5 8.5 h15 M5 12 h3"/></g>
    <g id="ic-chart" fill="none" stroke="currentColor" stroke-width="1.6" stroke-linejoin="round" stroke-linecap="round"><path d="M3 16.5 h14"/><rect x="4.5" y="9" width="2.6" height="5.5"/><rect x="8.7" y="6" width="2.6" height="8.5"/><rect x="12.9" y="11" width="2.6" height="3.5"/></g>
    <g id="ic-slider" fill="none" stroke="currentColor" stroke-width="1.6" stroke-linecap="round"><path d="M3 7 h14 M3 13 h14"/><circle cx="8" cy="7" r="1.9" fill="#fff"/><circle cx="13" cy="13" r="1.9" fill="#fff"/></g>
    <g id="ic-search" fill="none" stroke="currentColor" stroke-width="1.7" stroke-linecap="round"><circle cx="9" cy="9" r="5.5"/><path d="M13.2 13.2 L17.2 17.2"/></g>
    <g id="ic-bell" fill="none" stroke="currentColor" stroke-width="1.6" stroke-linejoin="round" stroke-linecap="round"><path d="M10 3 a4.6 4.6 0 0 1 4.6 4.6 c0 4 1.4 5.4 1.4 5.4 h-12 s1.4-1.4 1.4-5.4 a4.6 4.6 0 0 1 4.6-4.6z"/><path d="M8.3 16 a1.8 1.8 0 0 0 3.4 0"/></g>
    <g id="ic-menu" fill="none" stroke="currentColor" stroke-width="1.8" stroke-linecap="round"><path d="M3 6 h16 M3 11 h16 M3 16 h16"/></g>
    <g id="ic-plus" fill="none" stroke="currentColor" stroke-width="1.8" stroke-linecap="round"><path d="M10 4 V16 M4 10 H16"/></g>
    <g id="ic-chevd" fill="none" stroke="currentColor" stroke-width="1.7" stroke-linecap="round" stroke-linejoin="round"><path d="M5.5 8 L10 12.5 L14.5 8"/></g>
    <g id="ic-download" fill="none" stroke="currentColor" stroke-width="1.6" stroke-linecap="round" stroke-linejoin="round"><path d="M10 4 V13 M6.5 9.5 L10 13 l3.5-3.5"/><path d="M4.5 15.5 h11"/></g>
  </defs>
  <style>
    .navi{fill:#5A6A85;font-weight:500}.col{fill:#8A95A5;font-weight:600;letter-spacing:.4px}
    .h{fill:#2A3547;font-weight:600}.sub{fill:#5A6A85;font-weight:400}.lbl{fill:#5A6A85;font-weight:500}
    .num{fill:#2A3547;font-weight:700}.cell{fill:#2A3547;font-weight:500}.mut{fill:#8A95A5;font-weight:500}.pill{font-weight:600}
  </style>
  <rect width="1440" height="912" fill="#F4F6FB"/>
  <rect x="0" y="0" width="256" height="912" fill="#FFFFFF"/><line x1="256" y1="0" x2="256" y2="912" stroke="#ECEFF4"/>
  <rect x="24" y="21" width="30" height="30" rx="8" fill="#c479c2"/><text x="39" y="42" font-size="17" font-weight="700" fill="#FFFFFF" text-anchor="middle">S</text><text x="66" y="42" font-size="19" font-weight="700" fill="#2A3547">Squibbon</text>
  <text x="24" y="90" class="col" font-size="11">SHOP</text>
  <g style="color:#5A6A85"><use href="#ic-grid" x="22" y="100" width="18" height="18"/></g><text x="50" y="114" class="navi" font-size="12.5">Dashboard</text>
  <g style="color:#5A6A85"><use href="#ic-board" x="22" y="138" width="18" height="18"/></g><text x="50" y="152" class="navi" font-size="12.5">Workflow</text>
  <g style="color:#5A6A85"><use href="#ic-clip" x="22" y="177" width="18" height="18"/></g><text x="50" y="191" class="navi" font-size="12.5">Work orders</text>
  <g style="color:#5A6A85"><use href="#ic-user" x="22" y="214" width="18" height="18"/></g><text x="50" y="228" class="navi" font-size="12.5">Customers</text>
  <g style="color:#5A6A85"><use href="#ic-truck" x="22" y="252" width="18" height="18"/></g><text x="50" y="266" class="navi" font-size="12.5">Vehicles</text>
  <text x="24" y="304" class="col" font-size="11">PARTS &amp; VENDORS</text>
  <rect x="12" y="309" width="232" height="28" rx="7" fill="#FFEBFE"/>
  <g style="color:#c479c2"><use href="#ic-box" x="22" y="314" width="18" height="18"/></g><text x="50" y="328" font-size="12.5" font-weight="600" fill="#c479c2">Inventory / parts</text>
  <g style="color:#5A6A85"><use href="#ic-cart" x="22" y="352" width="18" height="18"/></g><text x="50" y="366" class="navi" font-size="12.5">Purchase orders</text>
  <g style="color:#5A6A85"><use href="#ic-building" x="22" y="390" width="18" height="18"/></g><text x="50" y="404" class="navi" font-size="12.5">Vendors</text>
  <text x="24" y="442" class="col" font-size="11">BILLING</text>
  <g style="color:#5A6A85"><use href="#ic-bill" x="22" y="452" width="18" height="18"/></g><text x="50" y="466" class="navi" font-size="12.5">Invoices</text>
  <g style="color:#5A6A85"><use href="#ic-card" x="22" y="490" width="18" height="18"/></g><text x="50" y="504" class="navi" font-size="12.5">Payments</text>
  <g style="color:#5A6A85"><use href="#ic-chart" x="22" y="528" width="18" height="18"/></g><text x="50" y="542" class="navi" font-size="12.5">Reports</text>
  <text x="24" y="580" class="col" font-size="11">SETTINGS</text>
  <g style="color:#5A6A85"><use href="#ic-slider" x="22" y="590" width="18" height="18"/></g><text x="50" y="604" class="navi" font-size="12.5">Shop settings</text>

  <rect x="256" y="0" width="1184" height="72" fill="#FFFFFF"/><line x1="256" y1="72" x2="1440" y2="72" stroke="#ECEFF4"/>
  <g style="color:#5A6A85"><use href="#ic-menu" x="282" y="26" width="20" height="20"/></g>
  <rect x="324" y="18" width="300" height="36" rx="18" fill="#F4F6FB"/><g style="color:#8A95A5"><use href="#ic-search" x="340" y="27" width="18" height="18"/></g><text x="366" y="41" font-size="12.5" fill="#9AA4B2">Search part #, SKU or name…</text>
  <rect x="1108" y="17" width="170" height="38" rx="8" fill="#c479c2"/><g style="color:#FFFFFF"><use href="#ic-plus" x="1146" y="28" width="16" height="16"/></g><text x="1170" y="41" font-size="12.5" font-weight="600" fill="#FFFFFF">Add part</text>
  <g style="color:#5A6A85"><use href="#ic-bell" x="1300" y="26" width="20" height="20"/></g><circle cx="1317" cy="27" r="4" fill="#FA5A5A"/>
  <text x="1368" y="33" font-size="12.5" font-weight="600" fill="#2A3547" text-anchor="end">T. Hopper</text><text x="1368" y="47" font-size="10.5" fill="#8A95A5" text-anchor="end">Parts</text>
  <circle cx="1392" cy="36" r="16" fill="#FFEBFE"/><text x="1392" y="40" font-size="12" font-weight="700" fill="#c479c2" text-anchor="middle">TH</text>

  <text x="280" y="118" font-size="22" font-weight="700" fill="#2A3547">Inventory / parts</text>
  <text x="280" y="140" font-size="13" fill="#5A6A85">On-hand, reserved &amp; reorder · Mississauga</text>

  <g font-size="12">
  <rect x="280" y="158" width="180" height="84" rx="12" fill="#FFFFFF" stroke="#ECEFF4" filter="url(#sh)"/><text x="298" y="188" class="lbl">Active parts</text><text x="298" y="222" class="num" font-size="24">1,284</text><text x="298" y="242" font-size="11" font-weight="600" fill="#5A6A85">SKUs</text>
  <rect x="476" y="158" width="180" height="84" rx="12" fill="#FFFFFF" stroke="#ECEFF4" filter="url(#sh)"/><text x="494" y="188" class="lbl">Inventory value</text><text x="494" y="222" class="num" font-size="24">$84.2k</text><text x="494" y="242" font-size="11" font-weight="600" fill="#0F9C96">at cost</text>
  <rect x="672" y="158" width="180" height="84" rx="12" fill="#FFFFFF" stroke="#ECEFF4" filter="url(#sh)"/><text x="690" y="188" class="lbl">Reserved on WOs</text><text x="690" y="222" class="num" font-size="24">$3.1k</text><text x="690" y="242" font-size="11" font-weight="600" fill="#1A5FB4">committed</text>
  <rect x="868" y="158" width="180" height="84" rx="12" fill="#FFFFFF" stroke="#ECEFF4" filter="url(#sh)"/><text x="886" y="188" class="lbl">Below reorder</text><text x="886" y="222" class="num" font-size="24">18</text><text x="886" y="242" font-size="11" font-weight="600" fill="#A8720F">create POs</text>
  </g>

  <rect x="280" y="262" width="1136" height="56" rx="12" fill="#FFFFFF" stroke="#ECEFF4" filter="url(#sh)"/>
  <rect x="300" y="274" width="260" height="32" rx="16" fill="#F4F6FB"/><g style="color:#8A95A5"><use href="#ic-search" x="314" y="281" width="16" height="16"/></g><text x="338" y="294" font-size="12" fill="#9AA4B2">Search part #, SKU or MPN</text>
  <rect x="580" y="274" width="104" height="32" rx="8" fill="#FFFFFF" stroke="#DDE3EC"/><text x="596" y="294" class="cell" font-size="12">Category</text><g style="color:#8A95A5"><use href="#ic-chevd" x="656" y="281" width="16" height="16"/></g>
  <rect x="694" y="274" width="96" height="32" rx="8" fill="#FFFFFF" stroke="#DDE3EC"/><text x="710" y="294" class="cell" font-size="12">Vendor</text><g style="color:#8A95A5"><use href="#ic-chevd" x="762" y="281" width="16" height="16"/></g>
  <rect x="800" y="274" width="96" height="32" rx="8" fill="#FFFFFF" stroke="#DDE3EC"/><text x="816" y="294" class="cell" font-size="12">Reorder</text><g style="color:#8A95A5"><use href="#ic-chevd" x="868" y="281" width="16" height="16"/></g>
  <rect x="1320" y="274" width="96" height="32" rx="8" fill="#FFFFFF" stroke="#DDE3EC"/><g style="color:#5A6A85"><use href="#ic-download" x="1336" y="281" width="16" height="16"/></g><text x="1358" y="294" class="cell" font-size="12">Export</text>

  <rect x="280" y="330" width="1136" height="456" rx="12" fill="#FFFFFF" stroke="#ECEFF4" filter="url(#sh)"/>
  <g class="col" font-size="10.5"><text x="300" y="362">PART</text><text x="470" y="362">PART # / SKU</text><text x="650" y="362">MFR</text><text x="790" y="362">BIN</text><text x="880" y="362">ON-HAND</text><text x="970" y="362">AVAIL</text><text x="1090" y="362" text-anchor="end">COST</text><text x="1190" y="362" text-anchor="end">RETAIL</text><text x="1392" y="362" text-anchor="end">STATUS</text></g>
  <line x1="300" y1="372" x2="1392" y2="372" stroke="#ECEFF4"/>
  <g font-size="12.5">
  <text x="300" y="396" class="cell">Brake pads</text><text x="470" y="396" class="sub">BP-1234</text><text x="650" y="396" class="sub">Bosch</text><text x="790" y="396" class="sub">A-12</text><text x="880" y="396" class="sub">9</text><text x="970" y="396" class="sub">8</text><text x="1090" y="396" class="sub" text-anchor="end">$28.00</text><text x="1190" y="396" class="cell" text-anchor="end">$58.00</text><rect x="1326" y="383" width="66" height="19" rx="9.5" fill="#E6FBF5"/><text x="1359" y="396" class="pill" font-size="10.5" fill="#0F9C96" text-anchor="middle">In stock</text><line x1="300" y1="414" x2="1392" y2="414" stroke="#F4F6FA"/>
  <text x="300" y="432" class="cell">Rotors</text><text x="470" y="432" class="sub">RT-77</text><text x="650" y="432" class="sub">Raybestos</text><text x="790" y="432" class="sub">C-04</text><text x="880" y="432" class="sub">2</text><text x="970" y="432" class="sub">0</text><text x="1090" y="432" class="sub" text-anchor="end">$31.00</text><text x="1190" y="432" class="cell" text-anchor="end">$52.00</text><rect x="1320" y="419" width="72" height="19" rx="9.5" fill="#FEF4E6"/><text x="1356" y="432" class="pill" font-size="10.5" fill="#A8720F" text-anchor="middle">2 reserved</text><line x1="300" y1="450" x2="1392" y2="450" stroke="#F4F6FA"/>
  <text x="300" y="468" class="cell">Oil filter</text><text x="470" y="468" class="sub">OF-220</text><text x="650" y="468" class="sub">Fram</text><text x="790" y="468" class="sub">B-08</text><text x="880" y="468" class="sub">24</text><text x="970" y="468" class="sub">22</text><text x="1090" y="468" class="sub" text-anchor="end">$4.20</text><text x="1190" y="468" class="cell" text-anchor="end">$12.00</text><rect x="1326" y="455" width="66" height="19" rx="9.5" fill="#E6FBF5"/><text x="1359" y="468" class="pill" font-size="10.5" fill="#0F9C96" text-anchor="middle">In stock</text><line x1="300" y1="486" x2="1392" y2="486" stroke="#F4F6FA"/>
  <text x="300" y="504" class="cell">Synthetic oil 5W-30</text><text x="470" y="504" class="sub">OIL-530</text><text x="650" y="504" class="sub">Mobil 1</text><text x="790" y="504" class="sub">D-01</text><text x="880" y="504" class="sub">40 L</text><text x="970" y="504" class="sub">34 L</text><text x="1090" y="504" class="sub" text-anchor="end">$6.10</text><text x="1190" y="504" class="cell" text-anchor="end">$13.50</text><rect x="1326" y="491" width="66" height="19" rx="9.5" fill="#E6FBF5"/><text x="1359" y="504" class="pill" font-size="10.5" fill="#0F9C96" text-anchor="middle">In stock</text><line x1="300" y1="522" x2="1392" y2="522" stroke="#F4F6FA"/>
  <text x="300" y="540" class="cell">Brake hardware kit</text><text x="470" y="540" class="sub">BHK-9</text><text x="650" y="540" class="sub">Carlson</text><text x="790" y="540" class="sub">A-13</text><text x="880" y="540" class="sub">3</text><text x="970" y="540" class="sub">3</text><text x="1090" y="540" class="sub" text-anchor="end">$9.50</text><text x="1190" y="540" class="cell" text-anchor="end">$22.00</text><rect x="1322" y="527" width="70" height="19" rx="9.5" fill="#FEF4E6"/><text x="1357" y="540" class="pill" font-size="10.5" fill="#A8720F" text-anchor="middle">Reorder</text><line x1="300" y1="558" x2="1392" y2="558" stroke="#F4F6FA"/>
  <text x="300" y="576" class="cell">Wiper blade 22"</text><text x="470" y="576" class="sub">WB-22</text><text x="650" y="576" class="sub">Rain-X</text><text x="790" y="576" class="sub">E-05</text><text x="880" y="576" class="sub">12</text><text x="970" y="576" class="sub">12</text><text x="1090" y="576" class="sub" text-anchor="end">$7.00</text><text x="1190" y="576" class="cell" text-anchor="end">$18.00</text><rect x="1326" y="563" width="66" height="19" rx="9.5" fill="#E6FBF5"/><text x="1359" y="576" class="pill" font-size="10.5" fill="#0F9C96" text-anchor="middle">In stock</text><line x1="300" y1="594" x2="1392" y2="594" stroke="#F4F6FA"/>
  <text x="300" y="612" class="cell">Cabin air filter</text><text x="470" y="612" class="sub">CAF-31</text><text x="650" y="612" class="sub">Denso</text><text x="790" y="612" class="sub">B-09</text><text x="880" y="612" class="sub">1</text><text x="970" y="612" class="sub">1</text><text x="1090" y="612" class="sub" text-anchor="end">$8.40</text><text x="1190" y="612" class="cell" text-anchor="end">$24.00</text><rect x="1322" y="599" width="70" height="19" rx="9.5" fill="#FEF4E6"/><text x="1357" y="612" class="pill" font-size="10.5" fill="#A8720F" text-anchor="middle">Reorder</text>
  </g>
  <line x1="300" y1="730" x2="1392" y2="730" stroke="#ECEFF4"/>
  <text x="300" y="760" class="mut" font-size="12">Showing 1–7 of 1,284 parts · available = on-hand − reserved on open WOs</text>
  <text x="1392" y="760" class="mut" font-size="12" text-anchor="end">‹   1   2   3   …   ›</text>
</svg>
