<svg viewBox="0 0 1440 620" xmlns="http://www.w3.org/2000/svg" font-family="'Plus Jakarta Sans','Inter','Segoe UI',system-ui,sans-serif" role="img" aria-labelledby="t">
  <title id="t">Squibbon Shop — Pick-list &amp; sublet send-out</title>
  <defs>
    <filter id="sh" x="-6%" y="-10%" width="112%" height="124%"><feDropShadow dx="0" dy="3" stdDeviation="6" flood-color="#2A3547" flood-opacity="0.07"/></filter>
    <g id="ic-grid" fill="none" stroke="currentColor" stroke-width="1.6"><rect x="3" y="3" width="6" height="6" rx="1.5"/><rect x="11" y="3" width="6" height="6" rx="1.5"/><rect x="3" y="11" width="6" height="6" rx="1.5"/><rect x="11" y="11" width="6" height="6" rx="1.5"/></g>
    <g id="ic-board" fill="none" stroke="currentColor" stroke-width="1.6"><rect x="3" y="3.5" width="4" height="13" rx="1"/><rect x="8" y="3.5" width="4" height="9" rx="1"/><rect x="13" y="3.5" width="4" height="13" rx="1"/></g>
    <g id="ic-clip" fill="none" stroke="currentColor" stroke-width="1.6" stroke-linejoin="round" stroke-linecap="round"><rect x="4.5" y="3.5" width="11" height="13.5" rx="2"/><rect x="7.5" y="2" width="5" height="3" rx="1"/><path d="M7.2 9 h5.6 M7.2 12 h5.6"/></g>
    <g id="ic-user" fill="none" stroke="currentColor" stroke-width="1.6" stroke-linecap="round"><circle cx="10" cy="7" r="3.2"/><path d="M4.5 16.5 a5.5 5.5 0 0 1 11 0"/></g>
    <g id="ic-truck" fill="none" stroke="currentColor" stroke-width="1.6" stroke-linejoin="round" stroke-linecap="round"><path d="M2.5 6 h8 v7 h-8 z"/><path d="M10.5 8.5 h3.2 l2.4 2.3 v2.2 h-5.6 z"/><circle cx="6" cy="15" r="1.5"/><circle cx="13.7" cy="15" r="1.5"/></g>
    <g id="ic-box" fill="none" stroke="currentColor" stroke-width="1.6" stroke-linejoin="round" stroke-linecap="round"><path d="M10 2.6 l6.4 3.5 v7.8 l-6.4 3.5 -6.4-3.5 v-7.8z"/><path d="M3.6 6.1 L10 9.6 l6.4-3.5 M10 9.6 V17.4"/></g>
    <g id="ic-cart" fill="none" stroke="currentColor" stroke-width="1.6" stroke-linejoin="round" stroke-linecap="round"><path d="M3 4 h2.2 l1.8 8.4 h7.6 l1.6-5.8 H6.2"/><circle cx="8" cy="16" r="1.3"/><circle cx="14.5" cy="16" r="1.3"/></g>
    <g id="ic-building" fill="none" stroke="currentColor" stroke-width="1.6" stroke-linejoin="round"><rect x="4.5" y="3.5" width="11" height="14" rx="1.2"/><path d="M7.5 7 h1 M11.5 7 h1 M7.5 10 h1 M11.5 10 h1"/><path d="M8.5 17.5 v-3 h3 v3"/></g>
    <g id="ic-bill" fill="none" stroke="currentColor" stroke-width="1.6" stroke-linejoin="round" stroke-linecap="round"><path d="M5 2.6 h10 v15 l-2-1.3 -2 1.3 -2-1.3 -2 1.3 -2-1.3z"/><path d="M7.4 7 h5.2 M7.4 10 h5.2 M7.4 13 h3.2"/></g>
    <g id="ic-card" fill="none" stroke="currentColor" stroke-width="1.6" stroke-linejoin="round"><rect x="2.5" y="5" width="15" height="10" rx="2"/><path d="M2.5 8.5 h15 M5 12 h3"/></g>
    <g id="ic-chart" fill="none" stroke="currentColor" stroke-width="1.6" stroke-linejoin="round" stroke-linecap="round"><path d="M3 16.5 h14"/><rect x="4.5" y="9" width="2.6" height="5.5"/><rect x="8.7" y="6" width="2.6" height="8.5"/><rect x="12.9" y="11" width="2.6" height="3.5"/></g>
    <g id="ic-slider" fill="none" stroke="currentColor" stroke-width="1.6" stroke-linecap="round"><path d="M3 7 h14 M3 13 h14"/><circle cx="8" cy="7" r="1.9" fill="#fff"/><circle cx="13" cy="13" r="1.9" fill="#fff"/></g>
    <g id="ic-search" fill="none" stroke="currentColor" stroke-width="1.7" stroke-linecap="round"><circle cx="9" cy="9" r="5.5"/><path d="M13.2 13.2 L17.2 17.2"/></g>
    <g id="ic-bell" fill="none" stroke="currentColor" stroke-width="1.6" stroke-linejoin="round" stroke-linecap="round"><path d="M10 3 a4.6 4.6 0 0 1 4.6 4.6 c0 4 1.4 5.4 1.4 5.4 h-12 s1.4-1.4 1.4-5.4 a4.6 4.6 0 0 1 4.6-4.6z"/><path d="M8.3 16 a1.8 1.8 0 0 0 3.4 0"/></g>
    <g id="ic-menu" fill="none" stroke="currentColor" stroke-width="1.8" stroke-linecap="round"><path d="M3 6 h16 M3 11 h16 M3 16 h16"/></g>
    <g id="ic-download" fill="none" stroke="currentColor" stroke-width="1.6" stroke-linecap="round" stroke-linejoin="round"><path d="M10 4 V13 M6.5 9.5 L10 13 l3.5-3.5"/><path d="M4.5 15.5 h11"/></g>
  </defs>
  <style>
    .navi{fill:#5A6A85;font-weight:500}.col{fill:#8A95A5;font-weight:600;letter-spacing:.4px}
    .h{fill:#2A3547;font-weight:600}.sub{fill:#5A6A85;font-weight:400}.cell{fill:#2A3547;font-weight:500}.mut{fill:#8A95A5;font-weight:500}.pill{font-weight:600}
  </style>
  <rect width="1440" height="620" fill="#F4F6FB"/>
  <rect x="0" y="0" width="256" height="620" fill="#FFFFFF"/><line x1="256" y1="0" x2="256" y2="620" stroke="#ECEFF4"/>
  <rect x="24" y="21" width="30" height="30" rx="8" fill="#c479c2"/><text x="39" y="42" font-size="17" font-weight="700" fill="#FFFFFF" text-anchor="middle">S</text><text x="66" y="42" font-size="19" font-weight="700" fill="#2A3547">Squibbon</text>
  <text x="24" y="90" class="col" font-size="11">SHOP</text>
  <g style="color:#5A6A85"><use href="#ic-grid" x="22" y="100" width="18" height="18"/></g><text x="50" y="114" class="navi" font-size="12.5">Dashboard</text>
  <g style="color:#5A6A85"><use href="#ic-board" x="22" y="138" width="18" height="18"/></g><text x="50" y="152" class="navi" font-size="12.5">Workflow</text>
  <g style="color:#5A6A85"><use href="#ic-clip" x="22" y="177" width="18" height="18"/></g><text x="50" y="191" class="navi" font-size="12.5">Work orders</text>
  <g style="color:#5A6A85"><use href="#ic-user" x="22" y="214" width="18" height="18"/></g><text x="50" y="228" class="navi" font-size="12.5">Customers</text>
  <g style="color:#5A6A85"><use href="#ic-truck" x="22" y="252" width="18" height="18"/></g><text x="50" y="266" class="navi" font-size="12.5">Vehicles</text>
  <text x="24" y="304" class="col" font-size="11">PARTS &amp; VENDORS</text>
  <rect x="12" y="309" width="232" height="28" rx="7" fill="#FFEBFE"/>
  <g style="color:#c479c2"><use href="#ic-box" x="22" y="314" width="18" height="18"/></g><text x="50" y="328" font-size="12.5" font-weight="600" fill="#c479c2">Inventory / parts</text>
  <g style="color:#5A6A85"><use href="#ic-cart" x="22" y="352" width="18" height="18"/></g><text x="50" y="366" class="navi" font-size="12.5">Purchase orders</text>
  <g style="color:#5A6A85"><use href="#ic-building" x="22" y="390" width="18" height="18"/></g><text x="50" y="404" class="navi" font-size="12.5">Vendors</text>
  <text x="24" y="442" class="col" font-size="11">BILLING</text>
  <g style="color:#5A6A85"><use href="#ic-bill" x="22" y="452" width="18" height="18"/></g><text x="50" y="466" class="navi" font-size="12.5">Invoices</text>
  <g style="color:#5A6A85"><use href="#ic-card" x="22" y="490" width="18" height="18"/></g><text x="50" y="504" class="navi" font-size="12.5">Payments</text>
  <g style="color:#5A6A85"><use href="#ic-chart" x="22" y="528" width="18" height="18"/></g><text x="50" y="542" class="navi" font-size="12.5">Reports</text>

  <rect x="256" y="0" width="1184" height="72" fill="#FFFFFF"/><line x1="256" y1="72" x2="1440" y2="72" stroke="#ECEFF4"/>
  <g style="color:#5A6A85"><use href="#ic-menu" x="282" y="26" width="20" height="20"/></g>
  <rect x="324" y="18" width="300" height="36" rx="18" fill="#F4F6FB"/><g style="color:#8A95A5"><use href="#ic-search" x="340" y="27" width="18" height="18"/></g><text x="366" y="41" font-size="12.5" fill="#9AA4B2">Search…</text>
  <rect x="1108" y="17" width="170" height="38" rx="8" fill="#c479c2"/><g style="color:#FFFFFF"><use href="#ic-download" x="1150" y="28" width="16" height="16"/></g><text x="1174" y="41" font-size="12.5" font-weight="600" fill="#FFFFFF">Print list</text>
  <g style="color:#5A6A85"><use href="#ic-bell" x="1300" y="26" width="20" height="20"/></g><circle cx="1317" cy="27" r="4" fill="#FA5A5A"/>
  <text x="1368" y="33" font-size="12.5" font-weight="600" fill="#2A3547" text-anchor="end">T. Hopper</text><text x="1368" y="47" font-size="10.5" fill="#8A95A5" text-anchor="end">Parts</text>
  <circle cx="1392" cy="36" r="16" fill="#FFEBFE"/><text x="1392" y="40" font-size="12" font-weight="700" fill="#c479c2" text-anchor="middle">TH</text>

  <text x="280" y="118" font-size="22" font-weight="700" fill="#2A3547">Pick-list &amp; sublet send-out</text>
  <text x="280" y="140" font-size="13" fill="#5A6A85">Today · Mississauga · parts to pull and outside repairs to send</text>

  <rect x="280" y="160" width="720" height="420" rx="12" fill="#FFFFFF" stroke="#ECEFF4" filter="url(#sh)"/>
  <text x="304" y="192" class="h" font-size="15">Parts to pull</text><text x="976" y="192" class="mut" font-size="12" text-anchor="end">5 lines · 3 WOs</text>
  <g class="col" font-size="10.5"><text x="304" y="224">WO</text><text x="430" y="224">PART</text><text x="700" y="224">BIN</text><text x="790" y="224">QTY</text><text x="976" y="224" text-anchor="end">STATUS</text></g>
  <line x1="304" y1="234" x2="976" y2="234" stroke="#ECEFF4"/>
  <g font-size="12.5">
  <text x="304" y="262" class="cell">WO-10428</text><text x="430" y="262" class="sub">Brake pads — BP-1234</text><text x="700" y="262" class="sub">A-12</text><text x="790" y="262" class="sub">1</text><rect x="900" y="249" width="76" height="19" rx="9.5" fill="#FEF4E6"/><text x="938" y="262" class="pill" font-size="10.5" fill="#A8720F" text-anchor="middle">To pull</text><line x1="304" y1="280" x2="976" y2="280" stroke="#F4F6FA"/>
  <text x="304" y="308" class="cell">WO-10428</text><text x="430" y="308" class="sub">Rotors — RT-77</text><text x="700" y="308" class="sub">C-04</text><text x="790" y="308" class="sub">2</text><rect x="888" y="295" width="88" height="19" rx="9.5" fill="#E6FBF5"/><text x="932" y="308" class="pill" font-size="10.5" fill="#0F9C96" text-anchor="middle">Received SO</text><line x1="304" y1="326" x2="976" y2="326" stroke="#F4F6FA"/>
  <text x="304" y="354" class="cell">WO-10427</text><text x="430" y="354" class="sub">Oil filter — OF-220</text><text x="700" y="354" class="sub">B-08</text><text x="790" y="354" class="sub">1</text><rect x="900" y="341" width="76" height="19" rx="9.5" fill="#FEF4E6"/><text x="938" y="354" class="pill" font-size="10.5" fill="#A8720F" text-anchor="middle">To pull</text><line x1="304" y1="372" x2="976" y2="372" stroke="#F4F6FA"/>
  <text x="304" y="400" class="cell">WO-10422</text><text x="430" y="400" class="sub">Synthetic oil 5W-30</text><text x="700" y="400" class="sub">D-01</text><text x="790" y="400" class="sub">6 L</text><rect x="900" y="387" width="76" height="19" rx="9.5" fill="#FEF4E6"/><text x="938" y="400" class="pill" font-size="10.5" fill="#A8720F" text-anchor="middle">To pull</text><line x1="304" y1="418" x2="976" y2="418" stroke="#F4F6FA"/>
  <text x="304" y="446" class="cell">WO-10419</text><text x="430" y="446" class="sub">Wiper blade 22"</text><text x="700" y="446" class="sub">E-05</text><text x="790" y="446" class="sub">2</text><rect x="908" y="433" width="68" height="19" rx="9.5" fill="#E6FBF5"/><text x="942" y="446" class="pill" font-size="10.5" fill="#0F9C96" text-anchor="middle">Pulled</text>
  </g>
  <text x="304" y="520" class="mut" font-size="11.5">Tick parts as pulled — installed parts decrement inventory when the WO closes.</text>

  <rect x="1032" y="160" width="384" height="420" rx="12" fill="#FFFFFF" stroke="#ECEFF4" filter="url(#sh)"/>
  <text x="1052" y="192" class="h" font-size="15">Sublet to send out</text>
  <rect x="1052" y="214" width="344" height="74" rx="10" fill="#FBF4FB"/>
  <text x="1068" y="240" class="cell" font-size="12.5" font-weight="700">WO-10428 · Windshield</text><text x="1068" y="258" class="mut" font-size="11.5">ClearView Glass · PO-1052 · $180</text><rect x="1068" y="266" width="74" height="18" rx="9" fill="#FFEBFE"/><text x="1105" y="279" class="pill" font-size="10" fill="#c479c2" text-anchor="middle">To send</text>
  <rect x="1052" y="300" width="344" height="74" rx="10" fill="#FFFFFF" stroke="#ECEFF4"/>
  <text x="1068" y="326" class="cell" font-size="12.5" font-weight="700">WO-10422 · Turn rotors</text><text x="1068" y="344" class="mut" font-size="11.5">Precision Machine · PO-1049 · $60</text><rect x="1068" y="352" width="66" height="18" rx="9" fill="#E6FBF5"/><text x="1101" y="365" class="pill" font-size="10" fill="#0F9C96" text-anchor="middle">Returned</text>
  <rect x="1052" y="386" width="344" height="74" rx="10" fill="#FFFFFF" stroke="#ECEFF4"/>
  <text x="1068" y="412" class="cell" font-size="12.5" font-weight="700">WO-10410 · Alignment</text><text x="1068" y="430" class="mut" font-size="11.5">TrueLine Alignment · PO-1044 · $80</text><rect x="1068" y="438" width="98" height="18" rx="9" fill="#FDECEC"/><text x="1117" y="451" class="pill" font-size="10" fill="#C0392B" text-anchor="middle">Sent · overdue</text>
  <text x="1052" y="520" class="mut" font-size="11.5">Outside repairs are tracked sent-out → returned, gating WO completion.</text>
</svg>
