<svg viewBox="0 0 1100 1060" xmlns="http://www.w3.org/2000/svg" font-family="'Plus Jakarta Sans','Inter','Segoe UI',system-ui,sans-serif" role="img" aria-labelledby="t">
  <title id="t">Squibbon Shop — Customer authorization</title>
  <defs>
    <filter id="psh" x="-6%" y="-4%" width="112%" height="108%"><feDropShadow dx="0" dy="8" stdDeviation="20" flood-color="#2A3547" flood-opacity="0.12"/></filter>
    <g id="ic-check" fill="none" stroke="currentColor" stroke-width="2" stroke-linecap="round" stroke-linejoin="round"><path d="M4 10.5 l3.6 3.6 L16 6"/></g>
    <g id="ic-cal" fill="none" stroke="currentColor" stroke-width="1.6" stroke-linejoin="round" stroke-linecap="round"><rect x="3.5" y="4.5" width="13" height="12" rx="2"/><path d="M3.5 8 h13 M7 3 v3 M13 3 v3"/></g>
    <g id="ic-lock" fill="none" stroke="currentColor" stroke-width="1.6" stroke-linecap="round" stroke-linejoin="round"><rect x="4.5" y="9" width="11" height="8" rx="2"/><path d="M7 9 V6.5 a3 3 0 0 1 6 0 V9"/></g>
  </defs>
  <style>
    .h{fill:#2A3547;font-weight:600}.sub{fill:#5A6A85;font-weight:400}.lbl{fill:#8A95A5;font-weight:500}.cell{fill:#2A3547;font-weight:500}.mut{fill:#8A95A5;font-weight:500}.num{fill:#2A3547;font-weight:700}.col{fill:#8A95A5;font-weight:600;letter-spacing:.6px}.pill{font-weight:600}
  </style>
  <rect width="1100" height="1060" fill="#EEF1F6"/>
  <rect x="190" y="36" width="720" height="988" rx="16" fill="#FFFFFF" filter="url(#psh)"/>

  <rect x="220" y="64" width="30" height="30" rx="8" fill="#c479c2"/><text x="235" y="85" font-size="17" font-weight="700" fill="#FFFFFF" text-anchor="middle">S</text>
  <text x="260" y="80" class="h" font-size="16">Mississauga Auto Service</text><text x="260" y="100" class="mut" font-size="12">123 Shop Rd · (905) 555-0100</text>
  <text x="880" y="84" class="col" font-size="11" text-anchor="end">ESTIMATE</text>
  <line x1="220" y1="120" x2="880" y2="120" stroke="#ECEFF4"/>

  <text x="220" y="152" class="h" font-size="15">Estimate WO-10428</text><text x="880" y="152" class="mut" font-size="12.5" text-anchor="end">18 Jun 2026</text>
  <text x="220" y="176" class="cell" font-size="12.5">Acme Fleet Ltd · 2019 Ford F-150 · 84,210 km</text>
  <line x1="220" y1="196" x2="880" y2="196" stroke="#ECEFF4"/>

  <text x="220" y="232" class="h" font-size="16">Review &amp; approve your service</text>

  <rect x="220" y="250" width="660" height="128" rx="12" fill="#FFFFFF" stroke="#E4E9F0"/>
  <text x="244" y="282" class="h" font-size="15">Front brake service</text><text x="856" y="282" class="num" font-size="15" text-anchor="end">$402.00</text>
  <text x="244" y="306" class="mut" font-size="12">Replace front brake pads &amp; rotors · performed in-house</text>
  <rect x="244" y="324" width="156" height="34" rx="8" fill="#E6FBF5" stroke="#13B89B"/><g style="color:#0F9C96"><use href="#ic-check" x="278" y="333" width="16" height="16"/></g><text x="302" y="346" font-size="12.5" font-weight="600" fill="#0F9C96">Approved</text>
  <rect x="410" y="324" width="120" height="34" rx="8" fill="#FFFFFF" stroke="#DDE3EC"/><text x="470" y="346" font-size="12.5" font-weight="600" fill="#8A95A5" text-anchor="middle">Decline</text>

  <rect x="220" y="394" width="660" height="128" rx="12" fill="#FFFFFF" stroke="#E4E9F0"/>
  <text x="244" y="426" class="h" font-size="15">Windshield replacement</text><rect x="436" y="414" width="120" height="18" rx="9" fill="#FFEBFE"/><text x="496" y="427" class="pill" font-size="9.5" fill="#c479c2" text-anchor="middle">outside glass shop</text><text x="856" y="426" class="num" font-size="15" text-anchor="end">$230.00</text>
  <text x="244" y="450" class="mut" font-size="12">Performed by ClearView Glass · 12-month vendor warranty</text>
  <rect x="244" y="468" width="156" height="34" rx="8" fill="#E6FBF5" stroke="#13B89B"/><g style="color:#0F9C96"><use href="#ic-check" x="278" y="477" width="16" height="16"/></g><text x="302" y="490" font-size="12.5" font-weight="600" fill="#0F9C96">Approved</text>
  <rect x="410" y="468" width="120" height="34" rx="8" fill="#FFFFFF" stroke="#DDE3EC"/><text x="470" y="490" font-size="12.5" font-weight="600" fill="#8A95A5" text-anchor="middle">Decline</text>

  <g font-size="13">
  <text x="560" y="566" class="sub">Subtotal</text><text x="880" y="566" class="cell" text-anchor="end">$650.00</text>
  <text x="560" y="592" class="sub">HST (13%)</text><text x="880" y="592" class="cell" text-anchor="end">$84.50</text>
  </g>
  <line x1="560" y1="608" x2="880" y2="608" stroke="#F4F6FA"/>
  <text x="560" y="634" class="num" font-size="15">Total</text><text x="880" y="634" class="num" font-size="15" text-anchor="end">$734.50</text>
  <text x="560" y="660" class="cell" font-size="13">Deposit due now</text><text x="880" y="660" font-size="13" font-weight="700" fill="#c479c2" text-anchor="end">$200.00</text>

  <line x1="220" y1="694" x2="880" y2="694" stroke="#ECEFF4"/>
  <text x="220" y="726" class="h" font-size="15">Your authorization</text>
  <rect x="220" y="742" width="660" height="84" rx="10" fill="#F9FAFC" stroke="#E4E9F0"/>
  <path d="M260 800 q20 -36 40 -8 q14 20 30 -10 q12 -22 34 4 q10 14 26 -6 q14 -16 30 2" fill="none" stroke="#2A3547" stroke-width="2.4" stroke-linecap="round"/>
  <text x="864" y="816" class="mut" font-size="11" text-anchor="end">Sign above</text>
  <rect x="220" y="842" width="404" height="38" rx="8" fill="#FFFFFF" stroke="#DDE3EC"/><text x="238" y="866" class="cell" font-size="13">Jordan Carter</text>
  <rect x="636" y="842" width="244" height="38" rx="8" fill="#FFFFFF" stroke="#DDE3EC"/><text x="654" y="866" class="cell" font-size="13">18 Jun 2026</text><g style="color:#8A95A5"><use href="#ic-cal" x="852" y="854" width="16" height="16"/></g>

  <rect x="220" y="908" width="660" height="48" rx="10" fill="#c479c2"/><g style="color:#FFFFFF"><use href="#ic-lock" x="358" y="922" width="18" height="18"/></g><text x="384" y="938" font-size="14" font-weight="700" fill="#FFFFFF">Approve &amp; pay $200 deposit</text>
  <text x="550" y="996" class="mut" font-size="11.5" text-anchor="middle">Powered by Squibbon · secure checkout</text>
</svg>
