<svg viewBox="0 0 1000 940" xmlns="http://www.w3.org/2000/svg" font-family="'Plus Jakarta Sans','Inter','Segoe UI',system-ui,sans-serif" role="img" aria-labelledby="t">
  <title id="t">Squibbon Shop — Technician my jobs (mobile)</title>
  <defs>
    <filter id="sh" x="-20%" y="-20%" width="140%" height="140%"><feDropShadow dx="0" dy="6" stdDeviation="16" flood-color="#2A3547" flood-opacity="0.18"/></filter>
    <g id="ic-check" fill="none" stroke="currentColor" stroke-width="2" stroke-linecap="round" stroke-linejoin="round"><path d="M4 10.5 l3.6 3.6 L16 6"/></g>
    <g id="ic-cam" fill="none" stroke="currentColor" stroke-width="1.5" stroke-linejoin="round" stroke-linecap="round"><rect x="3" y="6" width="14" height="9.5" rx="2"/><circle cx="10" cy="11" r="2.6"/><path d="M7 6 l1.1-1.8 h3.8 l1.1 1.8"/></g>
    <g id="ic-chevl" fill="none" stroke="currentColor" stroke-width="2" stroke-linecap="round" stroke-linejoin="round"><path d="M12.5 5 L7 10 l5.5 5"/></g>
  </defs>
  <style>
    .h{fill:#2A3547;font-weight:600}.cell{fill:#2A3547;font-weight:500}.mut{fill:#8A95A5;font-weight:500}.lbl{fill:#5A6A85;font-weight:500}.pill{font-weight:600}
  </style>
  <rect width="1000" height="940" fill="#ECEFF4"/>
  <rect x="300" y="34" width="400" height="872" rx="46" fill="#CDD4DF" filter="url(#sh)"/>
  <rect x="312" y="46" width="376" height="848" rx="40" fill="#FFFFFF"/>
  <rect x="476" y="58" width="48" height="9" rx="4.5" fill="#DCE1EA"/>
  <text x="336" y="86" font-size="13" font-weight="700" fill="#2A3547">9:41</text>
  <rect x="646" y="78" width="20" height="10" rx="2.5" fill="none" stroke="#2A3547" stroke-width="1.2"/><rect x="648" y="80" width="13" height="6" rx="1" fill="#2A3547"/>
  <g style="color:#2A3547"><use href="#ic-chevl" x="330" y="98" width="20" height="20"/></g>
  <text x="500" y="113" font-size="16" font-weight="700" fill="#2A3547" text-anchor="middle">My jobs</text>
  <circle cx="660" cy="108" r="15" fill="#FFEBFE"/><text x="660" y="112" font-size="11" font-weight="700" fill="#c479c2" text-anchor="middle">AR</text>
  <line x1="312" y1="132" x2="688" y2="132" stroke="#ECEFF4"/>
  <text x="332" y="158" class="cell" font-size="13" font-weight="600">A. Roy · Bay 2</text><text x="668" y="158" class="mut" font-size="11.5" text-anchor="end">2 jobs today</text>

  <rect x="328" y="172" width="344" height="420" rx="14" fill="#FFFFFF" stroke="#E4E9F0"/>
  <text x="346" y="202" class="h" font-size="15">Front brake service</text><text x="654" y="202" class="mut" font-size="11.5" text-anchor="end">WO-10428</text>
  <text x="346" y="222" class="mut" font-size="11.5">2019 Ford F-150 · Acme Fleet</text>
  <text x="346" y="270" font-size="28" font-weight="700" fill="#2A3547">01:24:18</text>
  <circle cx="350" cy="294" r="4" fill="#13B89B"/><text x="362" y="298" font-size="11.5" font-weight="600" fill="#0F9C96">Clocked in</text>
  <rect x="520" y="248" width="150" height="40" rx="10" fill="#FDECEC"/><text x="595" y="273" font-size="13" font-weight="700" fill="#C0392B" text-anchor="middle">Clock out</text>
  <line x1="346" y1="316" x2="654" y2="316" stroke="#F4F6FA"/>
  <text x="346" y="342" class="lbl" font-size="11">TASKS</text>
  <g style="color:#13B89B"><use href="#ic-check" x="346" y="354" width="18" height="18"/></g><text x="374" y="367" class="cell" font-size="13">Replace front pads</text>
  <circle cx="355" cy="396" r="6" fill="none" stroke="#E0941A" stroke-width="2"/><circle cx="355" cy="396" r="2.4" fill="#E0941A"/><text x="374" y="401" class="cell" font-size="13">Replace rotors</text><text x="654" y="401" font-size="11" font-weight="600" fill="#A8720F" text-anchor="end">in progress</text>
  <circle cx="355" cy="430" r="6" fill="none" stroke="#C7CFDA" stroke-width="2"/><text x="374" y="435" class="mut" font-size="13">Brake performance road test</text>
  <line x1="346" y1="458" x2="654" y2="458" stroke="#F4F6FA"/>
  <text x="346" y="484" class="lbl" font-size="11">PARTS</text>
  <text x="346" y="506" class="cell" font-size="12.5">Pads installed · Rotors received (PO-1051)</text>
  <rect x="346" y="524" width="308" height="40" rx="10" fill="#F4F6FB"/><g style="color:#5A6A85"><use href="#ic-cam" x="438" y="535" width="18" height="18"/></g><text x="464" y="549" font-size="12.5" font-weight="600" fill="#5A6A85">Add note / photo</text>

  <text x="332" y="628" class="h" font-size="14">Up next</text>
  <rect x="328" y="644" width="344" height="64" rx="12" fill="#FFFFFF" stroke="#E4E9F0"/>
  <text x="346" y="674" class="cell" font-size="13" font-weight="600">WO-10427 · Oil change</text><text x="346" y="692" class="mut" font-size="11.5">2021 Honda CR-V</text>
  <rect x="328" y="720" width="344" height="64" rx="12" fill="#FFFFFF" stroke="#E4E9F0"/>
  <text x="346" y="750" class="cell" font-size="13" font-weight="600">WO-10422 · PM-B service</text><text x="346" y="768" class="mut" font-size="11.5">2020 Freightliner</text>

  <rect x="470" y="864" width="60" height="5" rx="2.5" fill="#DCE1EA"/>
  <text x="500" y="922" font-size="12" font-weight="500" fill="#8A95A5" text-anchor="middle">Squibbon tech app — clock into jobs &amp; line items</text>
</svg>
