<svg viewBox="0 0 1440 860" xmlns="http://www.w3.org/2000/svg" font-family="'Plus Jakarta Sans','Inter','Segoe UI',system-ui,sans-serif" role="img" aria-labelledby="t">
  <title id="t">Squibbon Shop — Estimate authorization &amp; e-sign</title>
  <defs>
    <filter id="sh" x="-6%" y="-10%" width="112%" height="124%"><feDropShadow dx="0" dy="3" stdDeviation="6" flood-color="#2A3547" flood-opacity="0.07"/></filter>
    <g id="ic-grid" fill="none" stroke="currentColor" stroke-width="1.6"><rect x="3" y="3" width="6" height="6" rx="1.5"/><rect x="11" y="3" width="6" height="6" rx="1.5"/><rect x="3" y="11" width="6" height="6" rx="1.5"/><rect x="11" y="11" width="6" height="6" rx="1.5"/></g>
    <g id="ic-board" fill="none" stroke="currentColor" stroke-width="1.6"><rect x="3" y="3.5" width="4" height="13" rx="1"/><rect x="8" y="3.5" width="4" height="9" rx="1"/><rect x="13" y="3.5" width="4" height="13" rx="1"/></g>
    <g id="ic-clip" fill="none" stroke="currentColor" stroke-width="1.6" stroke-linejoin="round" stroke-linecap="round"><rect x="4.5" y="3.5" width="11" height="13.5" rx="2"/><rect x="7.5" y="2" width="5" height="3" rx="1"/><path d="M7.2 9 h5.6 M7.2 12 h5.6"/></g>
    <g id="ic-user" fill="none" stroke="currentColor" stroke-width="1.6" stroke-linecap="round"><circle cx="10" cy="7" r="3.2"/><path d="M4.5 16.5 a5.5 5.5 0 0 1 11 0"/></g>
    <g id="ic-truck" fill="none" stroke="currentColor" stroke-width="1.6" stroke-linejoin="round" stroke-linecap="round"><path d="M2.5 6 h8 v7 h-8 z"/><path d="M10.5 8.5 h3.2 l2.4 2.3 v2.2 h-5.6 z"/><circle cx="6" cy="15" r="1.5"/><circle cx="13.7" cy="15" r="1.5"/></g>
    <g id="ic-box" fill="none" stroke="currentColor" stroke-width="1.6" stroke-linejoin="round" stroke-linecap="round"><path d="M10 2.6 l6.4 3.5 v7.8 l-6.4 3.5 -6.4-3.5 v-7.8z"/><path d="M3.6 6.1 L10 9.6 l6.4-3.5 M10 9.6 V17.4"/></g>
    <g id="ic-building" fill="none" stroke="currentColor" stroke-width="1.6" stroke-linejoin="round"><rect x="4.5" y="3.5" width="11" height="14" rx="1.2"/><path d="M7.5 7 h1 M11.5 7 h1 M7.5 10 h1 M11.5 10 h1"/><path d="M8.5 17.5 v-3 h3 v3"/></g>
    <g id="ic-cart" fill="none" stroke="currentColor" stroke-width="1.6" stroke-linejoin="round" stroke-linecap="round"><path d="M3 4 h2.2 l1.8 8.4 h7.6 l1.6-5.8 H6.2"/><circle cx="8" cy="16" r="1.3"/><circle cx="14.5" cy="16" r="1.3"/></g>
    <g id="ic-bill" fill="none" stroke="currentColor" stroke-width="1.6" stroke-linejoin="round" stroke-linecap="round"><path d="M5 2.6 h10 v15 l-2-1.3 -2 1.3 -2-1.3 -2 1.3 -2-1.3z"/><path d="M7.4 7 h5.2 M7.4 10 h5.2 M7.4 13 h3.2"/></g>
    <g id="ic-card" fill="none" stroke="currentColor" stroke-width="1.6" stroke-linejoin="round"><rect x="2.5" y="5" width="15" height="10" rx="2"/><path d="M2.5 8.5 h15 M5 12 h3"/></g>
    <g id="ic-chart" fill="none" stroke="currentColor" stroke-width="1.6" stroke-linejoin="round" stroke-linecap="round"><path d="M3 16.5 h14"/><rect x="4.5" y="9" width="2.6" height="5.5"/><rect x="8.7" y="6" width="2.6" height="8.5"/><rect x="12.9" y="11" width="2.6" height="3.5"/></g>
    <g id="ic-slider" fill="none" stroke="currentColor" stroke-width="1.6" stroke-linecap="round"><path d="M3 7 h14 M3 13 h14"/><circle cx="8" cy="7" r="1.9" fill="#fff"/><circle cx="13" cy="13" r="1.9" fill="#fff"/></g>
    <g id="ic-search" fill="none" stroke="currentColor" stroke-width="1.7" stroke-linecap="round"><circle cx="9" cy="9" r="5.5"/><path d="M13.2 13.2 L17.2 17.2"/></g>
    <g id="ic-bell" fill="none" stroke="currentColor" stroke-width="1.6" stroke-linejoin="round" stroke-linecap="round"><path d="M10 3 a4.6 4.6 0 0 1 4.6 4.6 c0 4 1.4 5.4 1.4 5.4 h-12 s1.4-1.4 1.4-5.4 a4.6 4.6 0 0 1 4.6-4.6z"/><path d="M8.3 16 a1.8 1.8 0 0 0 3.4 0"/></g>
    <g id="ic-menu" fill="none" stroke="currentColor" stroke-width="1.8" stroke-linecap="round"><path d="M3 6 h16 M3 11 h16 M3 16 h16"/></g>
    <g id="ic-check" fill="none" stroke="currentColor" stroke-width="2" stroke-linecap="round" stroke-linejoin="round"><path d="M4 10.5 l3.6 3.6 L16 6"/></g>
    <g id="ic-shield" fill="none" stroke="currentColor" stroke-width="1.6" stroke-linejoin="round" stroke-linecap="round"><path d="M10 2.5 L16.5 5 v5 c0 4.5-3.2 6.8-6.5 8 -3.3-1.2-6.5-3.5-6.5-8 V5z"/><path d="M7 10 l2 2 4-4.2"/></g>
    <g id="ic-globe" fill="none" stroke="currentColor" stroke-width="1.5"><circle cx="10" cy="10" r="7.5"/><path d="M2.5 10 h15 M10 2.5 c2.5 2.5 2.5 12.5 0 15 M10 2.5 c-2.5 2.5-2.5 12.5 0 15"/></g>
  </defs>
  <style>
    .navi{fill:#5A6A85;font-weight:500}.col{fill:#8A95A5;font-weight:600;letter-spacing:.4px}
    .h{fill:#2A3547;font-weight:600}.sub{fill:#5A6A85;font-weight:400}.lbl{fill:#8A95A5;font-weight:600}.cell{fill:#2A3547;font-weight:500}.mut{fill:#8A95A5;font-weight:500}.fr{fill:#9AA4B2;font-weight:400;font-style:italic}.num{fill:#2A3547;font-weight:700}
  </style>
  <rect width="1440" height="860" fill="#F4F6FB"/>
  <rect x="0" y="0" width="256" height="860" fill="#FFFFFF"/><line x1="256" y1="0" x2="256" y2="860" stroke="#ECEFF4"/>
  <rect x="24" y="21" width="30" height="30" rx="8" fill="#c479c2"/><text x="39" y="42" font-size="17" font-weight="700" fill="#FFFFFF" text-anchor="middle">S</text><text x="66" y="42" font-size="19" font-weight="700" fill="#2A3547">Squibbon</text>
  <rect x="170" y="26" width="58" height="18" rx="9" fill="#E6FBFA"/><text x="199" y="39" font-size="10.5" font-weight="700" fill="#0F9C96" text-anchor="middle">SHOP</text>
  <text x="24" y="90" class="col" font-size="11">SHOP</text>
  <g style="color:#5A6A85"><use href="#ic-grid" x="22" y="100" width="18" height="18"/></g><text x="50" y="114" class="navi" font-size="12.5">Dashboard</text>
  <g style="color:#5A6A85"><use href="#ic-board" x="22" y="138" width="18" height="18"/></g><text x="50" y="152" class="navi" font-size="12.5">Workflow</text>
  <rect x="12" y="172" width="232" height="28" rx="7" fill="#FFEBFE"/>
  <g style="color:#c479c2"><use href="#ic-clip" x="22" y="177" width="18" height="18"/></g><text x="50" y="191" font-size="12.5" font-weight="600" fill="#c479c2">Work orders</text>
  <g style="color:#5A6A85"><use href="#ic-user" x="22" y="214" width="18" height="18"/></g><text x="50" y="228" class="navi" font-size="12.5">Customers</text>
  <g style="color:#5A6A85"><use href="#ic-truck" x="22" y="252" width="18" height="18"/></g><text x="50" y="266" class="navi" font-size="12.5">Vehicles</text>
  <text x="24" y="304" class="col" font-size="11">PARTS &amp; VENDORS</text>
  <g style="color:#5A6A85"><use href="#ic-box" x="22" y="314" width="18" height="18"/></g><text x="50" y="328" class="navi" font-size="12.5">Inventory / parts</text>
  <g style="color:#5A6A85"><use href="#ic-cart" x="22" y="352" width="18" height="18"/></g><text x="50" y="366" class="navi" font-size="12.5">Purchase orders</text>
  <g style="color:#5A6A85"><use href="#ic-building" x="22" y="390" width="18" height="18"/></g><text x="50" y="404" class="navi" font-size="12.5">Vendors</text>
  <text x="24" y="442" class="col" font-size="11">BILLING</text>
  <g style="color:#5A6A85"><use href="#ic-bill" x="22" y="452" width="18" height="18"/></g><text x="50" y="466" class="navi" font-size="12.5">Invoices</text>
  <g style="color:#5A6A85"><use href="#ic-card" x="22" y="490" width="18" height="18"/></g><text x="50" y="504" class="navi" font-size="12.5">Payments</text>
  <g style="color:#5A6A85"><use href="#ic-chart" x="22" y="528" width="18" height="18"/></g><text x="50" y="542" class="navi" font-size="12.5">Reports</text>
  <text x="24" y="580" class="col" font-size="11">SETTINGS</text>
  <g style="color:#5A6A85"><use href="#ic-slider" x="22" y="590" width="18" height="18"/></g><text x="50" y="604" class="navi" font-size="12.5">Shop settings</text>

  <rect x="256" y="0" width="1184" height="72" fill="#FFFFFF"/><line x1="256" y1="72" x2="1440" y2="72" stroke="#ECEFF4"/>
  <g style="color:#5A6A85"><use href="#ic-menu" x="282" y="26" width="20" height="20"/></g>
  <rect x="324" y="18" width="300" height="36" rx="18" fill="#F4F6FB"/><g style="color:#8A95A5"><use href="#ic-search" x="340" y="27" width="18" height="18"/></g><text x="366" y="41" font-size="12.5" fill="#9AA4B2">Search WO, customer, plate or VIN…</text>
  <rect x="1086" y="17" width="60" height="38" rx="8" fill="#F4F6FB"/><g style="color:#5A6A85"><use href="#ic-globe" x="1096" y="27" width="18" height="18"/></g><text x="1122" y="41" font-size="11.5" font-weight="700" fill="#5A6A85">FR</text>
  <rect x="1158" y="17" width="120" height="38" rx="8" fill="#c479c2"/><text x="1218" y="41" font-size="12.5" font-weight="600" fill="#FFFFFF" text-anchor="middle">Send estimate</text>
  <g style="color:#5A6A85"><use href="#ic-bell" x="1300" y="26" width="20" height="20"/></g><circle cx="1317" cy="27" r="4" fill="#FA5A5A"/>
  <text x="1368" y="33" font-size="12.5" font-weight="600" fill="#2A3547" text-anchor="end">T. Hopper</text><text x="1368" y="47" font-size="10.5" fill="#8A95A5" text-anchor="end">Advisor</text>
  <circle cx="1392" cy="36" r="16" fill="#FFEBFE"/><text x="1392" y="40" font-size="12" font-weight="700" fill="#c479c2" text-anchor="middle">TH</text>

  <text x="280" y="116" font-size="22" font-weight="700" fill="#2A3547">Authorize estimate — WO-10428</text>
  <text x="280" y="138" font-size="13" fill="#5A6A85">Capture written authorization before work begins · Ontario rules apply to this location</text>

  <!-- ESTIMATE DOC -->
  <rect x="280" y="158" width="712" height="664" rx="12" fill="#FFFFFF" stroke="#ECEFF4" filter="url(#sh)"/>
  <text x="304" y="194" font-size="17" font-weight="700" fill="#2A3547">Estimate</text><text x="396" y="194" class="fr" font-size="15">/ Estimation</text>
  <text x="968" y="186" class="mut" font-size="11.5" text-anchor="end">Squibbon Auto Care</text><text x="968" y="202" class="mut" font-size="11" text-anchor="end">120 Lakeshore Rd E, Mississauga ON</text>
  <line x1="304" y1="214" x2="968" y2="214" stroke="#ECEFF4"/>
  <text x="304" y="240" class="lbl" font-size="10.5">CUSTOMER / CLIENT</text><text x="304" y="260" class="cell" font-size="13">Acme Fleet Ltd · (416) 555-0148</text>
  <text x="664" y="240" class="lbl" font-size="10.5">VEHICLE / VÉHICULE</text><text x="664" y="260" class="cell" font-size="13">2019 Ford F-150 · ABCD 123</text>
  <line x1="304" y1="280" x2="968" y2="280" stroke="#F4F6FA"/>
  <g class="col" font-size="10"><text x="304" y="304">DESCRIPTION</text><text x="780" y="304">PARTS</text><text x="864" y="304">LABOUR</text><text x="968" y="304" text-anchor="end">TOTAL</text></g>
  <line x1="304" y1="312" x2="968" y2="312" stroke="#ECEFF4"/>
  <text x="304" y="338" class="cell" font-size="12.5">Front brake service — pads &amp; rotors</text><text x="304" y="356" class="fr" font-size="11">Service de freins avant</text><text x="780" y="338" class="sub" font-size="12">$162</text><text x="864" y="338" class="sub" font-size="12">$240</text><text x="968" y="338" class="cell" font-size="12.5" text-anchor="end">$402.00</text>
  <line x1="304" y1="372" x2="968" y2="372" stroke="#F4F6FA"/>
  <text x="304" y="398" class="cell" font-size="12.5">Windshield replacement <tspan class="mut">(sublet · ClearView Glass)</tspan></text><text x="304" y="416" class="fr" font-size="11">Remplacement du pare-brise</text><text x="780" y="398" class="sub" font-size="12">—</text><text x="864" y="398" class="sub" font-size="12">$230</text><text x="968" y="398" class="cell" font-size="12.5" text-anchor="end">$230.00</text>
  <line x1="304" y1="432" x2="968" y2="432" stroke="#ECEFF4"/>
  <text x="780" y="460" class="mut" font-size="12">Subtotal / Sous-total</text><text x="968" y="460" class="cell" font-size="12.5" text-anchor="end">$632.00</text>
  <text x="780" y="484" class="mut" font-size="12">Shop supplies / Fournitures</text><text x="968" y="484" class="cell" font-size="12.5" text-anchor="end">$18.00</text>
  <text x="780" y="508" class="mut" font-size="12">HST (13%)</text><text x="968" y="508" class="cell" font-size="12.5" text-anchor="end">$84.50</text>
  <line x1="780" y1="522" x2="968" y2="522" stroke="#ECEFF4"/>
  <text x="780" y="550" class="h" font-size="14">Authorized total</text><text x="780" y="566" class="fr" font-size="10.5">Total autorisé</text><text x="968" y="554" class="num" font-size="18" text-anchor="end">$734.50</text>
  <!-- parts return -->
  <rect x="304" y="592" width="664" height="58" rx="9" fill="#FBF3FB" stroke="#EBD3EA"/>
  <rect x="320" y="608" width="22" height="22" rx="6" fill="#c479c2"/><g style="color:#fff"><use href="#ic-check" x="322" y="610" width="18" height="18"/></g>
  <text x="354" y="616" class="cell" font-size="12.5">Return replaced parts to the customer</text><text x="354" y="634" class="fr" font-size="11">Retourner les pièces remplacées au client (sur demande)</text>
  <text x="954" y="626" class="mut" font-size="10.5" text-anchor="end">Excl. warranty / core parts</text>
  <!-- legal blurb -->
  <text x="304" y="678" class="lbl" font-size="10">CONSUMER PROTECTION / PROTECTION DU CONSOMMATEUR</text>
  <text x="304" y="698" class="mut" font-size="11">Under Ontario's Consumer Protection Act, the final invoice may not exceed this authorized</text>
  <text x="304" y="714" class="mut" font-size="11">estimate by more than 10%. Any additional work requires your approval first.</text>
  <text x="304" y="734" class="fr" font-size="10.5">La facture finale ne peut excéder cette estimation de plus de 10 %. Tout travail additionnel requiert votre accord.</text>
  <rect x="304" y="752" width="664" height="48" rx="9" fill="#F4F6FB"/><text x="324" y="781" class="cell" font-size="12">Estimate prepared at no charge · estimate valid 14 days</text><text x="952" y="781" class="mut" font-size="11" text-anchor="end">Estimation gratuite</text>

  <!-- AUTH PANEL -->
  <rect x="1008" y="158" width="408" height="664" rx="12" fill="#FFFFFF" stroke="#ECEFF4" filter="url(#sh)"/>
  <g style="color:#c479c2"><use href="#ic-shield" x="1028" y="178" width="20" height="20"/></g>
  <text x="1056" y="186" class="h" font-size="15">Authorization</text><text x="1056" y="204" class="fr" font-size="12">Autorisation</text>
  <line x1="1028" y1="218" x2="1396" y2="218" stroke="#ECEFF4"/>
  <text x="1028" y="244" class="lbl" font-size="10.5">METHOD / MÉTHODE</text>
  <g font-size="11.5" font-weight="600">
  <rect x="1028" y="252" width="120" height="30" rx="8" fill="#c479c2"/><text x="1088" y="272" fill="#fff" text-anchor="middle">In-person</text>
  <rect x="1156" y="252" width="110" height="30" rx="8" fill="#F4F6FB"/><text x="1211" y="272" fill="#5A6A85" text-anchor="middle">SMS link</text>
  <rect x="1274" y="252" width="122" height="30" rx="8" fill="#F4F6FB"/><text x="1335" y="272" fill="#5A6A85" text-anchor="middle">Email link</text>
  </g>
  <!-- signature pad -->
  <text x="1028" y="312" class="lbl" font-size="10.5">CUSTOMER SIGNATURE / SIGNATURE</text>
  <rect x="1028" y="320" width="368" height="120" rx="10" fill="#FAFBFD" stroke="#E2E8F0"/>
  <path d="M1060 400 q15 -44 30 -2 q10 28 22 -6 q8 -22 22 6 q12 24 30 -20 q14 -32 40 8 q10 18 26 -4" fill="none" stroke="#2A3547" stroke-width="2.2" stroke-linecap="round"/>
  <line x1="1060" y1="416" x2="1364" y2="416" stroke="#D7DEE8"/>
  <text x="1060" y="432" class="mut" font-size="10.5">Sign above / Signez ci-dessus</text>
  <!-- authorizer -->
  <text x="1028" y="470" class="lbl" font-size="10.5">AUTHORIZED BY</text><text x="1028" y="490" class="cell" font-size="13">Jamie Carter</text><text x="1028" y="508" class="mut" font-size="11">Fleet contact · phone confirmed</text>
  <text x="1240" y="470" class="lbl" font-size="10.5">WHEN</text><text x="1240" y="490" class="cell" font-size="12.5">18 Jun 2026</text><text x="1240" y="508" class="mut" font-size="11">10:12 AM EDT</text>
  <line x1="1028" y1="528" x2="1396" y2="528" stroke="#ECEFF4"/>
  <!-- cap reminder -->
  <rect x="1028" y="544" width="368" height="96" rx="10" fill="#FFFBF2" stroke="#F0DFBE"/>
  <text x="1046" y="568" class="lbl" font-size="10" fill="#A8720F">ESTIMATE CEILING · ONTARIO</text>
  <text x="1046" y="590" class="cell" font-size="12.5">Authorized $734.50 → max billable</text>
  <text x="1046" y="610" class="num" font-size="15" fill="#A8720F">$807.95 <tspan class="mut" font-size="11" font-weight="500">(+10%)</tspan></text>
  <text x="1046" y="630" class="mut" font-size="10.5">Squibbon blocks invoicing past this without re-auth.</text>
  <!-- actions -->
  <rect x="1028" y="656" width="368" height="44" rx="9" fill="#c479c2"/><g style="color:#fff"><use href="#ic-check" x="1150" y="667" width="18" height="18"/></g><text x="1176" y="683" font-size="13.5" font-weight="600" fill="#fff">Record authorization</text>
  <text x="1212" y="726" class="mut" font-size="11" text-anchor="middle">Stamps WO as Authorized · sets the cap baseline</text>
  <rect x="1028" y="744" width="368" height="60" rx="9" fill="#F4F6FB"/><text x="1048" y="768" class="cell" font-size="11.5">A signed bilingual copy is emailed/texted to</text><text x="1048" y="786" class="cell" font-size="11.5">the customer and stored on the work order.</text>
</svg>
