<svg viewBox="0 0 1440 860" xmlns="http://www.w3.org/2000/svg" font-family="'Plus Jakarta Sans','Inter','Segoe UI',system-ui,sans-serif" role="img" aria-labelledby="t">
  <title id="t">Squibbon Shop — Estimate cap &amp; re-authorization</title>
  <defs>
    <filter id="sh" x="-6%" y="-10%" width="112%" height="124%"><feDropShadow dx="0" dy="3" stdDeviation="6" flood-color="#2A3547" flood-opacity="0.07"/></filter>
    <filter id="shm" x="-20%" y="-20%" width="140%" height="140%"><feDropShadow dx="0" dy="12" stdDeviation="28" flood-color="#2A3547" flood-opacity="0.28"/></filter>
    <g id="ic-grid" fill="none" stroke="currentColor" stroke-width="1.6"><rect x="3" y="3" width="6" height="6" rx="1.5"/><rect x="11" y="3" width="6" height="6" rx="1.5"/><rect x="3" y="11" width="6" height="6" rx="1.5"/><rect x="11" y="11" width="6" height="6" rx="1.5"/></g>
    <g id="ic-board" fill="none" stroke="currentColor" stroke-width="1.6"><rect x="3" y="3.5" width="4" height="13" rx="1"/><rect x="8" y="3.5" width="4" height="9" rx="1"/><rect x="13" y="3.5" width="4" height="13" rx="1"/></g>
    <g id="ic-clip" fill="none" stroke="currentColor" stroke-width="1.6" stroke-linejoin="round" stroke-linecap="round"><rect x="4.5" y="3.5" width="11" height="13.5" rx="2"/><rect x="7.5" y="2" width="5" height="3" rx="1"/><path d="M7.2 9 h5.6 M7.2 12 h5.6"/></g>
    <g id="ic-user" fill="none" stroke="currentColor" stroke-width="1.6" stroke-linecap="round"><circle cx="10" cy="7" r="3.2"/><path d="M4.5 16.5 a5.5 5.5 0 0 1 11 0"/></g>
    <g id="ic-truck" fill="none" stroke="currentColor" stroke-width="1.6" stroke-linejoin="round" stroke-linecap="round"><path d="M2.5 6 h8 v7 h-8 z"/><path d="M10.5 8.5 h3.2 l2.4 2.3 v2.2 h-5.6 z"/><circle cx="6" cy="15" r="1.5"/><circle cx="13.7" cy="15" r="1.5"/></g>
    <g id="ic-box" fill="none" stroke="currentColor" stroke-width="1.6" stroke-linejoin="round" stroke-linecap="round"><path d="M10 2.6 l6.4 3.5 v7.8 l-6.4 3.5 -6.4-3.5 v-7.8z"/><path d="M3.6 6.1 L10 9.6 l6.4-3.5 M10 9.6 V17.4"/></g>
    <g id="ic-building" fill="none" stroke="currentColor" stroke-width="1.6" stroke-linejoin="round"><rect x="4.5" y="3.5" width="11" height="14" rx="1.2"/><path d="M7.5 7 h1 M11.5 7 h1 M7.5 10 h1 M11.5 10 h1"/><path d="M8.5 17.5 v-3 h3 v3"/></g>
    <g id="ic-cart" fill="none" stroke="currentColor" stroke-width="1.6" stroke-linejoin="round" stroke-linecap="round"><path d="M3 4 h2.2 l1.8 8.4 h7.6 l1.6-5.8 H6.2"/><circle cx="8" cy="16" r="1.3"/><circle cx="14.5" cy="16" r="1.3"/></g>
    <g id="ic-bill" fill="none" stroke="currentColor" stroke-width="1.6" stroke-linejoin="round" stroke-linecap="round"><path d="M5 2.6 h10 v15 l-2-1.3 -2 1.3 -2-1.3 -2 1.3 -2-1.3z"/><path d="M7.4 7 h5.2 M7.4 10 h5.2 M7.4 13 h3.2"/></g>
    <g id="ic-card" fill="none" stroke="currentColor" stroke-width="1.6" stroke-linejoin="round"><rect x="2.5" y="5" width="15" height="10" rx="2"/><path d="M2.5 8.5 h15 M5 12 h3"/></g>
    <g id="ic-chart" fill="none" stroke="currentColor" stroke-width="1.6" stroke-linejoin="round" stroke-linecap="round"><path d="M3 16.5 h14"/><rect x="4.5" y="9" width="2.6" height="5.5"/><rect x="8.7" y="6" width="2.6" height="8.5"/><rect x="12.9" y="11" width="2.6" height="3.5"/></g>
    <g id="ic-slider" fill="none" stroke="currentColor" stroke-width="1.6" stroke-linecap="round"><path d="M3 7 h14 M3 13 h14"/><circle cx="8" cy="7" r="1.9" fill="#fff"/><circle cx="13" cy="13" r="1.9" fill="#fff"/></g>
    <g id="ic-search" fill="none" stroke="currentColor" stroke-width="1.7" stroke-linecap="round"><circle cx="9" cy="9" r="5.5"/><path d="M13.2 13.2 L17.2 17.2"/></g>
    <g id="ic-bell" fill="none" stroke="currentColor" stroke-width="1.6" stroke-linejoin="round" stroke-linecap="round"><path d="M10 3 a4.6 4.6 0 0 1 4.6 4.6 c0 4 1.4 5.4 1.4 5.4 h-12 s1.4-1.4 1.4-5.4 a4.6 4.6 0 0 1 4.6-4.6z"/><path d="M8.3 16 a1.8 1.8 0 0 0 3.4 0"/></g>
    <g id="ic-menu" fill="none" stroke="currentColor" stroke-width="1.8" stroke-linecap="round"><path d="M3 6 h16 M3 11 h16 M3 16 h16"/></g>
    <g id="ic-warn" fill="none" stroke="currentColor" stroke-width="2" stroke-linejoin="round" stroke-linecap="round"><path d="M14 4 L25 23 H3 z"/><path d="M14 11 v6 M14 19.5 v.1"/></g>
    <g id="ic-send" fill="none" stroke="currentColor" stroke-width="1.7" stroke-linejoin="round" stroke-linecap="round"><path d="M17.5 2.5 L8.8 11.2 M17.5 2.5 l-6.2 14.5 -2.6-5.7 L3 8.7 z"/></g>
    <g id="ic-lock" fill="none" stroke="currentColor" stroke-width="1.6" stroke-linejoin="round"><rect x="4.5" y="9" width="11" height="8" rx="1.6"/><path d="M6.7 9 V6.7 a3.3 3.3 0 0 1 6.6 0 V9"/></g>
  </defs>
  <style>
    .navi{fill:#5A6A85;font-weight:500}.col{fill:#8A95A5;font-weight:600;letter-spacing:.4px}
    .h{fill:#2A3547;font-weight:600}.sub{fill:#5A6A85;font-weight:400}.lbl{fill:#8A95A5;font-weight:600}.cell{fill:#2A3547;font-weight:500}.mut{fill:#8A95A5;font-weight:500}.fr{fill:#9AA4B2;font-weight:400;font-style:italic}.num{fill:#2A3547;font-weight:700}
  </style>
  <rect width="1440" height="860" fill="#F4F6FB"/>
  <!-- sidebar -->
  <rect x="0" y="0" width="256" height="860" fill="#FFFFFF"/><line x1="256" y1="0" x2="256" y2="860" stroke="#ECEFF4"/>
  <rect x="24" y="21" width="30" height="30" rx="8" fill="#c479c2"/><text x="39" y="42" font-size="17" font-weight="700" fill="#FFFFFF" text-anchor="middle">S</text><text x="66" y="42" font-size="19" font-weight="700" fill="#2A3547">Squibbon</text>
  <rect x="170" y="26" width="58" height="18" rx="9" fill="#E6FBFA"/><text x="199" y="39" font-size="10.5" font-weight="700" fill="#0F9C96" text-anchor="middle">SHOP</text>
  <text x="24" y="90" class="col" font-size="11">SHOP</text>
  <g style="color:#5A6A85"><use href="#ic-grid" x="22" y="100" width="18" height="18"/></g><text x="50" y="114" class="navi" font-size="12.5">Dashboard</text>
  <g style="color:#5A6A85"><use href="#ic-board" x="22" y="138" width="18" height="18"/></g><text x="50" y="152" class="navi" font-size="12.5">Workflow</text>
  <rect x="12" y="172" width="232" height="28" rx="7" fill="#FFEBFE"/>
  <g style="color:#c479c2"><use href="#ic-clip" x="22" y="177" width="18" height="18"/></g><text x="50" y="191" font-size="12.5" font-weight="600" fill="#c479c2">Work orders</text>
  <g style="color:#5A6A85"><use href="#ic-user" x="22" y="214" width="18" height="18"/></g><text x="50" y="228" class="navi" font-size="12.5">Customers</text>
  <g style="color:#5A6A85"><use href="#ic-truck" x="22" y="252" width="18" height="18"/></g><text x="50" y="266" class="navi" font-size="12.5">Vehicles</text>
  <text x="24" y="304" class="col" font-size="11">PARTS &amp; VENDORS</text>
  <g style="color:#5A6A85"><use href="#ic-box" x="22" y="314" width="18" height="18"/></g><text x="50" y="328" class="navi" font-size="12.5">Inventory / parts</text>
  <g style="color:#5A6A85"><use href="#ic-cart" x="22" y="352" width="18" height="18"/></g><text x="50" y="366" class="navi" font-size="12.5">Purchase orders</text>
  <g style="color:#5A6A85"><use href="#ic-building" x="22" y="390" width="18" height="18"/></g><text x="50" y="404" class="navi" font-size="12.5">Vendors</text>
  <text x="24" y="442" class="col" font-size="11">BILLING</text>
  <g style="color:#5A6A85"><use href="#ic-bill" x="22" y="452" width="18" height="18"/></g><text x="50" y="466" class="navi" font-size="12.5">Invoices</text>
  <g style="color:#5A6A85"><use href="#ic-card" x="22" y="490" width="18" height="18"/></g><text x="50" y="504" class="navi" font-size="12.5">Payments</text>
  <g style="color:#5A6A85"><use href="#ic-chart" x="22" y="528" width="18" height="18"/></g><text x="50" y="542" class="navi" font-size="12.5">Reports</text>
  <text x="24" y="580" class="col" font-size="11">SETTINGS</text>
  <g style="color:#5A6A85"><use href="#ic-slider" x="22" y="590" width="18" height="18"/></g><text x="50" y="604" class="navi" font-size="12.5">Shop settings</text>
  <!-- header -->
  <rect x="256" y="0" width="1184" height="72" fill="#FFFFFF"/><line x1="256" y1="72" x2="1440" y2="72" stroke="#ECEFF4"/>
  <g style="color:#5A6A85"><use href="#ic-menu" x="282" y="26" width="20" height="20"/></g>
  <rect x="324" y="18" width="300" height="36" rx="18" fill="#F4F6FB"/><g style="color:#8A95A5"><use href="#ic-search" x="340" y="27" width="18" height="18"/></g><text x="366" y="41" font-size="12.5" fill="#9AA4B2">Search WO, customer, plate or VIN…</text>
  <rect x="1108" y="17" width="170" height="38" rx="8" fill="#E7E9EE"/><g style="color:#A6AEBC"><use href="#ic-lock" x="1138" y="28" width="16" height="16"/></g><text x="1166" y="41" font-size="12.5" font-weight="600" fill="#A6AEBC">Convert to invoice</text>
  <g style="color:#5A6A85"><use href="#ic-bell" x="1300" y="26" width="20" height="20"/></g><circle cx="1317" cy="27" r="4" fill="#FA5A5A"/>
  <text x="1368" y="33" font-size="12.5" font-weight="600" fill="#2A3547" text-anchor="end">T. Hopper</text><text x="1368" y="47" font-size="10.5" fill="#8A95A5" text-anchor="end">Advisor</text>
  <circle cx="1392" cy="36" r="16" fill="#FFEBFE"/><text x="1392" y="40" font-size="12" font-weight="700" fill="#c479c2" text-anchor="middle">TH</text>
  <!-- background content -->
  <text x="280" y="116" font-size="22" font-weight="700" fill="#2A3547">WO-10428</text>
  <rect x="424" y="101" width="92" height="22" rx="11" fill="#E6FBF5"/><text x="470" y="116" font-size="11" font-weight="600" fill="#0F9C96" text-anchor="middle">Authorized</text>
  <text x="280" y="138" font-size="12.5" fill="#5A6A85">Acme Fleet Ltd · 2019 Ford F-150 · Ontario</text>
  <!-- headroom bar -->
  <rect x="280" y="170" width="1136" height="96" rx="12" fill="#FFFFFF" stroke="#ECEFF4" filter="url(#sh)"/>
  <text x="304" y="200" class="lbl" font-size="11">ESTIMATE CEILING — ONTARIO (+10%)</text>
  <text x="1392" y="200" class="mut" font-size="11" text-anchor="end">Authorized $734.50 · ceiling $807.95</text>
  <rect x="304" y="216" width="1088" height="18" rx="9" fill="#EEF1F6"/>
  <rect x="304" y="216" width="888" height="18" rx="9" fill="#16CDC7"/>
  <rect x="1192" y="216" width="98" height="18" fill="#F4C150"/>
  <rect x="1290" y="216" width="102" height="18" rx="9" fill="#E26D63"/>
  <line x1="1192" y1="210" x2="1192" y2="240" stroke="#0F9C96" stroke-width="2"/><text x="1192" y="254" font-size="10" font-weight="700" fill="#0F9C96" text-anchor="middle">$734.50</text>
  <line x1="1290" y1="210" x2="1290" y2="240" stroke="#A8720F" stroke-width="2"/><text x="1290" y="254" font-size="10" font-weight="700" fill="#A8720F" text-anchor="middle">$807.95</text>
  <circle cx="1372" cy="225" r="7" fill="#C0392B" stroke="#fff" stroke-width="2"/><text x="1380" y="254" font-size="10" font-weight="700" fill="#C0392B" text-anchor="end">now $880</text>
  <!-- jobs faint -->
  <rect x="280" y="282" width="1136" height="60" rx="12" fill="#FFFFFF" stroke="#ECEFF4"/>
  <text x="304" y="308" class="cell" font-size="13">Front brake service</text><text x="304" y="326" class="mut" font-size="11">Authorized</text><text x="1392" y="316" class="cell" font-size="13" text-anchor="end">$402.00</text>
  <rect x="280" y="350" width="1136" height="60" rx="12" fill="#FFFFFF" stroke="#ECEFF4"/>
  <text x="304" y="376" class="cell" font-size="13">Windshield replacement (sublet)</text><text x="304" y="394" class="mut" font-size="11">Authorized</text><text x="1392" y="384" class="cell" font-size="13" text-anchor="end">$230.00</text>
  <rect x="280" y="418" width="1136" height="60" rx="12" fill="#FEF6F4" stroke="#F3D6CF"/>
  <text x="304" y="444" class="cell" font-size="13">Rear brake service — added by tech</text><rect x="556" y="432" width="60" height="20" rx="10" fill="#FDECEC"/><text x="586" y="446" font-size="10" font-weight="700" fill="#C0392B" text-anchor="middle">NEW</text><text x="304" y="462" class="mut" font-size="11">Found during inspection · not yet authorized</text><text x="1392" y="452" class="cell" font-size="13" text-anchor="end">$145.50</text>

  <!-- dim overlay -->
  <rect x="0" y="0" width="1440" height="860" fill="#1B2230" opacity="0.5"/>

  <!-- MODAL -->
  <rect x="556" y="206" width="584" height="452" rx="16" fill="#FFFFFF" filter="url(#shm)"/>
  <circle cx="848" cy="262" r="28" fill="#FDECEC"/><g style="color:#C0392B"><use href="#ic-warn" x="834" y="248" width="28" height="28"/></g>
  <text x="848" y="316" font-size="20" font-weight="700" fill="#2A3547" text-anchor="middle">Re-authorization required</text>
  <text x="848" y="338" class="fr" font-size="13" text-anchor="middle">Nouvelle autorisation requise</text>
  <text x="848" y="370" class="sub" font-size="13" text-anchor="middle">Adding <tspan fill="#2A3547" font-weight="600">Rear brake service ($145.50)</tspan> brings the total to</text>
  <text x="848" y="390" class="sub" font-size="13" text-anchor="middle"><tspan fill="#C0392B" font-weight="700">$880.00</tspan> — above Ontario's ceiling of <tspan fill="#2A3547" font-weight="600">$807.95</tspan>.</text>
  <!-- comparison -->
  <rect x="588" y="412" width="166" height="74" rx="10" fill="#F4F6FB"/><text x="671" y="436" class="lbl" font-size="10" text-anchor="middle">AUTHORIZED</text><text x="671" y="462" class="num" font-size="18" text-anchor="middle">$734.50</text><text x="671" y="478" class="mut" font-size="10" text-anchor="middle">original estimate</text>
  <rect x="765" y="412" width="166" height="74" rx="10" fill="#FFFBF2" stroke="#F0DFBE"/><text x="848" y="436" class="lbl" font-size="10" fill="#A8720F" text-anchor="middle">CEILING +10%</text><text x="848" y="462" class="num" font-size="18" fill="#A8720F" text-anchor="middle">$807.95</text><text x="848" y="478" class="mut" font-size="10" text-anchor="middle">max billable</text>
  <rect x="942" y="412" width="166" height="74" rx="10" fill="#FDECEC" stroke="#F3C2BC"/><text x="1025" y="436" class="lbl" font-size="10" fill="#C0392B" text-anchor="middle">NEW TOTAL</text><text x="1025" y="462" class="num" font-size="18" fill="#C0392B" text-anchor="middle">$880.00</text><text x="1025" y="478" class="mut" font-size="10" fill="#C0392B" text-anchor="middle">+$72.05 over</text>
  <text x="848" y="516" class="mut" font-size="12" text-anchor="middle">Additional work must be approved by the customer before it can be billed.</text>
  <line x1="588" y1="536" x2="1108" y2="536" stroke="#ECEFF4"/>
  <!-- actions -->
  <rect x="588" y="558" width="312" height="48" rx="9" fill="#c479c2"/><g style="color:#fff"><use href="#ic-send" x="640" y="570" width="17" height="17"/></g><text x="668" y="587" font-size="13.5" font-weight="600" fill="#fff">Request re-authorization (SMS)</text>
  <rect x="912" y="558" width="196" height="48" rx="9" fill="#FFFFFF" stroke="#DDE3EC"/><text x="1010" y="587" font-size="13.5" font-weight="600" fill="#5A6A85" text-anchor="middle">Adjust work</text>
  <text x="848" y="632" class="mut" font-size="11" text-anchor="middle">Customer re-approval is captured &amp; logged just like the original authorization · Quebec ceiling is 0% (no overage).</text>
</svg>
