<svg viewBox="0 0 1440 820" xmlns="http://www.w3.org/2000/svg" font-family="'Plus Jakarta Sans','Inter','Segoe UI',system-ui,sans-serif" role="img" aria-labelledby="t">
  <title id="t">Squibbon Shop — Invoice: parts return &amp; statutory warranty</title>
  <defs>
    <filter id="sh" x="-6%" y="-10%" width="112%" height="124%"><feDropShadow dx="0" dy="3" stdDeviation="6" flood-color="#2A3547" flood-opacity="0.07"/></filter>
    <g id="ic-grid" fill="none" stroke="currentColor" stroke-width="1.6"><rect x="3" y="3" width="6" height="6" rx="1.5"/><rect x="11" y="3" width="6" height="6" rx="1.5"/><rect x="3" y="11" width="6" height="6" rx="1.5"/><rect x="11" y="11" width="6" height="6" rx="1.5"/></g>
    <g id="ic-board" fill="none" stroke="currentColor" stroke-width="1.6"><rect x="3" y="3.5" width="4" height="13" rx="1"/><rect x="8" y="3.5" width="4" height="9" rx="1"/><rect x="13" y="3.5" width="4" height="13" rx="1"/></g>
    <g id="ic-clip" fill="none" stroke="currentColor" stroke-width="1.6" stroke-linejoin="round" stroke-linecap="round"><rect x="4.5" y="3.5" width="11" height="13.5" rx="2"/><rect x="7.5" y="2" width="5" height="3" rx="1"/><path d="M7.2 9 h5.6 M7.2 12 h5.6"/></g>
    <g id="ic-user" fill="none" stroke="currentColor" stroke-width="1.6" stroke-linecap="round"><circle cx="10" cy="7" r="3.2"/><path d="M4.5 16.5 a5.5 5.5 0 0 1 11 0"/></g>
    <g id="ic-truck" fill="none" stroke="currentColor" stroke-width="1.6" stroke-linejoin="round" stroke-linecap="round"><path d="M2.5 6 h8 v7 h-8 z"/><path d="M10.5 8.5 h3.2 l2.4 2.3 v2.2 h-5.6 z"/><circle cx="6" cy="15" r="1.5"/><circle cx="13.7" cy="15" r="1.5"/></g>
    <g id="ic-box" fill="none" stroke="currentColor" stroke-width="1.6" stroke-linejoin="round" stroke-linecap="round"><path d="M10 2.6 l6.4 3.5 v7.8 l-6.4 3.5 -6.4-3.5 v-7.8z"/><path d="M3.6 6.1 L10 9.6 l6.4-3.5 M10 9.6 V17.4"/></g>
    <g id="ic-building" fill="none" stroke="currentColor" stroke-width="1.6" stroke-linejoin="round"><rect x="4.5" y="3.5" width="11" height="14" rx="1.2"/><path d="M7.5 7 h1 M11.5 7 h1 M7.5 10 h1 M11.5 10 h1"/><path d="M8.5 17.5 v-3 h3 v3"/></g>
    <g id="ic-cart" fill="none" stroke="currentColor" stroke-width="1.6" stroke-linejoin="round" stroke-linecap="round"><path d="M3 4 h2.2 l1.8 8.4 h7.6 l1.6-5.8 H6.2"/><circle cx="8" cy="16" r="1.3"/><circle cx="14.5" cy="16" r="1.3"/></g>
    <g id="ic-bill" fill="none" stroke="currentColor" stroke-width="1.6" stroke-linejoin="round" stroke-linecap="round"><path d="M5 2.6 h10 v15 l-2-1.3 -2 1.3 -2-1.3 -2 1.3 -2-1.3z"/><path d="M7.4 7 h5.2 M7.4 10 h5.2 M7.4 13 h3.2"/></g>
    <g id="ic-card" fill="none" stroke="currentColor" stroke-width="1.6" stroke-linejoin="round"><rect x="2.5" y="5" width="15" height="10" rx="2"/><path d="M2.5 8.5 h15 M5 12 h3"/></g>
    <g id="ic-chart" fill="none" stroke="currentColor" stroke-width="1.6" stroke-linejoin="round" stroke-linecap="round"><path d="M3 16.5 h14"/><rect x="4.5" y="9" width="2.6" height="5.5"/><rect x="8.7" y="6" width="2.6" height="8.5"/><rect x="12.9" y="11" width="2.6" height="3.5"/></g>
    <g id="ic-slider" fill="none" stroke="currentColor" stroke-width="1.6" stroke-linecap="round"><path d="M3 7 h14 M3 13 h14"/><circle cx="8" cy="7" r="1.9" fill="#fff"/><circle cx="13" cy="13" r="1.9" fill="#fff"/></g>
    <g id="ic-search" fill="none" stroke="currentColor" stroke-width="1.7" stroke-linecap="round"><circle cx="9" cy="9" r="5.5"/><path d="M13.2 13.2 L17.2 17.2"/></g>
    <g id="ic-bell" fill="none" stroke="currentColor" stroke-width="1.6" stroke-linejoin="round" stroke-linecap="round"><path d="M10 3 a4.6 4.6 0 0 1 4.6 4.6 c0 4 1.4 5.4 1.4 5.4 h-12 s1.4-1.4 1.4-5.4 a4.6 4.6 0 0 1 4.6-4.6z"/><path d="M8.3 16 a1.8 1.8 0 0 0 3.4 0"/></g>
    <g id="ic-menu" fill="none" stroke="currentColor" stroke-width="1.8" stroke-linecap="round"><path d="M3 6 h16 M3 11 h16 M3 16 h16"/></g>
    <g id="ic-check" fill="none" stroke="currentColor" stroke-width="2" stroke-linecap="round" stroke-linejoin="round"><path d="M4 10.5 l3.6 3.6 L16 6"/></g>
    <g id="ic-shield" fill="none" stroke="currentColor" stroke-width="1.6" stroke-linejoin="round" stroke-linecap="round"><path d="M10 2.5 L16.5 5 v5 c0 4.5-3.2 6.8-6.5 8 -3.3-1.2-6.5-3.5-6.5-8 V5z"/><path d="M7 10 l2 2 4-4.2"/></g>
    <g id="ic-print" fill="none" stroke="currentColor" stroke-width="1.6" stroke-linejoin="round"><path d="M6 8 V3.5 h8 V8"/><rect x="3.5" y="8" width="13" height="6.5" rx="1.5"/><rect x="6" y="12" width="8" height="4.5"/></g>
  </defs>
  <style>
    .navi{fill:#5A6A85;font-weight:500}.col{fill:#8A95A5;font-weight:600;letter-spacing:.4px}
    .h{fill:#2A3547;font-weight:600}.sub{fill:#5A6A85;font-weight:400}.lbl{fill:#8A95A5;font-weight:600}.cell{fill:#2A3547;font-weight:500}.mut{fill:#8A95A5;font-weight:500}.fr{fill:#9AA4B2;font-weight:400;font-style:italic}.num{fill:#2A3547;font-weight:700}
  </style>
  <rect width="1440" height="820" fill="#F4F6FB"/>
  <rect x="0" y="0" width="256" height="820" fill="#FFFFFF"/><line x1="256" y1="0" x2="256" y2="820" stroke="#ECEFF4"/>
  <rect x="24" y="21" width="30" height="30" rx="8" fill="#c479c2"/><text x="39" y="42" font-size="17" font-weight="700" fill="#FFFFFF" text-anchor="middle">S</text><text x="66" y="42" font-size="19" font-weight="700" fill="#2A3547">Squibbon</text>
  <rect x="170" y="26" width="58" height="18" rx="9" fill="#E6FBFA"/><text x="199" y="39" font-size="10.5" font-weight="700" fill="#0F9C96" text-anchor="middle">SHOP</text>
  <text x="24" y="90" class="col" font-size="11">SHOP</text>
  <g style="color:#5A6A85"><use href="#ic-grid" x="22" y="100" width="18" height="18"/></g><text x="50" y="114" class="navi" font-size="12.5">Dashboard</text>
  <g style="color:#5A6A85"><use href="#ic-board" x="22" y="138" width="18" height="18"/></g><text x="50" y="152" class="navi" font-size="12.5">Workflow</text>
  <g style="color:#5A6A85"><use href="#ic-clip" x="22" y="177" width="18" height="18"/></g><text x="50" y="191" class="navi" font-size="12.5">Work orders</text>
  <g style="color:#5A6A85"><use href="#ic-user" x="22" y="214" width="18" height="18"/></g><text x="50" y="228" class="navi" font-size="12.5">Customers</text>
  <g style="color:#5A6A85"><use href="#ic-truck" x="22" y="252" width="18" height="18"/></g><text x="50" y="266" class="navi" font-size="12.5">Vehicles</text>
  <text x="24" y="304" class="col" font-size="11">PARTS &amp; VENDORS</text>
  <g style="color:#5A6A85"><use href="#ic-box" x="22" y="314" width="18" height="18"/></g><text x="50" y="328" class="navi" font-size="12.5">Inventory / parts</text>
  <g style="color:#5A6A85"><use href="#ic-cart" x="22" y="352" width="18" height="18"/></g><text x="50" y="366" class="navi" font-size="12.5">Purchase orders</text>
  <g style="color:#5A6A85"><use href="#ic-building" x="22" y="390" width="18" height="18"/></g><text x="50" y="404" class="navi" font-size="12.5">Vendors</text>
  <text x="24" y="442" class="col" font-size="11">BILLING</text>
  <rect x="12" y="446" width="232" height="28" rx="7" fill="#FFEBFE"/>
  <g style="color:#c479c2"><use href="#ic-bill" x="22" y="451" width="18" height="18"/></g><text x="50" y="465" font-size="12.5" font-weight="600" fill="#c479c2">Invoices</text>
  <g style="color:#5A6A85"><use href="#ic-card" x="22" y="490" width="18" height="18"/></g><text x="50" y="504" class="navi" font-size="12.5">Payments</text>
  <g style="color:#5A6A85"><use href="#ic-chart" x="22" y="528" width="18" height="18"/></g><text x="50" y="542" class="navi" font-size="12.5">Reports</text>
  <text x="24" y="580" class="col" font-size="11">SETTINGS</text>
  <g style="color:#5A6A85"><use href="#ic-slider" x="22" y="590" width="18" height="18"/></g><text x="50" y="604" class="navi" font-size="12.5">Shop settings</text>

  <rect x="256" y="0" width="1184" height="72" fill="#FFFFFF"/><line x1="256" y1="72" x2="1440" y2="72" stroke="#ECEFF4"/>
  <g style="color:#5A6A85"><use href="#ic-menu" x="282" y="26" width="20" height="20"/></g>
  <rect x="324" y="18" width="300" height="36" rx="18" fill="#F4F6FB"/><g style="color:#8A95A5"><use href="#ic-search" x="340" y="27" width="18" height="18"/></g><text x="366" y="41" font-size="12.5" fill="#9AA4B2">Search invoices…</text>
  <rect x="1086" y="17" width="100" height="38" rx="8" fill="#FFFFFF" stroke="#DDE3EC"/><g style="color:#5A6A85"><use href="#ic-print" x="1106" y="28" width="16" height="16"/></g><text x="1136" y="41" font-size="12.5" font-weight="600" fill="#5A6A85">Print</text>
  <rect x="1198" y="17" width="80" height="38" rx="8" fill="#c479c2"/><text x="1238" y="41" font-size="12.5" font-weight="600" fill="#FFFFFF" text-anchor="middle">Pay</text>
  <g style="color:#5A6A85"><use href="#ic-bell" x="1300" y="26" width="20" height="20"/></g><circle cx="1317" cy="27" r="4" fill="#FA5A5A"/>
  <text x="1368" y="33" font-size="12.5" font-weight="600" fill="#2A3547" text-anchor="end">T. Hopper</text><text x="1368" y="47" font-size="10.5" fill="#8A95A5" text-anchor="end">Advisor</text>
  <circle cx="1392" cy="36" r="16" fill="#FFEBFE"/><text x="1392" y="40" font-size="12" font-weight="700" fill="#c479c2" text-anchor="middle">TH</text>

  <text x="280" y="116" font-size="22" font-weight="700" fill="#2A3547">Invoice INV-20451</text>
  <text x="280" y="138" font-size="13" fill="#5A6A85">Squibbon Auto Care — Succursale Montréal · Quebec rules apply (no overage; statutory warranty)</text>

  <!-- INVOICE DOC -->
  <rect x="280" y="158" width="712" height="610" rx="12" fill="#FFFFFF" stroke="#ECEFF4" filter="url(#sh)"/>
  <text x="304" y="194" font-size="17" font-weight="700" fill="#2A3547">Invoice</text><text x="380" y="194" class="fr" font-size="15">/ Facture</text>
  <text x="968" y="184" class="mut" font-size="11.5" text-anchor="end">Squibbon Auto Care</text><text x="968" y="200" class="mut" font-size="11" text-anchor="end">2200 Rue Sherbrooke E, Montréal QC · TVQ 1012…</text>
  <line x1="304" y1="214" x2="968" y2="214" stroke="#ECEFF4"/>
  <text x="304" y="240" class="lbl" font-size="10.5">BILL TO / FACTURER À</text><text x="304" y="260" class="cell" font-size="13">Transport Lévis Inc. · (514) 555-0177</text>
  <text x="664" y="240" class="lbl" font-size="10.5">VEHICLE / VÉHICULE</text><text x="664" y="260" class="cell" font-size="13">2018 RAM 1500 · FAB 902 · 96,400 km</text>
  <line x1="304" y1="280" x2="968" y2="280" stroke="#F4F6FA"/>
  <g class="col" font-size="10"><text x="304" y="304">DESCRIPTION</text><text x="724" y="304">PARTS</text><text x="820" y="304">LABOUR</text><text x="968" y="304" text-anchor="end">TOTAL</text></g>
  <line x1="304" y1="312" x2="968" y2="312" stroke="#ECEFF4"/>
  <text x="304" y="338" class="cell" font-size="12.5">Front brakes — pads &amp; rotors</text><text x="304" y="356" class="fr" font-size="11">Freins avant — plaquettes et disques</text><text x="724" y="338" class="sub" font-size="12">$162.00</text><text x="820" y="338" class="sub" font-size="12">$240.00</text><text x="968" y="338" class="cell" font-size="12.5" text-anchor="end">$402.00</text>
  <line x1="304" y1="372" x2="968" y2="372" stroke="#F4F6FA"/>
  <text x="304" y="398" class="cell" font-size="12.5">Brake fluid flush</text><text x="304" y="416" class="fr" font-size="11">Purge du liquide de frein</text><text x="724" y="398" class="sub" font-size="12">$14.00</text><text x="820" y="398" class="sub" font-size="12">$72.00</text><text x="968" y="398" class="cell" font-size="12.5" text-anchor="end">$86.00</text>
  <line x1="304" y1="432" x2="968" y2="432" stroke="#ECEFF4"/>
  <text x="724" y="458" class="mut" font-size="12">Subtotal / Sous-total</text><text x="968" y="458" class="cell" font-size="12.5" text-anchor="end">$488.00</text>
  <text x="724" y="480" class="mut" font-size="12">Shop supplies / Fournitures</text><text x="968" y="480" class="cell" font-size="12.5" text-anchor="end">$16.00</text>
  <text x="724" y="502" class="mut" font-size="12">GST / TPS (5%)</text><text x="968" y="502" class="cell" font-size="12.5" text-anchor="end">$25.20</text>
  <text x="724" y="524" class="mut" font-size="12">QST / TVQ (9.975%)</text><text x="968" y="524" class="cell" font-size="12.5" text-anchor="end">$50.27</text>
  <line x1="724" y1="538" x2="968" y2="538" stroke="#ECEFF4"/>
  <text x="724" y="566" class="h" font-size="14">Total</text><text x="968" y="568" class="num" font-size="18" text-anchor="end">$579.47</text>
  <!-- estimate vs final inline -->
  <rect x="304" y="592" width="664" height="50" rx="9" fill="#E6FBF5" stroke="#BDEBDD"/>
  <g style="color:#0F9C96"><use href="#ic-check" x="322" y="608" width="18" height="18"/></g>
  <text x="350" y="613" class="cell" font-size="12.5">Within authorized estimate — Quebec (final ≤ estimate)</text>
  <text x="350" y="631" class="mut" font-size="11">Authorized $580.00 · Final $579.47 · variance −$0.53</text>
  <text x="952" y="623" class="num" font-size="13" fill="#0F9C96" text-anchor="end">✓ Compliant</text>
  <!-- warranty printed on invoice -->
  <text x="304" y="672" class="lbl" font-size="10">WARRANTY / GARANTIE</text>
  <text x="304" y="692" class="cell" font-size="11.5">Parts &amp; labour: 3 months or 5,000 km (Quebec statutory minimum). Brakes: 12 mo / 20,000 km (NAPA AutoCare).</text>
  <text x="304" y="710" class="fr" font-size="10.5">Pièces et main-d'œuvre : 3 mois ou 5 000 km (minimum légal du Québec).</text>
  <rect x="304" y="724" width="664" height="30" rx="8" fill="#F4F6FB"/><text x="324" y="744" class="mut" font-size="11">Replaced parts offered for return · itemized parts &amp; labour · bilingual (Consumer Protection Act).</text>

  <!-- RIGHT RAIL -->
  <!-- estimate compliance -->
  <rect x="1008" y="158" width="408" height="132" rx="12" fill="#FFFFFF" stroke="#ECEFF4" filter="url(#sh)"/>
  <g style="color:#0F9C96"><use href="#ic-shield" x="1028" y="178" width="20" height="20"/></g><text x="1056" y="192" class="h" font-size="14">Estimate compliance</text>
  <rect x="1028" y="212" width="170" height="58" rx="9" fill="#F4F6FB"/><text x="1042" y="234" class="lbl" font-size="9.5">AUTHORIZED</text><text x="1042" y="258" class="num" font-size="17">$580.00</text>
  <rect x="1210" y="212" width="186" height="58" rx="9" fill="#E6FBF5"/><text x="1224" y="234" class="lbl" font-size="9.5" fill="#0F9C96">FINAL (QC ≤ EST.)</text><text x="1224" y="258" class="num" font-size="17" fill="#0F9C96">$579.47</text>

  <!-- replaced parts -->
  <rect x="1008" y="306" width="408" height="190" rx="12" fill="#FFFFFF" stroke="#ECEFF4" filter="url(#sh)"/>
  <g style="color:#c479c2"><use href="#ic-box" x="1028" y="326" width="20" height="20"/></g><text x="1056" y="340" class="h" font-size="14">Replaced parts</text>
  <rect x="1304" y="324" width="92" height="22" rx="11" fill="#FBF3FB"/><text x="1350" y="339" font-size="10" font-weight="700" fill="#c479c2" text-anchor="middle">Return: ON</text>
  <text x="1028" y="368" class="mut" font-size="11">Customer requested replaced parts at authorization.</text>
  <text x="1028" y="394" class="cell" font-size="12.5">Front brake pads (worn)</text><rect x="1300" y="382" width="96" height="20" rx="10" fill="#E6FBF5"/><text x="1348" y="396" font-size="9.5" font-weight="700" fill="#0F9C96" text-anchor="middle">Bagged ✓</text>
  <text x="1028" y="420" class="cell" font-size="12.5">Front rotors ×2</text><rect x="1300" y="408" width="96" height="20" rx="10" fill="#E6FBF5"/><text x="1348" y="422" font-size="9.5" font-weight="700" fill="#0F9C96" text-anchor="middle">Bagged ✓</text>
  <line x1="1028" y1="438" x2="1396" y2="438" stroke="#F4F6FA"/>
  <text x="1028" y="460" class="cell" font-size="12">Brake fluid (consumable)</text><text x="1396" y="460" class="mut" font-size="11" text-anchor="end">Not returnable</text>
  <text x="1028" y="482" class="mut" font-size="10.5">Warranty / core parts are excluded from return.</text>

  <!-- warranty -->
  <rect x="1008" y="512" width="408" height="256" rx="12" fill="#FFFFFF" stroke="#ECEFF4" filter="url(#sh)"/>
  <g style="color:#0F9C96"><use href="#ic-shield" x="1028" y="532" width="20" height="20"/></g><text x="1056" y="546" class="h" font-size="14">Warranty / Garantie</text>
  <rect x="1028" y="566" width="368" height="76" rx="10" fill="#E6FBF5" stroke="#BDEBDD"/>
  <text x="1046" y="588" class="lbl" font-size="10" fill="#0B7A6E">QUEBEC STATUTORY MINIMUM</text>
  <text x="1046" y="610" class="cell" font-size="13">Parts &amp; labour — 3 months / 5,000 km</text>
  <text x="1046" y="630" class="mut" font-size="11">Auto-applied · whichever comes first · non-waivable</text>
  <rect x="1028" y="654" width="368" height="58" rx="10" fill="#FBF3FB" stroke="#EBD3EA"/>
  <text x="1046" y="676" class="lbl" font-size="10" fill="#c479c2">SHOP / PROGRAM WARRANTY</text>
  <text x="1046" y="698" class="cell" font-size="12.5">Brakes — 12 months / 20,000 km (NAPA AutoCare)</text>
  <text x="1028" y="736" class="mut" font-size="10.5">Terms print on every invoice (EN/FR) and feed the</text><text x="1028" y="752" class="mut" font-size="10.5">warranty register for future claims.</text>
</svg>
