<svg viewBox="0 0 1440 780" xmlns="http://www.w3.org/2000/svg" font-family="'Plus Jakarta Sans','Inter','Segoe UI',system-ui,sans-serif" role="img" aria-labelledby="t">
  <title id="t">Squibbon Shop — Compliance province settings</title>
  <defs>
    <filter id="sh" x="-6%" y="-10%" width="112%" height="124%"><feDropShadow dx="0" dy="3" stdDeviation="6" flood-color="#2A3547" flood-opacity="0.07"/></filter>
    <g id="ic-grid" fill="none" stroke="currentColor" stroke-width="1.6"><rect x="3" y="3" width="6" height="6" rx="1.5"/><rect x="11" y="3" width="6" height="6" rx="1.5"/><rect x="3" y="11" width="6" height="6" rx="1.5"/><rect x="11" y="11" width="6" height="6" rx="1.5"/></g>
    <g id="ic-board" fill="none" stroke="currentColor" stroke-width="1.6"><rect x="3" y="3.5" width="4" height="13" rx="1"/><rect x="8" y="3.5" width="4" height="9" rx="1"/><rect x="13" y="3.5" width="4" height="13" rx="1"/></g>
    <g id="ic-clip" fill="none" stroke="currentColor" stroke-width="1.6" stroke-linejoin="round" stroke-linecap="round"><rect x="4.5" y="3.5" width="11" height="13.5" rx="2"/><rect x="7.5" y="2" width="5" height="3" rx="1"/><path d="M7.2 9 h5.6 M7.2 12 h5.6"/></g>
    <g id="ic-user" fill="none" stroke="currentColor" stroke-width="1.6" stroke-linecap="round"><circle cx="10" cy="7" r="3.2"/><path d="M4.5 16.5 a5.5 5.5 0 0 1 11 0"/></g>
    <g id="ic-truck" fill="none" stroke="currentColor" stroke-width="1.6" stroke-linejoin="round" stroke-linecap="round"><path d="M2.5 6 h8 v7 h-8 z"/><path d="M10.5 8.5 h3.2 l2.4 2.3 v2.2 h-5.6 z"/><circle cx="6" cy="15" r="1.5"/><circle cx="13.7" cy="15" r="1.5"/></g>
    <g id="ic-box" fill="none" stroke="currentColor" stroke-width="1.6" stroke-linejoin="round" stroke-linecap="round"><path d="M10 2.6 l6.4 3.5 v7.8 l-6.4 3.5 -6.4-3.5 v-7.8z"/><path d="M3.6 6.1 L10 9.6 l6.4-3.5 M10 9.6 V17.4"/></g>
    <g id="ic-building" fill="none" stroke="currentColor" stroke-width="1.6" stroke-linejoin="round"><rect x="4.5" y="3.5" width="11" height="14" rx="1.2"/><path d="M7.5 7 h1 M11.5 7 h1 M7.5 10 h1 M11.5 10 h1"/><path d="M8.5 17.5 v-3 h3 v3"/></g>
    <g id="ic-cart" fill="none" stroke="currentColor" stroke-width="1.6" stroke-linejoin="round" stroke-linecap="round"><path d="M3 4 h2.2 l1.8 8.4 h7.6 l1.6-5.8 H6.2"/><circle cx="8" cy="16" r="1.3"/><circle cx="14.5" cy="16" r="1.3"/></g>
    <g id="ic-bill" fill="none" stroke="currentColor" stroke-width="1.6" stroke-linejoin="round" stroke-linecap="round"><path d="M5 2.6 h10 v15 l-2-1.3 -2 1.3 -2-1.3 -2 1.3 -2-1.3z"/><path d="M7.4 7 h5.2 M7.4 10 h5.2 M7.4 13 h3.2"/></g>
    <g id="ic-card" fill="none" stroke="currentColor" stroke-width="1.6" stroke-linejoin="round"><rect x="2.5" y="5" width="15" height="10" rx="2"/><path d="M2.5 8.5 h15 M5 12 h3"/></g>
    <g id="ic-chart" fill="none" stroke="currentColor" stroke-width="1.6" stroke-linejoin="round" stroke-linecap="round"><path d="M3 16.5 h14"/><rect x="4.5" y="9" width="2.6" height="5.5"/><rect x="8.7" y="6" width="2.6" height="8.5"/><rect x="12.9" y="11" width="2.6" height="3.5"/></g>
    <g id="ic-slider" fill="none" stroke="currentColor" stroke-width="1.6" stroke-linecap="round"><path d="M3 7 h14 M3 13 h14"/><circle cx="8" cy="7" r="1.9" fill="#fff"/><circle cx="13" cy="13" r="1.9" fill="#fff"/></g>
    <g id="ic-search" fill="none" stroke="currentColor" stroke-width="1.7" stroke-linecap="round"><circle cx="9" cy="9" r="5.5"/><path d="M13.2 13.2 L17.2 17.2"/></g>
    <g id="ic-bell" fill="none" stroke="currentColor" stroke-width="1.6" stroke-linejoin="round" stroke-linecap="round"><path d="M10 3 a4.6 4.6 0 0 1 4.6 4.6 c0 4 1.4 5.4 1.4 5.4 h-12 s1.4-1.4 1.4-5.4 a4.6 4.6 0 0 1 4.6-4.6z"/><path d="M8.3 16 a1.8 1.8 0 0 0 3.4 0"/></g>
    <g id="ic-menu" fill="none" stroke="currentColor" stroke-width="1.8" stroke-linecap="round"><path d="M3 6 h16 M3 11 h16 M3 16 h16"/></g>
    <g id="ic-pin" fill="none" stroke="currentColor" stroke-width="1.6" stroke-linejoin="round" stroke-linecap="round"><path d="M10 17 s5-4.5 5-9 a5 5 0 0 0-10 0 c0 4.5 5 9 5 9z"/><circle cx="10" cy="8" r="1.8"/></g>
    <g id="ic-check" fill="none" stroke="currentColor" stroke-width="2" stroke-linecap="round" stroke-linejoin="round"><path d="M4 10.5 l3.6 3.6 L16 6"/></g>
  </defs>
  <style>
    .navi{fill:#5A6A85;font-weight:500}.col{fill:#8A95A5;font-weight:600;letter-spacing:.4px}
    .h{fill:#2A3547;font-weight:600}.lbl{fill:#5A6A85;font-weight:500}.val{fill:#2A3547;font-weight:600}.mut{fill:#8A95A5;font-weight:500}
  </style>
  <rect width="1440" height="780" fill="#F4F6FB"/>
  <rect x="0" y="0" width="256" height="780" fill="#FFFFFF"/><line x1="256" y1="0" x2="256" y2="780" stroke="#ECEFF4"/>
  <rect x="24" y="21" width="30" height="30" rx="8" fill="#c479c2"/><text x="39" y="42" font-size="17" font-weight="700" fill="#FFFFFF" text-anchor="middle">S</text><text x="66" y="42" font-size="19" font-weight="700" fill="#2A3547">Squibbon</text>
  <rect x="170" y="26" width="58" height="18" rx="9" fill="#E6FBFA"/><text x="199" y="39" font-size="10.5" font-weight="700" fill="#0F9C96" text-anchor="middle">SHOP</text>
  <text x="24" y="90" class="col" font-size="11">SHOP</text>
  <g style="color:#5A6A85"><use href="#ic-grid" x="22" y="100" width="18" height="18"/></g><text x="50" y="114" class="navi" font-size="12.5">Dashboard</text>
  <g style="color:#5A6A85"><use href="#ic-board" x="22" y="138" width="18" height="18"/></g><text x="50" y="152" class="navi" font-size="12.5">Workflow</text>
  <g style="color:#5A6A85"><use href="#ic-clip" x="22" y="177" width="18" height="18"/></g><text x="50" y="191" class="navi" font-size="12.5">Work orders</text>
  <g style="color:#5A6A85"><use href="#ic-user" x="22" y="214" width="18" height="18"/></g><text x="50" y="228" class="navi" font-size="12.5">Customers</text>
  <g style="color:#5A6A85"><use href="#ic-truck" x="22" y="252" width="18" height="18"/></g><text x="50" y="266" class="navi" font-size="12.5">Vehicles</text>
  <text x="24" y="304" class="col" font-size="11">PARTS &amp; VENDORS</text>
  <g style="color:#5A6A85"><use href="#ic-box" x="22" y="314" width="18" height="18"/></g><text x="50" y="328" class="navi" font-size="12.5">Inventory / parts</text>
  <g style="color:#5A6A85"><use href="#ic-cart" x="22" y="352" width="18" height="18"/></g><text x="50" y="366" class="navi" font-size="12.5">Purchase orders</text>
  <g style="color:#5A6A85"><use href="#ic-building" x="22" y="390" width="18" height="18"/></g><text x="50" y="404" class="navi" font-size="12.5">Vendors</text>
  <text x="24" y="442" class="col" font-size="11">BILLING</text>
  <g style="color:#5A6A85"><use href="#ic-bill" x="22" y="452" width="18" height="18"/></g><text x="50" y="466" class="navi" font-size="12.5">Invoices</text>
  <g style="color:#5A6A85"><use href="#ic-card" x="22" y="490" width="18" height="18"/></g><text x="50" y="504" class="navi" font-size="12.5">Payments</text>
  <g style="color:#5A6A85"><use href="#ic-chart" x="22" y="528" width="18" height="18"/></g><text x="50" y="542" class="navi" font-size="12.5">Reports</text>
  <text x="24" y="580" class="col" font-size="11">SETTINGS</text>
  <rect x="12" y="586" width="232" height="28" rx="7" fill="#FFEBFE"/>
  <g style="color:#c479c2"><use href="#ic-slider" x="22" y="591" width="18" height="18"/></g><text x="50" y="605" font-size="12.5" font-weight="600" fill="#c479c2">Shop settings</text>

  <rect x="256" y="0" width="1184" height="72" fill="#FFFFFF"/><line x1="256" y1="72" x2="1440" y2="72" stroke="#ECEFF4"/>
  <g style="color:#5A6A85"><use href="#ic-menu" x="282" y="26" width="20" height="20"/></g>
  <rect x="324" y="18" width="300" height="36" rx="18" fill="#F4F6FB"/><g style="color:#8A95A5"><use href="#ic-search" x="340" y="27" width="18" height="18"/></g><text x="366" y="41" font-size="12.5" fill="#9AA4B2">Search settings…</text>
  <rect x="1148" y="17" width="130" height="38" rx="8" fill="#c479c2"/><text x="1213" y="41" font-size="12.5" font-weight="600" fill="#FFFFFF" text-anchor="middle">Save changes</text>
  <g style="color:#5A6A85"><use href="#ic-bell" x="1300" y="26" width="20" height="20"/></g><circle cx="1317" cy="27" r="4" fill="#FA5A5A"/>
  <text x="1368" y="33" font-size="12.5" font-weight="600" fill="#2A3547" text-anchor="end">T. Hopper</text><text x="1368" y="47" font-size="10.5" fill="#8A95A5" text-anchor="end">Owner</text>
  <circle cx="1392" cy="36" r="16" fill="#FFEBFE"/><text x="1392" y="40" font-size="12" font-weight="700" fill="#c479c2" text-anchor="middle">TH</text>

  <text x="280" y="116" font-size="22" font-weight="700" fill="#2A3547">Repair-transaction compliance</text>
  <text x="280" y="138" font-size="13" fill="#5A6A85">Province rule-sets apply automatically by location · Settings › Compliance</text>

  <!-- locations -->
  <rect x="280" y="158" width="1136" height="112" rx="12" fill="#FFFFFF" stroke="#ECEFF4" filter="url(#sh)"/>
  <text x="304" y="186" class="h" font-size="14">Locations</text><text x="1392" y="186" class="mut" font-size="11" text-anchor="end">Rule-set is chosen by the shop's province — not editable per ticket</text>
  <g font-size="12.5">
  <g style="color:#8A95A5"><use href="#ic-pin" x="304" y="206" width="16" height="16"/></g><text x="330" y="219" class="val">Mississauga</text><text x="470" y="219" class="mut">120 Lakeshore Rd E</text><rect x="700" y="206" width="44" height="20" rx="10" fill="#EAF2FE"/><text x="722" y="220" font-size="10.5" font-weight="700" fill="#1A5FB4" text-anchor="middle">ON</text><text x="770" y="219" class="lbl">→ Ontario rule-set</text>
  <line x1="304" y1="234" x2="1392" y2="234" stroke="#F4F6FA"/>
  <g style="color:#8A95A5"><use href="#ic-pin" x="304" y="240" width="16" height="16"/></g><text x="330" y="253" class="val">Montréal</text><text x="470" y="253" class="mut">2200 Rue Sherbrooke E</text><rect x="700" y="240" width="44" height="20" rx="10" fill="#FBF3FB"/><text x="722" y="254" font-size="10.5" font-weight="700" fill="#c479c2" text-anchor="middle">QC</text><text x="770" y="253" class="lbl">→ Quebec rule-set</text>
  <text x="1392" y="253" class="mut" font-size="11" text-anchor="end">Default language: Français</text>
  </g>

  <!-- ONTARIO card -->
  <rect x="280" y="290" width="556" height="468" rx="12" fill="#FFFFFF" stroke="#ECEFF4" filter="url(#sh)"/>
  <rect x="304" y="312" width="44" height="24" rx="6" fill="#EAF2FE"/><text x="326" y="329" font-size="12" font-weight="700" fill="#1A5FB4" text-anchor="middle">ON</text>
  <text x="362" y="329" class="h" font-size="15">Ontario rule-set</text><text x="812" y="329" class="mut" font-size="10.5" text-anchor="end">Consumer Protection Act</text>
  <line x1="304" y1="348" x2="812" y2="348" stroke="#ECEFF4"/>
  <g font-size="12.5">
  <text x="304" y="378" class="lbl">Estimate ceiling</text><text x="812" y="378" class="val" text-anchor="end">+10% over authorized</text>
  <line x1="304" y1="394" x2="812" y2="394" stroke="#F4F6FA"/>
  <text x="304" y="420" class="lbl">Written estimate required</text><text x="812" y="420" class="val" text-anchor="end">When customer requests</text>
  <line x1="304" y1="436" x2="812" y2="436" stroke="#F4F6FA"/>
  <text x="304" y="462" class="lbl">Statutory warranty</text><text x="812" y="462" class="val" text-anchor="end">None mandated (shop sets)</text>
  <line x1="304" y1="478" x2="812" y2="478" stroke="#F4F6FA"/>
  <text x="304" y="504" class="lbl">Return replaced parts</text><text x="812" y="504" class="val" text-anchor="end">On request (default on)</text>
  <line x1="304" y1="520" x2="812" y2="520" stroke="#F4F6FA"/>
  <text x="304" y="546" class="lbl">Charge for estimate</text><text x="812" y="546" class="val" text-anchor="end">Only if agreed first</text>
  <line x1="304" y1="562" x2="812" y2="562" stroke="#F4F6FA"/>
  <text x="304" y="588" class="lbl">Default language</text><text x="812" y="588" class="val" text-anchor="end">English</text>
  </g>
  <rect x="304" y="610" width="508" height="60" rx="9" fill="#F4F6FB"/><text x="322" y="632" class="lbl" font-size="10">REQUIRED NOTICE (printed on estimate &amp; invoice)</text><text x="322" y="652" class="mut" font-size="11">"The final price may not exceed the authorized estimate by more than 10%."</text>
  <rect x="304" y="684" width="508" height="48" rx="9" fill="#E6FBF5"/><g style="color:#0F9C96"><use href="#ic-check" x="322" y="696" width="16" height="16"/></g><text x="348" y="713" class="val" font-size="12">Active on 1 location · enforced at invoicing</text>

  <!-- QUEBEC card -->
  <rect x="860" y="290" width="556" height="468" rx="12" fill="#FFFFFF" stroke="#E7C9E6" stroke-width="1.5" filter="url(#sh)"/>
  <rect x="884" y="312" width="44" height="24" rx="6" fill="#FBF3FB"/><text x="906" y="329" font-size="12" font-weight="700" fill="#c479c2" text-anchor="middle">QC</text>
  <text x="942" y="329" class="h" font-size="15">Quebec rule-set</text><text x="1392" y="329" class="mut" font-size="10.5" text-anchor="end">Consumer Protection Act (OPC)</text>
  <line x1="884" y1="348" x2="1392" y2="348" stroke="#ECEFF4"/>
  <g font-size="12.5">
  <text x="884" y="378" class="lbl">Estimate ceiling</text><text x="1392" y="378" font-weight="700" fill="#c479c2" text-anchor="end">0% — cannot be exceeded</text>
  <line x1="884" y1="394" x2="1392" y2="394" stroke="#F4F6FA"/>
  <text x="884" y="420" class="lbl">Written estimate required</text><text x="1392" y="420" class="val" text-anchor="end">When repair &gt; $100</text>
  <line x1="884" y1="436" x2="1392" y2="436" stroke="#F4F6FA"/>
  <text x="884" y="462" class="lbl">Statutory warranty</text><text x="1392" y="462" font-weight="700" fill="#c479c2" text-anchor="end">3 months / 5,000 km</text>
  <line x1="884" y1="478" x2="1392" y2="478" stroke="#F4F6FA"/>
  <text x="884" y="504" class="lbl">Return replaced parts</text><text x="1392" y="504" class="val" text-anchor="end">On request (default on)</text>
  <line x1="884" y1="520" x2="1392" y2="520" stroke="#F4F6FA"/>
  <text x="884" y="546" class="lbl">Charge for estimate</text><text x="1392" y="546" class="val" text-anchor="end">Only if agreed first</text>
  <line x1="884" y1="562" x2="1392" y2="562" stroke="#F4F6FA"/>
  <text x="884" y="588" class="lbl">Default language</text><text x="1392" y="588" font-weight="700" fill="#c479c2" text-anchor="end">Français</text>
  </g>
  <rect x="884" y="610" width="508" height="60" rx="9" fill="#FBF3FB"/><text x="902" y="632" class="lbl" font-size="10" fill="#c479c2">REQUIRED NOTICE / AVIS OBLIGATOIRE</text><text x="902" y="652" class="mut" font-size="11">"Le commerçant ne peut exiger un prix supérieur à celui de l'évaluation."</text>
  <rect x="884" y="684" width="508" height="48" rx="9" fill="#E6FBF5"/><g style="color:#0F9C96"><use href="#ic-check" x="902" y="696" width="16" height="16"/></g><text x="928" y="713" class="val" font-size="12">Active on 1 location · 3 mo / 5,000 km auto-applied</text>
</svg>
