<svg viewBox="0 0 1440 800" xmlns="http://www.w3.org/2000/svg" font-family="'Plus Jakarta Sans','Inter','Segoe UI',system-ui,sans-serif" role="img" aria-labelledby="t">
  <title id="t">Squibbon Shop — EV high-voltage service safety</title>
  <defs>
    <filter id="sh" x="-6%" y="-10%" width="112%" height="124%"><feDropShadow dx="0" dy="3" stdDeviation="6" flood-color="#2A3547" flood-opacity="0.07"/></filter>
    <g id="ic-grid" fill="none" stroke="currentColor" stroke-width="1.6"><rect x="3" y="3" width="6" height="6" rx="1.5"/><rect x="11" y="3" width="6" height="6" rx="1.5"/><rect x="3" y="11" width="6" height="6" rx="1.5"/><rect x="11" y="11" width="6" height="6" rx="1.5"/></g>
    <g id="ic-board" fill="none" stroke="currentColor" stroke-width="1.6"><rect x="3" y="3.5" width="4" height="13" rx="1"/><rect x="8" y="3.5" width="4" height="9" rx="1"/><rect x="13" y="3.5" width="4" height="13" rx="1"/></g>
    <g id="ic-clip" fill="none" stroke="currentColor" stroke-width="1.6" stroke-linejoin="round" stroke-linecap="round"><rect x="4.5" y="3.5" width="11" height="13.5" rx="2"/><rect x="7.5" y="2" width="5" height="3" rx="1"/><path d="M7.2 9 h5.6 M7.2 12 h5.6"/></g>
    <g id="ic-user" fill="none" stroke="currentColor" stroke-width="1.6" stroke-linecap="round"><circle cx="10" cy="7" r="3.2"/><path d="M4.5 16.5 a5.5 5.5 0 0 1 11 0"/></g>
    <g id="ic-truck" fill="none" stroke="currentColor" stroke-width="1.6" stroke-linejoin="round" stroke-linecap="round"><path d="M2.5 6 h8 v7 h-8 z"/><path d="M10.5 8.5 h3.2 l2.4 2.3 v2.2 h-5.6 z"/><circle cx="6" cy="15" r="1.5"/><circle cx="13.7" cy="15" r="1.5"/></g>
    <g id="ic-box" fill="none" stroke="currentColor" stroke-width="1.6" stroke-linejoin="round" stroke-linecap="round"><path d="M10 2.6 l6.4 3.5 v7.8 l-6.4 3.5 -6.4-3.5 v-7.8z"/><path d="M3.6 6.1 L10 9.6 l6.4-3.5 M10 9.6 V17.4"/></g>
    <g id="ic-building" fill="none" stroke="currentColor" stroke-width="1.6" stroke-linejoin="round"><rect x="4.5" y="3.5" width="11" height="14" rx="1.2"/><path d="M7.5 7 h1 M11.5 7 h1 M7.5 10 h1 M11.5 10 h1"/><path d="M8.5 17.5 v-3 h3 v3"/></g>
    <g id="ic-cart" fill="none" stroke="currentColor" stroke-width="1.6" stroke-linejoin="round" stroke-linecap="round"><path d="M3 4 h2.2 l1.8 8.4 h7.6 l1.6-5.8 H6.2"/><circle cx="8" cy="16" r="1.3"/><circle cx="14.5" cy="16" r="1.3"/></g>
    <g id="ic-bill" fill="none" stroke="currentColor" stroke-width="1.6" stroke-linejoin="round" stroke-linecap="round"><path d="M5 2.6 h10 v15 l-2-1.3 -2 1.3 -2-1.3 -2 1.3 -2-1.3z"/><path d="M7.4 7 h5.2 M7.4 10 h5.2 M7.4 13 h3.2"/></g>
    <g id="ic-card" fill="none" stroke="currentColor" stroke-width="1.6" stroke-linejoin="round"><rect x="2.5" y="5" width="15" height="10" rx="2"/><path d="M2.5 8.5 h15 M5 12 h3"/></g>
    <g id="ic-chart" fill="none" stroke="currentColor" stroke-width="1.6" stroke-linejoin="round" stroke-linecap="round"><path d="M3 16.5 h14"/><rect x="4.5" y="9" width="2.6" height="5.5"/><rect x="8.7" y="6" width="2.6" height="8.5"/><rect x="12.9" y="11" width="2.6" height="3.5"/></g>
    <g id="ic-slider" fill="none" stroke="currentColor" stroke-width="1.6" stroke-linecap="round"><path d="M3 7 h14 M3 13 h14"/><circle cx="8" cy="7" r="1.9" fill="#fff"/><circle cx="13" cy="13" r="1.9" fill="#fff"/></g>
    <g id="ic-search" fill="none" stroke="currentColor" stroke-width="1.7" stroke-linecap="round"><circle cx="9" cy="9" r="5.5"/><path d="M13.2 13.2 L17.2 17.2"/></g>
    <g id="ic-bell" fill="none" stroke="currentColor" stroke-width="1.6" stroke-linejoin="round" stroke-linecap="round"><path d="M10 3 a4.6 4.6 0 0 1 4.6 4.6 c0 4 1.4 5.4 1.4 5.4 h-12 s1.4-1.4 1.4-5.4 a4.6 4.6 0 0 1 4.6-4.6z"/><path d="M8.3 16 a1.8 1.8 0 0 0 3.4 0"/></g>
    <g id="ic-menu" fill="none" stroke="currentColor" stroke-width="1.8" stroke-linecap="round"><path d="M3 6 h16 M3 11 h16 M3 16 h16"/></g>
    <g id="ic-check" fill="none" stroke="currentColor" stroke-width="2" stroke-linecap="round" stroke-linejoin="round"><path d="M4 10.5 l3.6 3.6 L16 6"/></g>
    <g id="ic-bolt" fill="none" stroke="currentColor" stroke-width="1.7" stroke-linejoin="round" stroke-linecap="round"><path d="M11 2 L4.5 11 H9 l-1 7 6.5-9 H10 l1-7z"/></g>
    <g id="ic-lock" fill="none" stroke="currentColor" stroke-width="1.6" stroke-linejoin="round"><rect x="4.5" y="9" width="11" height="8" rx="1.6"/><path d="M6.7 9 V6.7 a3.3 3.3 0 0 1 6.6 0 V9"/></g>
    <g id="ic-batt" fill="none" stroke="currentColor" stroke-width="1.6" stroke-linejoin="round"><rect x="2.5" y="6" width="13" height="9" rx="1.5"/><rect x="16" y="8.5" width="2" height="4" rx="1"/></g>
  </defs>
  <style>
    .navi{fill:#5A6A85;font-weight:500}.col{fill:#8A95A5;font-weight:600;letter-spacing:.4px}
    .h{fill:#2A3547;font-weight:600}.lbl{fill:#8A95A5;font-weight:600}.cell{fill:#2A3547;font-weight:500}.mut{fill:#8A95A5;font-weight:500}.val{fill:#2A3547;font-weight:600}.pill{font-weight:600}
  </style>
  <rect width="1440" height="800" fill="#F4F6FB"/>
  <rect x="0" y="0" width="256" height="800" fill="#FFFFFF"/><line x1="256" y1="0" x2="256" y2="800" stroke="#ECEFF4"/>
  <rect x="24" y="21" width="30" height="30" rx="8" fill="#c479c2"/><text x="39" y="42" font-size="17" font-weight="700" fill="#FFFFFF" text-anchor="middle">S</text><text x="66" y="42" font-size="19" font-weight="700" fill="#2A3547">Squibbon</text>
  <rect x="170" y="26" width="58" height="18" rx="9" fill="#E6FBFA"/><text x="199" y="39" font-size="10.5" font-weight="700" fill="#0F9C96" text-anchor="middle">SHOP</text>
  <text x="24" y="90" class="col" font-size="11">SHOP</text>
  <g style="color:#5A6A85"><use href="#ic-grid" x="22" y="100" width="18" height="18"/></g><text x="50" y="114" class="navi" font-size="12.5">Dashboard</text>
  <g style="color:#5A6A85"><use href="#ic-board" x="22" y="138" width="18" height="18"/></g><text x="50" y="152" class="navi" font-size="12.5">Workflow</text>
  <rect x="12" y="172" width="232" height="28" rx="7" fill="#FFEBFE"/>
  <g style="color:#c479c2"><use href="#ic-clip" x="22" y="177" width="18" height="18"/></g><text x="50" y="191" font-size="12.5" font-weight="600" fill="#c479c2">Work orders</text>
  <g style="color:#5A6A85"><use href="#ic-user" x="22" y="214" width="18" height="18"/></g><text x="50" y="228" class="navi" font-size="12.5">Customers</text>
  <g style="color:#5A6A85"><use href="#ic-truck" x="22" y="252" width="18" height="18"/></g><text x="50" y="266" class="navi" font-size="12.5">Vehicles</text>
  <text x="24" y="304" class="col" font-size="11">PARTS &amp; VENDORS</text>
  <g style="color:#5A6A85"><use href="#ic-box" x="22" y="314" width="18" height="18"/></g><text x="50" y="328" class="navi" font-size="12.5">Inventory / parts</text>
  <g style="color:#5A6A85"><use href="#ic-cart" x="22" y="352" width="18" height="18"/></g><text x="50" y="366" class="navi" font-size="12.5">Purchase orders</text>
  <g style="color:#5A6A85"><use href="#ic-building" x="22" y="390" width="18" height="18"/></g><text x="50" y="404" class="navi" font-size="12.5">Vendors</text>
  <text x="24" y="442" class="col" font-size="11">BILLING</text>
  <g style="color:#5A6A85"><use href="#ic-bill" x="22" y="452" width="18" height="18"/></g><text x="50" y="466" class="navi" font-size="12.5">Invoices</text>
  <g style="color:#5A6A85"><use href="#ic-card" x="22" y="490" width="18" height="18"/></g><text x="50" y="504" class="navi" font-size="12.5">Payments</text>
  <g style="color:#5A6A85"><use href="#ic-chart" x="22" y="528" width="18" height="18"/></g><text x="50" y="542" class="navi" font-size="12.5">Reports</text>
  <text x="24" y="580" class="col" font-size="11">SETTINGS</text>
  <g style="color:#5A6A85"><use href="#ic-slider" x="22" y="590" width="18" height="18"/></g><text x="50" y="604" class="navi" font-size="12.5">Shop settings</text>

  <rect x="256" y="0" width="1184" height="72" fill="#FFFFFF"/><line x1="256" y1="72" x2="1440" y2="72" stroke="#ECEFF4"/>
  <g style="color:#5A6A85"><use href="#ic-menu" x="282" y="26" width="20" height="20"/></g>
  <rect x="324" y="18" width="300" height="36" rx="18" fill="#F4F6FB"/><g style="color:#8A95A5"><use href="#ic-search" x="340" y="27" width="18" height="18"/></g><text x="366" y="41" font-size="12.5" fill="#9AA4B2">Search WO, customer, plate or VIN…</text>
  <rect x="1086" y="17" width="192" height="38" rx="8" fill="#E7E9EE"/><g style="color:#A6AEBC"><use href="#ic-lock" x="1112" y="28" width="16" height="16"/></g><text x="1142" y="41" font-size="12.5" font-weight="600" fill="#A6AEBC">Start HV work</text>
  <g style="color:#5A6A85"><use href="#ic-bell" x="1300" y="26" width="20" height="20"/></g><circle cx="1317" cy="27" r="4" fill="#FA5A5A"/>
  <text x="1368" y="33" font-size="12.5" font-weight="600" fill="#2A3547" text-anchor="end">A. Roy</text><text x="1368" y="47" font-size="10.5" fill="#8A95A5" text-anchor="end">HV tech</text>
  <circle cx="1392" cy="36" r="16" fill="#E6FBFA"/><text x="1392" y="40" font-size="12" font-weight="700" fill="#0F9C96" text-anchor="middle">AR</text>

  <text x="280" y="116" font-size="22" font-weight="700" fill="#2A3547">EV high-voltage service — WO-10540</text>
  <text x="280" y="138" font-size="13" fill="#5A6A85">2023 Ford F-150 Lightning · complete the HV safety protocol before any high-voltage work</text>

  <!-- EV banner -->
  <rect x="280" y="156" width="1136" height="52" rx="12" fill="#FFF6F4" stroke="#F3D6CF"/>
  <g style="color:#C0392B"><use href="#ic-bolt" x="300" y="170" width="22" height="22"/></g>
  <text x="332" y="178" class="lbl" font-size="10" fill="#C0392B">HIGH-VOLTAGE VEHICLE · ~400 V</text>
  <text x="332" y="196" class="cell" font-size="12.5">HV work is locked until the safety checklist is complete and an HV-certified technician is assigned.</text>
  <text x="1396" y="188" class="pill" font-size="11" fill="#C0392B" text-anchor="end">Risk of electric shock</text>

  <!-- LEFT safety workflow -->
  <rect x="280" y="224" width="620" height="534" rx="12" fill="#FFFFFF" stroke="#ECEFF4" filter="url(#sh)"/>
  <text x="304" y="254" class="h" font-size="15">HV safety workflow</text>
  <rect x="760" y="238" width="116" height="24" rx="12" fill="#E6FBF5"/><text x="818" y="254" class="pill" font-size="10.5" fill="#0F9C96" text-anchor="middle">7 / 8 complete</text>
  <line x1="304" y1="270" x2="876" y2="270" stroke="#ECEFF4"/>
  <!-- gate -->
  <rect x="304" y="282" width="572" height="48" rx="10" fill="#E6FBF5" stroke="#BDEBDD"/>
  <rect x="318" y="294" width="22" height="22" rx="6" fill="#0F9C96"/><g style="color:#fff"><use href="#ic-check" x="320" y="296" width="18" height="18"/></g>
  <text x="352" y="304" class="val" font-size="12.5">HV-certified technician assigned (gate)</text><text x="352" y="322" class="mut" font-size="10.5">A. Roy · cert #HV-4471 · only certified techs can be assigned</text>
  <g style="color:#0F9C96"><use href="#ic-lock" x="846" y="296" width="18" height="18"/></g>
  <g font-size="12.5">
  <rect x="318" y="346" width="20" height="20" rx="6" fill="#0F9C96"/><g style="color:#fff"><use href="#ic-check" x="320" y="348" width="16" height="16"/></g><text x="350" y="360" class="cell">PPE verified — Class 0 insulating gloves (tested), face shield</text>
  <rect x="318" y="378" width="20" height="20" rx="6" fill="#0F9C96"/><g style="color:#fff"><use href="#ic-check" x="320" y="380" width="16" height="16"/></g><text x="350" y="392" class="cell">Ignition off · key removed · 12 V aux disconnected</text>
  <rect x="318" y="410" width="20" height="20" rx="6" fill="#0F9C96"/><g style="color:#fff"><use href="#ic-check" x="320" y="412" width="16" height="16"/></g><text x="350" y="424" class="cell">Manual service disconnect (MSD) removed</text>
  <rect x="318" y="442" width="20" height="20" rx="6" fill="#0F9C96"/><g style="color:#fff"><use href="#ic-check" x="320" y="444" width="16" height="16"/></g><text x="350" y="456" class="cell">Lockout / tagout applied to the HV system</text>
  <rect x="318" y="474" width="20" height="20" rx="6" fill="#0F9C96"/><g style="color:#fff"><use href="#ic-check" x="320" y="476" width="16" height="16"/></g><text x="350" y="486" class="cell">Insulated tools &amp; HV-rated meter (CAT III) in use</text>
  <rect x="318" y="506" width="20" height="20" rx="6" fill="#0F9C96"/><g style="color:#fff"><use href="#ic-check" x="320" y="508" width="16" height="16"/></g><text x="350" y="518" class="cell">Warning barriers / "HV — do not touch" placed</text>
  <rect x="318" y="538" width="20" height="20" rx="6" fill="#FFFFFF" stroke="#C0392B" stroke-width="1.5"/><text x="350" y="550" class="cell" fill="#C0392B" font-weight="600">Verify de-energized — measure &lt; 60 V at the pack</text>
  </g>
  <rect x="304" y="576" width="572" height="58" rx="10" fill="#FFF6F4" stroke="#F3D6CF"/>
  <g style="color:#C0392B"><use href="#ic-bolt" x="322" y="592" width="18" height="18"/></g>
  <text x="350" y="600" class="val" font-size="12">Final step pending — measure pack voltage</text><text x="350" y="618" class="mut" font-size="11">Record the measured voltage to release the lock and enable HV work.</text>
  <rect x="304" y="650" width="572" height="92" rx="10" fill="#F4F6FB"/>
  <text x="324" y="676" class="lbl" font-size="10">PROTOCOL</text>
  <text x="324" y="698" class="mut" font-size="11.5">Steps follow OEM de-energization &amp; lockout procedure. "Start HV work" stays disabled</text>
  <text x="324" y="716" class="mut" font-size="11.5">until every item — including the &lt; 60 V verification — is checked. The completed checklist,</text>
  <text x="324" y="734" class="mut" font-size="11.5">technician cert and readings are stored on the work order.</text>

  <!-- RIGHT battery + record -->
  <rect x="924" y="224" width="492" height="354" rx="12" fill="#FFFFFF" stroke="#ECEFF4" filter="url(#sh)"/>
  <g style="color:#0F9C96"><use href="#ic-batt" x="948" y="246" width="22" height="22"/></g><text x="978" y="258" class="h" font-size="15">Battery state-of-health</text>
  <line x1="948" y1="272" x2="1392" y2="272" stroke="#ECEFF4"/>
  <text x="948" y="300" class="lbl" font-size="10">STATE OF HEALTH</text><text x="948" y="332" class="val" font-size="30" fill="#0F9C96">92%</text>
  <rect x="1080" y="312" width="312" height="14" rx="7" fill="#EEF1F6"/><rect x="1080" y="312" width="287" height="14" rx="7" fill="#16CDC7"/>
  <g font-size="12.5">
  <text x="948" y="372" class="cell">Usable capacity</text><text x="1392" y="372" class="val" text-anchor="end">71.4 / 77.6 kWh</text>
  <line x1="948" y1="386" x2="1392" y2="386" stroke="#F4F6FA"/>
  <text x="948" y="410" class="cell">Cell balance (max Δ)</text><text x="1392" y="410" class="val" text-anchor="end">±18 mV · OK</text>
  <line x1="948" y1="424" x2="1392" y2="424" stroke="#F4F6FA"/>
  <text x="948" y="448" class="cell">Isolation resistance</text><text x="1392" y="448" class="val" text-anchor="end">850 Ω/V · OK</text>
  <line x1="948" y1="462" x2="1392" y2="462" stroke="#F4F6FA"/>
  <text x="948" y="486" class="cell">Pack temperature</text><text x="1392" y="486" class="val" text-anchor="end">28 °C</text>
  <line x1="948" y1="500" x2="1392" y2="500" stroke="#F4F6FA"/>
  <text x="948" y="524" class="cell">Stored DTCs</text><text x="1392" y="524" class="val" text-anchor="end" fill="#0F9C96">None</text>
  </g>
  <rect x="948" y="540" width="444" height="22" /><text x="948" y="555" class="mut" font-size="10.5">Read over the diagnostic link before isolation · captured to the HV record.</text>

  <rect x="924" y="592" width="492" height="166" rx="12" fill="#FFFFFF" stroke="#ECEFF4" filter="url(#sh)"/>
  <text x="948" y="622" class="h" font-size="14">HV service record &amp; certification</text>
  <line x1="948" y1="636" x2="1392" y2="636" stroke="#ECEFF4"/>
  <g font-size="12.5">
  <text x="948" y="662" class="cell">Technician</text><text x="1392" y="662" class="val" text-anchor="end">A. Roy · HV-4471</text>
  <text x="948" y="686" class="cell">Certification expiry</text><text x="1392" y="686" class="val" text-anchor="end">Mar 2027 · valid</text>
  </g>
  <rect x="948" y="704" width="444" height="38" rx="9" fill="#F4F6FB"/><g style="color:#5A6A85"><use href="#ic-check" x="966" y="713" width="18" height="18"/></g><text x="992" y="728" class="cell" font-size="12">Checklist, readings &amp; cert generate a signed HV service record.</text>
</svg>
