<svg viewBox="0 0 1440 800" xmlns="http://www.w3.org/2000/svg" font-family="'Plus Jakarta Sans','Inter','Segoe UI',system-ui,sans-serif" role="img" aria-labelledby="t">
  <title id="t">Squibbon Shop — Tire sale &amp; fitment</title>
  <defs>
    <filter id="sh" x="-6%" y="-10%" width="112%" height="124%"><feDropShadow dx="0" dy="3" stdDeviation="6" flood-color="#2A3547" flood-opacity="0.07"/></filter>
    <g id="ic-grid" fill="none" stroke="currentColor" stroke-width="1.6"><rect x="3" y="3" width="6" height="6" rx="1.5"/><rect x="11" y="3" width="6" height="6" rx="1.5"/><rect x="3" y="11" width="6" height="6" rx="1.5"/><rect x="11" y="11" width="6" height="6" rx="1.5"/></g>
    <g id="ic-board" fill="none" stroke="currentColor" stroke-width="1.6"><rect x="3" y="3.5" width="4" height="13" rx="1"/><rect x="8" y="3.5" width="4" height="9" rx="1"/><rect x="13" y="3.5" width="4" height="13" rx="1"/></g>
    <g id="ic-clip" fill="none" stroke="currentColor" stroke-width="1.6" stroke-linejoin="round" stroke-linecap="round"><rect x="4.5" y="3.5" width="11" height="13.5" rx="2"/><rect x="7.5" y="2" width="5" height="3" rx="1"/><path d="M7.2 9 h5.6 M7.2 12 h5.6"/></g>
    <g id="ic-user" fill="none" stroke="currentColor" stroke-width="1.6" stroke-linecap="round"><circle cx="10" cy="7" r="3.2"/><path d="M4.5 16.5 a5.5 5.5 0 0 1 11 0"/></g>
    <g id="ic-truck" fill="none" stroke="currentColor" stroke-width="1.6" stroke-linejoin="round" stroke-linecap="round"><path d="M2.5 6 h8 v7 h-8 z"/><path d="M10.5 8.5 h3.2 l2.4 2.3 v2.2 h-5.6 z"/><circle cx="6" cy="15" r="1.5"/><circle cx="13.7" cy="15" r="1.5"/></g>
    <g id="ic-box" fill="none" stroke="currentColor" stroke-width="1.6" stroke-linejoin="round" stroke-linecap="round"><path d="M10 2.6 l6.4 3.5 v7.8 l-6.4 3.5 -6.4-3.5 v-7.8z"/><path d="M3.6 6.1 L10 9.6 l6.4-3.5 M10 9.6 V17.4"/></g>
    <g id="ic-building" fill="none" stroke="currentColor" stroke-width="1.6" stroke-linejoin="round"><rect x="4.5" y="3.5" width="11" height="14" rx="1.2"/><path d="M7.5 7 h1 M11.5 7 h1 M7.5 10 h1 M11.5 10 h1"/><path d="M8.5 17.5 v-3 h3 v3"/></g>
    <g id="ic-cart" fill="none" stroke="currentColor" stroke-width="1.6" stroke-linejoin="round" stroke-linecap="round"><path d="M3 4 h2.2 l1.8 8.4 h7.6 l1.6-5.8 H6.2"/><circle cx="8" cy="16" r="1.3"/><circle cx="14.5" cy="16" r="1.3"/></g>
    <g id="ic-bill" fill="none" stroke="currentColor" stroke-width="1.6" stroke-linejoin="round" stroke-linecap="round"><path d="M5 2.6 h10 v15 l-2-1.3 -2 1.3 -2-1.3 -2 1.3 -2-1.3z"/><path d="M7.4 7 h5.2 M7.4 10 h5.2 M7.4 13 h3.2"/></g>
    <g id="ic-card" fill="none" stroke="currentColor" stroke-width="1.6" stroke-linejoin="round"><rect x="2.5" y="5" width="15" height="10" rx="2"/><path d="M2.5 8.5 h15 M5 12 h3"/></g>
    <g id="ic-chart" fill="none" stroke="currentColor" stroke-width="1.6" stroke-linejoin="round" stroke-linecap="round"><path d="M3 16.5 h14"/><rect x="4.5" y="9" width="2.6" height="5.5"/><rect x="8.7" y="6" width="2.6" height="8.5"/><rect x="12.9" y="11" width="2.6" height="3.5"/></g>
    <g id="ic-slider" fill="none" stroke="currentColor" stroke-width="1.6" stroke-linecap="round"><path d="M3 7 h14 M3 13 h14"/><circle cx="8" cy="7" r="1.9" fill="#fff"/><circle cx="13" cy="13" r="1.9" fill="#fff"/></g>
    <g id="ic-search" fill="none" stroke="currentColor" stroke-width="1.7" stroke-linecap="round"><circle cx="9" cy="9" r="5.5"/><path d="M13.2 13.2 L17.2 17.2"/></g>
    <g id="ic-bell" fill="none" stroke="currentColor" stroke-width="1.6" stroke-linejoin="round" stroke-linecap="round"><path d="M10 3 a4.6 4.6 0 0 1 4.6 4.6 c0 4 1.4 5.4 1.4 5.4 h-12 s1.4-1.4 1.4-5.4 a4.6 4.6 0 0 1 4.6-4.6z"/><path d="M8.3 16 a1.8 1.8 0 0 0 3.4 0"/></g>
    <g id="ic-menu" fill="none" stroke="currentColor" stroke-width="1.8" stroke-linecap="round"><path d="M3 6 h16 M3 11 h16 M3 16 h16"/></g>
    <g id="ic-plus" fill="none" stroke="currentColor" stroke-width="1.8" stroke-linecap="round"><path d="M10 4 V16 M4 10 H16"/></g>
    <g id="ic-tire" fill="none" stroke="currentColor" stroke-width="1.6"><circle cx="10" cy="10" r="7.5"/><circle cx="10" cy="10" r="3"/></g>
  </defs>
  <style>
    .navi{fill:#5A6A85;font-weight:500}.col{fill:#8A95A5;font-weight:600;letter-spacing:.4px}
    .h{fill:#2A3547;font-weight:600}.lbl{fill:#8A95A5;font-weight:600}.cell{fill:#2A3547;font-weight:500}.mut{fill:#8A95A5;font-weight:500}.val{fill:#2A3547;font-weight:600}.num{fill:#2A3547;font-weight:700}.pill{font-weight:600}
  </style>
  <rect width="1440" height="800" fill="#F4F6FB"/>
  <rect x="0" y="0" width="256" height="800" fill="#FFFFFF"/><line x1="256" y1="0" x2="256" y2="800" stroke="#ECEFF4"/>
  <rect x="24" y="21" width="30" height="30" rx="8" fill="#c479c2"/><text x="39" y="42" font-size="17" font-weight="700" fill="#FFFFFF" text-anchor="middle">S</text><text x="66" y="42" font-size="19" font-weight="700" fill="#2A3547">Squibbon</text>
  <rect x="170" y="26" width="58" height="18" rx="9" fill="#E6FBFA"/><text x="199" y="39" font-size="10.5" font-weight="700" fill="#0F9C96" text-anchor="middle">SHOP</text>
  <text x="24" y="90" class="col" font-size="11">SHOP</text>
  <g style="color:#5A6A85"><use href="#ic-grid" x="22" y="100" width="18" height="18"/></g><text x="50" y="114" class="navi" font-size="12.5">Dashboard</text>
  <g style="color:#5A6A85"><use href="#ic-board" x="22" y="138" width="18" height="18"/></g><text x="50" y="152" class="navi" font-size="12.5">Workflow</text>
  <rect x="12" y="172" width="232" height="28" rx="7" fill="#FFEBFE"/>
  <g style="color:#c479c2"><use href="#ic-clip" x="22" y="177" width="18" height="18"/></g><text x="50" y="191" font-size="12.5" font-weight="600" fill="#c479c2">Work orders</text>
  <g style="color:#5A6A85"><use href="#ic-user" x="22" y="214" width="18" height="18"/></g><text x="50" y="228" class="navi" font-size="12.5">Customers</text>
  <g style="color:#5A6A85"><use href="#ic-truck" x="22" y="252" width="18" height="18"/></g><text x="50" y="266" class="navi" font-size="12.5">Vehicles</text>
  <text x="24" y="304" class="col" font-size="11">PARTS &amp; VENDORS</text>
  <g style="color:#5A6A85"><use href="#ic-box" x="22" y="314" width="18" height="18"/></g><text x="50" y="328" class="navi" font-size="12.5">Inventory / parts</text>
  <g style="color:#5A6A85"><use href="#ic-cart" x="22" y="352" width="18" height="18"/></g><text x="50" y="366" class="navi" font-size="12.5">Purchase orders</text>
  <g style="color:#5A6A85"><use href="#ic-building" x="22" y="390" width="18" height="18"/></g><text x="50" y="404" class="navi" font-size="12.5">Vendors</text>
  <text x="24" y="442" class="col" font-size="11">BILLING</text>
  <g style="color:#5A6A85"><use href="#ic-bill" x="22" y="452" width="18" height="18"/></g><text x="50" y="466" class="navi" font-size="12.5">Invoices</text>
  <g style="color:#5A6A85"><use href="#ic-card" x="22" y="490" width="18" height="18"/></g><text x="50" y="504" class="navi" font-size="12.5">Payments</text>
  <g style="color:#5A6A85"><use href="#ic-chart" x="22" y="528" width="18" height="18"/></g><text x="50" y="542" class="navi" font-size="12.5">Reports</text>
  <text x="24" y="580" class="col" font-size="11">SETTINGS</text>
  <g style="color:#5A6A85"><use href="#ic-slider" x="22" y="590" width="18" height="18"/></g><text x="50" y="604" class="navi" font-size="12.5">Shop settings</text>

  <rect x="256" y="0" width="1184" height="72" fill="#FFFFFF"/><line x1="256" y1="72" x2="1440" y2="72" stroke="#ECEFF4"/>
  <g style="color:#5A6A85"><use href="#ic-menu" x="282" y="26" width="20" height="20"/></g>
  <rect x="324" y="18" width="320" height="36" rx="18" fill="#F4F6FB"/><g style="color:#8A95A5"><use href="#ic-search" x="340" y="27" width="18" height="18"/></g><text x="366" y="41" font-size="12.5" fill="#9AA4B2">Search by size (265/70R17) or brand…</text>
  <rect x="1300" y="0" width="0" height="0"/>
  <g style="color:#5A6A85"><use href="#ic-bell" x="1300" y="26" width="20" height="20"/></g><circle cx="1317" cy="27" r="4" fill="#FA5A5A"/>
  <text x="1368" y="33" font-size="12.5" font-weight="600" fill="#2A3547" text-anchor="end">T. Hopper</text><text x="1368" y="47" font-size="10.5" fill="#8A95A5" text-anchor="end">Advisor</text>
  <circle cx="1392" cy="36" r="16" fill="#FFEBFE"/><text x="1392" y="40" font-size="12" font-weight="700" fill="#c479c2" text-anchor="middle">TH</text>

  <text x="280" y="116" font-size="22" font-weight="700" fill="#2A3547">Tire sale — WO-10500</text>
  <text x="280" y="138" font-size="13" fill="#5A6A85">2019 Ford F-150 · fitment-matched · live distributor availability via PartsTech</text>

  <!-- fitment strip -->
  <rect x="280" y="156" width="1136" height="64" rx="12" fill="#FFFFFF" stroke="#ECEFF4" filter="url(#sh)"/>
  <g style="color:#c479c2"><use href="#ic-tire" x="300" y="180" width="20" height="20"/></g>
  <text x="330" y="184" class="lbl" font-size="10">OE SIZE</text><text x="330" y="204" class="val" font-size="13.5">265/70R17 · 113T</text>
  <text x="520" y="184" class="lbl" font-size="10">APPROVED OPTIONS</text><text x="520" y="204" class="cell" font-size="12.5">275/65R17 · 285/70R17 (+1)</text>
  <text x="880" y="184" class="lbl" font-size="10">FRONT / REAR</text><text x="880" y="204" class="cell" font-size="12.5">Matched (non-staggered)</text>
  <g font-size="11.5" font-weight="600"><rect x="1120" y="174" width="80" height="28" rx="14" fill="#FFEBFE"/><text x="1160" y="192" fill="#c479c2" text-anchor="middle">All-season</text><rect x="1208" y="174" width="64" height="28" rx="14" fill="#F4F6FB"/><text x="1240" y="192" fill="#5A6A85" text-anchor="middle">Winter</text><rect x="1280" y="174" width="64" height="28" rx="14" fill="#F4F6FB"/><text x="1312" y="192" fill="#5A6A85" text-anchor="middle">A/T</text></g>

  <!-- results -->
  <rect x="280" y="236" width="800" height="522" rx="12" fill="#FFFFFF" stroke="#ECEFF4" filter="url(#sh)"/>
  <text x="304" y="266" class="h" font-size="14">265/70R17 · 5 matches</text><text x="1056" y="266" class="mut" font-size="11" text-anchor="end">price each · 4 needed</text>
  <line x1="304" y1="280" x2="1056" y2="280" stroke="#ECEFF4"/>
  <!-- r1 -->
  <text x="304" y="312" class="val" font-size="13">Michelin Defender LTX M/S</text><text x="304" y="330" class="mut" font-size="11">All-season · 70k km warranty</text><text x="700" y="318" class="num" font-size="14">$268</text><rect x="772" y="304" width="120" height="22" rx="11" fill="#E6FBF5"/><text x="832" y="319" class="pill" font-size="9.5" fill="#0F9C96" text-anchor="middle">In stock · 8</text><rect x="916" y="302" width="120" height="28" rx="8" fill="#c479c2"/><g style="color:#fff"><use href="#ic-plus" x="934" y="309" width="14" height="14"/></g><text x="990" y="320" font-size="11" font-weight="600" fill="#fff" text-anchor="middle">Add ×4</text>
  <line x1="304" y1="346" x2="1056" y2="346" stroke="#F4F6FA"/>
  <!-- r2 -->
  <text x="304" y="378" class="val" font-size="13">Bridgestone Dueler A/T</text><text x="304" y="396" class="mut" font-size="11">All-terrain</text><text x="700" y="384" class="num" font-size="14">$245</text><rect x="746" y="370" width="146" height="22" rx="11" fill="#EAF2FE"/><text x="819" y="385" class="pill" font-size="9.5" fill="#1A5FB4" text-anchor="middle">NAPA · ETA 2 PM</text><rect x="916" y="368" width="120" height="28" rx="8" fill="#FFEBFE"/><text x="976" y="386" font-size="11" font-weight="600" fill="#c479c2" text-anchor="middle">Add ×4</text>
  <line x1="304" y1="412" x2="1056" y2="412" stroke="#F4F6FA"/>
  <!-- r3 -->
  <text x="304" y="444" class="val" font-size="13">BFGoodrich All-Terrain T/A KO2</text><text x="304" y="462" class="mut" font-size="11">All-terrain · 3PMSF</text><text x="700" y="450" class="num" font-size="14">$310</text><rect x="734" y="436" width="158" height="22" rx="11" fill="#EAF2FE"/><text x="813" y="451" class="pill" font-size="9.5" fill="#1A5FB4" text-anchor="middle">Worldpac · tomorrow</text><rect x="916" y="434" width="120" height="28" rx="8" fill="#FFEBFE"/><text x="976" y="452" font-size="11" font-weight="600" fill="#c479c2" text-anchor="middle">Add ×4</text>
  <line x1="304" y1="478" x2="1056" y2="478" stroke="#F4F6FA"/>
  <!-- r4 -->
  <text x="304" y="510" class="val" font-size="13">Goodyear Wrangler Workhorse</text><text x="304" y="528" class="mut" font-size="11">All-season</text><text x="700" y="516" class="num" font-size="14">$255</text><rect x="772" y="502" width="120" height="22" rx="11" fill="#FEF4E6"/><text x="832" y="517" class="pill" font-size="9.5" fill="#A8720F" text-anchor="middle">In stock · 4</text><rect x="916" y="500" width="120" height="28" rx="8" fill="#FFEBFE"/><text x="976" y="518" font-size="11" font-weight="600" fill="#c479c2" text-anchor="middle">Add ×4</text>
  <line x1="304" y1="544" x2="1056" y2="544" stroke="#F4F6FA"/>
  <!-- r5 -->
  <text x="304" y="576" class="val" font-size="13">General Grabber Arctic LT</text><rect x="492" y="563" width="64" height="18" rx="9" fill="#EAF2FE"/><text x="524" y="576" class="pill" font-size="9" fill="#1A5FB4" text-anchor="middle">Winter</text><text x="304" y="594" class="mut" font-size="11">Studdable · 3PMSF</text><text x="700" y="582" class="num" font-size="14">$210</text><rect x="746" y="568" width="146" height="22" rx="11" fill="#EAF2FE"/><text x="819" y="583" class="pill" font-size="9.5" fill="#1A5FB4" text-anchor="middle">PMCtire · ETA 2d</text><rect x="916" y="566" width="120" height="28" rx="8" fill="#FFEBFE"/><text x="976" y="584" font-size="11" font-weight="600" fill="#c479c2" text-anchor="middle">Add ×4</text>
  <line x1="304" y1="610" x2="1056" y2="610" stroke="#ECEFF4"/>
  <text x="304" y="638" class="mut" font-size="11.5">Availability &amp; pricing pulled live from 40+ Canadian/US distributors via PartsTech · order direct from the quote.</text>
  <rect x="304" y="660" width="752" height="74" rx="10" fill="#F4F6FB"/>
  <text x="324" y="686" class="lbl" font-size="10">SEASONAL TIP</text>
  <text x="324" y="708" class="mut" font-size="11.5">Quebec requires winter tires Dec 1 – Mar 15. Offer a winter set + tire-hotel storage to capture</text>
  <text x="324" y="726" class="mut" font-size="11.5">the seasonal swap — reminders are sent automatically from Service reminders.</text>

  <!-- quote rail -->
  <rect x="1100" y="236" width="316" height="522" rx="12" fill="#FFFFFF" stroke="#ECEFF4" filter="url(#sh)"/>
  <g style="color:#c479c2"><use href="#ic-cart" x="1120" y="256" width="20" height="20"/></g><text x="1148" y="270" class="h" font-size="14">Tire quote</text>
  <line x1="1120" y1="286" x2="1396" y2="286" stroke="#ECEFF4"/>
  <text x="1120" y="312" class="val" font-size="12.5">Michelin Defender LTX</text><text x="1120" y="330" class="mut" font-size="11">265/70R17 · ×4 @ $268</text><text x="1396" y="320" class="val" font-size="13" text-anchor="end">$1,072.00</text>
  <line x1="1120" y1="346" x2="1396" y2="346" stroke="#F4F6FA"/>
  <g font-size="12.5">
  <text x="1120" y="372" class="cell">Mount &amp; balance ×4</text><text x="1396" y="372" class="cell" text-anchor="end">$120.00</text>
  <line x1="1120" y1="386" x2="1396" y2="386" stroke="#F4F6FA"/>
  <text x="1120" y="412" class="cell">TPMS service</text><text x="1120" y="428" class="mut" font-size="10.5">sensors OK · relearn only</text><text x="1396" y="412" class="cell" text-anchor="end">$0.00</text>
  <line x1="1120" y1="444" x2="1396" y2="444" stroke="#F4F6FA"/>
  <text x="1120" y="470" class="cell">Tire recycling fee</text><text x="1120" y="486" class="mut" font-size="10.5">by province (ON $0 · QC $4.50/ea)</text><text x="1396" y="470" class="cell" text-anchor="end">$0.00</text>
  <line x1="1120" y1="502" x2="1396" y2="502" stroke="#F4F6FA"/>
  <text x="1120" y="528" class="cell">Shop supplies</text><text x="1396" y="528" class="cell" text-anchor="end">$8.00</text>
  </g>
  <line x1="1120" y1="546" x2="1396" y2="546" stroke="#ECEFF4"/>
  <text x="1120" y="572" class="mut" font-size="12">Subtotal</text><text x="1396" y="572" class="cell" font-size="12.5" text-anchor="end">$1,200.00</text>
  <text x="1120" y="594" class="mut" font-size="12">HST (13%)</text><text x="1396" y="594" class="cell" font-size="12.5" text-anchor="end">$156.00</text>
  <line x1="1120" y1="608" x2="1396" y2="608" stroke="#ECEFF4"/>
  <text x="1120" y="636" class="h" font-size="15">Total</text><text x="1396" y="638" class="num" font-size="18" text-anchor="end">$1,356.00</text>
  <rect x="1120" y="660" width="276" height="46" rx="9" fill="#c479c2"/><g style="color:#fff"><use href="#ic-plus" x="1186" y="672" width="16" height="16"/></g><text x="1212" y="689" font-size="13.5" font-weight="600" fill="#fff">Add to work order</text>
  <rect x="1120" y="714" width="276" height="32" rx="8" fill="#F4F6FB"/><text x="1258" y="734" class="cell" font-size="11.5" text-anchor="middle">Order from distributor</text>
</svg>
