<svg viewBox="0 0 1440 860" xmlns="http://www.w3.org/2000/svg" font-family="'Plus Jakarta Sans','Inter','Segoe UI',system-ui,sans-serif" role="img" aria-labelledby="t">
  <title id="t">Squibbon Shop — Fleet customer portal</title>
  <defs>
    <filter id="sh" x="-6%" y="-10%" width="112%" height="124%"><feDropShadow dx="0" dy="3" stdDeviation="6" flood-color="#2A3547" flood-opacity="0.07"/></filter>
    <g id="ic-truck" fill="none" stroke="currentColor" stroke-width="1.6" stroke-linejoin="round" stroke-linecap="round"><path d="M2.5 6 h8 v7 h-8 z"/><path d="M10.5 8.5 h3.2 l2.4 2.3 v2.2 h-5.6 z"/><circle cx="6" cy="15" r="1.5"/><circle cx="13.7" cy="15" r="1.5"/></g>
    <g id="ic-bell" fill="none" stroke="currentColor" stroke-width="1.6" stroke-linejoin="round" stroke-linecap="round"><path d="M10 3 a4.6 4.6 0 0 1 4.6 4.6 c0 4 1.4 5.4 1.4 5.4 h-12 s1.4-1.4 1.4-5.4 a4.6 4.6 0 0 1 4.6-4.6z"/><path d="M8.3 16 a1.8 1.8 0 0 0 3.4 0"/></g>
    <g id="ic-check" fill="none" stroke="currentColor" stroke-width="2" stroke-linecap="round" stroke-linejoin="round"><path d="M4 10.5 l3.6 3.6 L16 6"/></g>
    <g id="ic-x" fill="none" stroke="currentColor" stroke-width="2" stroke-linecap="round"><path d="M5 5 l10 10 M15 5 l-10 10"/></g>
    <g id="ic-eye" fill="none" stroke="currentColor" stroke-width="1.6" stroke-linejoin="round" stroke-linecap="round"><path d="M2 10 s3-6 8-6 8 6 8 6 -3 6-8 6 -8-6-8-6z"/><circle cx="10" cy="10" r="2.4"/></g>
    <g id="ic-pin" fill="none" stroke="currentColor" stroke-width="1.5" stroke-linejoin="round" stroke-linecap="round"><path d="M10 17 s5-4.5 5-9 a5 5 0 0 0-10 0 c0 4.5 5 9 5 9z"/><circle cx="10" cy="8" r="1.7"/></g>
    <g id="ic-doc" fill="none" stroke="currentColor" stroke-width="1.6" stroke-linejoin="round"><path d="M6 2.8 h5 l4 4 v10.4 a1 1 0 0 1-1 1 H6 a1 1 0 0 1-1-1 V3.8 a1 1 0 0 1 1-1z"/><path d="M11 2.8 v4 h4"/></g>
  </defs>
  <style>
    .h{fill:#2A3547;font-weight:600}.lbl{fill:#8A95A5;font-weight:600}.cell{fill:#2A3547;font-weight:500}.mut{fill:#8A95A5;font-weight:500}.val{fill:#2A3547;font-weight:600}.num{fill:#2A3547;font-weight:700}.pill{font-weight:600}.tab{fill:#5A6A85;font-weight:600}
  </style>
  <rect width="1440" height="860" fill="#F4F6FB"/>
  <!-- top bar -->
  <rect x="0" y="0" width="1440" height="68" fill="#FFFFFF"/><line x1="0" y1="68" x2="1440" y2="68" stroke="#ECEFF4"/>
  <rect x="80" y="19" width="30" height="30" rx="8" fill="#c479c2"/><text x="95" y="40" font-size="17" font-weight="700" fill="#FFFFFF" text-anchor="middle">S</text>
  <text x="122" y="40" font-size="18" font-weight="700" fill="#2A3547">Squibbon</text>
  <line x1="244" y1="22" x2="244" y2="46" stroke="#E2E8F0"/><text x="262" y="40" font-size="14" font-weight="600" fill="#8A95A5">Fleet portal</text>
  <g style="color:#5A6A85"><use href="#ic-bell" x="1262" y="24" width="20" height="20"/></g><circle cx="1279" cy="25" r="4" fill="#FA5A5A"/>
  <text x="1330" y="32" font-size="12.5" font-weight="600" fill="#2A3547" text-anchor="end">Bison Transport</text><text x="1330" y="47" font-size="10.5" fill="#8A95A5" text-anchor="end">Fleet manager</text>
  <circle cx="1352" cy="34" r="16" fill="#EAF2FE"/><text x="1352" y="38" font-size="11.5" font-weight="700" fill="#1A5FB4" text-anchor="middle">BT</text>

  <text x="80" y="116" font-size="24" font-weight="700" fill="#2A3547">Welcome, Bison Transport</text>
  <text x="80" y="140" font-size="13" fill="#5A6A85">Your fleet at Squibbon Auto Care — Mississauga · live unit status &amp; approvals</text>

  <!-- tabs -->
  <g font-size="13"><text x="84" y="174" class="pill" fill="#c479c2">Units</text><rect x="80" y="184" width="46" height="3" rx="1.5" fill="#c479c2"/><text x="160" y="174" class="tab">Approvals</text><rect x="245" y="166" width="20" height="18" rx="9" fill="#FDECEC"/><text x="255" y="179" font-size="10" font-weight="700" fill="#C0392B" text-anchor="middle">1</text><text x="290" y="174" class="tab">Invoices</text><text x="382" y="174" class="tab">Documents</text></g>
  <line x1="80" y1="188" x2="1360" y2="188" stroke="#ECEFF4"/>

  <!-- KPIs -->
  <g font-size="12">
  <rect x="80" y="208" width="305" height="86" rx="12" fill="#FFFFFF" stroke="#ECEFF4" filter="url(#sh)"/><text x="100" y="238" class="lbl">Units</text><text x="100" y="272" class="num" font-size="24">24</text>
  <rect x="405" y="208" width="305" height="86" rx="12" fill="#FFFFFF" stroke="#ECEFF4" filter="url(#sh)"/><text x="425" y="238" class="lbl">In shop / service</text><text x="425" y="272" class="num" font-size="24">2</text>
  <rect x="730" y="208" width="305" height="86" rx="12" fill="#FFFFFF" stroke="#ECEFF4" filter="url(#sh)"/><text x="750" y="238" class="lbl">Awaiting your approval</text><text x="750" y="272" class="num" font-size="24" fill="#C0392B">1</text>
  <rect x="1055" y="208" width="305" height="86" rx="12" fill="#FFFFFF" stroke="#ECEFF4" filter="url(#sh)"/><text x="1075" y="238" class="lbl">PM due soon</text><text x="1075" y="272" class="num" font-size="24" fill="#A8720F">3</text>
  </g>

  <!-- approval banner -->
  <rect x="80" y="312" width="1280" height="118" rx="12" fill="#FBF3FB" stroke="#E7C9E6" stroke-width="1.5" filter="url(#sh)"/>
  <rect x="104" y="336" width="70" height="22" rx="11" fill="#FDECEC"/><text x="139" y="351" class="pill" font-size="10.5" fill="#C0392B" text-anchor="middle">Approval</text>
  <text x="104" y="386" class="h" font-size="16">Unit 88 — estimate EST-771 · $2,480.00</text>
  <text x="104" y="410" class="mut" font-size="12.5">Air-system leak repair + DPF / DEF service · raised from this morning's DVIR · unit is out-of-service</text>
  <rect x="1040" y="346" width="140" height="46" rx="9" fill="#c479c2"/><g style="color:#fff"><use href="#ic-check" x="1064" y="358" width="18" height="18"/></g><text x="1090" y="375" font-size="13.5" font-weight="600" fill="#fff">Approve</text>
  <rect x="1196" y="346" width="68" height="46" rx="9" fill="#FFFFFF" stroke="#DDE3EC"/><g style="color:#5A6A85"><use href="#ic-eye" x="1212" y="362" width="18" height="14"/></g>
  <rect x="1276" y="346" width="60" height="46" rx="9" fill="#FFFFFF" stroke="#E8C9C2"/><g style="color:#C0392B"><use href="#ic-x" x="1296" y="361" width="18" height="18"/></g>
  <text x="1336" y="416" class="mut" font-size="10.5" text-anchor="end">Approving authorizes the work — logged for compliance</text>

  <!-- units table -->
  <rect x="80" y="448" width="1280" height="378" rx="12" fill="#FFFFFF" stroke="#ECEFF4" filter="url(#sh)"/>
  <text x="104" y="480" class="h" font-size="15">Units</text><text x="1336" y="480" class="mut" font-size="11.5" text-anchor="end">Showing 5 of 24</text>
  <g class="lbl" font-size="10"><text x="104" y="510">UNIT</text><text x="320" y="510">TYPE</text><text x="500" y="510">STATUS</text><text x="820" y="510">LOCATION</text><text x="1336" y="510" text-anchor="end">NEXT PM</text></g>
  <line x1="104" y1="520" x2="1336" y2="520" stroke="#ECEFF4"/>
  <g font-size="12.5">
  <g style="color:#c479c2"><use href="#ic-truck" x="104" y="538" width="18" height="18"/></g><text x="132" y="551" class="val">Unit 88</text><text x="320" y="551" class="cell">Tractor · Cascadia</text><rect x="500" y="538" width="120" height="20" rx="10" fill="#FDECEC"/><text x="560" y="552" class="pill" font-size="9.5" fill="#C0392B" text-anchor="middle">In shop · repair</text><text x="820" y="551" class="mut">Mississauga shop</text><text x="1336" y="551" class="pill" font-size="11.5" fill="#C0392B" text-anchor="end">overdue</text>
  <line x1="104" y1="570" x2="1336" y2="570" stroke="#F4F6FA"/>
  <g style="color:#1A5FB4"><use href="#ic-truck" x="104" y="586" width="18" height="18"/></g><text x="132" y="599" class="val">Unit 4471</text><text x="320" y="599" class="cell">Reefer trailer</text><rect x="500" y="586" width="138" height="20" rx="10" fill="#EAF2FE"/><text x="569" y="600" class="pill" font-size="9.5" fill="#1A5FB4" text-anchor="middle">Service en route</text><g style="color:#8A95A5"><use href="#ic-pin" x="818" y="588" width="14" height="14"/></g><text x="838" y="599" class="mut">Hwy 401, Milton</text><text x="1336" y="599" class="cell" text-anchor="end">2,400 km</text>
  <line x1="104" y1="618" x2="1336" y2="618" stroke="#F4F6FA"/>
  <g style="color:#0F9C96"><use href="#ic-truck" x="104" y="634" width="18" height="18"/></g><text x="132" y="647" class="val">Unit 12</text><text x="320" y="647" class="cell">Pickup · F-150</text><rect x="500" y="634" width="84" height="20" rx="10" fill="#E6FBF5"/><text x="542" y="648" class="pill" font-size="9.5" fill="#0F9C96" text-anchor="middle">On road</text><text x="820" y="647" class="mut">In service</text><text x="1336" y="647" class="cell" text-anchor="end">1,200 km</text>
  <line x1="104" y1="666" x2="1336" y2="666" stroke="#F4F6FA"/>
  <g style="color:#0F9C96"><use href="#ic-truck" x="104" y="682" width="18" height="18"/></g><text x="132" y="695" class="val">Unit 7</text><text x="320" y="695" class="cell">Dry van trailer</text><rect x="500" y="682" width="138" height="20" rx="10" fill="#FEF4E6"/><text x="569" y="696" class="pill" font-size="9.5" fill="#A8720F" text-anchor="middle">Ready for pickup</text><text x="820" y="695" class="mut">Mississauga shop</text><text x="1336" y="695" class="pill" font-size="11.5" fill="#0F9C96" text-anchor="end">ok</text>
  <line x1="104" y1="714" x2="1336" y2="714" stroke="#F4F6FA"/>
  <g style="color:#0F9C96"><use href="#ic-truck" x="104" y="730" width="18" height="18"/></g><text x="132" y="743" class="val">Unit 55</text><text x="320" y="743" class="cell">Tractor · T680</text><rect x="500" y="730" width="84" height="20" rx="10" fill="#E6FBF5"/><text x="542" y="744" class="pill" font-size="9.5" fill="#0F9C96" text-anchor="middle">On road</text><text x="820" y="743" class="mut">In service</text><text x="1336" y="743" class="cell" text-anchor="end">8,900 km</text>
  </g>
  <line x1="104" y1="766" x2="1336" y2="766" stroke="#ECEFF4"/>
  <g style="color:#5A6A85"><use href="#ic-doc" x="104" y="784" width="16" height="16"/></g><text x="128" y="797" class="mut" font-size="12">Inspection certificates, invoices &amp; statements available under Documents · self-service, fewer status calls.</text>
</svg>
