<svg viewBox="0 0 1440 820" xmlns="http://www.w3.org/2000/svg" font-family="'Plus Jakarta Sans','Inter','Segoe UI',system-ui,sans-serif" role="img" aria-labelledby="t">
  <title id="t">Squibbon Shop — National-account statement billing</title>
  <defs>
    <filter id="sh" x="-6%" y="-10%" width="112%" height="124%"><feDropShadow dx="0" dy="3" stdDeviation="6" flood-color="#2A3547" flood-opacity="0.07"/></filter>
    <g id="ic-grid" fill="none" stroke="currentColor" stroke-width="1.6"><rect x="3" y="3" width="6" height="6" rx="1.5"/><rect x="11" y="3" width="6" height="6" rx="1.5"/><rect x="3" y="11" width="6" height="6" rx="1.5"/><rect x="11" y="11" width="6" height="6" rx="1.5"/></g>
    <g id="ic-board" fill="none" stroke="currentColor" stroke-width="1.6"><rect x="3" y="3.5" width="4" height="13" rx="1"/><rect x="8" y="3.5" width="4" height="9" rx="1"/><rect x="13" y="3.5" width="4" height="13" rx="1"/></g>
    <g id="ic-clip" fill="none" stroke="currentColor" stroke-width="1.6" stroke-linejoin="round" stroke-linecap="round"><rect x="4.5" y="3.5" width="11" height="13.5" rx="2"/><rect x="7.5" y="2" width="5" height="3" rx="1"/><path d="M7.2 9 h5.6 M7.2 12 h5.6"/></g>
    <g id="ic-user" fill="none" stroke="currentColor" stroke-width="1.6" stroke-linecap="round"><circle cx="10" cy="7" r="3.2"/><path d="M4.5 16.5 a5.5 5.5 0 0 1 11 0"/></g>
    <g id="ic-radio" fill="none" stroke="currentColor" stroke-width="1.6" stroke-linecap="round"><circle cx="10" cy="10" r="2.4"/><path d="M5.5 5.5 a6.4 6.4 0 0 0 0 9 M14.5 5.5 a6.4 6.4 0 0 1 0 9 M3 3 a9.6 9.6 0 0 0 0 14 M17 3 a9.6 9.6 0 0 1 0 14"/></g>
    <g id="ic-truck" fill="none" stroke="currentColor" stroke-width="1.6" stroke-linejoin="round" stroke-linecap="round"><path d="M2.5 6 h8 v7 h-8 z"/><path d="M10.5 8.5 h3.2 l2.4 2.3 v2.2 h-5.6 z"/><circle cx="6" cy="15" r="1.5"/><circle cx="13.7" cy="15" r="1.5"/></g>
    <g id="ic-clipcheck" fill="none" stroke="currentColor" stroke-width="1.6" stroke-linejoin="round" stroke-linecap="round"><rect x="4.5" y="3.5" width="11" height="13.5" rx="2"/><rect x="7.5" y="2" width="5" height="3" rx="1"/><path d="M7.3 10 l1.6 1.6 3-3.2"/></g>
    <g id="ic-doc" fill="none" stroke="currentColor" stroke-width="1.6" stroke-linejoin="round"><path d="M6 2.8 h5 l4 4 v10.4 a1 1 0 0 1-1 1 H6 a1 1 0 0 1-1-1 V3.8 a1 1 0 0 1 1-1z"/><path d="M11 2.8 v4 h4 M7.5 11 h5 M7.5 14 h3"/></g>
    <g id="ic-slider" fill="none" stroke="currentColor" stroke-width="1.6" stroke-linecap="round"><path d="M3 7 h14 M3 13 h14"/><circle cx="8" cy="7" r="1.9" fill="#fff"/><circle cx="13" cy="13" r="1.9" fill="#fff"/></g>
    <g id="ic-search" fill="none" stroke="currentColor" stroke-width="1.7" stroke-linecap="round"><circle cx="9" cy="9" r="5.5"/><path d="M13.2 13.2 L17.2 17.2"/></g>
    <g id="ic-bell" fill="none" stroke="currentColor" stroke-width="1.6" stroke-linejoin="round" stroke-linecap="round"><path d="M10 3 a4.6 4.6 0 0 1 4.6 4.6 c0 4 1.4 5.4 1.4 5.4 h-12 s1.4-1.4 1.4-5.4 a4.6 4.6 0 0 1 4.6-4.6z"/><path d="M8.3 16 a1.8 1.8 0 0 0 3.4 0"/></g>
    <g id="ic-menu" fill="none" stroke="currentColor" stroke-width="1.8" stroke-linecap="round"><path d="M3 6 h16 M3 11 h16 M3 16 h16"/></g>
    <g id="ic-doll" fill="none" stroke="currentColor" stroke-width="1.7" stroke-linecap="round" stroke-linejoin="round"><path d="M10 3 v14 M13 6 a3 3 0 0 0-3-2 c-2 0-3 1-3 2.5 s1.5 2 3 2.3 3 .9 3 2.4 -1.2 2.3-3 2.3 a3.2 3.2 0 0 1-3-2"/></g>
    <g id="ic-sync" fill="none" stroke="currentColor" stroke-width="1.6" stroke-linecap="round" stroke-linejoin="round"><path d="M4 10 a6 6 0 0 1 10-4.5 L16 7 M16 3 v4 h-4"/><path d="M16 10 a6 6 0 0 1-10 4.5 L4 13 M4 17 v-4 h4"/></g>
  </defs>
  <style>
    .navi{fill:#5A6A85;font-weight:500}.col{fill:#8A95A5;font-weight:600;letter-spacing:.4px}
    .h{fill:#2A3547;font-weight:600}.lbl{fill:#8A95A5;font-weight:600}.cell{fill:#2A3547;font-weight:500}.mut{fill:#8A95A5;font-weight:500}.val{fill:#2A3547;font-weight:600}.num{fill:#2A3547;font-weight:700}.pill{font-weight:600}
  </style>
  <rect width="1440" height="820" fill="#F4F6FB"/>
  <rect x="0" y="0" width="256" height="820" fill="#FFFFFF"/><line x1="256" y1="0" x2="256" y2="820" stroke="#ECEFF4"/>
  <rect x="24" y="21" width="30" height="30" rx="8" fill="#c479c2"/><text x="39" y="42" font-size="17" font-weight="700" fill="#FFFFFF" text-anchor="middle">S</text><text x="66" y="42" font-size="19" font-weight="700" fill="#2A3547">Squibbon</text>
  <rect x="170" y="26" width="58" height="18" rx="9" fill="#E6FBFA"/><text x="199" y="39" font-size="10.5" font-weight="700" fill="#0F9C96" text-anchor="middle">SHOP</text>
  <text x="24" y="90" class="col" font-size="11">SHOP</text>
  <g style="color:#5A6A85"><use href="#ic-grid" x="22" y="100" width="18" height="18"/></g><text x="50" y="114" class="navi" font-size="12.5">Dashboard</text>
  <g style="color:#5A6A85"><use href="#ic-board" x="22" y="138" width="18" height="18"/></g><text x="50" y="152" class="navi" font-size="12.5">Workflow</text>
  <g style="color:#5A6A85"><use href="#ic-clip" x="22" y="172" width="18" height="18"/></g><text x="50" y="186" class="navi" font-size="12.5">Work orders</text>
  <g style="color:#5A6A85"><use href="#ic-user" x="22" y="206" width="18" height="18"/></g><text x="50" y="220" class="navi" font-size="12.5">Customers</text>
  <text x="24" y="258" class="col" font-size="11">FLEET</text>
  <g style="color:#5A6A85"><use href="#ic-radio" x="22" y="268" width="18" height="18"/></g><text x="50" y="282" class="navi" font-size="12.5">Dispatch</text>
  <g style="color:#5A6A85"><use href="#ic-truck" x="22" y="310" width="18" height="18"/></g><text x="50" y="324" class="navi" font-size="12.5">Units</text>
  <g style="color:#5A6A85"><use href="#ic-clipcheck" x="22" y="348" width="18" height="18"/></g><text x="50" y="362" class="navi" font-size="12.5">DVIR inbox</text>
  <rect x="12" y="376" width="232" height="28" rx="7" fill="#FFEBFE"/>
  <g style="color:#c479c2"><use href="#ic-doc" x="22" y="381" width="18" height="18"/></g><text x="50" y="395" font-size="12.5" font-weight="600" fill="#c479c2">Statements</text>
  <text x="24" y="432" class="col" font-size="11">SETTINGS</text>
  <g style="color:#5A6A85"><use href="#ic-slider" x="22" y="442" width="18" height="18"/></g><text x="50" y="456" class="navi" font-size="12.5">Shop settings</text>

  <rect x="256" y="0" width="1184" height="72" fill="#FFFFFF"/><line x1="256" y1="72" x2="1440" y2="72" stroke="#ECEFF4"/>
  <g style="color:#5A6A85"><use href="#ic-menu" x="282" y="26" width="20" height="20"/></g>
  <rect x="324" y="18" width="300" height="36" rx="18" fill="#F4F6FB"/><g style="color:#8A95A5"><use href="#ic-search" x="340" y="27" width="18" height="18"/></g><text x="366" y="41" font-size="12.5" fill="#9AA4B2">Search fleet account…</text>
  <rect x="1098" y="17" width="180" height="38" rx="8" fill="#c479c2"/><g style="color:#FFFFFF"><use href="#ic-doc" x="1124" y="28" width="16" height="16"/></g><text x="1150" y="41" font-size="12.5" font-weight="600" fill="#FFFFFF">Generate statement</text>
  <g style="color:#5A6A85"><use href="#ic-bell" x="1300" y="26" width="20" height="20"/></g><circle cx="1317" cy="27" r="4" fill="#FA5A5A"/>
  <text x="1368" y="33" font-size="12.5" font-weight="600" fill="#2A3547" text-anchor="end">D. Cho</text><text x="1368" y="47" font-size="10.5" fill="#8A95A5" text-anchor="end">Accounts</text>
  <circle cx="1392" cy="36" r="16" fill="#FFEBFE"/><text x="1392" y="40" font-size="12" font-weight="700" fill="#c479c2" text-anchor="middle">DC</text>

  <text x="280" y="116" font-size="22" font-weight="700" fill="#2A3547">Statement — Bison Transport</text>
  <text x="280" y="138" font-size="13" fill="#5A6A85">National account · consolidated monthly billing · Net 30</text>

  <!-- account strip -->
  <rect x="280" y="156" width="1136" height="84" rx="12" fill="#FFFFFF" stroke="#ECEFF4" filter="url(#sh)"/>
  <text x="304" y="184" class="lbl" font-size="10">TERMS</text><text x="304" y="208" class="val" font-size="14">Net 30 · 1.5%/mo</text>
  <text x="304" y="228" class="mut" font-size="11">PO required &gt; $1,000</text>
  <text x="500" y="184" class="lbl" font-size="10">CREDIT LIMIT</text><text x="500" y="208" class="val" font-size="14">$50,000</text>
  <rect x="500" y="218" width="180" height="8" rx="4" fill="#EEF1F6"/><rect x="500" y="218" width="66" height="8" rx="4" fill="#16CDC7"/><text x="690" y="226" class="mut" font-size="10">37% used</text>
  <text x="760" y="184" class="lbl" font-size="10">OUTSTANDING BALANCE</text><text x="760" y="212" class="num" font-size="22">$18,420</text>
  <text x="1010" y="184" class="lbl" font-size="10">AR AGING</text>
  <g font-size="10.5"><rect x="1010" y="194" width="92" height="36" rx="7" fill="#E6FBF5"/><text x="1056" y="210" fill="#0F9C96" text-anchor="middle" font-weight="700">Current</text><text x="1056" y="225" fill="#0B7A6E" text-anchor="middle">$3,200</text>
  <rect x="1110" y="194" width="92" height="36" rx="7" fill="#F4F6FB"/><text x="1156" y="210" fill="#5A6A85" text-anchor="middle" font-weight="700">31–60</text><text x="1156" y="225" fill="#5A6A85" text-anchor="middle">$9,800</text>
  <rect x="1210" y="194" width="92" height="36" rx="7" fill="#FEF4E6"/><text x="1256" y="210" fill="#A8720F" text-anchor="middle" font-weight="700">61–90</text><text x="1256" y="225" fill="#A8720F" text-anchor="middle">$4,200</text>
  <rect x="1310" y="194" width="92" height="36" rx="7" fill="#FDECEC"/><text x="1356" y="210" fill="#C0392B" text-anchor="middle" font-weight="700">90+</text><text x="1356" y="225" fill="#C0392B" text-anchor="middle">$1,220</text></g>

  <!-- statement -->
  <rect x="280" y="256" width="760" height="502" rx="12" fill="#FFFFFF" stroke="#ECEFF4" filter="url(#sh)"/>
  <text x="304" y="286" class="h" font-size="15">June 2026 statement</text><text x="1016" y="286" class="mut" font-size="11.5" text-anchor="end">6 work orders · 4 units</text>
  <line x1="304" y1="300" x2="1016" y2="300" stroke="#ECEFF4"/>
  <g class="col" font-size="10"><text x="304" y="322">WORK ORDER</text><text x="470" y="322">UNIT</text><text x="600" y="322">SERVICE</text><text x="860" y="322">PO</text><text x="1016" y="322" text-anchor="end">AMOUNT</text></g>
  <line x1="304" y1="330" x2="1016" y2="330" stroke="#ECEFF4"/>
  <g font-size="12.5">
  <text x="304" y="356" class="val">WO-10288</text><text x="470" y="356" class="cell">Unit 88</text><text x="600" y="356" class="mut">DPF cleaning</text><text x="860" y="356" class="mut">PO-5567</text><text x="1016" y="356" class="cell" text-anchor="end">$1,180.00</text>
  <line x1="304" y1="372" x2="1016" y2="372" stroke="#F4F6FA"/>
  <text x="304" y="398" class="val">WO-9980</text><text x="470" y="398" class="cell">Unit 88</text><text x="600" y="398" class="mut">Roadside — air leak</text><text x="860" y="398" class="mut">PO-5567</text><text x="1016" y="398" class="cell" text-anchor="end">$420.00</text>
  <line x1="304" y1="414" x2="1016" y2="414" stroke="#F4F6FA"/>
  <text x="304" y="440" class="val">WO-10355</text><text x="470" y="440" class="cell">Unit 55</text><text x="600" y="440" class="mut">PM-A service</text><text x="860" y="440" class="mut">PO-5570</text><text x="1016" y="440" class="cell" text-anchor="end">$640.00</text>
  <line x1="304" y1="456" x2="1016" y2="456" stroke="#F4F6FA"/>
  <text x="304" y="482" class="val">WO-10402</text><text x="470" y="482" class="cell">Unit 7</text><text x="600" y="482" class="mut">Lights + brake adjust</text><text x="860" y="482" class="mut">—</text><text x="1016" y="482" class="cell" text-anchor="end">$310.00</text>
  <line x1="304" y1="498" x2="1016" y2="498" stroke="#F4F6FA"/>
  <text x="304" y="524" class="val">WO-10470</text><text x="470" y="524" class="cell">Unit 4471</text><text x="600" y="524" class="mut">Reefer repair</text><text x="860" y="524" class="mut">PO-5575</text><text x="1016" y="524" class="cell" text-anchor="end">$980.00</text>
  <line x1="304" y1="540" x2="1016" y2="540" stroke="#F4F6FA"/>
  <text x="304" y="566" class="val">WO-10120</text><text x="470" y="566" class="cell">Unit 88</text><text x="600" y="566" class="mut">Drive-axle brake reline</text><text x="860" y="566" class="mut">PO-5560</text><text x="1016" y="566" class="cell" text-anchor="end">$2,040.00</text>
  </g>
  <line x1="304" y1="584" x2="1016" y2="584" stroke="#ECEFF4"/>
  <text x="760" y="610" class="mut" font-size="12">Subtotal</text><text x="1016" y="610" class="cell" font-size="12.5" text-anchor="end">$5,570.00</text>
  <text x="760" y="632" class="mut" font-size="12">HST (13%)</text><text x="1016" y="632" class="cell" font-size="12.5" text-anchor="end">$724.10</text>
  <line x1="760" y1="646" x2="1016" y2="646" stroke="#ECEFF4"/>
  <text x="760" y="674" class="h" font-size="15">Statement total</text><text x="1016" y="676" class="num" font-size="19" text-anchor="end">$6,294.10</text>
  <rect x="304" y="700" width="712" height="40" rx="9" fill="#F4F6FB"/><text x="324" y="725" class="mut" font-size="11.5">One statement replaces 6 separate invoices · due 31 Jul 2026 · negotiated fleet rate sheet applied.</text>

  <!-- right rail: PO + export -->
  <rect x="1060" y="256" width="356" height="180" rx="12" fill="#FFFFFF" stroke="#ECEFF4" filter="url(#sh)"/>
  <g style="color:#c479c2"><use href="#ic-doll" x="1080" y="276" width="20" height="20"/></g><text x="1108" y="290" class="h" font-size="14">Credit &amp; PO control</text>
  <g font-size="12.5"><text x="1080" y="320" class="cell">Credit used</text><text x="1396" y="320" class="val" text-anchor="end">$18,420 / $50k</text>
  <line x1="1080" y1="334" x2="1396" y2="334" stroke="#F4F6FA"/>
  <text x="1080" y="358" class="cell">PO required over</text><text x="1396" y="358" class="val" text-anchor="end">$1,000</text>
  <line x1="1080" y1="372" x2="1396" y2="372" stroke="#F4F6FA"/>
  <text x="1080" y="396" class="cell">Units on contract</text><text x="1396" y="396" class="val" text-anchor="end">24</text></g>
  <rect x="1080" y="410" width="316" height="14" rx="7" fill="#FEF4E6"/><text x="1090" y="421" font-size="10" font-weight="600" fill="#A8720F">⚠ WO-10402 missing a PO — flagged before posting</text>

  <rect x="1060" y="452" width="356" height="306" rx="12" fill="#FFFFFF" stroke="#ECEFF4" filter="url(#sh)"/>
  <g style="color:#0F9C96"><use href="#ic-sync" x="1080" y="472" width="20" height="20"/></g><text x="1108" y="486" class="h" font-size="14">Accounting export</text>
  <rect x="1080" y="504" width="316" height="46" rx="9" fill="#E6FBF5" stroke="#BDEBDD"/><circle cx="1102" cy="527" r="11" fill="#2CA01C"/><text x="1102" y="531" font-size="11" font-weight="700" fill="#fff" text-anchor="middle">qb</text><text x="1124" y="523" class="val" font-size="12.5">QuickBooks Online</text><text x="1124" y="539" class="mut" font-size="10.5">synced 6:00 AM · invoices + AR</text><text x="1380" y="531" class="pill" font-size="10.5" fill="#0F9C96" text-anchor="end">On</text>
  <rect x="1080" y="558" width="316" height="40" rx="9" fill="#F4F6FB"/><text x="1100" y="583" class="cell" font-size="12.5">Xero</text><text x="1380" y="583" class="mut" font-size="11" text-anchor="end">Connect</text>
  <rect x="1080" y="606" width="316" height="40" rx="9" fill="#F4F6FB"/><text x="1100" y="631" class="cell" font-size="12.5">Sage 50 (Canada)</text><text x="1380" y="631" class="mut" font-size="11" text-anchor="end">Connect</text>
  <rect x="1080" y="660" width="316" height="42" rx="9" fill="#c479c2"/><text x="1238" y="686" font-size="13" font-weight="600" fill="#fff" text-anchor="middle">Post statement to QuickBooks</text>
  <text x="1080" y="726" class="mut" font-size="10.5">End-of-day deposits reconcile against posted</text><text x="1080" y="742" class="mut" font-size="10.5">invoices &amp; statements automatically.</text>
</svg>
